G04*
G04 #@! TF.GenerationSoftware,Altium Limited,Altium Designer,18.0.11 (651)*
G04*
G04 Layer_Color=32896*
%FSLAX42Y42*%
%MOMM*%
G71*
G01*
G75*
%ADD12C,0.25*%
%ADD13C,0.20*%
%ADD15C,0.05*%
%ADD17C,0.15*%
D12*
X31096Y8909D02*
G03*
X31096Y8909I-629J0D01*
G01*
X26626D02*
G03*
X26626Y8909I-629J0D01*
G01*
X65342Y8957D02*
G03*
X65342Y8957I-822J0D01*
G01*
X61321Y8982D02*
G03*
X61321Y8982I-822J0D01*
G01*
X57341Y8951D02*
G03*
X57341Y8951I-822J0D01*
G01*
X34728Y15401D02*
G03*
X34728Y15401I-1303J0D01*
G01*
X25845Y7671D02*
Y7518D01*
X25768D01*
X25743Y7544D01*
Y7645D01*
X25768Y7671D01*
X25845D01*
X25667Y7620D02*
X25616D01*
X25591Y7595D01*
Y7518D01*
X25667D01*
X25692Y7544D01*
X25667Y7569D01*
X25591D01*
X25540Y7518D02*
X25464D01*
X25438Y7544D01*
X25464Y7569D01*
X25514D01*
X25540Y7595D01*
X25514Y7620D01*
X25438D01*
X25387Y7671D02*
Y7518D01*
Y7595D01*
X25362Y7620D01*
X25311D01*
X25286Y7595D01*
Y7518D01*
X25235Y7671D02*
Y7518D01*
X25159D01*
X25134Y7544D01*
Y7569D01*
Y7595D01*
X25159Y7620D01*
X25235D01*
X25057Y7518D02*
X25007D01*
X24981Y7544D01*
Y7595D01*
X25007Y7620D01*
X25057D01*
X25083Y7595D01*
Y7544D01*
X25057Y7518D01*
X24905Y7620D02*
X24854D01*
X24829Y7595D01*
Y7518D01*
X24905D01*
X24930Y7544D01*
X24905Y7569D01*
X24829D01*
X24778Y7620D02*
Y7518D01*
Y7569D01*
X24753Y7595D01*
X24727Y7620D01*
X24702D01*
X24524Y7671D02*
Y7518D01*
X24600D01*
X24626Y7544D01*
Y7595D01*
X24600Y7620D01*
X24524D01*
X46139Y9728D02*
X46165Y9754D01*
X46215D01*
X46241Y9728D01*
Y9703D01*
X46215Y9677D01*
X46165D01*
X46139Y9652D01*
Y9627D01*
X46165Y9601D01*
X46215D01*
X46241Y9627D01*
X46063Y9728D02*
Y9703D01*
X46088D01*
X46038D01*
X46063D01*
Y9627D01*
X46038Y9601D01*
X45885D02*
X45936D01*
X45961Y9627D01*
Y9677D01*
X45936Y9703D01*
X45885D01*
X45860Y9677D01*
Y9652D01*
X45961D01*
X45784Y9601D02*
Y9728D01*
Y9677D01*
X45809D01*
X45758D01*
X45784D01*
Y9728D01*
X45758Y9754D01*
X45682D02*
X45581D01*
X45631D01*
Y9601D01*
X45530D02*
X45454D01*
X45428Y9627D01*
X45454Y9652D01*
X45504D01*
X45530Y9677D01*
X45504Y9703D01*
X45428D01*
X45352Y9601D02*
X45301D01*
X45276Y9627D01*
Y9677D01*
X45301Y9703D01*
X45352D01*
X45377Y9677D01*
Y9627D01*
X45352Y9601D01*
X45225Y9703D02*
Y9627D01*
X45200Y9601D01*
X45123D01*
Y9703D01*
X45073Y9601D02*
Y9754D01*
Y9652D02*
X44997Y9703D01*
X45073Y9652D02*
X44997Y9601D01*
X65330Y10021D02*
Y9869D01*
X65254D01*
X65228Y9894D01*
Y9919D01*
X65254Y9945D01*
X65330D01*
X65254D01*
X65228Y9970D01*
Y9996D01*
X65254Y10021D01*
X65330D01*
X65178Y9996D02*
X65152Y10021D01*
X65101D01*
X65076Y9996D01*
Y9970D01*
X65101Y9945D01*
X65127D01*
X65101D01*
X65076Y9919D01*
Y9894D01*
X65101Y9869D01*
X65152D01*
X65178Y9894D01*
X61308Y10044D02*
Y9892D01*
X61232D01*
X61207Y9917D01*
Y9943D01*
X61232Y9968D01*
X61308D01*
X61232D01*
X61207Y9994D01*
Y10019D01*
X61232Y10044D01*
X61308D01*
X61054Y9892D02*
X61156D01*
X61054Y9994D01*
Y10019D01*
X61080Y10044D01*
X61131D01*
X61156Y10019D01*
X57329Y10015D02*
Y9863D01*
X57253D01*
X57227Y9888D01*
Y9914D01*
X57253Y9939D01*
X57329D01*
X57253D01*
X57227Y9965D01*
Y9990D01*
X57253Y10015D01*
X57329D01*
X57177Y9863D02*
X57126D01*
X57151D01*
Y10015D01*
X57177Y9990D01*
X34615Y16919D02*
X34641Y16944D01*
X34691D01*
X34717Y16919D01*
Y16894D01*
X34691Y16868D01*
X34641D01*
X34615Y16843D01*
Y16817D01*
X34641Y16792D01*
X34691D01*
X34717Y16817D01*
X34564Y16944D02*
Y16792D01*
Y16868D01*
X34539Y16894D01*
X34488D01*
X34463Y16868D01*
Y16792D01*
X34412Y16894D02*
Y16817D01*
X34387Y16792D01*
X34310D01*
Y16894D01*
X34234Y16919D02*
Y16894D01*
X34260D01*
X34209D01*
X34234D01*
Y16817D01*
X34209Y16792D01*
X34031Y16944D02*
Y16792D01*
X34107D01*
X34133Y16817D01*
Y16868D01*
X34107Y16894D01*
X34031D01*
X33955Y16792D02*
X33904D01*
X33879Y16817D01*
Y16868D01*
X33904Y16894D01*
X33955D01*
X33980Y16868D01*
Y16817D01*
X33955Y16792D01*
X33828Y16894D02*
Y16817D01*
X33803Y16792D01*
X33777Y16817D01*
X33752Y16792D01*
X33726Y16817D01*
Y16894D01*
X33676Y16792D02*
Y16894D01*
X33599D01*
X33574Y16868D01*
Y16792D01*
X33523Y16944D02*
Y16792D01*
X33447D01*
X33422Y16817D01*
Y16843D01*
X33447Y16868D01*
X33523D01*
X33447D01*
X33422Y16894D01*
Y16919D01*
X33447Y16944D01*
X33523D01*
X33371Y16894D02*
Y16817D01*
X33346Y16792D01*
X33269D01*
Y16894D01*
X33193Y16919D02*
Y16894D01*
X33219D01*
X33168D01*
X33193D01*
Y16817D01*
X33168Y16792D01*
X33066Y16919D02*
Y16894D01*
X33092D01*
X33041D01*
X33066D01*
Y16817D01*
X33041Y16792D01*
X32939D02*
X32889D01*
X32863Y16817D01*
Y16868D01*
X32889Y16894D01*
X32939D01*
X32965Y16868D01*
Y16817D01*
X32939Y16792D01*
X32812D02*
Y16894D01*
X32736D01*
X32711Y16868D01*
Y16792D01*
D13*
X34944Y9857D02*
X34984D01*
X34944Y9942D02*
X34984D01*
X47798Y18395D02*
Y18435D01*
X47883Y18395D02*
Y18435D01*
X44793Y18395D02*
Y18435D01*
X44878Y18395D02*
Y18435D01*
X46296Y18395D02*
Y18435D01*
X46381Y18395D02*
Y18435D01*
X35426Y9942D02*
X35466D01*
X35426Y9857D02*
X35466D01*
X34463Y9942D02*
X34503D01*
X34463Y9857D02*
X34503D01*
X33982Y9942D02*
X34022D01*
X33982Y9857D02*
X34022D01*
D15*
X28838Y11578D02*
X28858D01*
X28832Y11573D02*
X28863D01*
X28822Y11568D02*
X28868D01*
X28817Y11563D02*
X28878D01*
X28807Y11558D02*
X28883D01*
X28797Y11553D02*
X28893D01*
X28848Y11548D02*
X28904D01*
X28787D02*
X28843D01*
X28858Y11543D02*
X28909D01*
X28782D02*
X28838D01*
X28777Y11538D02*
X28827D01*
X28766Y11533D02*
X28817D01*
X28756Y11527D02*
X28812D01*
X28746Y11522D02*
X28807D01*
X28924Y11502D02*
X28970D01*
X28934Y11497D02*
X28970D01*
X28939Y11492D02*
X28970D01*
X28939Y11487D02*
X28970D01*
X28939Y11482D02*
X28970D01*
X28939Y11477D02*
X28970D01*
X28939Y11472D02*
X28970D01*
X28939Y11467D02*
X28970D01*
X28939Y11461D02*
X28970D01*
X28939Y11456D02*
X28970D01*
X28939Y11451D02*
X28970D01*
X28939Y11446D02*
X28970D01*
X28939Y11441D02*
X28970D01*
X28939Y11436D02*
X28970D01*
X28939Y11431D02*
X28970D01*
X28939Y11426D02*
X28970D01*
X28939Y11421D02*
X28970D01*
X28939Y11416D02*
X28970D01*
X28939Y11411D02*
X28970D01*
X28939Y11406D02*
X28970D01*
X28939Y11400D02*
X28970D01*
X28939Y11395D02*
X28970D01*
X28939Y11390D02*
X28970D01*
X28939Y11385D02*
X28970D01*
X28939Y11380D02*
X28970D01*
X28939Y11375D02*
X28970D01*
X28939Y11370D02*
X28970D01*
X28939Y11365D02*
X28970D01*
X28944Y11360D02*
X28964D01*
X28731Y11512D02*
X28787D01*
X28726Y11507D02*
X28777D01*
X28726Y11502D02*
X28771D01*
X28726Y11497D02*
X28761D01*
X28726Y11492D02*
X28756D01*
X28726Y11487D02*
X28751D01*
X28726Y11482D02*
X28751D01*
X28726Y11477D02*
X28751D01*
X28726Y11472D02*
X28751D01*
X28726Y11467D02*
X28751D01*
X28726Y11461D02*
X28751D01*
X28726Y11456D02*
X28751D01*
X28726Y11451D02*
X28751D01*
X28726Y11446D02*
X28751D01*
X28726Y11441D02*
X28751D01*
X28726Y11436D02*
X28751D01*
X28726Y11431D02*
X28751D01*
X28726Y11426D02*
X28751D01*
X28726Y11421D02*
X28751D01*
X28726Y11416D02*
X28751D01*
X28726Y11411D02*
X28751D01*
X28726Y11406D02*
X28751D01*
X28726Y11400D02*
X28751D01*
X28726Y11395D02*
X28751D01*
X28726Y11390D02*
X28751D01*
X28726Y11385D02*
X28751D01*
X28726Y11380D02*
X28751D01*
X28726Y11375D02*
X28751D01*
X28726Y11370D02*
X28751D01*
X28726Y11365D02*
X28751D01*
X28726Y11360D02*
X28751D01*
X28838Y11340D02*
X28858D01*
X28827Y11334D02*
X28863D01*
X28822Y11329D02*
X28873D01*
X28812Y11324D02*
X28878D01*
X28802Y11319D02*
X28888D01*
X29122Y11248D02*
X29178D01*
X29132Y11243D02*
X29188D01*
X29137Y11238D02*
X29193D01*
X29147Y11233D02*
X29203D01*
X29152Y11228D02*
X29213D01*
X29168Y11223D02*
X29224D01*
X29173Y11218D02*
X29229D01*
X29183Y11213D02*
X29239D01*
X29193Y11207D02*
X29244D01*
X29203Y11202D02*
X29254D01*
X29208Y11197D02*
X29264D01*
X29218Y11192D02*
X29274D01*
X29224Y11187D02*
X29279D01*
X29234Y11182D02*
X29295D01*
X29244Y11177D02*
X29300D01*
X29254Y11172D02*
X29310D01*
X29259Y11167D02*
X29315D01*
X28787Y11309D02*
X28909D01*
X28558Y11279D02*
X28578D01*
X28553Y11273D02*
X28583D01*
X28543Y11268D02*
X28583D01*
X28533Y11263D02*
X28583D01*
X28523Y11258D02*
X28578D01*
X28517Y11253D02*
X28573D01*
X28446Y11213D02*
X28502D01*
X28436Y11207D02*
X28492D01*
X28431Y11202D02*
X28482D01*
X28421Y11197D02*
X28477D01*
X28411Y11192D02*
X28467D01*
X28401Y11187D02*
X28457D01*
X28390Y11182D02*
X28446D01*
X28380Y11177D02*
X28441D01*
X28375Y11172D02*
X28431D01*
X28370Y11167D02*
X28421D01*
X28365Y11162D02*
X28416D01*
X28365Y11157D02*
X28406D01*
X28365Y11152D02*
X28401D01*
X28365Y11146D02*
X28390D01*
X28365Y11141D02*
X28390D01*
X28365Y11136D02*
X28390D01*
X28365Y11131D02*
X28390D01*
X28365Y11126D02*
X28390D01*
X28365Y11121D02*
X28390D01*
X28365Y11116D02*
X28390D01*
X28893Y11014D02*
X28904D01*
X28802D02*
X28812D01*
X28893Y11009D02*
X28909D01*
X28802D02*
X28812D01*
X28893Y11004D02*
X28909D01*
X28802D02*
X28812D01*
X28893Y10999D02*
X28904D01*
X28802D02*
X28812D01*
X28893Y10994D02*
X28904D01*
X28802D02*
X28812D01*
X28893Y10989D02*
X28904D01*
X28802D02*
X28812D01*
X28893Y10984D02*
X28904D01*
X28802D02*
X28812D01*
X28893Y10979D02*
X28904D01*
X28802D02*
X28812D01*
X28893Y10974D02*
X28904D01*
X28802D02*
X28812D01*
X28893Y10969D02*
X28904D01*
X28802D02*
X28812D01*
X28893Y10964D02*
X28904D01*
X28802D02*
X28812D01*
X28365Y11106D02*
X28390D01*
X28365Y11101D02*
X28390D01*
X28365Y11096D02*
X28390D01*
X28365Y11091D02*
X28390D01*
X28365Y11086D02*
X28390D01*
X28365Y11080D02*
X28390D01*
X28365Y11075D02*
X28390D01*
X28365Y11070D02*
X28390D01*
X28365Y11065D02*
X28390D01*
X28365Y11060D02*
X28390D01*
X28365Y11055D02*
X28390D01*
X28365Y11050D02*
X28390D01*
X28365Y11045D02*
X28390D01*
X28365Y11040D02*
X28390D01*
X28365Y11035D02*
X28390D01*
X28365Y11030D02*
X28390D01*
X28365Y11025D02*
X28390D01*
X28365Y11019D02*
X28390D01*
X28365Y11014D02*
X28390D01*
X28365Y11009D02*
X28390D01*
X28365Y11004D02*
X28390D01*
X28365Y10999D02*
X28390D01*
X28365Y10994D02*
X28390D01*
X28365Y10989D02*
X28390D01*
X28365Y10984D02*
X28390D01*
X28365Y10979D02*
X28390D01*
X28365Y10974D02*
X28390D01*
X28365Y10969D02*
X28390D01*
X28365Y10964D02*
X28390D01*
X28365Y10959D02*
X28390D01*
X28365Y10953D02*
X28390D01*
X28365Y10948D02*
X28390D01*
X28365Y10943D02*
X28390D01*
X28365Y10938D02*
X28390D01*
X28365Y10933D02*
X28390D01*
X28365Y10928D02*
X28390D01*
X28365Y10923D02*
X28390D01*
X28365Y10918D02*
X28390D01*
X28365Y10913D02*
X28390D01*
X28797Y10791D02*
X28904D01*
X28807Y10786D02*
X28898D01*
X28812Y10781D02*
X28888D01*
X28822Y10776D02*
X28883D01*
X28832Y10771D02*
X28873D01*
X28838Y10765D02*
X28863D01*
X28843Y10760D02*
X28858D01*
X28365Y10903D02*
X28390D01*
X28365Y10898D02*
X28390D01*
X28365Y10892D02*
X28390D01*
X28365Y10887D02*
X28390D01*
X28365Y10882D02*
X28390D01*
X28457Y10847D02*
X28487D01*
X28568Y10506D02*
X28589D01*
X29015Y10461D02*
X29031D01*
X29010Y10456D02*
X29031D01*
X29010Y10451D02*
X29036D01*
X29010Y10445D02*
X29041D01*
X29010Y10440D02*
X29046D01*
X29015Y10435D02*
X29046D01*
X29015Y10430D02*
X29051D01*
X29020Y10425D02*
X29056D01*
X29025Y10420D02*
X29061D01*
X29025Y10415D02*
X29061D01*
X29031Y10410D02*
X29066D01*
X29036Y10405D02*
X29071D01*
X29041Y10400D02*
X29076D01*
X29046Y10395D02*
X29076D01*
X29046Y10390D02*
X29081D01*
X29051Y10384D02*
X29086D01*
X29056Y10379D02*
X29092D01*
X29102Y10318D02*
X29112D01*
X28782Y10471D02*
X28909D01*
X28797Y10466D02*
X28898D01*
X28802Y10461D02*
X28893D01*
X28812Y10456D02*
X28883D01*
X28817Y10451D02*
X28873D01*
X28827Y10445D02*
X28868D01*
X28838Y10440D02*
X28858D01*
X28568Y10496D02*
X28594D01*
X28568Y10491D02*
X28594D01*
X28568Y10486D02*
X28594D01*
X28568Y10481D02*
X28594D01*
X28568Y10476D02*
X28594D01*
X28568Y10471D02*
X28594D01*
X28568Y10466D02*
X28594D01*
X28568Y10461D02*
X28594D01*
X28655Y10456D02*
X28680D01*
X28568D02*
X28594D01*
X28655Y10451D02*
X28680D01*
X28568D02*
X28594D01*
X28650Y10445D02*
X28680D01*
X28568D02*
X28594D01*
X28644Y10440D02*
X28680D01*
X28568D02*
X28594D01*
X28644Y10435D02*
X28680D01*
X28568D02*
X28594D01*
X28639Y10430D02*
X28675D01*
X28568D02*
X28594D01*
X28634Y10425D02*
X28670D01*
X28568D02*
X28594D01*
X28629Y10420D02*
X28665D01*
X28568D02*
X28594D01*
X28629Y10415D02*
X28665D01*
X28568D02*
X28594D01*
X28624Y10410D02*
X28660D01*
X28568D02*
X28594D01*
X28619Y10405D02*
X28655D01*
X28568D02*
X28594D01*
X28614Y10400D02*
X28650D01*
X28568D02*
X28594D01*
X28614Y10395D02*
X28650D01*
X28568D02*
X28594D01*
X28609Y10390D02*
X28644D01*
X28568D02*
X28594D01*
X28604Y10384D02*
X28639D01*
X28568D02*
X28594D01*
X28599Y10379D02*
X28634D01*
X28568D02*
X28594D01*
X28599Y10374D02*
X28629D01*
X28568D02*
X28594D01*
X28568Y10369D02*
X28629D01*
X28568Y10364D02*
X28624D01*
X28568Y10359D02*
X28619D01*
X28568Y10354D02*
X28619D01*
X28568Y10349D02*
X28614D01*
X28568Y10344D02*
X28609D01*
X28568Y10339D02*
X28604D01*
X28568Y10334D02*
X28604D01*
X28568Y10329D02*
X28599D01*
X28568Y10324D02*
X28594D01*
X28568Y10318D02*
X28589D01*
X29147Y10212D02*
X29158D01*
X29142Y10207D02*
X29163D01*
X29137Y10202D02*
X29163D01*
X29158Y10197D02*
X29168D01*
X29137D02*
X29147D01*
X29158Y10191D02*
X29168D01*
X29132D02*
X29147D01*
X29163Y10186D02*
X29173D01*
X29132D02*
X29142D01*
X29163Y10181D02*
X29173D01*
X29127D02*
X29142D01*
X29127Y10176D02*
X29178D01*
X29122Y10171D02*
X29178D01*
X29168Y10166D02*
X29183D01*
X29122D02*
X29132D01*
X29173Y10161D02*
X29183D01*
X29178Y10156D02*
X29183D01*
X29046Y10212D02*
X29097D01*
X29010D02*
X29015D01*
X28929D02*
X28975D01*
X29041Y10207D02*
X29102D01*
X29005D02*
X29020D01*
X28924D02*
X28980D01*
X29086Y10202D02*
X29102D01*
X29041D02*
X29056D01*
X29005D02*
X29020D01*
X28970D02*
X28980D01*
X28924D02*
X28934D01*
X29086Y10197D02*
X29102D01*
X29041D02*
X29051D01*
X29005D02*
X29020D01*
X28970D02*
X28980D01*
X28924D02*
X28929D01*
X29086Y10191D02*
X29102D01*
X29041D02*
X29051D01*
X29005D02*
X29020D01*
X28970D02*
X28980D01*
X29086Y10186D02*
X29102D01*
X29076D02*
X29081D01*
X29041D02*
X29056D01*
X29005D02*
X29020D01*
X28924D02*
X28980D01*
X29041Y10181D02*
X29097D01*
X29005D02*
X29020D01*
X28924D02*
X28975D01*
X29081Y10176D02*
X29097D01*
X29056D02*
X29076D01*
X29005D02*
X29020D01*
X28924D02*
X28934D01*
X29086Y10171D02*
X29102D01*
X29056D02*
X29066D01*
X29005D02*
X29020D01*
X28970D02*
X28980D01*
X28919D02*
X28934D01*
X29086Y10166D02*
X29102D01*
X29046D02*
X29061D01*
X29005D02*
X29020D01*
X28970D02*
X28985D01*
X28924D02*
X28934D01*
X29086Y10161D02*
X29102D01*
X29041D02*
X29056D01*
X29005D02*
X29020D01*
X28924D02*
X28980D01*
X29092Y10156D02*
X29097D01*
X29041D02*
X29051D01*
X29010D02*
X29015D01*
X28929D02*
X28975D01*
X28848Y10212D02*
X28909D01*
X28827D02*
X28832D01*
X28777D02*
X28782D01*
X28848Y10207D02*
X28909D01*
X28822D02*
X28838D01*
X28777D02*
X28787D01*
X28873Y10202D02*
X28888D01*
X28822D02*
X28838D01*
X28777D02*
X28787D01*
X28736D02*
X28746D01*
X28873Y10197D02*
X28883D01*
X28822D02*
X28838D01*
X28777D02*
X28787D01*
X28736D02*
X28746D01*
X28873Y10191D02*
X28883D01*
X28822D02*
X28832D01*
X28777D02*
X28787D01*
X28736D02*
X28746D01*
X28873Y10186D02*
X28883D01*
X28822D02*
X28838D01*
X28777D02*
X28787D01*
X28736D02*
X28746D01*
X28873Y10181D02*
X28883D01*
X28822D02*
X28832D01*
X28777D02*
X28787D01*
X28873Y10176D02*
X28883D01*
X28822D02*
X28832D01*
X28777D02*
X28787D01*
X28731D02*
X28746D01*
X28873Y10171D02*
X28883D01*
X28822D02*
X28838D01*
X28777D02*
X28787D01*
X28736D02*
X28746D01*
X28873Y10166D02*
X28883D01*
X28822D02*
X28832D01*
X28777D02*
X28787D01*
X28736D02*
X28746D01*
X28873Y10161D02*
X28883D01*
X28777D02*
X28832D01*
X28736D02*
X28751D01*
X28873Y10156D02*
X28883D01*
X28777D02*
X28827D01*
X28736D02*
X28746D01*
X28619Y10212D02*
X28680D01*
X28594D02*
X28604D01*
X28619Y10207D02*
X28680D01*
X28594D02*
X28604D01*
X28690Y10202D02*
X28700D01*
X28644D02*
X28655D01*
X28619D02*
X28629D01*
X28594D02*
X28604D01*
X28523D02*
X28533D01*
X28690Y10197D02*
X28700D01*
X28644D02*
X28655D01*
X28594D02*
X28604D01*
X28523D02*
X28533D01*
X28690Y10191D02*
X28700D01*
X28644D02*
X28655D01*
X28594D02*
X28604D01*
X28523D02*
X28533D01*
X28690Y10186D02*
X28705D01*
X28644D02*
X28655D01*
X28594D02*
X28604D01*
X28644Y10181D02*
X28655D01*
X28594D02*
X28604D01*
X28644Y10176D02*
X28655D01*
X28594D02*
X28604D01*
X28523D02*
X28533D01*
X28644Y10171D02*
X28655D01*
X28594D02*
X28604D01*
X28523D02*
X28538D01*
X28644Y10166D02*
X28655D01*
X28594D02*
X28604D01*
X28523D02*
X28533D01*
X28690Y10161D02*
X28705D01*
X28644D02*
X28655D01*
X28553D02*
X28604D01*
X28690Y10156D02*
X28700D01*
X28644D02*
X28650D01*
X28553D02*
X28604D01*
X28863Y11538D02*
X28919D01*
X28873Y11533D02*
X28929D01*
X28883Y11527D02*
X28934D01*
X28888Y11522D02*
X28944D01*
X28909Y11512D02*
X28964D01*
X28914Y11507D02*
X28970D01*
X29269Y11162D02*
X29320D01*
X29274Y11157D02*
X29320D01*
X29285Y11152D02*
X29320D01*
X29295Y11146D02*
X29320D01*
X29300Y11141D02*
X29320D01*
X29295Y11136D02*
X29320D01*
X29300Y11131D02*
X29320D01*
X29300Y11126D02*
X29320D01*
X29295Y11121D02*
X29320D01*
X29295Y11116D02*
X29320D01*
X28777Y11304D02*
X28919D01*
X28766Y11299D02*
X28929D01*
X28761Y11294D02*
X28934D01*
X28751Y11289D02*
X28944D01*
X29102Y11284D02*
X29117D01*
X28741D02*
X28954D01*
X29097Y11279D02*
X29122D01*
X28736D02*
X28959D01*
X29097Y11273D02*
X29132D01*
X28726D02*
X28970D01*
X29097Y11268D02*
X29142D01*
X28716D02*
X28980D01*
X29097Y11263D02*
X29152D01*
X28705D02*
X28985D01*
X29102Y11258D02*
X29158D01*
X28700D02*
X28995D01*
X29112Y11253D02*
X29173D01*
X28690D02*
X29005D01*
X28680Y11248D02*
X29015D01*
X28507D02*
X28563D01*
X28675Y11243D02*
X29020D01*
X28497D02*
X28553D01*
X28665Y11238D02*
X29031D01*
X28487D02*
X28543D01*
X28655Y11233D02*
X29041D01*
X28482D02*
X28538D01*
X28644Y11228D02*
X29051D01*
X28472D02*
X28528D01*
X28634Y11223D02*
X29056D01*
X28462D02*
X28517D01*
X28629Y11218D02*
X29066D01*
X28451D02*
X28507D01*
X28619Y11213D02*
X29076D01*
X28614Y11207D02*
X29081D01*
X28604Y11202D02*
X29092D01*
X28594Y11197D02*
X29102D01*
X28583Y11192D02*
X29112D01*
X28573Y11187D02*
X29117D01*
X28568Y11182D02*
X29127D01*
X28558Y11177D02*
X29137D01*
X28553Y11172D02*
X29147D01*
X28543Y11167D02*
X29152D01*
X28848Y11162D02*
X29163D01*
X28533D02*
X28838D01*
X28898Y11157D02*
X29173D01*
X28523D02*
X28792D01*
X28924Y11152D02*
X29183D01*
X28512D02*
X28771D01*
X28939Y11146D02*
X29188D01*
X28507D02*
X28756D01*
X28949Y11141D02*
X29198D01*
X28497D02*
X28746D01*
X28959Y11136D02*
X29208D01*
X28487D02*
X28731D01*
X28482Y11131D02*
X28726D01*
X28472Y11126D02*
X28716D01*
X28462Y11121D02*
X28705D01*
X28457Y11116D02*
X28695D01*
X29295Y11106D02*
X29320D01*
X29295Y11101D02*
X29320D01*
X29295Y11096D02*
X29320D01*
X29295Y11091D02*
X29320D01*
X29295Y11086D02*
X29320D01*
X29295Y11080D02*
X29320D01*
X29295Y11075D02*
X29320D01*
X29295Y11070D02*
X29320D01*
X29295Y11065D02*
X29320D01*
X29295Y11060D02*
X29320D01*
X29295Y11055D02*
X29320D01*
X29295Y11050D02*
X29320D01*
X29295Y11045D02*
X29320D01*
X29295Y11040D02*
X29320D01*
X29295Y11035D02*
X29320D01*
X29295Y11030D02*
X29320D01*
X29295Y11025D02*
X29320D01*
X29295Y11019D02*
X29320D01*
X29295Y11014D02*
X29320D01*
X29295Y11009D02*
X29320D01*
X29295Y11004D02*
X29320D01*
X29300Y10999D02*
X29320D01*
X29300Y10994D02*
X29320D01*
X29300Y10989D02*
X29320D01*
X29300Y10984D02*
X29320D01*
X29300Y10979D02*
X29320D01*
X29300Y10974D02*
X29320D01*
X29300Y10969D02*
X29320D01*
X29300Y10964D02*
X29320D01*
X29295Y10959D02*
X29320D01*
X29295Y10953D02*
X29320D01*
X29295Y10948D02*
X29320D01*
X29295Y10943D02*
X29320D01*
X29295Y10938D02*
X29320D01*
X29295Y10933D02*
X29320D01*
X29295Y10928D02*
X29320D01*
X29295Y10923D02*
X29320D01*
X29295Y10918D02*
X29320D01*
X29295Y10913D02*
X29320D01*
X28457Y11106D02*
X28685D01*
X28457Y11101D02*
X28675D01*
X28457Y11096D02*
X28670D01*
X28451Y11091D02*
X28665D01*
X28451Y11086D02*
X28660D01*
X28457Y11080D02*
X28655D01*
X28457Y11075D02*
X28650D01*
X28457Y11070D02*
X28644D01*
X28457Y11065D02*
X28639D01*
X28457Y11060D02*
X28634D01*
X28457Y11055D02*
X28634D01*
X28457Y11050D02*
X28629D01*
X28457Y11045D02*
X28624D01*
X28457Y11040D02*
X28619D01*
X28457Y11035D02*
X28619D01*
X28457Y11030D02*
X28614D01*
X28457Y11025D02*
X28614D01*
X28457Y11019D02*
X28609D01*
X28457Y11014D02*
X28609D01*
X28457Y11009D02*
X28604D01*
X28457Y11004D02*
X28599D01*
X28457Y10999D02*
X28599D01*
X28457Y10994D02*
X28599D01*
X28457Y10989D02*
X28594D01*
X28457Y10984D02*
X28594D01*
X28457Y10979D02*
X28594D01*
X28457Y10974D02*
X28589D01*
X28457Y10969D02*
X28589D01*
X28457Y10964D02*
X28589D01*
X28741Y10959D02*
X28959D01*
X28457D02*
X28583D01*
X28741Y10953D02*
X28959D01*
X28457D02*
X28583D01*
X28741Y10948D02*
X28959D01*
X28457D02*
X28583D01*
X28741Y10943D02*
X28959D01*
X28457D02*
X28583D01*
X28741Y10938D02*
X28959D01*
X28457D02*
X28578D01*
X28741Y10933D02*
X28959D01*
X28457D02*
X28578D01*
X28741Y10928D02*
X28959D01*
X28457D02*
X28578D01*
X28741Y10923D02*
X28959D01*
X28457D02*
X28578D01*
X28741Y10918D02*
X28959D01*
X28457D02*
X28578D01*
X28741Y10913D02*
X28959D01*
X28457D02*
X28578D01*
X29295Y10903D02*
X29320D01*
X29300Y10898D02*
X29320D01*
X29295Y10892D02*
X29320D01*
X29295Y10887D02*
X29320D01*
X29300Y10882D02*
X29320D01*
X28741Y10903D02*
X28959D01*
X28457D02*
X28578D01*
X28741Y10898D02*
X28959D01*
X28457D02*
X28578D01*
X28741Y10892D02*
X28959D01*
X28457D02*
X28578D01*
X28741Y10887D02*
X28959D01*
X28457D02*
X28578D01*
X28741Y10882D02*
X28959D01*
X28457D02*
X28578D01*
X28741Y10877D02*
X28959D01*
X28457D02*
X28578D01*
X28741Y10872D02*
X28959D01*
X28457D02*
X28578D01*
X28741Y10867D02*
X28959D01*
X28457D02*
X28578D01*
X28741Y10862D02*
X28959D01*
X28457D02*
X28578D01*
X28741Y10857D02*
X28959D01*
X28457D02*
X28578D01*
X28741Y10852D02*
X28959D01*
X28457D02*
X28578D01*
X28741Y10847D02*
X28959D01*
X28492D02*
X28578D01*
X28741Y10842D02*
X28959D01*
X28457D02*
X28578D01*
X28741Y10837D02*
X28959D01*
X28457D02*
X28578D01*
X28741Y10832D02*
X28959D01*
X28457D02*
X28583D01*
X28741Y10826D02*
X28959D01*
X28457D02*
X28583D01*
X28746Y10821D02*
X28954D01*
X28457D02*
X28583D01*
X28756Y10816D02*
X28944D01*
X28457D02*
X28583D01*
X28761Y10811D02*
X28939D01*
X28457D02*
X28589D01*
X28771Y10806D02*
X28929D01*
X28457D02*
X28589D01*
X28782Y10801D02*
X28919D01*
X28457D02*
X28589D01*
X28787Y10796D02*
X28914D01*
X28457D02*
X28594D01*
X28457Y10791D02*
X28594D01*
X28457Y10786D02*
X28599D01*
X28457Y10781D02*
X28599D01*
X28457Y10776D02*
X28599D01*
X28457Y10771D02*
X28604D01*
X28457Y10765D02*
X28609D01*
X28457Y10760D02*
X28609D01*
X28457Y10755D02*
X28614D01*
X28457Y10750D02*
X28614D01*
X28457Y10745D02*
X28619D01*
X28457Y10740D02*
X28619D01*
X28457Y10735D02*
X28624D01*
X28457Y10730D02*
X28629D01*
X28457Y10725D02*
X28634D01*
X28457Y10720D02*
X28634D01*
X28457Y10715D02*
X28639D01*
X28457Y10710D02*
X28644D01*
X28457Y10699D02*
X28655D01*
X28457Y10694D02*
X28660D01*
X28457Y10689D02*
X28665D01*
X28457Y10684D02*
X28670D01*
X28457Y10679D02*
X28675D01*
X28451Y10674D02*
X28685D01*
X28451Y10669D02*
X28690D01*
X28451Y10664D02*
X28695D01*
X28457Y10659D02*
X28705D01*
X28467Y10654D02*
X28716D01*
X28477Y10649D02*
X28726D01*
X28964Y10644D02*
X29213D01*
X28482D02*
X28731D01*
X28949Y10638D02*
X29198D01*
X28492D02*
X28746D01*
X28939Y10633D02*
X29193D01*
X28502D02*
X28756D01*
X28919Y10628D02*
X29183D01*
X28512D02*
X28771D01*
X28898Y10623D02*
X29173D01*
X28517D02*
X28792D01*
X28863Y10618D02*
X29163D01*
X28528D02*
X28838D01*
X28538Y10613D02*
X29158D01*
X28548Y10608D02*
X29147D01*
X28553Y10603D02*
X29137D01*
X28563Y10598D02*
X29132D01*
X28573Y10593D02*
X29122D01*
X28583Y10588D02*
X29112D01*
X28589Y10583D02*
X29102D01*
X28599Y10578D02*
X29097D01*
X28609Y10572D02*
X29086D01*
X28619Y10567D02*
X29076D01*
X28624Y10562D02*
X29071D01*
X28634Y10557D02*
X29061D01*
X28644Y10552D02*
X29051D01*
X28655Y10547D02*
X29041D01*
X28660Y10542D02*
X29036D01*
X28670Y10537D02*
X29025D01*
X28680Y10532D02*
X29015D01*
X28685Y10527D02*
X29005D01*
X28695Y10522D02*
X29000D01*
X28705Y10517D02*
X28990D01*
X29102Y10511D02*
X29117D01*
X28716D02*
X28980D01*
X29097Y10506D02*
X29122D01*
X28721D02*
X28970D01*
X29097Y10496D02*
X29122D01*
X28741D02*
X28954D01*
X29097Y10491D02*
X29122D01*
X28751D02*
X28944D01*
X29097Y10486D02*
X29122D01*
X28756D02*
X28934D01*
X29097Y10481D02*
X29122D01*
X28766D02*
X28929D01*
X29097Y10476D02*
X29122D01*
X28777D02*
X28919D01*
X29097Y10471D02*
X29122D01*
X29097Y10466D02*
X29122D01*
X29097Y10461D02*
X29122D01*
X29097Y10456D02*
X29122D01*
X29097Y10451D02*
X29122D01*
X29097Y10445D02*
X29122D01*
X29097Y10440D02*
X29122D01*
X29097Y10435D02*
X29122D01*
X29097Y10430D02*
X29122D01*
X29097Y10425D02*
X29122D01*
X29097Y10420D02*
X29122D01*
X29097Y10415D02*
X29122D01*
X29097Y10410D02*
X29122D01*
X29097Y10405D02*
X29122D01*
X29097Y10400D02*
X29122D01*
X29097Y10395D02*
X29122D01*
X29097Y10390D02*
X29122D01*
X29097Y10384D02*
X29122D01*
X29097Y10379D02*
X29122D01*
X29056Y10374D02*
X29122D01*
X29061Y10369D02*
X29122D01*
X29066Y10364D02*
X29122D01*
X29071Y10359D02*
X29122D01*
X29071Y10354D02*
X29122D01*
X29081Y10349D02*
X29122D01*
X29081Y10344D02*
X29122D01*
X29086Y10339D02*
X29122D01*
X29086Y10334D02*
X29122D01*
X29092Y10329D02*
X29122D01*
X29097Y10324D02*
X29122D01*
X28695Y10212D02*
X28746D01*
X28482D02*
X28533D01*
X28690Y10207D02*
X28751D01*
X28477D02*
X28533D01*
X28497Y10186D02*
X28533D01*
X28690Y10181D02*
X28746D01*
X28497D02*
X28533D01*
X28705Y10176D02*
X28726D01*
X28700Y10171D02*
X28716D01*
X28695Y10166D02*
X28711D01*
X29117Y10161D02*
X29132D01*
X28477D02*
X28538D01*
X29117Y10156D02*
X29127D01*
X28482D02*
X28533D01*
X28970Y11131D02*
X29218D01*
X28980Y11126D02*
X29224D01*
X28990Y11121D02*
X29234D01*
X29000Y11116D02*
X29239D01*
X29010Y11106D02*
X29239D01*
X29015Y11101D02*
X29239D01*
X29025Y11096D02*
X29244D01*
X29031Y11091D02*
X29239D01*
X29036Y11086D02*
X29239D01*
X29041Y11080D02*
X29239D01*
X29046Y11075D02*
X29239D01*
X29051Y11070D02*
X29239D01*
X29056Y11065D02*
X29239D01*
X29056Y11060D02*
X29239D01*
X29061Y11055D02*
X29239D01*
X29066Y11050D02*
X29239D01*
X29071Y11045D02*
X29239D01*
X29071Y11040D02*
X29239D01*
X29076Y11035D02*
X29239D01*
X29081Y11030D02*
X29239D01*
X29081Y11025D02*
X29239D01*
X29086Y11019D02*
X29239D01*
X29086Y11014D02*
X29239D01*
X29092Y11009D02*
X29239D01*
X29092Y11004D02*
X29239D01*
X29097Y10999D02*
X29239D01*
X29097Y10994D02*
X29239D01*
X29102Y10989D02*
X29239D01*
X29102Y10984D02*
X29239D01*
X29102Y10979D02*
X29239D01*
X29107Y10974D02*
X29239D01*
X29107Y10969D02*
X29239D01*
X29107Y10964D02*
X29239D01*
X29112Y10959D02*
X29239D01*
X29112Y10953D02*
X29239D01*
X29112Y10948D02*
X29239D01*
X29112Y10943D02*
X29239D01*
X29112Y10938D02*
X29239D01*
X29117Y10933D02*
X29239D01*
X29117Y10928D02*
X29239D01*
X29117Y10923D02*
X29239D01*
X29117Y10918D02*
X29239D01*
X29117Y10913D02*
X29239D01*
X29117Y10903D02*
X29239D01*
X29117Y10898D02*
X29239D01*
X29117Y10892D02*
X29239D01*
X29117Y10887D02*
X29239D01*
X29117Y10882D02*
X29239D01*
X29117Y10877D02*
X29239D01*
X29117Y10872D02*
X29239D01*
X29117Y10867D02*
X29239D01*
X29117Y10862D02*
X29239D01*
X29117Y10857D02*
X29239D01*
X29117Y10852D02*
X29239D01*
X29117Y10847D02*
X29239D01*
X29117Y10842D02*
X29239D01*
X29112Y10837D02*
X29239D01*
X29112Y10832D02*
X29239D01*
X29112Y10826D02*
X29239D01*
X29112Y10821D02*
X29239D01*
X29107Y10816D02*
X29239D01*
X29107Y10811D02*
X29239D01*
X29107Y10806D02*
X29239D01*
X29107Y10801D02*
X29239D01*
X29102Y10796D02*
X29239D01*
X29102Y10791D02*
X29239D01*
X29097Y10786D02*
X29239D01*
X29097Y10781D02*
X29239D01*
X29092Y10776D02*
X29239D01*
X29092Y10771D02*
X29239D01*
X29086Y10765D02*
X29239D01*
X29086Y10760D02*
X29239D01*
X29081Y10755D02*
X29239D01*
X29081Y10750D02*
X29239D01*
X29076Y10745D02*
X29239D01*
X29076Y10740D02*
X29239D01*
X29071Y10735D02*
X29239D01*
X29066Y10730D02*
X29239D01*
X29061Y10725D02*
X29239D01*
X29061Y10720D02*
X29239D01*
X29056Y10715D02*
X29239D01*
X29051Y10710D02*
X29239D01*
X29041Y10699D02*
X29239D01*
X29036Y10694D02*
X29239D01*
X29031Y10689D02*
X29239D01*
X29025Y10684D02*
X29239D01*
X29020Y10679D02*
X29239D01*
X29010Y10674D02*
X29239D01*
X29005Y10669D02*
X29244D01*
X29000Y10664D02*
X29239D01*
X28990Y10659D02*
X29239D01*
X28980Y10654D02*
X29229D01*
X28970Y10649D02*
X29218D01*
X28741Y11517D02*
X28797D01*
Y11314D02*
X28898D01*
X28568Y10501D02*
X28594D01*
X28365Y11111D02*
X28390D01*
X28365Y10908D02*
X28390D01*
X28898Y11517D02*
X28954D01*
X29295Y11111D02*
X29320D01*
X29300Y10908D02*
X29320D01*
X28451Y11111D02*
X28690D01*
X28741Y10908D02*
X28959D01*
X28457D02*
X28578D01*
X28457Y10705D02*
X28650D01*
X29097Y10501D02*
X29122D01*
X28731D02*
X28964D01*
X29005Y11111D02*
X29239D01*
X29117Y10908D02*
X29239D01*
X29046Y10705D02*
X29239D01*
X61316Y12775D02*
X61510D01*
X61388Y12978D02*
X61510D01*
X61276Y13181D02*
X61510D01*
X61002Y12571D02*
X61235D01*
X61367D02*
X61393D01*
X60727Y12775D02*
X60920D01*
X60727Y12978D02*
X60849D01*
X61012D02*
X61230D01*
X60722Y13181D02*
X60961D01*
X61570Y12978D02*
X61591D01*
X61565Y13181D02*
X61591D01*
X61169Y13587D02*
X61225D01*
X60636Y12978D02*
X60661D01*
X60636Y13181D02*
X60661D01*
X60839Y12571D02*
X60864D01*
X61068Y13384D02*
X61169D01*
X61012Y13587D02*
X61068D01*
X61240Y12719D02*
X61489D01*
X61250Y12724D02*
X61499D01*
X61261Y12729D02*
X61510D01*
X61271Y12734D02*
X61510D01*
X61276Y12739D02*
X61515D01*
X61281Y12744D02*
X61510D01*
X61291Y12749D02*
X61510D01*
X61296Y12754D02*
X61510D01*
X61301Y12759D02*
X61510D01*
X61306Y12764D02*
X61510D01*
X61311Y12770D02*
X61510D01*
X61322Y12780D02*
X61510D01*
X61327Y12785D02*
X61510D01*
X61332Y12790D02*
X61510D01*
X61332Y12795D02*
X61510D01*
X61337Y12800D02*
X61510D01*
X61342Y12805D02*
X61510D01*
X61347Y12810D02*
X61510D01*
X61347Y12815D02*
X61510D01*
X61352Y12820D02*
X61510D01*
X61352Y12825D02*
X61510D01*
X61357Y12830D02*
X61510D01*
X61357Y12836D02*
X61510D01*
X61362Y12841D02*
X61510D01*
X61362Y12846D02*
X61510D01*
X61367Y12851D02*
X61510D01*
X61367Y12856D02*
X61510D01*
X61372Y12861D02*
X61510D01*
X61372Y12866D02*
X61510D01*
X61377Y12871D02*
X61510D01*
X61377Y12876D02*
X61510D01*
X61377Y12881D02*
X61510D01*
X61377Y12886D02*
X61510D01*
X61383Y12891D02*
X61510D01*
X61383Y12897D02*
X61510D01*
X61383Y12902D02*
X61510D01*
X61383Y12907D02*
X61510D01*
X61388Y12912D02*
X61510D01*
X61388Y12917D02*
X61510D01*
X61388Y12922D02*
X61510D01*
X61388Y12927D02*
X61510D01*
X61388Y12932D02*
X61510D01*
X61388Y12937D02*
X61510D01*
X61388Y12942D02*
X61510D01*
X61388Y12947D02*
X61510D01*
X61388Y12952D02*
X61510D01*
X61388Y12957D02*
X61510D01*
X61388Y12963D02*
X61510D01*
X61388Y12968D02*
X61510D01*
X61388Y12973D02*
X61510D01*
X61388Y12983D02*
X61510D01*
X61388Y12988D02*
X61510D01*
X61388Y12993D02*
X61510D01*
X61388Y12998D02*
X61510D01*
X61388Y13003D02*
X61510D01*
X61383Y13008D02*
X61510D01*
X61383Y13013D02*
X61510D01*
X61383Y13018D02*
X61510D01*
X61383Y13024D02*
X61510D01*
X61383Y13029D02*
X61510D01*
X61377Y13034D02*
X61510D01*
X61377Y13039D02*
X61510D01*
X61377Y13044D02*
X61510D01*
X61372Y13049D02*
X61510D01*
X61372Y13054D02*
X61510D01*
X61372Y13059D02*
X61510D01*
X61367Y13064D02*
X61510D01*
X61367Y13069D02*
X61510D01*
X61362Y13074D02*
X61510D01*
X61362Y13079D02*
X61510D01*
X61357Y13085D02*
X61510D01*
X61357Y13090D02*
X61510D01*
X61352Y13095D02*
X61510D01*
X61352Y13100D02*
X61510D01*
X61347Y13105D02*
X61510D01*
X61342Y13110D02*
X61510D01*
X61342Y13115D02*
X61510D01*
X61337Y13120D02*
X61510D01*
X61332Y13125D02*
X61510D01*
X61327Y13130D02*
X61510D01*
X61327Y13135D02*
X61510D01*
X61322Y13140D02*
X61510D01*
X61316Y13145D02*
X61510D01*
X61311Y13151D02*
X61510D01*
X61306Y13156D02*
X61510D01*
X61301Y13161D02*
X61510D01*
X61296Y13166D02*
X61515D01*
X61286Y13171D02*
X61510D01*
X61281Y13176D02*
X61510D01*
X61271Y13186D02*
X61510D01*
X61261Y13191D02*
X61504D01*
X61250Y13196D02*
X61494D01*
X61240Y13201D02*
X61489D01*
X60753Y12226D02*
X60803D01*
X61388D02*
X61398D01*
X60748Y12231D02*
X60808D01*
X61388D02*
X61403D01*
X60966Y12236D02*
X60981D01*
X60971Y12241D02*
X60986D01*
X60976Y12246D02*
X60996D01*
X60768Y12251D02*
X60803D01*
X60961D02*
X61017D01*
X60768Y12256D02*
X60803D01*
X60748Y12277D02*
X60803D01*
X60961D02*
X61022D01*
X60753Y12282D02*
X60803D01*
X60966D02*
X61017D01*
X61367Y12394D02*
X61393D01*
X61362Y12399D02*
X61393D01*
X61357Y12404D02*
X61393D01*
X61357Y12409D02*
X61393D01*
X61352Y12414D02*
X61393D01*
X61352Y12419D02*
X61393D01*
X61342Y12424D02*
X61393D01*
X61342Y12429D02*
X61393D01*
X61337Y12434D02*
X61393D01*
X61332Y12439D02*
X61393D01*
X61327Y12444D02*
X61393D01*
X61367Y12450D02*
X61393D01*
X61367Y12455D02*
X61393D01*
X61367Y12460D02*
X61393D01*
X61367Y12465D02*
X61393D01*
X61367Y12470D02*
X61393D01*
X61367Y12475D02*
X61393D01*
X61367Y12480D02*
X61393D01*
X61367Y12485D02*
X61393D01*
X61367Y12490D02*
X61393D01*
X61367Y12495D02*
X61393D01*
X61367Y12500D02*
X61393D01*
X61367Y12505D02*
X61393D01*
X61367Y12510D02*
X61393D01*
X61367Y12516D02*
X61393D01*
X61367Y12521D02*
X61393D01*
X61367Y12526D02*
X61393D01*
X61367Y12531D02*
X61393D01*
X61367Y12536D02*
X61393D01*
X61367Y12541D02*
X61393D01*
X61047Y12546D02*
X61189D01*
X61367D02*
X61393D01*
X61037Y12551D02*
X61200D01*
X61367D02*
X61393D01*
X61027Y12556D02*
X61205D01*
X61367D02*
X61393D01*
X61022Y12561D02*
X61215D01*
X61367D02*
X61393D01*
X61012Y12566D02*
X61225D01*
X61367D02*
X61393D01*
X60991Y12576D02*
X61240D01*
X61367D02*
X61393D01*
X60986Y12582D02*
X61250D01*
X61372D02*
X61388D01*
X60976Y12587D02*
X61261D01*
X60966Y12592D02*
X61271D01*
X60956Y12597D02*
X61276D01*
X60951Y12602D02*
X61286D01*
X60941Y12607D02*
X61296D01*
X60930Y12612D02*
X61306D01*
X60925Y12617D02*
X61311D01*
X60915Y12622D02*
X61322D01*
X60905Y12627D02*
X61332D01*
X60895Y12632D02*
X61342D01*
X60890Y12637D02*
X61347D01*
X60880Y12643D02*
X61357D01*
X60869Y12648D02*
X61367D01*
X60859Y12653D02*
X61372D01*
X60854Y12658D02*
X61383D01*
X60844Y12663D02*
X61393D01*
X60834Y12668D02*
X61403D01*
X60824Y12673D02*
X61408D01*
X60819Y12678D02*
X61418D01*
X60808Y12683D02*
X61428D01*
X60798Y12688D02*
X61108D01*
X61134D02*
X61433D01*
X60788Y12693D02*
X61062D01*
X61169D02*
X61443D01*
X60783Y12698D02*
X61042D01*
X61189D02*
X61454D01*
X60773Y12704D02*
X61027D01*
X61210D02*
X61464D01*
X60763Y12709D02*
X61017D01*
X61220D02*
X61469D01*
X60753Y12714D02*
X61002D01*
X61235D02*
X61484D01*
X60748Y12719D02*
X60996D01*
X60737Y12724D02*
X60986D01*
X60727Y12729D02*
X60976D01*
X60722Y12734D02*
X60966D01*
X60722Y12739D02*
X60961D01*
X60722Y12744D02*
X60956D01*
X60727Y12749D02*
X60946D01*
X60727Y12754D02*
X60941D01*
X60727Y12759D02*
X60935D01*
X60727Y12764D02*
X60930D01*
X60727Y12770D02*
X60925D01*
X60727Y12780D02*
X60915D01*
X60727Y12785D02*
X60910D01*
X60727Y12790D02*
X60905D01*
X60727Y12795D02*
X60905D01*
X60727Y12800D02*
X60900D01*
X60727Y12805D02*
X60895D01*
X60727Y12810D02*
X60890D01*
X60727Y12815D02*
X60890D01*
X60727Y12820D02*
X60885D01*
X60727Y12825D02*
X60885D01*
X60727Y12830D02*
X60880D01*
X60727Y12836D02*
X60880D01*
X60727Y12841D02*
X60875D01*
X60727Y12846D02*
X60869D01*
X60727Y12851D02*
X60869D01*
X60727Y12856D02*
X60869D01*
X60727Y12861D02*
X60864D01*
X60727Y12866D02*
X60864D01*
X61057D02*
X61184D01*
X60727Y12871D02*
X60859D01*
X61052D02*
X61189D01*
X60727Y12876D02*
X60859D01*
X61042D02*
X61200D01*
X60727Y12881D02*
X60859D01*
X61032D02*
X61210D01*
X60727Y12886D02*
X60854D01*
X61027D02*
X61215D01*
X60727Y12891D02*
X60854D01*
X61017D02*
X61225D01*
X60727Y12897D02*
X60854D01*
X61012D02*
X61230D01*
X60727Y12902D02*
X60854D01*
X61012D02*
X61230D01*
X60727Y12907D02*
X60849D01*
X61012D02*
X61230D01*
X60727Y12912D02*
X60849D01*
X61012D02*
X61230D01*
X60763Y12917D02*
X60849D01*
X61012D02*
X61230D01*
X60727Y12922D02*
X60849D01*
X61012D02*
X61230D01*
X60727Y12927D02*
X60849D01*
X61012D02*
X61230D01*
X60727Y12932D02*
X60849D01*
X61012D02*
X61230D01*
X60727Y12937D02*
X60849D01*
X61012D02*
X61230D01*
X60727Y12942D02*
X60849D01*
X61012D02*
X61230D01*
X60727Y12947D02*
X60849D01*
X61012D02*
X61230D01*
X60727Y12952D02*
X60849D01*
X61012D02*
X61230D01*
X60727Y12957D02*
X60849D01*
X61012D02*
X61230D01*
X60727Y12963D02*
X60849D01*
X61012D02*
X61230D01*
X60727Y12968D02*
X60849D01*
X61012D02*
X61230D01*
X60727Y12973D02*
X60849D01*
X61012D02*
X61230D01*
X61570Y12952D02*
X61591D01*
X61565Y12957D02*
X61591D01*
X61565Y12963D02*
X61591D01*
X61570Y12968D02*
X61591D01*
X61565Y12973D02*
X61591D01*
X60727Y12983D02*
X60849D01*
X61012D02*
X61230D01*
X60727Y12988D02*
X60849D01*
X61012D02*
X61230D01*
X60727Y12993D02*
X60849D01*
X61012D02*
X61230D01*
X60727Y12998D02*
X60849D01*
X61012D02*
X61230D01*
X60727Y13003D02*
X60849D01*
X61012D02*
X61230D01*
X60727Y13008D02*
X60849D01*
X61012D02*
X61230D01*
X60727Y13013D02*
X60854D01*
X61012D02*
X61230D01*
X60727Y13018D02*
X60854D01*
X61012D02*
X61230D01*
X60727Y13024D02*
X60854D01*
X61012D02*
X61230D01*
X60727Y13029D02*
X60854D01*
X61012D02*
X61230D01*
X60727Y13034D02*
X60859D01*
X60727Y13039D02*
X60859D01*
X60727Y13044D02*
X60859D01*
X60727Y13049D02*
X60864D01*
X60727Y13054D02*
X60864D01*
X60727Y13059D02*
X60864D01*
X60727Y13064D02*
X60869D01*
X60727Y13069D02*
X60869D01*
X60727Y13074D02*
X60869D01*
X60727Y13079D02*
X60875D01*
X60727Y13085D02*
X60880D01*
X60727Y13090D02*
X60880D01*
X60727Y13095D02*
X60885D01*
X60727Y13100D02*
X60885D01*
X60727Y13105D02*
X60890D01*
X60727Y13110D02*
X60890D01*
X60727Y13115D02*
X60895D01*
X60727Y13120D02*
X60900D01*
X60727Y13125D02*
X60905D01*
X60727Y13130D02*
X60905D01*
X60727Y13135D02*
X60910D01*
X60727Y13140D02*
X60915D01*
X60727Y13145D02*
X60920D01*
X60727Y13151D02*
X60925D01*
X60722Y13156D02*
X60930D01*
X60722Y13161D02*
X60935D01*
X60727Y13166D02*
X60941D01*
X60727Y13171D02*
X60946D01*
X60727Y13176D02*
X60956D01*
X61565Y12983D02*
X61591D01*
X61565Y12988D02*
X61591D01*
X61565Y12993D02*
X61591D01*
X61565Y12998D02*
X61591D01*
X61565Y13003D02*
X61591D01*
X61565Y13008D02*
X61591D01*
X61565Y13013D02*
X61591D01*
X61565Y13018D02*
X61591D01*
X61565Y13024D02*
X61591D01*
X61565Y13029D02*
X61591D01*
X61570Y13034D02*
X61591D01*
X61570Y13039D02*
X61591D01*
X61570Y13044D02*
X61591D01*
X61570Y13049D02*
X61591D01*
X61570Y13054D02*
X61591D01*
X61570Y13059D02*
X61591D01*
X61570Y13064D02*
X61591D01*
X61570Y13069D02*
X61591D01*
X61565Y13074D02*
X61591D01*
X61565Y13079D02*
X61591D01*
X61565Y13085D02*
X61591D01*
X61565Y13090D02*
X61591D01*
X61565Y13095D02*
X61591D01*
X61565Y13100D02*
X61591D01*
X61565Y13105D02*
X61591D01*
X61565Y13110D02*
X61591D01*
X61565Y13115D02*
X61591D01*
X61565Y13120D02*
X61591D01*
X61565Y13125D02*
X61591D01*
X61565Y13130D02*
X61591D01*
X61565Y13135D02*
X61591D01*
X61565Y13140D02*
X61591D01*
X61565Y13145D02*
X61591D01*
X61565Y13151D02*
X61591D01*
X61565Y13156D02*
X61591D01*
X61565Y13161D02*
X61591D01*
X61565Y13166D02*
X61591D01*
X61565Y13171D02*
X61591D01*
X61565Y13176D02*
X61591D01*
X60727Y13186D02*
X60966D01*
X60732Y13191D02*
X60976D01*
X60742Y13196D02*
X60986D01*
X60753Y13201D02*
X60996D01*
X60758Y13206D02*
X61002D01*
X61230D02*
X61479D01*
X60768Y13212D02*
X61017D01*
X61220D02*
X61469D01*
X60778Y13217D02*
X61027D01*
X61210D02*
X61459D01*
X60783Y13222D02*
X61042D01*
X61195D02*
X61454D01*
X60793Y13227D02*
X61062D01*
X61169D02*
X61443D01*
X60803Y13232D02*
X61108D01*
X61118D02*
X61433D01*
X60814Y13237D02*
X61423D01*
X60824Y13242D02*
X61418D01*
X60829Y13247D02*
X61408D01*
X60839Y13252D02*
X61398D01*
X60844Y13257D02*
X61388D01*
X60854Y13262D02*
X61383D01*
X60864Y13267D02*
X61372D01*
X60875Y13272D02*
X61362D01*
X60885Y13278D02*
X61352D01*
X60890Y13283D02*
X61347D01*
X60722Y13288D02*
X60778D01*
X60900D02*
X61337D01*
X60732Y13293D02*
X60788D01*
X60905D02*
X61327D01*
X60742Y13298D02*
X60798D01*
X60915D02*
X61322D01*
X60753Y13303D02*
X60808D01*
X60925D02*
X61311D01*
X60758Y13308D02*
X60814D01*
X60935D02*
X61301D01*
X60768Y13313D02*
X60824D01*
X60946D02*
X61291D01*
X60778Y13318D02*
X60834D01*
X60951D02*
X61286D01*
X60961Y13323D02*
X61276D01*
X61383D02*
X61443D01*
X60971Y13328D02*
X61266D01*
X61372D02*
X61428D01*
X60976Y13333D02*
X61256D01*
X61367D02*
X61423D01*
X60986Y13338D02*
X61250D01*
X61367D02*
X61413D01*
X60996Y13344D02*
X61240D01*
X61367D02*
X61403D01*
X61007Y13349D02*
X61230D01*
X61367D02*
X61393D01*
X61012Y13354D02*
X61225D01*
X61372D02*
X61388D01*
X61022Y13359D02*
X61215D01*
X61032Y13364D02*
X61205D01*
X61037Y13369D02*
X61200D01*
X61047Y13374D02*
X61189D01*
X61565Y13186D02*
X61591D01*
X61565Y13191D02*
X61591D01*
X61570Y13196D02*
X61591D01*
X61570Y13201D02*
X61591D01*
X61565Y13206D02*
X61591D01*
X61570Y13212D02*
X61591D01*
X61565Y13217D02*
X61591D01*
X61555Y13222D02*
X61591D01*
X61545Y13227D02*
X61591D01*
X61540Y13232D02*
X61591D01*
X61184Y13577D02*
X61240D01*
X61179Y13582D02*
X61235D01*
X61159Y13593D02*
X61215D01*
X61154Y13598D02*
X61205D01*
X61144Y13603D02*
X61200D01*
X61134Y13608D02*
X61189D01*
X60824Y12226D02*
X60875D01*
X60915D02*
X60920D01*
X60961D02*
X60971D01*
X60824Y12231D02*
X60875D01*
X60915D02*
X60925D01*
X60961D02*
X60976D01*
X60793Y12236D02*
X60803D01*
X60864D02*
X60875D01*
X60915D02*
X60925D01*
X60793Y12241D02*
X60808D01*
X60864D02*
X60875D01*
X60915D02*
X60925D01*
X60793Y12246D02*
X60803D01*
X60864D02*
X60875D01*
X60915D02*
X60925D01*
X60864Y12251D02*
X60875D01*
X60915D02*
X60925D01*
X60864Y12256D02*
X60875D01*
X60915D02*
X60925D01*
X60961D02*
X60976D01*
X60793Y12262D02*
X60803D01*
X60864D02*
X60875D01*
X60915D02*
X60925D01*
X60961D02*
X60971D01*
X60793Y12267D02*
X60803D01*
X60864D02*
X60875D01*
X60915D02*
X60925D01*
X60961D02*
X60971D01*
X60793Y12272D02*
X60803D01*
X60864D02*
X60875D01*
X60890D02*
X60900D01*
X60915D02*
X60925D01*
X60961D02*
X60971D01*
X60864Y12277D02*
X60875D01*
X60890D02*
X60951D01*
X60864Y12282D02*
X60875D01*
X60890D02*
X60951D01*
X61007Y12226D02*
X61017D01*
X61047D02*
X61098D01*
X61144D02*
X61154D01*
X61007Y12231D02*
X61022D01*
X61047D02*
X61103D01*
X61144D02*
X61154D01*
X61007Y12236D02*
X61017D01*
X61047D02*
X61057D01*
X61093D02*
X61103D01*
X61144D02*
X61154D01*
X61007Y12241D02*
X61017D01*
X61047D02*
X61057D01*
X61093D02*
X61108D01*
X61144D02*
X61154D01*
X61002Y12246D02*
X61017D01*
X61047D02*
X61057D01*
X61093D02*
X61103D01*
X61144D02*
X61154D01*
X61047Y12251D02*
X61057D01*
X61093D02*
X61103D01*
X61144D02*
X61154D01*
X61007Y12256D02*
X61017D01*
X61047D02*
X61057D01*
X61093D02*
X61108D01*
X61144D02*
X61154D01*
X61007Y12262D02*
X61017D01*
X61047D02*
X61057D01*
X61093D02*
X61103D01*
X61144D02*
X61154D01*
X61007Y12267D02*
X61017D01*
X61047D02*
X61057D01*
X61093D02*
X61108D01*
X61144D02*
X61154D01*
X61007Y12272D02*
X61017D01*
X61047D02*
X61057D01*
X61093D02*
X61108D01*
X61144D02*
X61159D01*
X61047Y12277D02*
X61057D01*
X61093D02*
X61108D01*
X61118D02*
X61179D01*
X61047Y12282D02*
X61052D01*
X61098D02*
X61103D01*
X61118D02*
X61179D01*
X61200Y12226D02*
X61245D01*
X61281D02*
X61286D01*
X61311D02*
X61322D01*
X61362D02*
X61367D01*
X61195Y12231D02*
X61250D01*
X61276D02*
X61291D01*
X61311D02*
X61327D01*
X61357D02*
X61372D01*
X61195Y12236D02*
X61205D01*
X61240D02*
X61256D01*
X61276D02*
X61291D01*
X61316D02*
X61332D01*
X61357D02*
X61372D01*
X61189Y12241D02*
X61205D01*
X61240D02*
X61250D01*
X61276D02*
X61291D01*
X61327D02*
X61337D01*
X61357D02*
X61372D01*
X61195Y12246D02*
X61205D01*
X61276D02*
X61291D01*
X61327D02*
X61347D01*
X61352D02*
X61367D01*
X61195Y12251D02*
X61245D01*
X61276D02*
X61291D01*
X61311D02*
X61367D01*
X61195Y12256D02*
X61250D01*
X61276D02*
X61291D01*
X61311D02*
X61327D01*
X61347D02*
X61352D01*
X61357D02*
X61372D01*
X61240Y12262D02*
X61250D01*
X61276D02*
X61291D01*
X61311D02*
X61322D01*
X61357D02*
X61372D01*
X61195Y12267D02*
X61200D01*
X61240D02*
X61250D01*
X61276D02*
X61291D01*
X61311D02*
X61322D01*
X61357D02*
X61372D01*
X61195Y12272D02*
X61205D01*
X61240D02*
X61250D01*
X61276D02*
X61291D01*
X61311D02*
X61327D01*
X61357D02*
X61372D01*
X61195Y12277D02*
X61250D01*
X61276D02*
X61291D01*
X61311D02*
X61372D01*
X61200Y12282D02*
X61245D01*
X61281D02*
X61286D01*
X61316D02*
X61367D01*
X61449Y12226D02*
X61454D01*
X61443Y12231D02*
X61454D01*
X61393Y12236D02*
X61403D01*
X61438D02*
X61454D01*
X61393Y12241D02*
X61449D01*
X61398Y12246D02*
X61449D01*
X61398Y12251D02*
X61413D01*
X61433D02*
X61443D01*
X61403Y12256D02*
X61413D01*
X61433D02*
X61443D01*
X61403Y12262D02*
X61418D01*
X61428D02*
X61438D01*
X61408Y12267D02*
X61418D01*
X61428D02*
X61438D01*
X61408Y12272D02*
X61433D01*
X61413Y12277D02*
X61433D01*
X61418Y12282D02*
X61428D01*
X60839Y12389D02*
X60859D01*
X60839Y12394D02*
X60864D01*
X60839Y12399D02*
X60869D01*
X60839Y12404D02*
X60875D01*
X60839Y12409D02*
X60875D01*
X60839Y12414D02*
X60880D01*
X60839Y12419D02*
X60885D01*
X60839Y12424D02*
X60890D01*
X60839Y12429D02*
X60890D01*
X60839Y12434D02*
X60895D01*
X60839Y12439D02*
X60900D01*
X60839Y12444D02*
X60864D01*
X60869D02*
X60900D01*
X60839Y12450D02*
X60864D01*
X60869D02*
X60905D01*
X60839Y12455D02*
X60864D01*
X60875D02*
X60910D01*
X60839Y12460D02*
X60864D01*
X60880D02*
X60915D01*
X60839Y12465D02*
X60864D01*
X60885D02*
X60920D01*
X60839Y12470D02*
X60864D01*
X60885D02*
X60920D01*
X60839Y12475D02*
X60864D01*
X60890D02*
X60925D01*
X60839Y12480D02*
X60864D01*
X60895D02*
X60930D01*
X60839Y12485D02*
X60864D01*
X60900D02*
X60935D01*
X60839Y12490D02*
X60864D01*
X60900D02*
X60935D01*
X60839Y12495D02*
X60864D01*
X60905D02*
X60941D01*
X60839Y12500D02*
X60864D01*
X60910D02*
X60946D01*
X60839Y12505D02*
X60864D01*
X60915D02*
X60951D01*
X60839Y12510D02*
X60864D01*
X60915D02*
X60951D01*
X60839Y12516D02*
X60864D01*
X60920D02*
X60951D01*
X60839Y12521D02*
X60864D01*
X60925D02*
X60951D01*
X60839Y12526D02*
X60864D01*
X60925D02*
X60951D01*
X60839Y12531D02*
X60864D01*
X60839Y12536D02*
X60864D01*
X60839Y12541D02*
X60864D01*
X60839Y12546D02*
X60864D01*
X60839Y12551D02*
X60864D01*
X60839Y12556D02*
X60864D01*
X60839Y12561D02*
X60864D01*
X60839Y12566D02*
X60864D01*
X61108Y12510D02*
X61129D01*
X61098Y12516D02*
X61139D01*
X61088Y12521D02*
X61144D01*
X61083Y12526D02*
X61154D01*
X61073Y12531D02*
X61164D01*
X61068Y12536D02*
X61169D01*
X61052Y12541D02*
X61179D01*
X61372Y12389D02*
X61383D01*
X61327Y12450D02*
X61362D01*
X61322Y12455D02*
X61357D01*
X61316Y12460D02*
X61352D01*
X61316Y12465D02*
X61347D01*
X61311Y12470D02*
X61347D01*
X61306Y12475D02*
X61342D01*
X61301Y12480D02*
X61337D01*
X61296Y12485D02*
X61332D01*
X61296Y12490D02*
X61332D01*
X61291Y12495D02*
X61327D01*
X61286Y12500D02*
X61322D01*
X61286Y12505D02*
X61316D01*
X61281Y12510D02*
X61316D01*
X61281Y12516D02*
X61311D01*
X61281Y12521D02*
X61306D01*
X61281Y12526D02*
X61301D01*
X61286Y12531D02*
X61301D01*
X60839Y12576D02*
X60859D01*
X60727Y12917D02*
X60758D01*
X60636Y12952D02*
X60661D01*
X60636Y12957D02*
X60661D01*
X60636Y12963D02*
X60661D01*
X60636Y12968D02*
X60661D01*
X60636Y12973D02*
X60661D01*
X61113Y12830D02*
X61129D01*
X61108Y12836D02*
X61134D01*
X61103Y12841D02*
X61144D01*
X61093Y12846D02*
X61154D01*
X61083Y12851D02*
X61159D01*
X61078Y12856D02*
X61169D01*
X61068Y12861D02*
X61174D01*
X60636Y12983D02*
X60661D01*
X60636Y12988D02*
X60661D01*
X60636Y12993D02*
X60661D01*
X60636Y12998D02*
X60661D01*
X60636Y13003D02*
X60661D01*
X60636Y13008D02*
X60661D01*
X60636Y13013D02*
X60661D01*
X60636Y13018D02*
X60661D01*
X60636Y13024D02*
X60661D01*
X60636Y13029D02*
X60661D01*
X60636Y13034D02*
X60661D01*
X60636Y13039D02*
X60661D01*
X60636Y13044D02*
X60661D01*
X60636Y13049D02*
X60661D01*
X60636Y13054D02*
X60661D01*
X60636Y13059D02*
X60661D01*
X60636Y13064D02*
X60661D01*
X60636Y13069D02*
X60661D01*
X60636Y13074D02*
X60661D01*
X60636Y13079D02*
X60661D01*
X60636Y13085D02*
X60661D01*
X60636Y13090D02*
X60661D01*
X60636Y13095D02*
X60661D01*
X60636Y13100D02*
X60661D01*
X60636Y13105D02*
X60661D01*
X60636Y13110D02*
X60661D01*
X60636Y13115D02*
X60661D01*
X60636Y13120D02*
X60661D01*
X60636Y13125D02*
X60661D01*
X60636Y13130D02*
X60661D01*
X60636Y13135D02*
X60661D01*
X60636Y13140D02*
X60661D01*
X60636Y13145D02*
X60661D01*
X60636Y13151D02*
X60661D01*
X60636Y13156D02*
X60661D01*
X60636Y13161D02*
X60661D01*
X60636Y13166D02*
X60661D01*
X60636Y13171D02*
X60661D01*
X60636Y13176D02*
X60661D01*
X61073Y13034D02*
X61083D01*
X61164D02*
X61174D01*
X61073Y13039D02*
X61083D01*
X61164D02*
X61174D01*
X61073Y13044D02*
X61083D01*
X61164D02*
X61174D01*
X61073Y13049D02*
X61083D01*
X61164D02*
X61174D01*
X61073Y13054D02*
X61083D01*
X61164D02*
X61174D01*
X61073Y13059D02*
X61083D01*
X61164D02*
X61174D01*
X61073Y13064D02*
X61083D01*
X61164D02*
X61174D01*
X61073Y13069D02*
X61083D01*
X61164D02*
X61174D01*
X61073Y13074D02*
X61083D01*
X61164D02*
X61179D01*
X61073Y13079D02*
X61083D01*
X61164D02*
X61179D01*
X61073Y13085D02*
X61083D01*
X61164D02*
X61174D01*
X60636Y13186D02*
X60661D01*
X60636Y13191D02*
X60661D01*
X60636Y13196D02*
X60661D01*
X60636Y13201D02*
X60661D01*
X60636Y13206D02*
X60661D01*
X60636Y13212D02*
X60661D01*
X60636Y13217D02*
X60661D01*
X60636Y13222D02*
X60671D01*
X60636Y13227D02*
X60676D01*
X60636Y13232D02*
X60687D01*
X60641Y13237D02*
X60692D01*
X60646Y13242D02*
X60702D01*
X60651Y13247D02*
X60712D01*
X60661Y13252D02*
X60717D01*
X60671Y13257D02*
X60727D01*
X60681Y13262D02*
X60737D01*
X60692Y13267D02*
X60748D01*
X60702Y13272D02*
X60753D01*
X60707Y13278D02*
X60763D01*
X60717Y13283D02*
X60773D01*
X60788Y13323D02*
X60844D01*
X60793Y13328D02*
X60849D01*
X60803Y13333D02*
X60854D01*
X60814Y13338D02*
X60854D01*
X60824Y13344D02*
X60854D01*
X60829Y13349D02*
X60849D01*
X61057Y13379D02*
X61179D01*
X61530Y13237D02*
X61586D01*
X61525Y13242D02*
X61581D01*
X61515Y13247D02*
X61570D01*
X61504Y13252D02*
X61565D01*
X61494Y13257D02*
X61550D01*
X61489Y13262D02*
X61545D01*
X61479Y13267D02*
X61535D01*
X61474Y13272D02*
X61525D01*
X61464Y13278D02*
X61515D01*
X61454Y13283D02*
X61510D01*
X61443Y13288D02*
X61499D01*
X61438Y13293D02*
X61494D01*
X61423Y13298D02*
X61484D01*
X61418Y13303D02*
X61474D01*
X61408Y13308D02*
X61464D01*
X61403Y13313D02*
X61459D01*
X61393Y13318D02*
X61449D01*
X61073Y13389D02*
X61159D01*
X61083Y13394D02*
X61149D01*
X61093Y13399D02*
X61144D01*
X61098Y13405D02*
X61134D01*
X61108Y13410D02*
X61129D01*
X60996Y13430D02*
X61022D01*
X60996Y13435D02*
X61022D01*
X60996Y13440D02*
X61022D01*
X60996Y13445D02*
X61022D01*
X60996Y13450D02*
X61022D01*
X60996Y13455D02*
X61022D01*
X60996Y13460D02*
X61022D01*
X60996Y13465D02*
X61022D01*
X60996Y13471D02*
X61022D01*
X60996Y13476D02*
X61022D01*
X60996Y13481D02*
X61022D01*
X60996Y13486D02*
X61022D01*
X60996Y13491D02*
X61022D01*
X60996Y13496D02*
X61022D01*
X60996Y13501D02*
X61022D01*
X60996Y13506D02*
X61022D01*
X60996Y13511D02*
X61022D01*
X60996Y13516D02*
X61022D01*
X60996Y13521D02*
X61022D01*
X60996Y13526D02*
X61022D01*
X60996Y13532D02*
X61022D01*
X60996Y13537D02*
X61022D01*
X60996Y13542D02*
X61022D01*
X60996Y13547D02*
X61022D01*
X60996Y13552D02*
X61022D01*
X60996Y13557D02*
X61022D01*
X60996Y13562D02*
X61027D01*
X60996Y13567D02*
X61032D01*
X60996Y13572D02*
X61042D01*
X60996Y13577D02*
X61047D01*
X61002Y13582D02*
X61057D01*
X61215Y13430D02*
X61235D01*
X61210Y13435D02*
X61240D01*
X61210Y13440D02*
X61240D01*
X61210Y13445D02*
X61240D01*
X61210Y13450D02*
X61240D01*
X61210Y13455D02*
X61240D01*
X61210Y13460D02*
X61240D01*
X61210Y13465D02*
X61240D01*
X61210Y13471D02*
X61240D01*
X61210Y13476D02*
X61240D01*
X61210Y13481D02*
X61240D01*
X61210Y13486D02*
X61240D01*
X61210Y13491D02*
X61240D01*
X61210Y13496D02*
X61240D01*
X61210Y13501D02*
X61240D01*
X61210Y13506D02*
X61240D01*
X61210Y13511D02*
X61240D01*
X61210Y13516D02*
X61240D01*
X61210Y13521D02*
X61240D01*
X61210Y13526D02*
X61240D01*
X61210Y13532D02*
X61240D01*
X61210Y13537D02*
X61240D01*
X61210Y13542D02*
X61240D01*
X61210Y13547D02*
X61240D01*
X61210Y13552D02*
X61240D01*
X61210Y13557D02*
X61240D01*
X61210Y13562D02*
X61240D01*
X61205Y13567D02*
X61240D01*
X61195Y13572D02*
X61240D01*
X61017Y13593D02*
X61078D01*
X61027Y13598D02*
X61083D01*
X61037Y13603D02*
X61088D01*
X61047Y13608D02*
X61098D01*
X61052Y13613D02*
X61108D01*
X61129D02*
X61179D01*
X61057Y13618D02*
X61113D01*
X61118D02*
X61174D01*
X61068Y13623D02*
X61164D01*
X61078Y13628D02*
X61154D01*
X61088Y13633D02*
X61149D01*
X61093Y13638D02*
X61139D01*
X61103Y13643D02*
X61134D01*
X61108Y13648D02*
X61129D01*
D17*
X51829Y16485D02*
X51899D01*
Y16520D01*
X51887Y16531D01*
X51864D01*
X51852Y16520D01*
Y16485D01*
Y16508D02*
X51829Y16531D01*
X51899Y16601D02*
X51887Y16578D01*
X51864Y16555D01*
X51840D01*
X51829Y16566D01*
Y16590D01*
X51840Y16601D01*
X51852D01*
X51864Y16590D01*
Y16555D01*
X51887Y16625D02*
X51899Y16636D01*
Y16660D01*
X51887Y16671D01*
X51875D01*
X51864Y16660D01*
X51852Y16671D01*
X51840D01*
X51829Y16660D01*
Y16636D01*
X51840Y16625D01*
X51852D01*
X51864Y16636D01*
X51875Y16625D01*
X51887D01*
X51864Y16636D02*
Y16660D01*
X51829Y16269D02*
X51899D01*
Y16304D01*
X51887Y16315D01*
X51864D01*
X51852Y16304D01*
Y16269D01*
Y16292D02*
X51829Y16315D01*
X51899Y16385D02*
X51887Y16362D01*
X51864Y16339D01*
X51840D01*
X51829Y16350D01*
Y16374D01*
X51840Y16385D01*
X51852D01*
X51864Y16374D01*
Y16339D01*
X51899Y16409D02*
Y16455D01*
X51887D01*
X51840Y16409D01*
X51829D01*
Y16040D02*
X51899D01*
Y16075D01*
X51887Y16087D01*
X51864D01*
X51852Y16075D01*
Y16040D01*
Y16063D02*
X51829Y16087D01*
X51899Y16157D02*
X51887Y16133D01*
X51864Y16110D01*
X51840D01*
X51829Y16122D01*
Y16145D01*
X51840Y16157D01*
X51852D01*
X51864Y16145D01*
Y16110D01*
X51899Y16227D02*
X51887Y16203D01*
X51864Y16180D01*
X51840D01*
X51829Y16192D01*
Y16215D01*
X51840Y16227D01*
X51852D01*
X51864Y16215D01*
Y16180D01*
X51816Y15583D02*
X51886D01*
Y15618D01*
X51874Y15630D01*
X51851D01*
X51839Y15618D01*
Y15583D01*
Y15606D02*
X51816Y15630D01*
X51874Y15653D02*
X51886Y15665D01*
Y15688D01*
X51874Y15700D01*
X51863D01*
X51851Y15688D01*
X51839Y15700D01*
X51828D01*
X51816Y15688D01*
Y15665D01*
X51828Y15653D01*
X51839D01*
X51851Y15665D01*
X51863Y15653D01*
X51874D01*
X51851Y15665D02*
Y15688D01*
X51828Y15723D02*
X51816Y15735D01*
Y15758D01*
X51828Y15770D01*
X51874D01*
X51886Y15758D01*
Y15735D01*
X51874Y15723D01*
X51863D01*
X51851Y15735D01*
Y15770D01*
X51816Y15113D02*
X51886D01*
Y15148D01*
X51874Y15160D01*
X51851D01*
X51839Y15148D01*
Y15113D01*
Y15136D02*
X51816Y15160D01*
X51874Y15183D02*
X51886Y15195D01*
Y15218D01*
X51874Y15230D01*
X51863D01*
X51851Y15218D01*
X51839Y15230D01*
X51828D01*
X51816Y15218D01*
Y15195D01*
X51828Y15183D01*
X51839D01*
X51851Y15195D01*
X51863Y15183D01*
X51874D01*
X51851Y15195D02*
Y15218D01*
X51874Y15253D02*
X51886Y15265D01*
Y15288D01*
X51874Y15300D01*
X51863D01*
X51851Y15288D01*
X51839Y15300D01*
X51828D01*
X51816Y15288D01*
Y15265D01*
X51828Y15253D01*
X51839D01*
X51851Y15265D01*
X51863Y15253D01*
X51874D01*
X51851Y15265D02*
Y15288D01*
X51841Y14637D02*
X51911D01*
Y14672D01*
X51900Y14684D01*
X51876D01*
X51865Y14672D01*
Y14637D01*
Y14660D02*
X51841Y14684D01*
X51900Y14707D02*
X51911Y14719D01*
Y14742D01*
X51900Y14754D01*
X51888D01*
X51876Y14742D01*
X51865Y14754D01*
X51853D01*
X51841Y14742D01*
Y14719D01*
X51853Y14707D01*
X51865D01*
X51876Y14719D01*
X51888Y14707D01*
X51900D01*
X51876Y14719D02*
Y14742D01*
X51911Y14777D02*
Y14824D01*
X51900D01*
X51853Y14777D01*
X51841D01*
X51816Y15799D02*
X51886D01*
Y15834D01*
X51874Y15845D01*
X51851D01*
X51839Y15834D01*
Y15799D01*
Y15822D02*
X51816Y15845D01*
X51886Y15915D02*
X51874Y15892D01*
X51851Y15869D01*
X51828D01*
X51816Y15880D01*
Y15904D01*
X51828Y15915D01*
X51839D01*
X51851Y15904D01*
Y15869D01*
X51886Y15985D02*
Y15939D01*
X51851D01*
X51863Y15962D01*
Y15974D01*
X51851Y15985D01*
X51828D01*
X51816Y15974D01*
Y15950D01*
X51828Y15939D01*
X51092Y15875D02*
X51022D01*
Y15840D01*
X51034Y15828D01*
X51057D01*
X51069Y15840D01*
Y15875D01*
Y15852D02*
X51092Y15828D01*
X51022Y15758D02*
X51034Y15782D01*
X51057Y15805D01*
X51080D01*
X51092Y15793D01*
Y15770D01*
X51080Y15758D01*
X51069D01*
X51057Y15770D01*
Y15805D01*
X51092Y15700D02*
X51022D01*
X51057Y15735D01*
Y15688D01*
X51816Y15342D02*
X51886D01*
Y15377D01*
X51875Y15388D01*
X51851D01*
X51840Y15377D01*
Y15342D01*
Y15365D02*
X51816Y15388D01*
X51886Y15458D02*
X51875Y15435D01*
X51851Y15412D01*
X51828D01*
X51816Y15423D01*
Y15447D01*
X51828Y15458D01*
X51840D01*
X51851Y15447D01*
Y15412D01*
X51875Y15482D02*
X51886Y15493D01*
Y15517D01*
X51875Y15528D01*
X51863D01*
X51851Y15517D01*
Y15505D01*
Y15517D01*
X51840Y15528D01*
X51828D01*
X51816Y15517D01*
Y15493D01*
X51828Y15482D01*
X51117Y15392D02*
X51048D01*
Y15357D01*
X51059Y15346D01*
X51083D01*
X51094Y15357D01*
Y15392D01*
Y15369D02*
X51117Y15346D01*
X51048Y15276D02*
X51059Y15299D01*
X51083Y15322D01*
X51106D01*
X51117Y15311D01*
Y15287D01*
X51106Y15276D01*
X51094D01*
X51083Y15287D01*
Y15322D01*
X51117Y15206D02*
Y15252D01*
X51071Y15206D01*
X51059D01*
X51048Y15217D01*
Y15241D01*
X51059Y15252D01*
X51854Y14872D02*
X51924D01*
Y14907D01*
X51912Y14918D01*
X51889D01*
X51877Y14907D01*
Y14872D01*
Y14895D02*
X51854Y14918D01*
X51924Y14988D02*
X51912Y14965D01*
X51889Y14942D01*
X51866D01*
X51854Y14953D01*
Y14977D01*
X51866Y14988D01*
X51877D01*
X51889Y14977D01*
Y14942D01*
X51854Y15012D02*
Y15035D01*
Y15023D01*
X51924D01*
X51912Y15012D01*
X51105Y14923D02*
X51035D01*
Y14888D01*
X51046Y14876D01*
X51070D01*
X51081Y14888D01*
Y14923D01*
Y14899D02*
X51105Y14876D01*
X51035Y14806D02*
X51046Y14829D01*
X51070Y14853D01*
X51093D01*
X51105Y14841D01*
Y14818D01*
X51093Y14806D01*
X51081D01*
X51070Y14818D01*
Y14853D01*
X51046Y14783D02*
X51035Y14771D01*
Y14748D01*
X51046Y14736D01*
X51093D01*
X51105Y14748D01*
Y14771D01*
X51093Y14783D01*
X51046D01*
X33978Y9715D02*
Y9785D01*
X33943D01*
X33931Y9774D01*
Y9750D01*
X33943Y9739D01*
X33978D01*
X33954D02*
X33931Y9715D01*
X33861D02*
X33908D01*
X33861Y9762D01*
Y9774D01*
X33873Y9785D01*
X33896D01*
X33908Y9774D01*
X33838D02*
X33826Y9785D01*
X33803D01*
X33791Y9774D01*
Y9762D01*
X33803Y9750D01*
X33814D01*
X33803D01*
X33791Y9739D01*
Y9727D01*
X33803Y9715D01*
X33826D01*
X33838Y9727D01*
X34458Y9715D02*
Y9785D01*
X34423D01*
X34411Y9774D01*
Y9750D01*
X34423Y9739D01*
X34458D01*
X34434D02*
X34411Y9715D01*
X34341D02*
X34388D01*
X34341Y9762D01*
Y9774D01*
X34353Y9785D01*
X34376D01*
X34388Y9774D01*
X34271Y9715D02*
X34318D01*
X34271Y9762D01*
Y9774D01*
X34283Y9785D01*
X34306D01*
X34318Y9774D01*
X35420Y9715D02*
Y9785D01*
X35385D01*
X35374Y9774D01*
Y9750D01*
X35385Y9739D01*
X35420D01*
X35397D02*
X35374Y9715D01*
X35304D02*
X35350D01*
X35304Y9762D01*
Y9774D01*
X35315Y9785D01*
X35339D01*
X35350Y9774D01*
X35280D02*
X35269Y9785D01*
X35245D01*
X35234Y9774D01*
Y9727D01*
X35245Y9715D01*
X35269D01*
X35280Y9727D01*
Y9774D01*
X35662Y9715D02*
Y9785D01*
X35627D01*
X35615Y9774D01*
Y9750D01*
X35627Y9739D01*
X35662D01*
X35638D02*
X35615Y9715D01*
X35592D02*
X35568D01*
X35580D01*
Y9785D01*
X35592Y9774D01*
X35487Y9785D02*
X35533D01*
Y9750D01*
X35510Y9762D01*
X35498D01*
X35487Y9750D01*
Y9727D01*
X35498Y9715D01*
X35522D01*
X35533Y9727D01*
X34699Y9715D02*
Y9785D01*
X34664D01*
X34652Y9774D01*
Y9750D01*
X34664Y9739D01*
X34699D01*
X34676D02*
X34652Y9715D01*
X34629D02*
X34606D01*
X34617D01*
Y9785D01*
X34629Y9774D01*
X34571D02*
X34559Y9785D01*
X34536D01*
X34524Y9774D01*
Y9762D01*
X34536Y9750D01*
X34547D01*
X34536D01*
X34524Y9739D01*
Y9727D01*
X34536Y9715D01*
X34559D01*
X34571Y9727D01*
X34216Y9715D02*
Y9785D01*
X34181D01*
X34170Y9774D01*
Y9750D01*
X34181Y9739D01*
X34216D01*
X34193D02*
X34170Y9715D01*
X34146D02*
X34123D01*
X34135D01*
Y9785D01*
X34146Y9774D01*
X34041Y9715D02*
X34088D01*
X34041Y9762D01*
Y9774D01*
X34053Y9785D01*
X34076D01*
X34088Y9774D01*
X34111Y10109D02*
X34123Y10121D01*
X34146D01*
X34158Y10109D01*
Y10062D01*
X34146Y10051D01*
X34123D01*
X34111Y10062D01*
X34088Y10051D02*
X34065D01*
X34076D01*
Y10121D01*
X34088Y10109D01*
X34030D02*
X34018Y10121D01*
X33995D01*
X33983Y10109D01*
Y10097D01*
X33995Y10086D01*
X34006D01*
X33995D01*
X33983Y10074D01*
Y10062D01*
X33995Y10051D01*
X34018D01*
X34030Y10062D01*
X34591Y10109D02*
X34603Y10121D01*
X34626D01*
X34638Y10109D01*
Y10062D01*
X34626Y10051D01*
X34603D01*
X34591Y10062D01*
X34568Y10051D02*
X34545D01*
X34556D01*
Y10121D01*
X34568Y10109D01*
X34463Y10051D02*
X34510D01*
X34463Y10097D01*
Y10109D01*
X34475Y10121D01*
X34498D01*
X34510Y10109D01*
X35554D02*
X35566Y10121D01*
X35589D01*
X35601Y10109D01*
Y10062D01*
X35589Y10051D01*
X35566D01*
X35554Y10062D01*
X35531Y10051D02*
X35507D01*
X35519D01*
Y10121D01*
X35531Y10109D01*
X35472D02*
X35461Y10121D01*
X35437D01*
X35426Y10109D01*
Y10062D01*
X35437Y10051D01*
X35461D01*
X35472Y10062D01*
Y10109D01*
X44895Y17959D02*
Y17889D01*
X44860D01*
X44848Y17901D01*
Y17913D01*
X44860Y17924D01*
X44895D01*
X44860D01*
X44848Y17936D01*
Y17948D01*
X44860Y17959D01*
X44895D01*
X44825Y17889D02*
Y17959D01*
X44801Y17936D01*
X44778Y17959D01*
Y17889D01*
X44708Y17948D02*
X44720Y17959D01*
X44743D01*
X44755Y17948D01*
Y17936D01*
X44743Y17924D01*
X44720D01*
X44708Y17913D01*
Y17901D01*
X44720Y17889D01*
X44743D01*
X44755Y17901D01*
X47902Y17959D02*
Y17889D01*
X47867D01*
X47855Y17901D01*
Y17913D01*
X47867Y17924D01*
X47902D01*
X47867D01*
X47855Y17936D01*
Y17948D01*
X47867Y17959D01*
X47902D01*
X47785Y17948D02*
X47797Y17959D01*
X47820D01*
X47832Y17948D01*
Y17936D01*
X47820Y17924D01*
X47797D01*
X47785Y17913D01*
Y17901D01*
X47797Y17889D01*
X47820D01*
X47832Y17901D01*
X47762Y17889D02*
Y17959D01*
X47727D01*
X47715Y17948D01*
Y17924D01*
X47727Y17913D01*
X47762D01*
X47692Y17959D02*
Y17889D01*
X47657D01*
X47645Y17901D01*
Y17948D01*
X47657Y17959D01*
X47692D01*
X26293Y9660D02*
X26305Y9671D01*
X26328D01*
X26340Y9660D01*
Y9648D01*
X26328Y9636D01*
X26305D01*
X26293Y9625D01*
Y9613D01*
X26305Y9601D01*
X26328D01*
X26340Y9613D01*
X26258Y9660D02*
Y9648D01*
X26270D01*
X26246D01*
X26258D01*
Y9613D01*
X26246Y9601D01*
X26212Y9648D02*
Y9601D01*
Y9625D01*
X26200Y9636D01*
X26188Y9648D01*
X26177D01*
X26142Y9671D02*
Y9601D01*
X26107D01*
X26095Y9613D01*
Y9625D01*
X26107Y9636D01*
X26142D01*
X26107D01*
X26095Y9648D01*
Y9660D01*
X26107Y9671D01*
X26142D01*
X26060Y9660D02*
Y9648D01*
X26072D01*
X26048D01*
X26060D01*
Y9613D01*
X26048Y9601D01*
X26013D02*
Y9648D01*
X25978D01*
X25967Y9636D01*
Y9601D01*
X46362Y18710D02*
X46373Y18721D01*
X46397D01*
X46408Y18710D01*
Y18663D01*
X46397Y18651D01*
X46373D01*
X46362Y18663D01*
X46292Y18651D02*
X46338D01*
X46292Y18698D01*
Y18710D01*
X46303Y18721D01*
X46327D01*
X46338Y18710D01*
X46222Y18721D02*
X46245Y18710D01*
X46268Y18686D01*
Y18663D01*
X46257Y18651D01*
X46233D01*
X46222Y18663D01*
Y18675D01*
X46233Y18686D01*
X46268D01*
X44858Y18710D02*
X44870Y18721D01*
X44893D01*
X44905Y18710D01*
Y18663D01*
X44893Y18651D01*
X44870D01*
X44858Y18663D01*
X44788Y18651D02*
X44835D01*
X44788Y18698D01*
Y18710D01*
X44800Y18721D01*
X44823D01*
X44835Y18710D01*
X44765Y18721D02*
X44718D01*
Y18710D01*
X44765Y18663D01*
Y18651D01*
X47865Y18710D02*
X47877Y18721D01*
X47900D01*
X47912Y18710D01*
Y18663D01*
X47900Y18651D01*
X47877D01*
X47865Y18663D01*
X47842D02*
X47830Y18651D01*
X47807D01*
X47795Y18663D01*
Y18710D01*
X47807Y18721D01*
X47830D01*
X47842Y18710D01*
Y18698D01*
X47830Y18686D01*
X47795D01*
X47772Y18651D02*
X47749D01*
X47760D01*
Y18721D01*
X47772Y18710D01*
X43393Y17959D02*
Y17889D01*
X43358D01*
X43347Y17901D01*
Y17948D01*
X43358Y17959D01*
X43393D01*
X43323D02*
X43277D01*
X43300D01*
Y17889D01*
X43253Y17959D02*
Y17889D01*
X43207D01*
X46398Y17959D02*
X46375D01*
X46387D01*
Y17889D01*
X46398D01*
X46375D01*
X46340D02*
Y17959D01*
X46317Y17936D01*
X46293Y17959D01*
Y17889D01*
X46270Y17959D02*
Y17889D01*
X46235D01*
X46223Y17901D01*
Y17948D01*
X46235Y17959D01*
X46270D01*
X46408Y17170D02*
Y17240D01*
X46373D01*
X46362Y17229D01*
Y17205D01*
X46373Y17194D01*
X46408D01*
X46385D02*
X46362Y17170D01*
X46303D02*
Y17240D01*
X46338Y17205D01*
X46292D01*
X46222Y17240D02*
X46268D01*
Y17205D01*
X46245Y17217D01*
X46233D01*
X46222Y17205D01*
Y17182D01*
X46233Y17170D01*
X46257D01*
X46268Y17182D01*
X44905Y17170D02*
Y17240D01*
X44870D01*
X44858Y17229D01*
Y17205D01*
X44870Y17194D01*
X44905D01*
X44881D02*
X44858Y17170D01*
X44800D02*
Y17240D01*
X44835Y17205D01*
X44788D01*
X44718Y17240D02*
X44741Y17229D01*
X44765Y17205D01*
Y17182D01*
X44753Y17170D01*
X44730D01*
X44718Y17182D01*
Y17194D01*
X44730Y17205D01*
X44765D01*
X47912Y17170D02*
Y17240D01*
X47877D01*
X47865Y17229D01*
Y17205D01*
X47877Y17194D01*
X47912D01*
X47889D02*
X47865Y17170D01*
X47842Y17182D02*
X47830Y17170D01*
X47807D01*
X47795Y17182D01*
Y17229D01*
X47807Y17240D01*
X47830D01*
X47842Y17229D01*
Y17217D01*
X47830Y17205D01*
X47795D01*
X47737Y17170D02*
Y17240D01*
X47772Y17205D01*
X47725D01*
X30891Y9687D02*
X30937D01*
Y9652D01*
X30914D01*
X30937D01*
Y9617D01*
X30867Y9687D02*
Y9617D01*
X30832D01*
X30821Y9628D01*
Y9640D01*
X30832Y9652D01*
X30867D01*
X30832D01*
X30821Y9663D01*
Y9675D01*
X30832Y9687D01*
X30867D01*
X30727D02*
Y9617D01*
X30692D01*
X30681Y9628D01*
Y9640D01*
X30692Y9652D01*
X30727D01*
X30692D01*
X30681Y9663D01*
Y9675D01*
X30692Y9687D01*
X30727D01*
X30657Y9663D02*
Y9628D01*
X30646Y9617D01*
X30611D01*
Y9663D01*
X30576Y9675D02*
Y9663D01*
X30587D01*
X30564D01*
X30576D01*
Y9628D01*
X30564Y9617D01*
X30517Y9675D02*
Y9663D01*
X30529D01*
X30506D01*
X30517D01*
Y9628D01*
X30506Y9617D01*
X30459D02*
X30436D01*
X30424Y9628D01*
Y9652D01*
X30436Y9663D01*
X30459D01*
X30471Y9652D01*
Y9628D01*
X30459Y9617D01*
X30401D02*
Y9663D01*
X30366D01*
X30354Y9652D01*
Y9617D01*
X34938Y9715D02*
Y9785D01*
X34903D01*
X34891Y9774D01*
Y9750D01*
X34903Y9739D01*
X34938D01*
X34914D02*
X34891Y9715D01*
X34821D02*
X34868D01*
X34821Y9762D01*
Y9774D01*
X34833Y9785D01*
X34856D01*
X34868Y9774D01*
X34798Y9715D02*
X34774D01*
X34786D01*
Y9785D01*
X34798Y9774D01*
X35179Y9715D02*
Y9785D01*
X35144D01*
X35132Y9774D01*
Y9750D01*
X35144Y9739D01*
X35179D01*
X35156D02*
X35132Y9715D01*
X35109D02*
X35086D01*
X35097D01*
Y9785D01*
X35109Y9774D01*
X35016Y9715D02*
Y9785D01*
X35051Y9750D01*
X35004D01*
X35074Y10109D02*
X35086Y10121D01*
X35109D01*
X35121Y10109D01*
Y10062D01*
X35109Y10051D01*
X35086D01*
X35074Y10062D01*
X35051Y10051D02*
X35027D01*
X35039D01*
Y10121D01*
X35051Y10109D01*
X34992Y10051D02*
X34969D01*
X34981D01*
Y10121D01*
X34992Y10109D01*
M02*
