G04*
G04 #@! TF.GenerationSoftware,Altium Limited,Altium Designer,18.0.11 (651)*
G04*
G04 Layer_Color=8388736*
%FSLAX42Y42*%
%MOMM*%
G71*
G01*
G75*
%ADD27R,1.70X1.50*%
%ADD28R,1.50X1.70*%
%ADD29R,0.80X1.65*%
%ADD30R,2.80X1.70*%
%ADD31R,1.10X1.20*%
%ADD32O,0.80X1.65*%
%ADD33R,4.50X2.15*%
%ADD34R,1.65X0.80*%
%ADD35R,1.10X1.00*%
%ADD36C,2.90*%
%ADD37C,0.20*%
%ADD38C,1.80*%
%ADD39C,4.70*%
%ADD40C,4.20*%
%ADD41C,2.20*%
%ADD42C,2.00*%
%ADD43C,5.20*%
%ADD44C,2.40*%
%ADD45R,1.50X1.50*%
%ADD46R,1.80X1.80*%
%ADD47C,7.20*%
%ADD48C,0.90*%
%ADD49C,1.20*%
%ADD50C,1.70*%
D27*
X25133Y8789D02*
D03*
Y8979D02*
D03*
X29680Y12814D02*
D03*
Y12624D02*
D03*
X28486D02*
D03*
Y12434D02*
D03*
X29677Y12116D02*
D03*
Y12306D02*
D03*
X42913Y16351D02*
D03*
Y16161D02*
D03*
X42723D02*
D03*
Y16351D02*
D03*
X42407Y16148D02*
D03*
Y16338D02*
D03*
X43383Y16351D02*
D03*
Y16161D02*
D03*
X42202Y16338D02*
D03*
Y16148D02*
D03*
X43167Y16351D02*
D03*
Y16161D02*
D03*
X25362Y9614D02*
D03*
Y9424D02*
D03*
X38771Y12776D02*
D03*
Y12586D02*
D03*
X38997Y12776D02*
D03*
Y12586D02*
D03*
X39223Y12776D02*
D03*
Y12586D02*
D03*
X39449D02*
D03*
Y12776D02*
D03*
X39675Y12586D02*
D03*
Y12776D02*
D03*
X38529Y13798D02*
D03*
Y13608D02*
D03*
X33652Y12624D02*
D03*
Y12814D02*
D03*
X35655Y12890D02*
D03*
Y12700D02*
D03*
X31723Y12814D02*
D03*
Y12624D02*
D03*
X34566Y12700D02*
D03*
Y12510D02*
D03*
X35655Y12192D02*
D03*
Y12382D02*
D03*
X33652Y12116D02*
D03*
Y12306D02*
D03*
X30523Y12624D02*
D03*
Y12434D02*
D03*
X31733Y12116D02*
D03*
Y12306D02*
D03*
X57576Y9167D02*
D03*
Y8977D02*
D03*
X61597Y9180D02*
D03*
Y8990D02*
D03*
X65587Y9155D02*
D03*
Y8965D02*
D03*
X41560Y16302D02*
D03*
Y16112D02*
D03*
X40367Y16216D02*
D03*
Y16406D02*
D03*
X43518Y16787D02*
D03*
Y16977D02*
D03*
X41694Y15503D02*
D03*
Y15693D02*
D03*
X42788Y15503D02*
D03*
Y15693D02*
D03*
X42507Y14870D02*
D03*
Y15060D02*
D03*
X41567D02*
D03*
Y14870D02*
D03*
X43772Y15697D02*
D03*
Y15507D02*
D03*
X43548Y15060D02*
D03*
Y14870D02*
D03*
X51171Y17221D02*
D03*
Y17411D02*
D03*
X51765D02*
D03*
Y17221D02*
D03*
D28*
X41859Y13907D02*
D03*
X41669D02*
D03*
X42883D02*
D03*
X42693D02*
D03*
X43867D02*
D03*
X43677D02*
D03*
X29540Y8649D02*
D03*
X29730D02*
D03*
X31433D02*
D03*
X31242D02*
D03*
X31433Y9169D02*
D03*
X31242D02*
D03*
X29540D02*
D03*
X29730D02*
D03*
X41148Y11659D02*
D03*
X40958D02*
D03*
X25552Y8979D02*
D03*
X25362D02*
D03*
X64087Y10203D02*
D03*
X63897D02*
D03*
X60107Y10238D02*
D03*
X59917D02*
D03*
X56063Y9954D02*
D03*
X55873D02*
D03*
X56906D02*
D03*
X56716D02*
D03*
X60900Y10238D02*
D03*
X60710D02*
D03*
X64919Y10203D02*
D03*
X64729D02*
D03*
X64497D02*
D03*
X64307D02*
D03*
X60507Y10238D02*
D03*
X60317D02*
D03*
X56473Y9954D02*
D03*
X56283D02*
D03*
X41065Y16743D02*
D03*
X41255D02*
D03*
X41065Y17018D02*
D03*
X41255D02*
D03*
X39954Y15512D02*
D03*
X40144D02*
D03*
X39978Y16216D02*
D03*
X40168D02*
D03*
X40557D02*
D03*
X40747D02*
D03*
X41770Y14266D02*
D03*
X41580D02*
D03*
X41770Y14470D02*
D03*
X41580D02*
D03*
X42788Y14266D02*
D03*
X42597D02*
D03*
X42788Y14470D02*
D03*
X42597D02*
D03*
X43582D02*
D03*
X43772D02*
D03*
X43582Y14266D02*
D03*
X43772D02*
D03*
D29*
Y15060D02*
D03*
X43962D02*
D03*
Y14790D02*
D03*
X43867D02*
D03*
X43772D02*
D03*
X42788D02*
D03*
X42883D02*
D03*
X42977D02*
D03*
Y15060D02*
D03*
X42788D02*
D03*
X41764Y14790D02*
D03*
X41859D02*
D03*
X41954D02*
D03*
Y15060D02*
D03*
X41764D02*
D03*
X43962Y15423D02*
D03*
X44057D02*
D03*
X44152D02*
D03*
Y15693D02*
D03*
X43962D02*
D03*
X42977D02*
D03*
X43167D02*
D03*
Y15423D02*
D03*
X43072D02*
D03*
X42977D02*
D03*
X41955Y15693D02*
D03*
X42145D02*
D03*
Y15423D02*
D03*
X42050D02*
D03*
X41955D02*
D03*
X40462Y16748D02*
D03*
X40557D02*
D03*
X40652D02*
D03*
Y17018D02*
D03*
X40462D02*
D03*
D30*
X30201Y12497D02*
D03*
Y12790D02*
D03*
X32436Y12521D02*
D03*
Y12814D02*
D03*
X34214Y12597D02*
D03*
Y12890D02*
D03*
X28169Y12521D02*
D03*
Y12814D02*
D03*
D31*
X41161Y16307D02*
D03*
X41066Y16507D02*
D03*
X41256D02*
D03*
X40462Y15940D02*
D03*
X40557Y15740D02*
D03*
X40367D02*
D03*
D32*
X43296Y17155D02*
D03*
X43168D02*
D03*
X43042D02*
D03*
X42915D02*
D03*
X42788D02*
D03*
X42661D02*
D03*
X42534D02*
D03*
X42407D02*
D03*
X43296Y16610D02*
D03*
X43168D02*
D03*
X43042D02*
D03*
X42915D02*
D03*
X42788D02*
D03*
X42661D02*
D03*
X42534D02*
D03*
X42407D02*
D03*
X38765Y13431D02*
D03*
X38892D02*
D03*
X39019D02*
D03*
X39146D02*
D03*
X39273D02*
D03*
X39400D02*
D03*
X39527D02*
D03*
X39654D02*
D03*
X38765Y13976D02*
D03*
X38892D02*
D03*
X39019D02*
D03*
X39146D02*
D03*
X39273D02*
D03*
X39400D02*
D03*
X39527D02*
D03*
X39654D02*
D03*
D33*
X41217Y15105D02*
D03*
X40557D02*
D03*
D34*
X41296Y15936D02*
D03*
Y15746D02*
D03*
X41026D02*
D03*
Y15841D02*
D03*
Y15936D02*
D03*
D35*
X51448Y17081D02*
D03*
Y17221D02*
D03*
D36*
X43590Y12059D02*
D03*
X43390Y11659D02*
D03*
Y12459D02*
D03*
X43790D02*
D03*
X44190D02*
D03*
X44590D02*
D03*
X44990D02*
D03*
X45390D02*
D03*
X45790D02*
D03*
X46190D02*
D03*
X46590D02*
D03*
X46990D02*
D03*
X47390D02*
D03*
X47790D02*
D03*
Y11659D02*
D03*
X47390D02*
D03*
X46990D02*
D03*
X46590D02*
D03*
X46190D02*
D03*
X45790D02*
D03*
X45390D02*
D03*
X44990D02*
D03*
X44590D02*
D03*
X44190D02*
D03*
X43790D02*
D03*
X44390Y12059D02*
D03*
X44790D02*
D03*
X45190D02*
D03*
X45590D02*
D03*
X45990D02*
D03*
X46390D02*
D03*
X46790D02*
D03*
X47190D02*
D03*
X47590D02*
D03*
X43990D02*
D03*
X34404Y8687D02*
D03*
X34804D02*
D03*
X35204D02*
D03*
X35004Y8287D02*
D03*
X34604D02*
D03*
X34204D02*
D03*
X33804D02*
D03*
X33604Y8687D02*
D03*
X34004D02*
D03*
X33604Y7887D02*
D03*
X35204D02*
D03*
X34804D02*
D03*
X34404D02*
D03*
X34004D02*
D03*
D37*
X48760Y10979D02*
D03*
X42424Y10972D02*
D03*
X48914Y12782D02*
D03*
X42279Y12775D02*
D03*
X29820Y7683D02*
D03*
X52428Y12118D02*
D03*
X55357Y14175D02*
D03*
X32954Y8237D02*
D03*
X35854D02*
D03*
X54129Y9137D02*
D03*
D38*
X51029Y13665D02*
D03*
X51283D02*
D03*
X51537D02*
D03*
X51791D02*
D03*
X52045D02*
D03*
X52299D02*
D03*
X52553D02*
D03*
X52807D02*
D03*
X53061D02*
D03*
X53315D02*
D03*
X53569D02*
D03*
X53823D02*
D03*
X54077D02*
D03*
X54331D02*
D03*
Y13919D02*
D03*
Y14173D02*
D03*
Y14427D02*
D03*
Y14681D02*
D03*
Y14935D02*
D03*
Y15189D02*
D03*
Y15443D02*
D03*
Y15697D02*
D03*
Y15951D02*
D03*
Y16205D02*
D03*
Y16459D02*
D03*
Y16713D02*
D03*
Y16967D02*
D03*
Y17221D02*
D03*
Y17475D02*
D03*
Y17729D02*
D03*
Y17983D02*
D03*
X54077D02*
D03*
X53823D02*
D03*
X53569D02*
D03*
X53315D02*
D03*
X53061D02*
D03*
X52807D02*
D03*
X52553D02*
D03*
X52299D02*
D03*
X52045D02*
D03*
X51791D02*
D03*
X51537D02*
D03*
X51283D02*
D03*
X51029D02*
D03*
X50775D02*
D03*
Y17729D02*
D03*
Y17475D02*
D03*
Y17221D02*
D03*
Y16967D02*
D03*
Y16713D02*
D03*
Y16459D02*
D03*
Y16205D02*
D03*
Y15951D02*
D03*
Y15697D02*
D03*
Y15443D02*
D03*
Y15189D02*
D03*
Y14935D02*
D03*
Y14681D02*
D03*
Y14427D02*
D03*
Y14173D02*
D03*
Y13919D02*
D03*
Y13665D02*
D03*
X52700Y13193D02*
D03*
X52400D02*
D03*
X35338Y12700D02*
D03*
Y12446D02*
D03*
D39*
X30467Y8649D02*
D03*
Y9169D02*
D03*
X25997Y8649D02*
D03*
Y9169D02*
D03*
D40*
X64282Y9392D02*
D03*
X64732Y8972D02*
D03*
Y8522D02*
D03*
X64282D02*
D03*
X60261Y9417D02*
D03*
X60711Y8997D02*
D03*
Y8547D02*
D03*
X60261D02*
D03*
X56281Y9386D02*
D03*
X56731Y8966D02*
D03*
Y8516D02*
D03*
X56281D02*
D03*
D41*
X49830Y14586D02*
D03*
X50330D02*
D03*
X49830Y14889D02*
D03*
X50330D02*
D03*
X49830Y15192D02*
D03*
X50330D02*
D03*
X49830Y15495D02*
D03*
X50330D02*
D03*
Y15798D02*
D03*
X49830D02*
D03*
X50330Y16101D02*
D03*
X49830D02*
D03*
X50330Y16404D02*
D03*
X49830D02*
D03*
X50330Y16707D02*
D03*
X49830D02*
D03*
Y17010D02*
D03*
X50330D02*
D03*
X49830Y17313D02*
D03*
X50330D02*
D03*
X49830Y17617D02*
D03*
X50330D02*
D03*
X33312Y12116D02*
D03*
Y12370D02*
D03*
Y12624D02*
D03*
X55232Y14050D02*
D03*
Y14300D02*
D03*
Y14550D02*
D03*
X31215Y12116D02*
D03*
Y12370D02*
D03*
Y12624D02*
D03*
X29172D02*
D03*
Y12370D02*
D03*
Y12116D02*
D03*
X53254Y9271D02*
D03*
X53504D02*
D03*
X53754D02*
D03*
X54004D02*
D03*
X54254D02*
D03*
X54504D02*
D03*
X54754D02*
D03*
X55004D02*
D03*
D42*
X29695Y7818D02*
D03*
X29945D02*
D03*
D43*
X32700Y14961D02*
D03*
X34150D02*
D03*
X32700Y15841D02*
D03*
X34150D02*
D03*
D44*
X53053Y12493D02*
D03*
X52803D02*
D03*
X52553D02*
D03*
X52303D02*
D03*
X52053D02*
D03*
Y12243D02*
D03*
X52303D02*
D03*
X52553D02*
D03*
X52803D02*
D03*
X53053D02*
D03*
D45*
X44835Y17748D02*
D03*
Y17488D02*
D03*
X47841Y17748D02*
D03*
Y17488D02*
D03*
X43332Y17748D02*
D03*
Y17488D02*
D03*
X46338Y17748D02*
D03*
Y17488D02*
D03*
D46*
X35338Y12192D02*
D03*
D47*
X27330Y10541D02*
D03*
X34036Y17628D02*
D03*
X57099D02*
D03*
X65380Y10541D02*
D03*
X39129Y10325D02*
D03*
X52273D02*
D03*
D48*
X53149Y16929D02*
D03*
X51841Y11468D02*
D03*
X51943Y15888D02*
D03*
X51930Y15418D02*
D03*
X51841Y14923D02*
D03*
X52997D02*
D03*
Y15189D02*
D03*
X45783Y15215D02*
D03*
X30391Y13475D02*
D03*
X31775Y8077D02*
D03*
X45783Y14884D02*
D03*
X41694Y15329D02*
D03*
X63830Y9843D02*
D03*
X59665Y9792D02*
D03*
X55880Y11659D02*
D03*
X43243Y14935D02*
D03*
X43523Y15697D02*
D03*
X41567Y15227D02*
D03*
X43072D02*
D03*
X42685D02*
D03*
X44057D02*
D03*
D49*
X52934Y17742D02*
D03*
X53162Y14300D02*
D03*
X53594D02*
D03*
X53353Y16256D02*
D03*
X33033Y9240D02*
D03*
X35591Y9230D02*
D03*
X34629D02*
D03*
X35110D02*
D03*
X34147D02*
D03*
D50*
X52681Y16077D02*
D03*
M02*
