M48
;Layer_Color=9474304
;FILE_FORMAT=4:2
METRIC,LZ
;TYPE=PLATED
T1F00S00C0.30
T2F00S00C0.40
T3F00S00C0.50
T5F00S00C0.70
T6F00S00C0.71
T7F00S00C0.80
T8F00S00C1.00
T9F00S00C1.10
T10F00S00C1.15
T11F00S00C1.20
T12F00S00C1.20
T13F00S00C1.25
T14F00S00C1.30
T15F00S00C1.30
T16F00S00C1.35
T17F00S00C1.40
T18F00S00C1.40
T19F00S00C1.75
T20F00S00C2.20
T21F00S00C2.85
T22F00S00C3.00
T23F00S00C5.00
%
T01
X031775Y008077
X034239Y010224
X034735
X035204
X037046Y010046
X04793Y010986
Y011227
X051841Y011468
X05588Y011659
X059665Y009792
X06383Y009843
X052997Y014923
Y015189
X05193Y015418
X051841Y014923
X045783Y014884
Y015215
X044057Y015227
X043231Y015138
X043243Y014935
X043072Y015227
X042685
X042418Y015507
X041694Y015329
X041567Y015227
X041419Y01447
X042359
X042227Y014668
X043265Y01447
X043523Y015697
X039726Y013589
X039449Y012395
X039223
X038997
X038771
X038595Y012116
X038379Y014275
X037325Y013729
X030391Y013475
X04017Y016535
X040652Y016497
X040856Y01665
X040945Y016091
X042405Y016015
X04304Y015926
X043518Y017155
X043853Y016015
X044539Y015926
X051943Y015888
X053149Y016929
T02
X033033Y00924
X034147Y00923
X034629
X03511
X035591
X053162Y0143
X053594
X053353Y016256
X052934Y017742
T03
X045047Y010604
X041745Y016116
X051016Y018707
T05
X040449Y011659
T06
X045669Y010173
X044971Y010185
X044729Y010579
Y014046
X039019Y013703
T07
X054331Y013665
X054077
X053823
X053569
X053315
X053061
X052807
X052553
X052299
X052045
X051791
X0524Y013193
X0527
X054331Y013919
Y014173
Y014427
Y014681
Y014935
Y015189
Y015443
Y015697
X050775
Y015443
Y015189
Y014935
Y014681
Y014427
Y014173
Y013919
Y013665
X051029
X051283
X051537
X043332Y017488
Y017748
X044835
Y017488
X046338
Y017748
X050775Y017729
Y017983
X051029
X051283
X051537
X050775Y017475
Y017221
Y016967
Y016713
Y016459
Y016205
Y015951
X051791Y017983
X052045
X052299
X052553
X052807
X053061
X053315
X053569
X053823
X054077
X054331
Y017729
Y017475
Y017221
Y016967
Y016713
Y016459
Y016205
Y015951
T08
X040335Y013792
X040043
X035338Y0127
Y012446
Y012192
X052681Y016077
T09
X029172Y012116
Y01237
Y012624
X031215
Y01237
Y012116
T10
X033312Y012116
Y01237
Y012624
T11
X029695Y007818
X029945
T12
X05033Y014586
Y014889
Y015192
Y015495
Y015798
X04983
Y015495
Y015192
Y014889
Y014586
Y016101
Y016404
Y016707
Y01701
Y017313
Y017617
X05033
Y017313
Y01701
Y016707
Y016404
Y016101
T13
X055232Y01405
Y0143
Y01455
T14
X02982Y007683
T15
X052428Y012118
T16
X055357Y014175
T17
X053053Y012243
Y012493
X052803
X052553
X052303
X052053
Y012243
X052303
X052553
X052803
T18
X055004Y009271
X054754
X054504
X054254
X054004
X053754
X053504
X053254
X054129Y009137
T19
X033604Y007887
X034004
X034404
X034804
X035204
X035004Y008287
X034604
X034204
X033804
X034004Y008687
X034404
X034804
X035204
X033604
X04339Y011659
X04379
X04419
X04459
X04499
X04539
X04579
X04619
X04659
X04699
X04739
X04779
Y012459
X04739
X04699
X04659
X04619
X04579
X04539
X04499
X04459
X04419
X04379
X04399Y012059
X04439
X04479
X04519
X04559
X04599
X04639
X04679
X04719
X04759
X04359
X04339Y012459
T20
X042424Y010972
X04876Y010979
X056281Y009386
X056731Y008966
Y008516
X056281
X060261Y008547
X060711
Y008997
X060261Y009417
X064282Y009392
X064732Y008972
Y008522
X064282
X048914Y012782
X042279Y012775
T21
X032954Y008237
X035854
T22
X025997Y008649
Y009169
X030467
Y008649
X0327Y014961
Y015841
X03415
Y014961
T23
X02733Y010541
X039129Y010325
X052273
X06538Y010541
X034036Y017628
X057099
M30
