G04*
G04 #@! TF.GenerationSoftware,Altium Limited,Altium Designer,18.0.11 (651)*
G04*
G04 Layer_Color=16711935*
%FSLAX42Y42*%
%MOMM*%
G71*
G01*
G75*
%ADD12C,0.25*%
%ADD14C,0.40*%
D12*
X42584Y10983D02*
G03*
X42584Y10983I-165J0D01*
G01*
X48924D02*
G03*
X48924Y10983I-165J0D01*
G01*
X49074Y12793D02*
G03*
X49074Y12793I-165J0D01*
G01*
X42434D02*
G03*
X42434Y12793I-165J0D01*
G01*
X43589Y17613D02*
G03*
X43589Y17613I-250J0D01*
G01*
X45089D02*
G03*
X45089Y17613I-250J0D01*
G01*
X46589D02*
G03*
X46589Y17613I-250J0D01*
G01*
X48089D02*
G03*
X48089Y17613I-250J0D01*
G01*
X65265Y8960D02*
G03*
X65265Y8960I-750J0D01*
G01*
X61265D02*
G03*
X61265Y8960I-750J0D01*
G01*
X57265D02*
G03*
X57265Y8960I-750J0D01*
G01*
X34462Y15460D02*
G03*
X34462Y15460I-1000J0D01*
G01*
X26862Y8960D02*
G03*
X26862Y8960I-900J0D01*
G01*
X31362D02*
G03*
X31362Y8960I-900J0D01*
G01*
D14*
X24143Y7341D02*
X36907D01*
X24143D02*
Y10706D01*
X32655Y19219D01*
X58542D01*
X67035Y10726D01*
Y7341D02*
Y10726D01*
X54271Y7341D02*
X67035D01*
X52150Y9462D02*
X54271Y7341D01*
X39028Y9462D02*
X52150D01*
X36907Y7341D02*
X39028Y9462D01*
M02*
