G04*
G04 #@! TF.GenerationSoftware,Altium Limited,Altium Designer,18.0.11 (651)*
G04*
G04 Layer_Color=65535*
%FSLAX42Y42*%
%MOMM*%
G71*
G01*
G75*
%ADD10C,0.25*%
%ADD11C,0.60*%
%ADD12C,0.25*%
%ADD13C,0.20*%
%ADD14C,0.40*%
%ADD15C,0.05*%
%ADD16C,0.12*%
%ADD17C,0.15*%
G36*
X65736Y7676D02*
X65738D01*
X65742Y7675D01*
X65748Y7674D01*
X65754Y7673D01*
X65761Y7672D01*
X65768Y7670D01*
X65760Y7643D01*
X65760D01*
X65760Y7643D01*
X65758Y7644D01*
X65755Y7644D01*
X65752Y7645D01*
X65749Y7646D01*
X65745Y7647D01*
X65742Y7647D01*
X65738Y7648D01*
X65737D01*
X65736Y7647D01*
X65735Y7647D01*
X65733Y7647D01*
X65732Y7646D01*
X65730Y7645D01*
X65729Y7643D01*
X65729Y7643D01*
X65728Y7642D01*
X65727Y7640D01*
X65727Y7639D01*
X65726Y7636D01*
X65725Y7633D01*
X65724Y7629D01*
X65722Y7620D01*
X65749D01*
X65744Y7592D01*
X65717D01*
X65693Y7480D01*
X65656D01*
X65679Y7592D01*
X65658D01*
X65664Y7620D01*
X65685D01*
X65688Y7634D01*
Y7634D01*
X65688Y7635D01*
Y7635D01*
X65688Y7637D01*
X65689Y7640D01*
X65690Y7643D01*
X65691Y7647D01*
X65692Y7651D01*
X65694Y7655D01*
X65695Y7658D01*
X65695Y7658D01*
X65695Y7659D01*
X65697Y7660D01*
X65698Y7662D01*
X65700Y7665D01*
X65702Y7667D01*
X65705Y7669D01*
X65708Y7671D01*
X65709Y7671D01*
X65710Y7672D01*
X65712Y7673D01*
X65714Y7674D01*
X65717Y7674D01*
X65722Y7675D01*
X65726Y7676D01*
X65731Y7676D01*
X65734D01*
X65736Y7676D01*
D02*
G37*
G36*
X65338D02*
X65340Y7675D01*
X65344Y7675D01*
X65347Y7675D01*
X65351Y7674D01*
X65360Y7672D01*
X65364Y7671D01*
X65368Y7669D01*
X65373Y7667D01*
X65377Y7665D01*
X65381Y7663D01*
X65385Y7660D01*
X65385Y7660D01*
X65385Y7659D01*
X65386Y7658D01*
X65388Y7657D01*
X65389Y7655D01*
X65391Y7654D01*
X65392Y7651D01*
X65394Y7649D01*
X65396Y7646D01*
X65398Y7643D01*
X65400Y7639D01*
X65401Y7635D01*
X65403Y7631D01*
X65404Y7627D01*
X65405Y7622D01*
X65405Y7618D01*
X65367Y7616D01*
Y7616D01*
Y7617D01*
X65367Y7618D01*
X65366Y7621D01*
X65365Y7624D01*
X65364Y7627D01*
X65362Y7631D01*
X65360Y7634D01*
X65357Y7637D01*
X65357Y7637D01*
X65355Y7638D01*
X65353Y7640D01*
X65351Y7641D01*
X65347Y7642D01*
X65343Y7644D01*
X65338Y7644D01*
X65332Y7645D01*
X65329D01*
X65326Y7644D01*
X65323Y7644D01*
X65319Y7643D01*
X65315Y7642D01*
X65312Y7641D01*
X65308Y7639D01*
X65308Y7639D01*
X65307Y7638D01*
X65306Y7637D01*
X65305Y7635D01*
X65304Y7633D01*
X65303Y7630D01*
X65302Y7627D01*
X65302Y7624D01*
Y7624D01*
Y7623D01*
X65302Y7621D01*
X65302Y7619D01*
X65303Y7617D01*
X65304Y7615D01*
X65306Y7613D01*
X65308Y7611D01*
X65308Y7610D01*
X65309Y7609D01*
X65311Y7608D01*
X65314Y7607D01*
X65316Y7606D01*
X65318Y7604D01*
X65320Y7603D01*
X65323Y7602D01*
X65325Y7600D01*
X65329Y7599D01*
X65332Y7597D01*
X65336Y7595D01*
X65337Y7595D01*
X65338Y7595D01*
X65339Y7594D01*
X65342Y7593D01*
X65344Y7592D01*
X65347Y7590D01*
X65354Y7587D01*
X65361Y7583D01*
X65368Y7579D01*
X65371Y7577D01*
X65374Y7576D01*
X65377Y7574D01*
X65379Y7572D01*
X65379Y7572D01*
X65379Y7571D01*
X65380Y7571D01*
X65381Y7570D01*
X65383Y7567D01*
X65386Y7563D01*
X65388Y7558D01*
X65390Y7552D01*
X65392Y7546D01*
X65392Y7542D01*
X65392Y7538D01*
Y7538D01*
Y7537D01*
Y7536D01*
X65392Y7534D01*
X65392Y7532D01*
X65391Y7529D01*
X65391Y7526D01*
X65390Y7523D01*
X65389Y7520D01*
X65387Y7516D01*
X65386Y7513D01*
X65384Y7509D01*
X65381Y7506D01*
X65379Y7502D01*
X65376Y7498D01*
X65372Y7495D01*
X65372Y7494D01*
X65371Y7494D01*
X65370Y7493D01*
X65368Y7492D01*
X65366Y7491D01*
X65364Y7489D01*
X65361Y7488D01*
X65357Y7486D01*
X65354Y7484D01*
X65350Y7483D01*
X65345Y7481D01*
X65340Y7479D01*
X65335Y7478D01*
X65329Y7478D01*
X65323Y7477D01*
X65316Y7477D01*
X65312D01*
X65310Y7477D01*
X65307Y7477D01*
X65304D01*
X65301Y7478D01*
X65295Y7479D01*
X65287Y7480D01*
X65280Y7482D01*
X65273Y7485D01*
X65273D01*
X65272Y7485D01*
X65271Y7486D01*
X65270Y7486D01*
X65267Y7488D01*
X65263Y7491D01*
X65259Y7494D01*
X65255Y7498D01*
X65251Y7503D01*
X65247Y7508D01*
Y7508D01*
X65247Y7508D01*
X65247Y7509D01*
X65246Y7511D01*
X65246Y7512D01*
X65245Y7514D01*
X65244Y7518D01*
X65242Y7523D01*
X65241Y7529D01*
X65241Y7535D01*
X65240Y7542D01*
X65278Y7544D01*
Y7544D01*
Y7543D01*
Y7542D01*
X65278Y7541D01*
X65279Y7538D01*
X65279Y7534D01*
X65280Y7530D01*
X65281Y7526D01*
X65282Y7522D01*
X65284Y7520D01*
X65285Y7519D01*
X65286Y7518D01*
X65288Y7517D01*
X65292Y7515D01*
X65293Y7514D01*
X65296Y7513D01*
X65298Y7512D01*
X65302Y7511D01*
X65305Y7511D01*
X65308Y7510D01*
X65312Y7510D01*
X65319D01*
X65321Y7510D01*
X65323D01*
X65327Y7511D01*
X65332Y7511D01*
X65336Y7513D01*
X65341Y7514D01*
X65344Y7517D01*
X65345Y7517D01*
X65346Y7518D01*
X65347Y7519D01*
X65349Y7521D01*
X65350Y7524D01*
X65352Y7527D01*
X65353Y7530D01*
X65353Y7533D01*
Y7534D01*
Y7535D01*
X65353Y7536D01*
X65352Y7538D01*
X65352Y7541D01*
X65350Y7543D01*
X65348Y7546D01*
X65346Y7548D01*
X65346Y7548D01*
X65345Y7549D01*
X65343Y7550D01*
X65341Y7551D01*
X65339Y7552D01*
X65337Y7553D01*
X65335Y7554D01*
X65332Y7556D01*
X65329Y7557D01*
X65326Y7559D01*
X65322Y7560D01*
X65318Y7562D01*
X65318D01*
X65317Y7562D01*
X65316Y7563D01*
X65315Y7564D01*
X65313Y7564D01*
X65311Y7565D01*
X65306Y7567D01*
X65301Y7570D01*
X65295Y7573D01*
X65290Y7576D01*
X65288Y7577D01*
X65286Y7578D01*
X65285Y7578D01*
X65284Y7579D01*
X65282Y7581D01*
X65280Y7583D01*
X65277Y7585D01*
X65275Y7588D01*
X65272Y7591D01*
X65270Y7595D01*
X65269Y7596D01*
X65269Y7597D01*
X65268Y7599D01*
X65267Y7602D01*
X65266Y7606D01*
X65265Y7610D01*
X65264Y7614D01*
X65264Y7619D01*
Y7620D01*
Y7620D01*
Y7622D01*
X65264Y7624D01*
X65264Y7625D01*
X65265Y7628D01*
X65265Y7631D01*
X65266Y7634D01*
X65268Y7640D01*
X65270Y7643D01*
X65271Y7647D01*
X65273Y7650D01*
X65275Y7654D01*
X65278Y7657D01*
X65281Y7660D01*
X65282Y7660D01*
X65282Y7661D01*
X65283Y7661D01*
X65285Y7662D01*
X65286Y7664D01*
X65288Y7665D01*
X65291Y7667D01*
X65294Y7668D01*
X65298Y7669D01*
X65301Y7671D01*
X65305Y7672D01*
X65310Y7674D01*
X65315Y7675D01*
X65320Y7675D01*
X65326Y7676D01*
X65332Y7676D01*
X65335D01*
X65338Y7676D01*
D02*
G37*
G36*
X65989Y7622D02*
X65991D01*
X65994Y7622D01*
X66000Y7622D01*
X66006Y7620D01*
X66013Y7619D01*
X66020Y7616D01*
X66023Y7614D01*
X66025Y7613D01*
X66026D01*
X66026Y7612D01*
X66028Y7611D01*
X66030Y7609D01*
X66033Y7606D01*
X66036Y7602D01*
X66039Y7597D01*
X66041Y7592D01*
X66043Y7586D01*
X66008Y7580D01*
Y7581D01*
X66008Y7581D01*
X66007Y7583D01*
X66006Y7584D01*
X66005Y7586D01*
X66003Y7588D01*
X66001Y7590D01*
X65999Y7591D01*
X65999Y7592D01*
X65998Y7592D01*
X65996Y7593D01*
X65994Y7594D01*
X65991Y7595D01*
X65987Y7596D01*
X65983Y7596D01*
X65979Y7597D01*
X65977D01*
X65975Y7596D01*
X65972Y7596D01*
X65969Y7596D01*
X65967Y7595D01*
X65964Y7594D01*
X65962Y7592D01*
X65961Y7592D01*
X65961Y7592D01*
X65960Y7591D01*
X65959Y7590D01*
X65958Y7587D01*
X65957Y7586D01*
X65957Y7584D01*
Y7583D01*
Y7583D01*
X65957Y7582D01*
X65957Y7581D01*
X65958Y7579D01*
X65959Y7578D01*
X65960Y7576D01*
X65962Y7575D01*
X65962D01*
X65963Y7574D01*
X65964Y7574D01*
X65966Y7573D01*
X65968Y7572D01*
X65970Y7572D01*
X65972Y7571D01*
X65974Y7570D01*
X65977Y7569D01*
X65980Y7568D01*
X65983Y7567D01*
X65983D01*
X65984Y7567D01*
X65986Y7567D01*
X65988Y7566D01*
X65990Y7565D01*
X65992Y7564D01*
X65998Y7562D01*
X66004Y7560D01*
X66010Y7557D01*
X66013Y7556D01*
X66016Y7555D01*
X66018Y7553D01*
X66020Y7552D01*
X66020D01*
X66021Y7551D01*
X66022Y7550D01*
X66024Y7547D01*
X66027Y7544D01*
X66029Y7541D01*
X66031Y7536D01*
X66033Y7531D01*
X66033Y7528D01*
X66033Y7526D01*
Y7525D01*
Y7525D01*
Y7524D01*
X66033Y7522D01*
X66033Y7521D01*
X66033Y7519D01*
X66031Y7514D01*
X66029Y7509D01*
X66028Y7506D01*
X66026Y7503D01*
X66024Y7500D01*
X66022Y7497D01*
X66019Y7494D01*
X66016Y7491D01*
X66016Y7491D01*
X66016Y7491D01*
X66015Y7490D01*
X66013Y7489D01*
X66012Y7488D01*
X66009Y7487D01*
X66007Y7485D01*
X66004Y7484D01*
X66001Y7483D01*
X65998Y7481D01*
X65994Y7480D01*
X65989Y7479D01*
X65985Y7478D01*
X65980Y7477D01*
X65975Y7477D01*
X65969Y7477D01*
X65967D01*
X65964Y7477D01*
X65962D01*
X65959Y7477D01*
X65956Y7478D01*
X65952Y7478D01*
X65945Y7479D01*
X65937Y7481D01*
X65930Y7484D01*
X65926Y7486D01*
X65923Y7488D01*
X65923D01*
X65922Y7488D01*
X65921Y7489D01*
X65920Y7489D01*
X65917Y7492D01*
X65914Y7496D01*
X65910Y7500D01*
X65906Y7506D01*
X65903Y7512D01*
X65901Y7519D01*
X65937Y7525D01*
X65937Y7524D01*
X65938Y7523D01*
X65939Y7521D01*
X65940Y7518D01*
X65942Y7516D01*
X65944Y7513D01*
X65946Y7510D01*
X65949Y7508D01*
X65949Y7508D01*
X65950Y7508D01*
X65952Y7507D01*
X65954Y7506D01*
X65957Y7505D01*
X65960Y7504D01*
X65964Y7504D01*
X65969Y7504D01*
X65971D01*
X65973Y7504D01*
X65976Y7504D01*
X65979Y7505D01*
X65983Y7506D01*
X65986Y7507D01*
X65989Y7509D01*
X65990Y7509D01*
X65990Y7510D01*
X65991Y7511D01*
X65992Y7512D01*
X65994Y7515D01*
X65995Y7517D01*
X65995Y7519D01*
Y7519D01*
Y7519D01*
X65995Y7521D01*
X65994Y7523D01*
X65992Y7526D01*
X65992Y7526D01*
X65992Y7526D01*
X65991Y7527D01*
X65989Y7527D01*
X65987Y7529D01*
X65984Y7530D01*
X65981Y7531D01*
X65976Y7533D01*
X65976D01*
X65975Y7533D01*
X65973Y7534D01*
X65971Y7535D01*
X65968Y7536D01*
X65965Y7537D01*
X65958Y7539D01*
X65951Y7542D01*
X65944Y7545D01*
X65941Y7547D01*
X65938Y7548D01*
X65936Y7549D01*
X65934Y7551D01*
X65933Y7551D01*
X65932Y7552D01*
X65930Y7555D01*
X65928Y7558D01*
X65925Y7562D01*
X65923Y7566D01*
X65922Y7572D01*
X65922Y7574D01*
X65921Y7577D01*
Y7578D01*
Y7578D01*
Y7579D01*
X65922Y7580D01*
X65922Y7583D01*
X65923Y7587D01*
X65925Y7592D01*
X65927Y7596D01*
X65930Y7601D01*
X65931Y7604D01*
X65934Y7606D01*
X65934Y7606D01*
X65935Y7607D01*
X65936Y7607D01*
X65937Y7609D01*
X65939Y7610D01*
X65941Y7611D01*
X65943Y7613D01*
X65946Y7614D01*
X65950Y7616D01*
X65954Y7617D01*
X65958Y7619D01*
X65963Y7620D01*
X65968Y7621D01*
X65973Y7622D01*
X65979Y7622D01*
X65985Y7623D01*
X65987D01*
X65989Y7622D01*
D02*
G37*
G36*
X66338Y7480D02*
X66303D01*
X66307Y7498D01*
X66307Y7498D01*
X66306Y7497D01*
X66305Y7496D01*
X66303Y7495D01*
X66301Y7493D01*
X66299Y7491D01*
X66296Y7489D01*
X66293Y7488D01*
X66290Y7485D01*
X66286Y7483D01*
X66278Y7480D01*
X66274Y7479D01*
X66270Y7478D01*
X66265Y7477D01*
X66261Y7477D01*
X66259D01*
X66258Y7477D01*
X66255Y7477D01*
X66252Y7478D01*
X66248Y7479D01*
X66244Y7481D01*
X66239Y7483D01*
X66236Y7486D01*
X66235Y7487D01*
X66234Y7488D01*
X66233Y7491D01*
X66231Y7494D01*
X66230Y7497D01*
X66228Y7502D01*
X66227Y7507D01*
X66227Y7513D01*
Y7513D01*
Y7514D01*
X66227Y7516D01*
X66227Y7519D01*
X66228Y7523D01*
X66229Y7526D01*
X66229Y7528D01*
X66229Y7531D01*
X66230Y7534D01*
X66231Y7538D01*
X66232Y7542D01*
X66249Y7620D01*
X66287D01*
X66268Y7537D01*
Y7536D01*
Y7536D01*
X66268Y7534D01*
X66267Y7532D01*
X66267Y7529D01*
X66266Y7526D01*
X66266Y7523D01*
X66265Y7520D01*
X66265Y7518D01*
Y7518D01*
Y7517D01*
X66265Y7516D01*
X66266Y7515D01*
X66267Y7511D01*
X66268Y7509D01*
X66269Y7508D01*
X66269Y7508D01*
X66270Y7507D01*
X66271Y7506D01*
X66272Y7506D01*
X66273Y7505D01*
X66275Y7504D01*
X66277Y7504D01*
X66279Y7504D01*
X66281D01*
X66282Y7504D01*
X66285Y7504D01*
X66288Y7506D01*
X66288D01*
X66289Y7506D01*
X66290Y7506D01*
X66291Y7507D01*
X66293Y7509D01*
X66297Y7511D01*
X66297Y7512D01*
X66298Y7512D01*
X66298Y7513D01*
X66300Y7514D01*
X66302Y7517D01*
X66305Y7521D01*
X66305Y7521D01*
X66306Y7521D01*
X66307Y7523D01*
X66307Y7524D01*
X66308Y7526D01*
X66310Y7529D01*
X66311Y7531D01*
X66312Y7534D01*
Y7535D01*
X66312Y7536D01*
X66313Y7537D01*
X66313Y7539D01*
X66314Y7542D01*
X66315Y7545D01*
X66316Y7549D01*
X66317Y7553D01*
X66332Y7620D01*
X66370D01*
X66338Y7480D01*
D02*
G37*
G36*
X66439Y7572D02*
X66488Y7620D01*
X66537D01*
X66481Y7569D01*
X66511Y7480D01*
X66474D01*
X66454Y7545D01*
X66428Y7522D01*
X66420Y7480D01*
X66382D01*
X66423Y7672D01*
X66460D01*
X66439Y7572D01*
D02*
G37*
G36*
X65915Y7640D02*
X65858D01*
X65825Y7480D01*
X65786D01*
X65819Y7640D01*
X65763D01*
X65769Y7672D01*
X65921D01*
X65915Y7640D01*
D02*
G37*
G36*
X66145Y7622D02*
X66147Y7622D01*
X66150Y7622D01*
X66154Y7621D01*
X66157Y7620D01*
X66165Y7619D01*
X66169Y7617D01*
X66173Y7616D01*
X66177Y7614D01*
X66181Y7611D01*
X66184Y7609D01*
X66188Y7606D01*
X66188Y7605D01*
X66189Y7605D01*
X66189Y7604D01*
X66190Y7602D01*
X66192Y7601D01*
X66193Y7599D01*
X66195Y7596D01*
X66197Y7594D01*
X66198Y7590D01*
X66200Y7587D01*
X66201Y7583D01*
X66202Y7579D01*
X66204Y7575D01*
X66204Y7570D01*
X66205Y7565D01*
X66205Y7560D01*
Y7559D01*
Y7558D01*
Y7556D01*
X66205Y7554D01*
X66205Y7551D01*
X66204Y7548D01*
X66203Y7544D01*
X66202Y7540D01*
X66201Y7535D01*
X66200Y7531D01*
X66198Y7526D01*
X66196Y7521D01*
X66194Y7516D01*
X66191Y7511D01*
X66187Y7506D01*
X66184Y7501D01*
X66183Y7501D01*
X66182Y7500D01*
X66181Y7499D01*
X66180Y7497D01*
X66177Y7496D01*
X66175Y7493D01*
X66172Y7491D01*
X66168Y7489D01*
X66164Y7487D01*
X66160Y7484D01*
X66155Y7482D01*
X66150Y7481D01*
X66144Y7479D01*
X66139Y7478D01*
X66132Y7477D01*
X66126Y7477D01*
X66122D01*
X66121Y7477D01*
X66119Y7477D01*
X66114Y7478D01*
X66108Y7479D01*
X66102Y7480D01*
X66096Y7482D01*
X66091Y7484D01*
X66090D01*
X66090Y7485D01*
X66089Y7485D01*
X66088Y7486D01*
X66085Y7488D01*
X66082Y7490D01*
X66078Y7493D01*
X66074Y7497D01*
X66071Y7502D01*
X66068Y7507D01*
Y7507D01*
X66067Y7507D01*
X66067Y7508D01*
X66067Y7509D01*
X66066Y7512D01*
X66064Y7516D01*
X66063Y7521D01*
X66062Y7526D01*
X66061Y7532D01*
X66061Y7538D01*
Y7538D01*
Y7539D01*
X66061Y7541D01*
Y7544D01*
X66061Y7547D01*
X66062Y7551D01*
X66062Y7556D01*
X66063Y7560D01*
X66064Y7565D01*
X66066Y7570D01*
X66067Y7575D01*
X66070Y7580D01*
X66072Y7585D01*
X66075Y7590D01*
X66078Y7595D01*
X66082Y7599D01*
X66082Y7600D01*
X66083Y7601D01*
X66084Y7602D01*
X66086Y7603D01*
X66088Y7605D01*
X66091Y7607D01*
X66094Y7609D01*
X66098Y7611D01*
X66102Y7613D01*
X66106Y7615D01*
X66111Y7617D01*
X66116Y7619D01*
X66121Y7620D01*
X66127Y7622D01*
X66133Y7622D01*
X66140Y7623D01*
X66143D01*
X66145Y7622D01*
D02*
G37*
G36*
X65589D02*
X65591Y7622D01*
X65594Y7622D01*
X65597Y7621D01*
X65600Y7621D01*
X65606Y7619D01*
X65610Y7618D01*
X65613Y7616D01*
X65616Y7614D01*
X65620Y7612D01*
X65623Y7610D01*
X65626Y7607D01*
X65626Y7607D01*
X65626Y7606D01*
X65627Y7605D01*
X65628Y7604D01*
X65629Y7602D01*
X65631Y7601D01*
X65632Y7598D01*
X65634Y7596D01*
X65635Y7592D01*
X65636Y7589D01*
X65637Y7586D01*
X65639Y7581D01*
X65640Y7577D01*
X65641Y7572D01*
X65641Y7568D01*
X65641Y7562D01*
Y7562D01*
Y7562D01*
Y7560D01*
Y7557D01*
X65641Y7554D01*
X65641Y7551D01*
X65640Y7546D01*
X65638Y7538D01*
X65544D01*
Y7538D01*
Y7537D01*
X65544Y7536D01*
Y7534D01*
Y7534D01*
Y7534D01*
Y7532D01*
X65544Y7530D01*
X65545Y7526D01*
X65546Y7523D01*
X65547Y7519D01*
X65549Y7515D01*
X65551Y7512D01*
X65552Y7512D01*
X65553Y7511D01*
X65554Y7509D01*
X65557Y7508D01*
X65560Y7506D01*
X65563Y7505D01*
X65567Y7504D01*
X65571Y7504D01*
X65573D01*
X65574Y7504D01*
X65576Y7504D01*
X65578Y7505D01*
X65582Y7506D01*
X65584Y7507D01*
X65587Y7508D01*
X65589Y7510D01*
X65591Y7512D01*
X65594Y7514D01*
X65596Y7517D01*
X65599Y7520D01*
X65601Y7523D01*
X65634Y7518D01*
Y7517D01*
X65634Y7517D01*
X65633Y7516D01*
X65632Y7514D01*
X65631Y7513D01*
X65630Y7511D01*
X65627Y7506D01*
X65623Y7501D01*
X65619Y7496D01*
X65613Y7491D01*
X65607Y7487D01*
X65607D01*
X65607Y7486D01*
X65606Y7486D01*
X65605Y7485D01*
X65603Y7484D01*
X65601Y7484D01*
X65597Y7482D01*
X65591Y7480D01*
X65585Y7478D01*
X65578Y7477D01*
X65571Y7477D01*
X65568D01*
X65566Y7477D01*
X65564Y7477D01*
X65561Y7478D01*
X65558Y7478D01*
X65554Y7479D01*
X65547Y7481D01*
X65543Y7483D01*
X65539Y7484D01*
X65536Y7486D01*
X65532Y7489D01*
X65528Y7491D01*
X65525Y7494D01*
X65525Y7495D01*
X65524Y7495D01*
X65523Y7496D01*
X65522Y7498D01*
X65521Y7499D01*
X65519Y7502D01*
X65518Y7504D01*
X65516Y7507D01*
X65515Y7510D01*
X65513Y7514D01*
X65512Y7518D01*
X65510Y7522D01*
X65509Y7526D01*
X65508Y7531D01*
X65508Y7536D01*
X65508Y7541D01*
Y7542D01*
Y7543D01*
Y7544D01*
X65508Y7546D01*
X65508Y7549D01*
X65508Y7552D01*
X65509Y7555D01*
X65509Y7559D01*
X65511Y7566D01*
X65513Y7571D01*
X65514Y7575D01*
X65516Y7579D01*
X65518Y7584D01*
X65521Y7588D01*
X65523Y7592D01*
X65524Y7593D01*
X65524Y7594D01*
X65526Y7595D01*
X65527Y7597D01*
X65530Y7599D01*
X65532Y7602D01*
X65536Y7605D01*
X65539Y7608D01*
X65543Y7611D01*
X65548Y7613D01*
X65553Y7616D01*
X65559Y7618D01*
X65564Y7620D01*
X65571Y7621D01*
X65578Y7622D01*
X65585Y7623D01*
X65587D01*
X65589Y7622D01*
D02*
G37*
G36*
X65484Y7620D02*
X65508D01*
X65502Y7592D01*
X65479D01*
X65466Y7533D01*
Y7532D01*
Y7532D01*
X65466Y7531D01*
X65466Y7530D01*
X65465Y7528D01*
X65465Y7525D01*
X65464Y7521D01*
X65464Y7519D01*
X65463Y7516D01*
X65463Y7515D01*
Y7515D01*
Y7514D01*
Y7514D01*
X65463Y7512D01*
X65464Y7510D01*
X65466Y7508D01*
X65466D01*
X65466Y7508D01*
X65467Y7507D01*
X65468Y7507D01*
X65469Y7506D01*
X65471Y7506D01*
X65473Y7506D01*
X65477D01*
X65478Y7506D01*
X65480D01*
X65482Y7506D01*
X65485Y7506D01*
X65488Y7507D01*
X65483Y7479D01*
X65482D01*
X65481Y7479D01*
X65479Y7478D01*
X65476Y7478D01*
X65473Y7478D01*
X65470Y7477D01*
X65463Y7477D01*
X65459D01*
X65458Y7477D01*
X65456D01*
X65451Y7478D01*
X65447Y7479D01*
X65442Y7480D01*
X65437Y7482D01*
X65433Y7484D01*
X65433Y7484D01*
X65432Y7486D01*
X65431Y7488D01*
X65429Y7490D01*
X65427Y7493D01*
X65426Y7497D01*
X65425Y7501D01*
X65425Y7506D01*
Y7506D01*
Y7507D01*
X65425Y7509D01*
X65425Y7512D01*
X65425Y7514D01*
X65426Y7516D01*
X65426Y7518D01*
X65427Y7521D01*
X65427Y7524D01*
X65428Y7527D01*
X65429Y7531D01*
X65430Y7536D01*
X65441Y7592D01*
X65423D01*
X65429Y7620D01*
X65447D01*
X65451Y7642D01*
X65494Y7668D01*
X65484Y7620D01*
D02*
G37*
%LPC*%
G36*
X66140Y7594D02*
X66138D01*
X66135Y7594D01*
X66132Y7594D01*
X66129Y7592D01*
X66126Y7591D01*
X66122Y7589D01*
X66118Y7587D01*
X66118Y7586D01*
X66116Y7585D01*
X66115Y7584D01*
X66113Y7581D01*
X66110Y7578D01*
X66108Y7574D01*
X66106Y7570D01*
X66103Y7565D01*
Y7564D01*
X66103Y7564D01*
X66103Y7563D01*
X66102Y7562D01*
X66102Y7559D01*
X66101Y7556D01*
X66100Y7552D01*
X66099Y7547D01*
X66099Y7543D01*
X66098Y7538D01*
Y7538D01*
Y7538D01*
Y7537D01*
Y7536D01*
X66099Y7533D01*
X66099Y7530D01*
X66100Y7526D01*
X66102Y7522D01*
X66104Y7518D01*
X66106Y7514D01*
X66107Y7514D01*
X66108Y7513D01*
X66110Y7512D01*
X66112Y7510D01*
X66115Y7509D01*
X66118Y7507D01*
X66122Y7506D01*
X66127Y7506D01*
X66128D01*
X66129Y7506D01*
X66132Y7507D01*
X66136Y7508D01*
X66140Y7509D01*
X66144Y7511D01*
X66149Y7515D01*
X66151Y7517D01*
X66153Y7519D01*
X66153Y7519D01*
X66153Y7520D01*
X66154Y7521D01*
X66155Y7522D01*
X66156Y7524D01*
X66157Y7526D01*
X66159Y7529D01*
X66160Y7532D01*
X66162Y7535D01*
X66163Y7538D01*
X66164Y7542D01*
X66165Y7546D01*
X66167Y7555D01*
X66167Y7560D01*
X66168Y7565D01*
Y7565D01*
Y7565D01*
Y7567D01*
X66167Y7569D01*
X66167Y7572D01*
X66166Y7576D01*
X66164Y7579D01*
X66162Y7583D01*
X66160Y7586D01*
X66159Y7586D01*
X66158Y7587D01*
X66157Y7589D01*
X66154Y7590D01*
X66151Y7592D01*
X66148Y7593D01*
X66144Y7594D01*
X66140Y7594D01*
D02*
G37*
G36*
X65581Y7596D02*
X65579D01*
X65577Y7595D01*
X65574Y7595D01*
X65571Y7594D01*
X65567Y7592D01*
X65564Y7590D01*
X65560Y7587D01*
X65560Y7587D01*
X65559Y7585D01*
X65557Y7583D01*
X65555Y7580D01*
X65553Y7577D01*
X65551Y7572D01*
X65549Y7567D01*
X65548Y7561D01*
X65607D01*
Y7561D01*
Y7562D01*
Y7564D01*
Y7565D01*
Y7565D01*
Y7565D01*
Y7566D01*
Y7567D01*
X65606Y7570D01*
X65606Y7574D01*
X65605Y7577D01*
X65604Y7581D01*
X65602Y7585D01*
X65600Y7588D01*
X65599Y7588D01*
X65598Y7589D01*
X65597Y7591D01*
X65595Y7592D01*
X65592Y7593D01*
X65589Y7595D01*
X65585Y7596D01*
X65581Y7596D01*
D02*
G37*
%LPD*%
D10*
X43692Y14790D02*
G03*
X43692Y14790I-12J0D01*
G01*
X42708D02*
G03*
X42708Y14790I-12J0D01*
G01*
X41684D02*
G03*
X41684Y14790I-12J0D01*
G01*
X42334Y16610D02*
G03*
X42334Y16610I-12J0D01*
G01*
X39751Y13976D02*
G03*
X39751Y13976I-12J0D01*
G01*
X43882Y15423D02*
G03*
X43882Y15423I-12J0D01*
G01*
X42897D02*
G03*
X42897Y15423I-12J0D01*
G01*
X41875D02*
G03*
X41875Y15423I-12J0D01*
G01*
X40382Y16748D02*
G03*
X40382Y16748I-12J0D01*
G01*
X41039Y16029D02*
G03*
X41039Y16029I-12J0D01*
G01*
D11*
X42481Y16822D02*
G03*
X42481Y16822I-30J0D01*
G01*
X39639Y13763D02*
G03*
X39639Y13763I-30J0D01*
G01*
D12*
X41757Y10439D02*
X49441D01*
X41757D02*
Y13665D01*
X49441D01*
Y10439D02*
Y13665D01*
X32741Y11811D02*
Y12954D01*
X33503D01*
Y11798D02*
Y12954D01*
X32741Y11798D02*
X33503D01*
X32741D02*
Y11811D01*
X29515Y7995D02*
X30124D01*
Y7373D02*
Y7995D01*
X29515Y7373D02*
X30124D01*
X29515D02*
Y7995D01*
X51880Y11786D02*
X53226D01*
X51880D02*
Y12662D01*
X53226D01*
Y11786D02*
Y12662D01*
X55054Y13872D02*
X55690D01*
Y14723D01*
X55054D02*
X55690D01*
X55054Y13872D02*
Y14723D01*
X28321Y12858D02*
Y12921D01*
Y12858D02*
X28359D01*
Y12413D02*
Y12921D01*
X27978Y12413D02*
X28359D01*
X27978D02*
Y12921D01*
X28359D01*
X28612Y12915D02*
X29542D01*
X28612Y11825D02*
Y12915D01*
X29542Y11825D02*
Y12915D01*
X28612Y11825D02*
X29542D01*
X31967Y8877D02*
X36852D01*
X31967Y7337D02*
Y8877D01*
Y7337D02*
X31977D01*
X36852D01*
Y8877D01*
X53089Y8814D02*
Y9436D01*
Y8814D02*
X55172D01*
Y9436D01*
X53089D02*
X55172D01*
X24486Y7785D02*
X24562D01*
X24384Y7683D02*
X24486Y7785D01*
X24384Y7518D02*
Y7683D01*
Y7518D02*
X24486Y7417D01*
X25933D01*
Y7785D01*
X24562D02*
X25933D01*
X24524Y7671D02*
Y7518D01*
X24600D01*
X24625Y7544D01*
Y7645D01*
X24600Y7671D01*
X24524D01*
X24701Y7620D02*
X24752D01*
X24778Y7595D01*
Y7518D01*
X24701D01*
X24676Y7544D01*
X24701Y7569D01*
X24778D01*
X24828Y7518D02*
X24905D01*
X24930Y7544D01*
X24905Y7569D01*
X24854D01*
X24828Y7595D01*
X24854Y7620D01*
X24930D01*
X24981Y7671D02*
Y7518D01*
Y7595D01*
X25006Y7620D01*
X25057D01*
X25082Y7595D01*
Y7518D01*
X25133Y7671D02*
Y7518D01*
X25209D01*
X25235Y7544D01*
Y7569D01*
Y7595D01*
X25209Y7620D01*
X25133D01*
X25311Y7518D02*
X25362D01*
X25387Y7544D01*
Y7595D01*
X25362Y7620D01*
X25311D01*
X25285Y7595D01*
Y7544D01*
X25311Y7518D01*
X25463Y7620D02*
X25514D01*
X25539Y7595D01*
Y7518D01*
X25463D01*
X25438Y7544D01*
X25463Y7569D01*
X25539D01*
X25590Y7620D02*
Y7518D01*
Y7569D01*
X25616Y7595D01*
X25641Y7620D01*
X25666D01*
X25844Y7671D02*
Y7518D01*
X25768D01*
X25743Y7544D01*
Y7595D01*
X25768Y7620D01*
X25844D01*
X41773Y13739D02*
Y13891D01*
X41824Y13840D01*
X41874Y13891D01*
Y13739D01*
X41951Y13840D02*
X42001D01*
X42027Y13815D01*
Y13739D01*
X41951D01*
X41925Y13764D01*
X41951Y13790D01*
X42027D01*
X42078Y13739D02*
X42128D01*
X42103D01*
Y13840D01*
X42078D01*
X42205Y13739D02*
Y13840D01*
X42281D01*
X42306Y13815D01*
Y13739D01*
X42611Y13866D02*
X42585Y13891D01*
X42535D01*
X42509Y13866D01*
Y13764D01*
X42535Y13739D01*
X42585D01*
X42611Y13764D01*
X42687Y13739D02*
X42738D01*
X42763Y13764D01*
Y13815D01*
X42738Y13840D01*
X42687D01*
X42662Y13815D01*
Y13764D01*
X42687Y13739D01*
X42814D02*
Y13840D01*
X42890D01*
X42915Y13815D01*
Y13739D01*
X42966D02*
Y13840D01*
X43042D01*
X43068Y13815D01*
Y13739D01*
X43195D02*
X43144D01*
X43119Y13764D01*
Y13815D01*
X43144Y13840D01*
X43195D01*
X43220Y13815D01*
Y13790D01*
X43119D01*
X43373Y13840D02*
X43296D01*
X43271Y13815D01*
Y13764D01*
X43296Y13739D01*
X43373D01*
X43449Y13866D02*
Y13840D01*
X43423D01*
X43474D01*
X43449D01*
Y13764D01*
X43474Y13739D01*
X43576D02*
X43626D01*
X43652Y13764D01*
Y13815D01*
X43626Y13840D01*
X43576D01*
X43550Y13815D01*
Y13764D01*
X43576Y13739D01*
X43703Y13840D02*
Y13739D01*
Y13790D01*
X43728Y13815D01*
X43753Y13840D01*
X43779D01*
X53594Y9690D02*
Y9538D01*
X53670D01*
X53696Y9563D01*
Y9665D01*
X53670Y9690D01*
X53594D01*
X53746Y9538D02*
X53797D01*
X53772D01*
Y9639D01*
X53746D01*
X53873Y9538D02*
X53949D01*
X53975Y9563D01*
X53949Y9588D01*
X53899D01*
X53873Y9614D01*
X53899Y9639D01*
X53975D01*
X54026Y9487D02*
Y9639D01*
X54102D01*
X54127Y9614D01*
Y9563D01*
X54102Y9538D01*
X54026D01*
X54178D02*
X54229D01*
X54203D01*
Y9690D01*
X54178D01*
X54330Y9639D02*
X54381D01*
X54407Y9614D01*
Y9538D01*
X54330D01*
X54305Y9563D01*
X54330Y9588D01*
X54407D01*
X54457Y9639D02*
Y9563D01*
X54483Y9538D01*
X54559D01*
Y9512D01*
X54533Y9487D01*
X54508D01*
X54559Y9538D02*
Y9639D01*
X32081Y9144D02*
X32056Y9169D01*
X32005D01*
X31980Y9144D01*
Y9119D01*
X32005Y9093D01*
X32056D01*
X32081Y9068D01*
Y9042D01*
X32056Y9017D01*
X32005D01*
X31980Y9042D01*
X32158Y9144D02*
Y9119D01*
X32132D01*
X32183D01*
X32158D01*
Y9042D01*
X32183Y9017D01*
X32335D02*
X32285D01*
X32259Y9042D01*
Y9093D01*
X32285Y9119D01*
X32335D01*
X32361Y9093D01*
Y9068D01*
X32259D01*
X32488Y9017D02*
X32437D01*
X32412Y9042D01*
Y9093D01*
X32437Y9119D01*
X32488D01*
X32513Y9093D01*
Y9068D01*
X32412D01*
X32564Y9119D02*
Y9017D01*
Y9068D01*
X32589Y9093D01*
X32615Y9119D01*
X32640D01*
X32716Y9017D02*
X32767D01*
X32742D01*
Y9119D01*
X32716D01*
X32843Y9017D02*
Y9119D01*
X32919D01*
X32945Y9093D01*
Y9017D01*
X33046Y8966D02*
X33072D01*
X33097Y8992D01*
Y9119D01*
X33021D01*
X32996Y9093D01*
Y9042D01*
X33021Y9017D01*
X33097D01*
X29526Y8235D02*
Y8083D01*
X29602D01*
X29628Y8108D01*
Y8134D01*
Y8159D01*
X29602Y8184D01*
X29526D01*
X29679D02*
Y8108D01*
X29704Y8083D01*
X29780D01*
Y8184D01*
X29831D02*
X29932D01*
X29831Y8083D01*
X29932D01*
X29983Y8184D02*
X30085D01*
X29983Y8083D01*
X30085D01*
X30212D02*
X30161D01*
X30136Y8108D01*
Y8159D01*
X30161Y8184D01*
X30212D01*
X30237Y8159D01*
Y8134D01*
X30136D01*
X30288Y8184D02*
Y8083D01*
Y8134D01*
X30313Y8159D01*
X30339Y8184D01*
X30364D01*
D13*
X50553Y18197D02*
X54553D01*
X50553Y13452D02*
Y18197D01*
X54553Y13452D02*
Y18197D01*
X50553Y13452D02*
X51456D01*
X52011Y12897D02*
X53081D01*
X53636Y13452D02*
X54553D01*
X51456D02*
X52011Y12897D01*
X53081D02*
X53636Y13452D01*
X43712Y14975D02*
X44022D01*
X43712Y14875D02*
X44022D01*
Y14975D01*
X43712Y14875D02*
Y14975D01*
X42728Y14875D02*
Y14975D01*
X43037Y14875D02*
Y14975D01*
X42728Y14875D02*
X43037D01*
X42728Y14975D02*
X43037D01*
X41704Y14875D02*
Y14975D01*
X42014Y14875D02*
Y14975D01*
X41704Y14875D02*
X42014D01*
X41704Y14975D02*
X42014D01*
X43351Y16722D02*
Y17042D01*
X42351Y16722D02*
Y17042D01*
X43351D01*
X42351Y16722D02*
X43351D01*
X38709Y13543D02*
Y13863D01*
X39709Y13543D02*
Y13863D01*
X38709Y13543D02*
X39709D01*
X38709Y13863D02*
X39709D01*
X43902Y15508D02*
Y15608D01*
X44212Y15508D02*
Y15608D01*
X43902Y15508D02*
X44212D01*
X43902Y15608D02*
X44212D01*
X42917D02*
X43227D01*
X42917Y15508D02*
X43227D01*
Y15608D01*
X42917Y15508D02*
Y15608D01*
X41895D02*
X42205D01*
X41895Y15508D02*
X42205D01*
Y15608D01*
X41895Y15508D02*
Y15608D01*
X28529Y12509D02*
Y12549D01*
X28444Y12509D02*
Y12549D01*
X29635Y12191D02*
Y12231D01*
X29720Y12191D02*
Y12231D01*
X38572Y13683D02*
Y13723D01*
X38487Y13683D02*
Y13723D01*
X25437Y8937D02*
X25477D01*
X25437Y9022D02*
X25477D01*
X34688Y13026D02*
X35538D01*
Y11866D02*
Y13026D01*
X34688Y11866D02*
X35538D01*
X34688D02*
Y13026D01*
X34608Y12585D02*
Y12625D01*
X34523Y12585D02*
Y12625D01*
X35613Y12267D02*
Y12307D01*
X35698Y12267D02*
Y12307D01*
X33609Y12191D02*
Y12231D01*
X33694Y12191D02*
Y12231D01*
X30565Y12509D02*
Y12549D01*
X30480Y12509D02*
Y12549D01*
X31691Y12191D02*
Y12231D01*
X31776Y12191D02*
Y12231D01*
X63972Y10161D02*
X64012D01*
X63972Y10246D02*
X64012D01*
X59992Y10196D02*
X60032D01*
X59992Y10281D02*
X60032D01*
X55948Y9912D02*
X55988D01*
X55948Y9997D02*
X55988D01*
X40626Y14680D02*
X41312D01*
Y14977D01*
Y15232D02*
Y15530D01*
X40626D02*
X41312D01*
X40462Y14843D02*
Y14977D01*
Y14843D02*
X40626Y14680D01*
X40462Y15366D02*
X40626Y15530D01*
X40462Y15232D02*
Y15366D01*
X43476Y16862D02*
Y16902D01*
X43561Y16862D02*
Y16902D01*
X41652Y15578D02*
Y15618D01*
X41737Y15578D02*
Y15618D01*
X42745Y15578D02*
Y15618D01*
X42830Y15578D02*
Y15618D01*
X42464Y14945D02*
Y14985D01*
X42549Y14945D02*
Y14985D01*
X41610Y14945D02*
Y14985D01*
X41525Y14945D02*
Y14985D01*
X40402Y16833D02*
Y16933D01*
X40712Y16833D02*
Y16933D01*
X40402Y16833D02*
X40712D01*
X40402Y16933D02*
X40712D01*
X41211Y15686D02*
Y15996D01*
X41111Y15686D02*
Y15996D01*
Y15686D02*
X41211D01*
X41111Y15996D02*
X41211D01*
X43815Y15582D02*
Y15622D01*
X43730Y15582D02*
Y15622D01*
X43591Y14945D02*
Y14985D01*
X43506Y14945D02*
Y14985D01*
X51128Y17296D02*
Y17336D01*
X51213Y17296D02*
Y17336D01*
D14*
X30353Y12834D02*
Y12897D01*
Y12834D02*
X30391D01*
Y12389D02*
Y12897D01*
X30010Y12389D02*
X30391D01*
X30010D02*
Y12897D01*
X30391D01*
X32588Y12858D02*
Y12921D01*
Y12858D02*
X32626D01*
Y12413D02*
Y12921D01*
X32245Y12413D02*
X32626D01*
X32245D02*
Y12921D01*
X32626D01*
X34366Y12934D02*
Y12998D01*
Y12934D02*
X34404D01*
Y12490D02*
Y12998D01*
X34023Y12490D02*
X34404D01*
X34023D02*
Y12998D01*
X34404D01*
X41345Y16393D02*
Y16596D01*
X40989D02*
X41345D01*
X40989Y16227D02*
Y16596D01*
Y16227D02*
X41345D01*
Y16393D01*
X40278Y15651D02*
Y15854D01*
Y15651D02*
X40634D01*
Y16019D01*
X40278D02*
X40634D01*
X40278Y15854D02*
Y16019D01*
X30655Y11825D02*
X31585D01*
Y12915D01*
X30655Y11825D02*
Y12915D01*
X31585D01*
D15*
X29150Y10164D02*
X29201D01*
X29079D02*
X29130D01*
X29033D02*
X29039D01*
X28983D02*
X28993D01*
X28937D02*
X28947D01*
X28856D02*
X28906D01*
X28800D02*
X28810D01*
X28708D02*
X28754D01*
X28668D02*
X28673D01*
X28632D02*
X28642D01*
X28586D02*
X28592D01*
X28556D02*
X28566D01*
X28500D02*
X28505D01*
X29145Y10169D02*
X29206D01*
X29079D02*
X29130D01*
X29028D02*
X29039D01*
X28978D02*
X28993D01*
X28932D02*
X28947D01*
X28851D02*
X28906D01*
X28800D02*
X28810D01*
X28703D02*
X28759D01*
X28663D02*
X28678D01*
X28627D02*
X28642D01*
X28581D02*
X28597D01*
X28551D02*
X28566D01*
X28500D02*
X28510D01*
X29150Y10174D02*
X29160D01*
X29079D02*
X29089D01*
X29028D02*
X29039D01*
X28973D02*
X28988D01*
X28937D02*
X28947D01*
X28896D02*
X28906D01*
X28851D02*
X28861D01*
X28800D02*
X28810D01*
X28749D02*
X28759D01*
X28698D02*
X28713D01*
X28663D02*
X28678D01*
X28622D02*
X28637D01*
X28581D02*
X28597D01*
X28551D02*
X28561D01*
X28500D02*
X28515D01*
X29145Y10179D02*
X29160D01*
X29079D02*
X29089D01*
X29028D02*
X29039D01*
X28967D02*
X28983D01*
X28937D02*
X28947D01*
X28896D02*
X28906D01*
X28845D02*
X28861D01*
X28800D02*
X28810D01*
X28749D02*
X28764D01*
X28703D02*
X28713D01*
X28663D02*
X28678D01*
X28617D02*
X28627D01*
X28581D02*
X28597D01*
X28505D02*
X28561D01*
X29150Y10184D02*
X29160D01*
X29079D02*
X29089D01*
X29028D02*
X29039D01*
X28957D02*
X28978D01*
X28937D02*
X28952D01*
X28896D02*
X28906D01*
X28851D02*
X28861D01*
X28800D02*
X28810D01*
X28749D02*
X28759D01*
X28663D02*
X28678D01*
X28607D02*
X28627D01*
X28586D02*
X28602D01*
X28505D02*
X28556D01*
X29150Y10189D02*
X29186D01*
X29079D02*
X29089D01*
X29028D02*
X29039D01*
X28937D02*
X28993D01*
X28896D02*
X28906D01*
X28851D02*
X28861D01*
X28800D02*
X28810D01*
X28708D02*
X28759D01*
X28663D02*
X28678D01*
X28586D02*
X28642D01*
X28541D02*
X28556D01*
X28510D02*
X28520D01*
X29150Y10195D02*
X29186D01*
X29079D02*
X29089D01*
X29028D02*
X29039D01*
X28978D02*
X28993D01*
X28937D02*
X28947D01*
X28896D02*
X28906D01*
X28845D02*
X28861D01*
X28800D02*
X28810D01*
X28703D02*
X28759D01*
X28663D02*
X28678D01*
X28627D02*
X28642D01*
X28602D02*
X28607D01*
X28581D02*
X28597D01*
X28541D02*
X28551D01*
X28510D02*
X28520D01*
X29150Y10200D02*
X29160D01*
X29079D02*
X29089D01*
X29028D02*
X29039D01*
X28983D02*
X28993D01*
X28937D02*
X28947D01*
X28896D02*
X28906D01*
X28851D02*
X28861D01*
X28800D02*
X28810D01*
X28703D02*
X28713D01*
X28663D02*
X28678D01*
X28632D02*
X28642D01*
X28581D02*
X28597D01*
X28536D02*
X28551D01*
X28515D02*
X28525D01*
X29150Y10205D02*
X29160D01*
X29079D02*
X29089D01*
X29028D02*
X29039D01*
X28983D02*
X28993D01*
X28937D02*
X28947D01*
X28896D02*
X28906D01*
X28845D02*
X28861D01*
X28800D02*
X28810D01*
X28754D02*
X28759D01*
X28703D02*
X28713D01*
X28663D02*
X28678D01*
X28632D02*
X28642D01*
X28581D02*
X28597D01*
X28536D02*
X28546D01*
X28515D02*
X28525D01*
X29150Y10210D02*
X29160D01*
X29079D02*
X29089D01*
X29054D02*
X29064D01*
X29028D02*
X29039D01*
X28983D02*
X28993D01*
X28937D02*
X28947D01*
X28896D02*
X28906D01*
X28845D02*
X28861D01*
X28795D02*
X28810D01*
X28749D02*
X28759D01*
X28703D02*
X28713D01*
X28663D02*
X28678D01*
X28627D02*
X28642D01*
X28581D02*
X28597D01*
X28520D02*
X28546D01*
X29150Y10215D02*
X29206D01*
X29079D02*
X29089D01*
X29003D02*
X29064D01*
X28932D02*
X28993D01*
X28896D02*
X28906D01*
X28845D02*
X28861D01*
X28774D02*
X28835D01*
X28703D02*
X28759D01*
X28663D02*
X28678D01*
X28581D02*
X28642D01*
X28520D02*
X28541D01*
X29150Y10220D02*
X29201D01*
X29079D02*
X29089D01*
X29003D02*
X29064D01*
X28937D02*
X28988D01*
X28901D02*
X28906D01*
X28851D02*
X28856D01*
X28774D02*
X28835D01*
X28708D02*
X28754D01*
X28668D02*
X28673D01*
X28586D02*
X28637D01*
X28525D02*
X28536D01*
X29094Y10327D02*
X29115D01*
X28571D02*
X28581D01*
X29089Y10332D02*
X29115D01*
X28561D02*
X28586D01*
X29084Y10337D02*
X29115D01*
X28561D02*
X28592D01*
X29079Y10342D02*
X29115D01*
X28561D02*
X28597D01*
X29079Y10347D02*
X29115D01*
X28561D02*
X28597D01*
X29074Y10352D02*
X29115D01*
X28561D02*
X28602D01*
X29069Y10357D02*
X29115D01*
X28561D02*
X28602D01*
X29064Y10362D02*
X29115D01*
X28561D02*
X28612D01*
X29064Y10367D02*
X29115D01*
X28561D02*
X28612D01*
X29059Y10372D02*
X29115D01*
X28561D02*
X28617D01*
X29054Y10377D02*
X29115D01*
X28561D02*
X28622D01*
X29089Y10383D02*
X29115D01*
X29054D02*
X29084D01*
X28561D02*
X28627D01*
X29089Y10388D02*
X29115D01*
X29049D02*
X29084D01*
X28592D02*
X28627D01*
X28561D02*
X28586D01*
X29089Y10393D02*
X29115D01*
X29044D02*
X29079D01*
X28597D02*
X28632D01*
X28561D02*
X28586D01*
X29089Y10398D02*
X29115D01*
X29039D02*
X29074D01*
X28602D02*
X28637D01*
X28561D02*
X28586D01*
X29089Y10403D02*
X29115D01*
X29033D02*
X29069D01*
X28607D02*
X28637D01*
X28561D02*
X28586D01*
X29089Y10408D02*
X29115D01*
X29033D02*
X29069D01*
X28607D02*
X28642D01*
X28561D02*
X28586D01*
X29089Y10413D02*
X29115D01*
X29028D02*
X29064D01*
X28612D02*
X28647D01*
X28561D02*
X28586D01*
X29089Y10418D02*
X29115D01*
X29023D02*
X29059D01*
X28617D02*
X28652D01*
X28561D02*
X28586D01*
X29089Y10423D02*
X29115D01*
X29018D02*
X29054D01*
X28622D02*
X28658D01*
X28561D02*
X28586D01*
X29089Y10428D02*
X29115D01*
X29018D02*
X29054D01*
X28622D02*
X28658D01*
X28561D02*
X28586D01*
X29089Y10433D02*
X29115D01*
X29013D02*
X29049D01*
X28627D02*
X28663D01*
X28561D02*
X28586D01*
X29089Y10438D02*
X29115D01*
X29008D02*
X29044D01*
X28632D02*
X28668D01*
X28561D02*
X28586D01*
X29089Y10443D02*
X29115D01*
X29003D02*
X29039D01*
X28637D02*
X28668D01*
X28561D02*
X28586D01*
X29089Y10449D02*
X29115D01*
X29003D02*
X29039D01*
X28825D02*
X28845D01*
X28637D02*
X28673D01*
X28561D02*
X28586D01*
X29089Y10454D02*
X29115D01*
X29003D02*
X29033D01*
X28815D02*
X28856D01*
X28642D02*
X28673D01*
X28561D02*
X28586D01*
X29089Y10459D02*
X29115D01*
X29003D02*
X29028D01*
X28810D02*
X28866D01*
X28647D02*
X28673D01*
X28561D02*
X28586D01*
X29089Y10464D02*
X29115D01*
X29003D02*
X29028D01*
X28800D02*
X28871D01*
X28652D02*
X28673D01*
X28561D02*
X28586D01*
X29089Y10469D02*
X29115D01*
X28790D02*
X28881D01*
X28652D02*
X28668D01*
X28561D02*
X28586D01*
X29089Y10474D02*
X29115D01*
X28785D02*
X28886D01*
X28561D02*
X28586D01*
X29089Y10479D02*
X29115D01*
X28774D02*
X28901D01*
X28561D02*
X28586D01*
X29089Y10484D02*
X29115D01*
X28764D02*
X28906D01*
X28561D02*
X28586D01*
X29089Y10489D02*
X29115D01*
X28754D02*
X28917D01*
X28561D02*
X28586D01*
X29089Y10494D02*
X29115D01*
X28749D02*
X28927D01*
X28561D02*
X28586D01*
X29089Y10499D02*
X29115D01*
X28739D02*
X28932D01*
X28561D02*
X28586D01*
X29089Y10504D02*
X29115D01*
X28729D02*
X28942D01*
X28561D02*
X28586D01*
X29089Y10510D02*
X29115D01*
X28718D02*
X28952D01*
X28561D02*
X28586D01*
X29094Y10515D02*
X29115D01*
X28713D02*
X28962D01*
X28561D02*
X28586D01*
X28703Y10520D02*
X28967D01*
X28566D02*
X28581D01*
X28693Y10525D02*
X28978D01*
X28683Y10530D02*
X28988D01*
X28678Y10535D02*
X28998D01*
X28668Y10540D02*
X29003D01*
X28658Y10545D02*
X29013D01*
X28647Y10550D02*
X29023D01*
X28642Y10555D02*
X29028D01*
X28632Y10560D02*
X29039D01*
X28622Y10565D02*
X29049D01*
X28612Y10570D02*
X29059D01*
X28607Y10576D02*
X29064D01*
X28597Y10581D02*
X29074D01*
X28586Y10586D02*
X29084D01*
X28581Y10591D02*
X29094D01*
X28571Y10596D02*
X29099D01*
X28561Y10601D02*
X29110D01*
X28551Y10606D02*
X29120D01*
X28546Y10611D02*
X29130D01*
X28536Y10616D02*
X29135D01*
X28525Y10621D02*
X29145D01*
X28845Y10626D02*
X29155D01*
X28520D02*
X28820D01*
X28891Y10631D02*
X29166D01*
X28510D02*
X28785D01*
X28912Y10637D02*
X29171D01*
X28500D02*
X28764D01*
X28927Y10642D02*
X29181D01*
X28490D02*
X28744D01*
X28937Y10647D02*
X29191D01*
X28485D02*
X28734D01*
X28952Y10652D02*
X29201D01*
X28470D02*
X28718D01*
X28957Y10657D02*
X29206D01*
X28464D02*
X28713D01*
X28967Y10662D02*
X29216D01*
X28454D02*
X28703D01*
X28978Y10667D02*
X29227D01*
X28444D02*
X28693D01*
X28988Y10672D02*
X29232D01*
X28444D02*
X28683D01*
X28993Y10677D02*
X29232D01*
X28439D02*
X28678D01*
X28998Y10682D02*
X29232D01*
X28444D02*
X28673D01*
X29008Y10687D02*
X29227D01*
X28444D02*
X28663D01*
X29013Y10692D02*
X29227D01*
X28444D02*
X28658D01*
X29018Y10697D02*
X29227D01*
X28444D02*
X28652D01*
X29023Y10703D02*
X29227D01*
X28444D02*
X28647D01*
X29028Y10708D02*
X29227D01*
X28444D02*
X28642D01*
X29033Y10713D02*
X29227D01*
X28444D02*
X28637D01*
X29039Y10718D02*
X29227D01*
X28444D02*
X28632D01*
X29044Y10723D02*
X29227D01*
X28444D02*
X28627D01*
X29049Y10728D02*
X29227D01*
X28444D02*
X28622D01*
X29049Y10733D02*
X29227D01*
X28444D02*
X28622D01*
X29054Y10738D02*
X29227D01*
X28444D02*
X28617D01*
X29059Y10743D02*
X29227D01*
X28444D02*
X28612D01*
X29064Y10748D02*
X29227D01*
X28444D02*
X28607D01*
X29064Y10753D02*
X29227D01*
X28444D02*
X28607D01*
X29069Y10758D02*
X29227D01*
X28444D02*
X28602D01*
X29069Y10764D02*
X29227D01*
X28444D02*
X28602D01*
X29074Y10769D02*
X29227D01*
X28825D02*
X28840D01*
X28444D02*
X28597D01*
X29074Y10774D02*
X29227D01*
X28820D02*
X28845D01*
X28444D02*
X28597D01*
X29079Y10779D02*
X29227D01*
X28810D02*
X28851D01*
X28444D02*
X28592D01*
X29084Y10784D02*
X29227D01*
X28800D02*
X28861D01*
X28444D02*
X28592D01*
X29084Y10789D02*
X29227D01*
X28795D02*
X28871D01*
X28444D02*
X28586D01*
X29084Y10794D02*
X29227D01*
X28785D02*
X28876D01*
X28444D02*
X28586D01*
X29089Y10799D02*
X29227D01*
X28779D02*
X28886D01*
X28444D02*
X28581D01*
X29089Y10804D02*
X29227D01*
X28769D02*
X28896D01*
X28444D02*
X28581D01*
X29094Y10809D02*
X29227D01*
X28764D02*
X28901D01*
X28444D02*
X28576D01*
X29094Y10814D02*
X29227D01*
X28754D02*
X28912D01*
X28444D02*
X28576D01*
X29094Y10819D02*
X29227D01*
X28744D02*
X28922D01*
X28444D02*
X28576D01*
X29099Y10824D02*
X29227D01*
X28739D02*
X28927D01*
X28444D02*
X28576D01*
X29099Y10830D02*
X29227D01*
X28729D02*
X28937D01*
X28444D02*
X28571D01*
X29099Y10835D02*
X29227D01*
X28724D02*
X28942D01*
X28444D02*
X28571D01*
X29099Y10840D02*
X29227D01*
X28724D02*
X28942D01*
X28444D02*
X28571D01*
X29105Y10845D02*
X29227D01*
X28724D02*
X28942D01*
X28444D02*
X28571D01*
X29105Y10850D02*
X29227D01*
X28724D02*
X28942D01*
X28444D02*
X28566D01*
X29196Y10855D02*
X29227D01*
X29105D02*
X29191D01*
X28724D02*
X28942D01*
X28444D02*
X28566D01*
X29105Y10860D02*
X29227D01*
X28724D02*
X28942D01*
X28444D02*
X28566D01*
X29105Y10865D02*
X29227D01*
X28724D02*
X28942D01*
X28444D02*
X28566D01*
X29105Y10870D02*
X29227D01*
X28724D02*
X28942D01*
X28444D02*
X28566D01*
X29105Y10875D02*
X29227D01*
X28724D02*
X28942D01*
X28444D02*
X28566D01*
X29105Y10880D02*
X29227D01*
X28724D02*
X28942D01*
X28444D02*
X28566D01*
X29105Y10885D02*
X29227D01*
X28724D02*
X28942D01*
X28444D02*
X28566D01*
X29293Y10891D02*
X29318D01*
X29105D02*
X29227D01*
X28724D02*
X28942D01*
X28444D02*
X28566D01*
X28363D02*
X28383D01*
X29293Y10896D02*
X29318D01*
X29105D02*
X29227D01*
X28724D02*
X28942D01*
X28444D02*
X28566D01*
X28363D02*
X28388D01*
X29293Y10901D02*
X29318D01*
X29105D02*
X29227D01*
X28724D02*
X28942D01*
X28444D02*
X28566D01*
X28363D02*
X28388D01*
X29293Y10906D02*
X29318D01*
X29105D02*
X29227D01*
X28724D02*
X28942D01*
X28444D02*
X28566D01*
X28363D02*
X28383D01*
X29293Y10911D02*
X29318D01*
X29105D02*
X29227D01*
X28724D02*
X28942D01*
X28444D02*
X28566D01*
X28363D02*
X28388D01*
X29293Y10916D02*
X29318D01*
X29105D02*
X29227D01*
X28724D02*
X28942D01*
X28444D02*
X28566D01*
X28363D02*
X28383D01*
X29293Y10921D02*
X29318D01*
X29105D02*
X29227D01*
X28724D02*
X28942D01*
X28444D02*
X28566D01*
X28363D02*
X28388D01*
X29293Y10926D02*
X29318D01*
X29105D02*
X29227D01*
X28724D02*
X28942D01*
X28444D02*
X28566D01*
X28363D02*
X28388D01*
X29293Y10931D02*
X29318D01*
X29105D02*
X29227D01*
X28724D02*
X28942D01*
X28444D02*
X28566D01*
X28363D02*
X28388D01*
X29293Y10936D02*
X29318D01*
X29105D02*
X29227D01*
X28724D02*
X28942D01*
X28444D02*
X28566D01*
X28363D02*
X28388D01*
X29293Y10941D02*
X29318D01*
X29105D02*
X29227D01*
X28724D02*
X28942D01*
X28444D02*
X28566D01*
X28363D02*
X28388D01*
X29293Y10946D02*
X29318D01*
X29105D02*
X29227D01*
X28724D02*
X28942D01*
X28444D02*
X28571D01*
X28363D02*
X28388D01*
X29293Y10951D02*
X29318D01*
X29099D02*
X29227D01*
X28724D02*
X28942D01*
X28444D02*
X28571D01*
X28363D02*
X28388D01*
X29293Y10957D02*
X29318D01*
X29099D02*
X29227D01*
X28724D02*
X28942D01*
X28444D02*
X28571D01*
X28363D02*
X28388D01*
X29293Y10962D02*
X29318D01*
X29099D02*
X29227D01*
X28724D02*
X28942D01*
X28444D02*
X28571D01*
X28363D02*
X28388D01*
X29293Y10967D02*
X29318D01*
X29099D02*
X29227D01*
X28724D02*
X28942D01*
X28444D02*
X28571D01*
X28363D02*
X28388D01*
X29293Y10972D02*
X29318D01*
X29094D02*
X29227D01*
X28871D02*
X28881D01*
X28779D02*
X28790D01*
X28444D02*
X28576D01*
X28363D02*
X28383D01*
X29293Y10977D02*
X29318D01*
X29094D02*
X29227D01*
X28871D02*
X28881D01*
X28779D02*
X28790D01*
X28444D02*
X28576D01*
X28363D02*
X28383D01*
X29293Y10982D02*
X29318D01*
X29094D02*
X29227D01*
X28871D02*
X28881D01*
X28779D02*
X28790D01*
X28444D02*
X28576D01*
X28363D02*
X28383D01*
X29293Y10987D02*
X29318D01*
X29089D02*
X29227D01*
X28871D02*
X28881D01*
X28779D02*
X28790D01*
X28444D02*
X28581D01*
X28363D02*
X28383D01*
X29293Y10992D02*
X29318D01*
X29089D02*
X29227D01*
X28871D02*
X28881D01*
X28779D02*
X28790D01*
X28444D02*
X28581D01*
X28363D02*
X28383D01*
X29293Y10997D02*
X29318D01*
X29089D02*
X29227D01*
X28871D02*
X28881D01*
X28779D02*
X28790D01*
X28444D02*
X28581D01*
X28363D02*
X28383D01*
X29293Y11002D02*
X29318D01*
X29084D02*
X29227D01*
X28871D02*
X28881D01*
X28779D02*
X28790D01*
X28444D02*
X28586D01*
X28363D02*
X28383D01*
X29293Y11007D02*
X29318D01*
X29084D02*
X29227D01*
X28871D02*
X28881D01*
X28779D02*
X28790D01*
X28444D02*
X28586D01*
X28363D02*
X28383D01*
X29293Y11012D02*
X29318D01*
X29084D02*
X29227D01*
X28871D02*
X28881D01*
X28774D02*
X28790D01*
X28444D02*
X28592D01*
X28363D02*
X28388D01*
X29293Y11018D02*
X29318D01*
X29079D02*
X29227D01*
X28871D02*
X28881D01*
X28774D02*
X28790D01*
X28444D02*
X28592D01*
X28363D02*
X28388D01*
X29293Y11023D02*
X29318D01*
X29074D02*
X29227D01*
X28871D02*
X28881D01*
X28779D02*
X28790D01*
X28444D02*
X28597D01*
X28363D02*
X28388D01*
X29293Y11028D02*
X29318D01*
X29074D02*
X29227D01*
X28444D02*
X28597D01*
X28363D02*
X28388D01*
X29293Y11033D02*
X29318D01*
X29069D02*
X29227D01*
X28444D02*
X28602D01*
X28363D02*
X28388D01*
X29293Y11038D02*
X29318D01*
X29069D02*
X29227D01*
X28444D02*
X28602D01*
X28363D02*
X28388D01*
X29293Y11043D02*
X29318D01*
X29064D02*
X29227D01*
X28444D02*
X28607D01*
X28363D02*
X28388D01*
X29293Y11048D02*
X29318D01*
X29064D02*
X29227D01*
X28444D02*
X28612D01*
X28363D02*
X28388D01*
X29293Y11053D02*
X29318D01*
X29059D02*
X29227D01*
X28444D02*
X28612D01*
X28363D02*
X28388D01*
X29293Y11058D02*
X29318D01*
X29054D02*
X29227D01*
X28444D02*
X28617D01*
X28363D02*
X28388D01*
X29293Y11063D02*
X29318D01*
X29049D02*
X29227D01*
X28444D02*
X28622D01*
X28363D02*
X28388D01*
X29293Y11068D02*
X29318D01*
X29049D02*
X29227D01*
X28444D02*
X28627D01*
X28363D02*
X28388D01*
X29293Y11073D02*
X29318D01*
X29044D02*
X29227D01*
X28444D02*
X28627D01*
X28363D02*
X28388D01*
X29293Y11078D02*
X29318D01*
X29039D02*
X29227D01*
X28444D02*
X28632D01*
X28363D02*
X28388D01*
X29293Y11084D02*
X29318D01*
X29033D02*
X29227D01*
X28444D02*
X28637D01*
X28363D02*
X28388D01*
X29293Y11089D02*
X29318D01*
X29028D02*
X29227D01*
X28444D02*
X28642D01*
X28363D02*
X28388D01*
X29293Y11094D02*
X29318D01*
X29023D02*
X29232D01*
X28444D02*
X28647D01*
X28363D02*
X28388D01*
X29293Y11099D02*
X29318D01*
X29018D02*
X29232D01*
X28444D02*
X28652D01*
X28363D02*
X28388D01*
X29293Y11104D02*
X29318D01*
X29013D02*
X29227D01*
X28439D02*
X28658D01*
X28363D02*
X28388D01*
X29293Y11109D02*
X29318D01*
X29008D02*
X29227D01*
X28444D02*
X28668D01*
X28363D02*
X28388D01*
X29293Y11114D02*
X29318D01*
X28998D02*
X29227D01*
X28444D02*
X28673D01*
X28363D02*
X28388D01*
X29293Y11119D02*
X29318D01*
X28993D02*
X29232D01*
X28444D02*
X28678D01*
X28363D02*
X28388D01*
X29293Y11124D02*
X29318D01*
X28988D02*
X29227D01*
X28444D02*
X28683D01*
X28363D02*
X28388D01*
X29293Y11129D02*
X29318D01*
X28978D02*
X29221D01*
X28449D02*
X28693D01*
X28363D02*
X28388D01*
X29293Y11134D02*
X29318D01*
X28967D02*
X29211D01*
X28459D02*
X28703D01*
X28363D02*
X28383D01*
X29293Y11139D02*
X29318D01*
X28957D02*
X29201D01*
X28464D02*
X28713D01*
X28363D02*
X28383D01*
X29293Y11145D02*
X29318D01*
X28952D02*
X29196D01*
X28475D02*
X28724D01*
X28363D02*
X28388D01*
X29293Y11150D02*
X29318D01*
X28937D02*
X29186D01*
X28485D02*
X28734D01*
X28363D02*
X28383D01*
X29293Y11155D02*
X29318D01*
X28927D02*
X29176D01*
X28495D02*
X28744D01*
X28363D02*
X28388D01*
X29282Y11160D02*
X29318D01*
X28912D02*
X29171D01*
X28500D02*
X28759D01*
X28363D02*
X28398D01*
X29277Y11165D02*
X29318D01*
X28891D02*
X29160D01*
X28510D02*
X28785D01*
X28363D02*
X28409D01*
X29267Y11170D02*
X29318D01*
X28845D02*
X29150D01*
X28520D02*
X28835D01*
X28363D02*
X28414D01*
X29262Y11175D02*
X29313D01*
X28531D02*
X29140D01*
X28368D02*
X28424D01*
X29252Y11180D02*
X29308D01*
X28536D02*
X29130D01*
X28373D02*
X28429D01*
X29242Y11185D02*
X29303D01*
X28546D02*
X29125D01*
X28383D02*
X28439D01*
X29237Y11190D02*
X29293D01*
X28556D02*
X29115D01*
X28388D02*
X28449D01*
X29227Y11195D02*
X29282D01*
X28566D02*
X29110D01*
X28404D02*
X28459D01*
X29216Y11200D02*
X29272D01*
X28571D02*
X29099D01*
X28409D02*
X28464D01*
X29206Y11205D02*
X29262D01*
X28581D02*
X29089D01*
X28419D02*
X28475D01*
X29201Y11211D02*
X29252D01*
X28592D02*
X29079D01*
X28429D02*
X28480D01*
X29191Y11216D02*
X29247D01*
X28602D02*
X29069D01*
X28439D02*
X28490D01*
X29181Y11221D02*
X29237D01*
X28607D02*
X29064D01*
X28444D02*
X28500D01*
X29176Y11226D02*
X29232D01*
X28617D02*
X29054D01*
X28454D02*
X28510D01*
X29166Y11231D02*
X29221D01*
X28627D02*
X29049D01*
X28459D02*
X28515D01*
X29155Y11236D02*
X29211D01*
X28632D02*
X29039D01*
X28470D02*
X28531D01*
X29145Y11241D02*
X29201D01*
X28642D02*
X29028D01*
X28480D02*
X28536D01*
X29140Y11246D02*
X29196D01*
X28652D02*
X29018D01*
X28490D02*
X28546D01*
X29130Y11251D02*
X29186D01*
X28663D02*
X29008D01*
X28495D02*
X28551D01*
X29120Y11256D02*
X29176D01*
X28668D02*
X29003D01*
X28505D02*
X28561D01*
X29110Y11261D02*
X29166D01*
X28678D02*
X28993D01*
X28510D02*
X28571D01*
X29105Y11266D02*
X29160D01*
X28688D02*
X28983D01*
X28525D02*
X28581D01*
X29099Y11272D02*
X29150D01*
X28698D02*
X28978D01*
X28531D02*
X28586D01*
X29099Y11277D02*
X29140D01*
X28703D02*
X28967D01*
X28541D02*
X28586D01*
X29099Y11282D02*
X29130D01*
X28713D02*
X28957D01*
X28551D02*
X28586D01*
X29105Y11287D02*
X29125D01*
X28724D02*
X28947D01*
X28561D02*
X28586D01*
X28729Y11292D02*
X28942D01*
X28566D02*
X28581D01*
X28739Y11297D02*
X28932D01*
X28749Y11302D02*
X28922D01*
X28754Y11307D02*
X28917D01*
X28764Y11312D02*
X28906D01*
X28774Y11317D02*
X28896D01*
X28785Y11322D02*
X28886D01*
X28795Y11327D02*
X28881D01*
X28805Y11332D02*
X28871D01*
X28810Y11338D02*
X28861D01*
X28820Y11343D02*
X28856D01*
X28825Y11348D02*
X28845D01*
X28932Y11368D02*
X28957D01*
X28718D02*
X28739D01*
X28932Y11373D02*
X28957D01*
X28713D02*
X28744D01*
X28932Y11378D02*
X28957D01*
X28713D02*
X28744D01*
X28932Y11383D02*
X28957D01*
X28713D02*
X28744D01*
X28932Y11388D02*
X28957D01*
X28713D02*
X28744D01*
X28932Y11393D02*
X28957D01*
X28713D02*
X28744D01*
X28932Y11399D02*
X28957D01*
X28713D02*
X28744D01*
X28932Y11404D02*
X28957D01*
X28713D02*
X28744D01*
X28932Y11409D02*
X28957D01*
X28713D02*
X28744D01*
X28932Y11414D02*
X28957D01*
X28713D02*
X28744D01*
X28932Y11419D02*
X28957D01*
X28713D02*
X28744D01*
X28932Y11424D02*
X28957D01*
X28713D02*
X28744D01*
X28932Y11429D02*
X28957D01*
X28713D02*
X28744D01*
X28932Y11434D02*
X28957D01*
X28713D02*
X28744D01*
X28932Y11439D02*
X28957D01*
X28713D02*
X28744D01*
X28932Y11444D02*
X28957D01*
X28713D02*
X28744D01*
X28932Y11449D02*
X28957D01*
X28713D02*
X28744D01*
X28932Y11454D02*
X28957D01*
X28713D02*
X28744D01*
X28932Y11459D02*
X28957D01*
X28713D02*
X28744D01*
X28932Y11465D02*
X28957D01*
X28713D02*
X28744D01*
X28932Y11470D02*
X28957D01*
X28713D02*
X28744D01*
X28932Y11475D02*
X28957D01*
X28713D02*
X28744D01*
X28932Y11480D02*
X28957D01*
X28713D02*
X28744D01*
X28932Y11485D02*
X28957D01*
X28713D02*
X28744D01*
X28932Y11490D02*
X28957D01*
X28713D02*
X28744D01*
X28932Y11495D02*
X28957D01*
X28713D02*
X28744D01*
X28927Y11500D02*
X28957D01*
X28713D02*
X28744D01*
X28922Y11505D02*
X28957D01*
X28713D02*
X28749D01*
X28912Y11510D02*
X28957D01*
X28713D02*
X28759D01*
X28906Y11515D02*
X28957D01*
X28713D02*
X28769D01*
X28896Y11520D02*
X28952D01*
X28718D02*
X28774D01*
X28886Y11526D02*
X28942D01*
X28729D02*
X28785D01*
X28876Y11531D02*
X28937D01*
X28739D02*
X28795D01*
X28871Y11536D02*
X28927D01*
X28749D02*
X28800D01*
X28866Y11541D02*
X28917D01*
X28754D02*
X28810D01*
X28856Y11546D02*
X28906D01*
X28764D02*
X28820D01*
X28845Y11551D02*
X28901D01*
X28774D02*
X28825D01*
X28840Y11556D02*
X28896D01*
X28779D02*
X28835D01*
X28790Y11561D02*
X28886D01*
X28800Y11566D02*
X28876D01*
X28805Y11571D02*
X28866D01*
X28815Y11576D02*
X28861D01*
X28820Y11581D02*
X28851D01*
X28825Y11586D02*
X28845D01*
D16*
X58861Y15566D02*
X58909D01*
X58848Y15554D02*
X58921D01*
X58836Y15542D02*
X58946D01*
X58812Y15530D02*
X58958D01*
X58800Y15518D02*
X58982D01*
X58776Y15506D02*
X59006D01*
X58751Y15494D02*
X58885D01*
X58897D02*
X59031D01*
X58739Y15481D02*
X58861D01*
X58909D02*
X59043D01*
X58715Y15469D02*
X58848D01*
X58933D02*
X59055D01*
X58691Y15457D02*
X58824D01*
X58958D02*
X59079D01*
X58678Y15445D02*
X58800D01*
X58970D02*
X59103D01*
X58654Y15433D02*
X58788D01*
X58982D02*
X59128D01*
X58630Y15421D02*
X58763D01*
X59006D02*
X59140D01*
X58606Y15409D02*
X58739D01*
X59031D02*
X59164D01*
X58593Y15396D02*
X58727D01*
X59055D02*
X59176D01*
X58593Y15384D02*
X58703D01*
X59067D02*
X59176D01*
X58593Y15372D02*
X58678D01*
X59091D02*
X59176D01*
X58593Y15360D02*
X58666D01*
X59103D02*
X59176D01*
X58593Y15348D02*
X58666D01*
X59116D02*
X59176D01*
X58593Y15336D02*
X58666D01*
X59116D02*
X59176D01*
X58593Y15324D02*
X58666D01*
X59116D02*
X59176D01*
X58593Y15311D02*
X58666D01*
X59116D02*
X59176D01*
X58593Y15299D02*
X58666D01*
X59116D02*
X59176D01*
X58593Y15287D02*
X58666D01*
X59116D02*
X59176D01*
X58593Y15275D02*
X58666D01*
X59116D02*
X59176D01*
X58593Y15263D02*
X58666D01*
X59116D02*
X59176D01*
X58593Y15251D02*
X58666D01*
X59116D02*
X59176D01*
X58593Y15239D02*
X58666D01*
X59116D02*
X59176D01*
X58593Y15226D02*
X58666D01*
X59116D02*
X59176D01*
X58593Y15214D02*
X58666D01*
X59116D02*
X59176D01*
X58593Y15202D02*
X58666D01*
X59116D02*
X59176D01*
X58593Y15190D02*
X58666D01*
X59116D02*
X59176D01*
X58593Y15178D02*
X58666D01*
X59116D02*
X59176D01*
X58593Y15166D02*
X58666D01*
X59116D02*
X59176D01*
X58593Y15154D02*
X58666D01*
X59116D02*
X59176D01*
X58593Y15141D02*
X58666D01*
X59116D02*
X59176D01*
X58593Y15129D02*
X58666D01*
X59116D02*
X59176D01*
X58593Y15117D02*
X58666D01*
X59116D02*
X59176D01*
X58593Y15105D02*
X58666D01*
X59116D02*
X59176D01*
X58593Y15093D02*
X58666D01*
X59116D02*
X59176D01*
X58593Y15081D02*
X58666D01*
X59116D02*
X59176D01*
X58593Y15069D02*
X58666D01*
X59116D02*
X59176D01*
X58593Y15056D02*
X58666D01*
X59116D02*
X59176D01*
X58606Y15044D02*
X58654D01*
X59116D02*
X59176D01*
X58861Y14996D02*
X58909D01*
X58848Y14984D02*
X58933D01*
X58824Y14971D02*
X58946D01*
X58812Y14959D02*
X58970D01*
X58788Y14947D02*
X58994D01*
X58763Y14935D02*
X59006D01*
X58739Y14923D02*
X59031D01*
X58715Y14911D02*
X59055D01*
X58691Y14898D02*
X59079D01*
X58678Y14886D02*
X59091D01*
X58654Y14874D02*
X59116D01*
X58241Y14862D02*
X58278D01*
X58630D02*
X59140D01*
X58229Y14850D02*
X58290D01*
X58618D02*
X59152D01*
X59529D02*
X59577D01*
X58205Y14838D02*
X58290D01*
X58593D02*
X59176D01*
X59516D02*
X59589D01*
X58181Y14826D02*
X58290D01*
X58569D02*
X59201D01*
X59516D02*
X59614D01*
X58156Y14813D02*
X58290D01*
X58557D02*
X59225D01*
X59516D02*
X59638D01*
X58144Y14801D02*
X58278D01*
X58533D02*
X59237D01*
X59529D02*
X59662D01*
X58108Y14789D02*
X58253D01*
X58508D02*
X59261D01*
X59541D02*
X59674D01*
X58096Y14777D02*
X58229D01*
X58484D02*
X59286D01*
X59565D02*
X59699D01*
X58071Y14765D02*
X58205D01*
X58472D02*
X59298D01*
X59589D02*
X59723D01*
X58059Y14753D02*
X58193D01*
X58448D02*
X59322D01*
X59614D02*
X59747D01*
X58035Y14741D02*
X58168D01*
X58423D02*
X59346D01*
X59626D02*
X59759D01*
X58011Y14728D02*
X58156D01*
X58399D02*
X59371D01*
X59650D02*
X59784D01*
X57986Y14716D02*
X58120D01*
X58387D02*
X59395D01*
X59674D02*
X59808D01*
X57974Y14704D02*
X58108D01*
X58363D02*
X59407D01*
X59699D02*
X59832D01*
X57950Y14692D02*
X58083D01*
X58338D02*
X59431D01*
X59711D02*
X59844D01*
X57938Y14680D02*
X58059D01*
X58326D02*
X59444D01*
X59735D02*
X59869D01*
X57913Y14668D02*
X58035D01*
X58302D02*
X59468D01*
X59759D02*
X59881D01*
X57889Y14656D02*
X58023D01*
X58278D02*
X59492D01*
X59771D02*
X59905D01*
X57865Y14643D02*
X57998D01*
X58253D02*
X59516D01*
X59796D02*
X59929D01*
X57853Y14631D02*
X57986D01*
X58241D02*
X59541D01*
X59820D02*
X59954D01*
X57816Y14619D02*
X57962D01*
X58217D02*
X59553D01*
X59844D02*
X59978D01*
X57804Y14607D02*
X57938D01*
X58193D02*
X59577D01*
X59856D02*
X60002D01*
X57780Y14595D02*
X57913D01*
X58168D02*
X59589D01*
X59881D02*
X60014D01*
X57768Y14583D02*
X57901D01*
X58156D02*
X59614D01*
X59905D02*
X60026D01*
X57756Y14571D02*
X57877D01*
X58132D02*
X58885D01*
X58909D02*
X59638D01*
X59917D02*
X60039D01*
X57756Y14558D02*
X57865D01*
X58108D02*
X58763D01*
X59018D02*
X59662D01*
X59941D02*
X60039D01*
X57756Y14546D02*
X57841D01*
X58083D02*
X58703D01*
X59067D02*
X59686D01*
X59954D02*
X60039D01*
X57756Y14534D02*
X57816D01*
X58071D02*
X58666D01*
X59103D02*
X59699D01*
X59978D02*
X60039D01*
X57756Y14522D02*
X57804D01*
X58047D02*
X58642D01*
X59128D02*
X59723D01*
X59978D02*
X60039D01*
X57756Y14510D02*
X57816D01*
X58023D02*
X58618D01*
X59164D02*
X59747D01*
X59978D02*
X60039D01*
X57756Y14498D02*
X57804D01*
X57998D02*
X58593D01*
X59176D02*
X59759D01*
X59978D02*
X60039D01*
X57756Y14486D02*
X57804D01*
X57986D02*
X58569D01*
X59201D02*
X59784D01*
X59978D02*
X60039D01*
X57756Y14473D02*
X57816D01*
X57962D02*
X58545D01*
X59225D02*
X59808D01*
X59978D02*
X60039D01*
X57756Y14461D02*
X57816D01*
X57950D02*
X58521D01*
X59249D02*
X59820D01*
X59978D02*
X60039D01*
X57756Y14449D02*
X57816D01*
X57950D02*
X58508D01*
X59261D02*
X59832D01*
X59978D02*
X60039D01*
X57756Y14437D02*
X57816D01*
X57950D02*
X58496D01*
X59273D02*
X59820D01*
X59978D02*
X60039D01*
X57756Y14425D02*
X57816D01*
X57950D02*
X58484D01*
X59298D02*
X59820D01*
X59978D02*
X60039D01*
X57756Y14413D02*
X57816D01*
X57938D02*
X58460D01*
X59310D02*
X59820D01*
X59978D02*
X60039D01*
X57756Y14401D02*
X57816D01*
X57950D02*
X58448D01*
X59322D02*
X59832D01*
X59978D02*
X60039D01*
X57756Y14388D02*
X57816D01*
X57950D02*
X58436D01*
X59334D02*
X59832D01*
X59978D02*
X60039D01*
X57756Y14376D02*
X57816D01*
X57950D02*
X58423D01*
X59346D02*
X59820D01*
X59978D02*
X60039D01*
X57756Y14364D02*
X57816D01*
X57950D02*
X58411D01*
X59359D02*
X59820D01*
X59978D02*
X60039D01*
X57756Y14352D02*
X57816D01*
X57950D02*
X58399D01*
X59371D02*
X59820D01*
X59978D02*
X60039D01*
X57756Y14340D02*
X57816D01*
X57950D02*
X58387D01*
X59383D02*
X59820D01*
X59978D02*
X60039D01*
X57756Y14328D02*
X57816D01*
X57950D02*
X58387D01*
X59395D02*
X59820D01*
X59978D02*
X60039D01*
X57756Y14316D02*
X57816D01*
X57950D02*
X58375D01*
X59395D02*
X59820D01*
X59978D02*
X60039D01*
X57756Y14303D02*
X57816D01*
X57950D02*
X58363D01*
X59407D02*
X59820D01*
X59978D02*
X60039D01*
X57756Y14291D02*
X57816D01*
X57950D02*
X58351D01*
X59419D02*
X59820D01*
X59978D02*
X60039D01*
X57756Y14279D02*
X57816D01*
X57950D02*
X58351D01*
X59431D02*
X59820D01*
X59978D02*
X60039D01*
X57756Y14267D02*
X57816D01*
X57950D02*
X58338D01*
X59431D02*
X59820D01*
X59978D02*
X60039D01*
X57756Y14255D02*
X57816D01*
X57950D02*
X58326D01*
X59444D02*
X59820D01*
X59978D02*
X60039D01*
X57756Y14243D02*
X57816D01*
X57950D02*
X58326D01*
X59444D02*
X59820D01*
X59978D02*
X60039D01*
X57756Y14231D02*
X57816D01*
X57950D02*
X58314D01*
X59456D02*
X59820D01*
X59978D02*
X60039D01*
X57756Y14218D02*
X57816D01*
X57950D02*
X58314D01*
X58751D02*
X58776D01*
X58970D02*
X58994D01*
X59456D02*
X59820D01*
X59978D02*
X60039D01*
X57756Y14206D02*
X57816D01*
X57950D02*
X58302D01*
X58739D02*
X58776D01*
X58970D02*
X58994D01*
X59468D02*
X59820D01*
X59978D02*
X60039D01*
X57756Y14194D02*
X57816D01*
X57950D02*
X58302D01*
X58739D02*
X58776D01*
X58970D02*
X58994D01*
X59480D02*
X59820D01*
X59978D02*
X60039D01*
X57756Y14182D02*
X57804D01*
X57950D02*
X58290D01*
X58751D02*
X58776D01*
X58970D02*
X58994D01*
X59480D02*
X59820D01*
X59978D02*
X60039D01*
X57756Y14170D02*
X57804D01*
X57950D02*
X58290D01*
X58751D02*
X58776D01*
X58970D02*
X58994D01*
X59480D02*
X59820D01*
X59978D02*
X60039D01*
X57756Y14158D02*
X57804D01*
X57950D02*
X58278D01*
X58751D02*
X58776D01*
X58970D02*
X58994D01*
X59492D02*
X59820D01*
X59978D02*
X60039D01*
X57756Y14146D02*
X57804D01*
X57950D02*
X58278D01*
X58751D02*
X58776D01*
X58970D02*
X58994D01*
X59492D02*
X59820D01*
X59978D02*
X60039D01*
X57756Y14133D02*
X57804D01*
X57950D02*
X58278D01*
X58751D02*
X58776D01*
X58970D02*
X58994D01*
X59492D02*
X59820D01*
X59978D02*
X60039D01*
X57756Y14121D02*
X57804D01*
X57950D02*
X58266D01*
X58751D02*
X58776D01*
X58970D02*
X58994D01*
X59504D02*
X59820D01*
X59978D02*
X60039D01*
X57756Y14109D02*
X57804D01*
X57950D02*
X58266D01*
X58751D02*
X58776D01*
X58970D02*
X58994D01*
X59504D02*
X59820D01*
X59978D02*
X60039D01*
X57756Y14097D02*
X57804D01*
X57950D02*
X58266D01*
X58751D02*
X58776D01*
X58970D02*
X58994D01*
X59504D02*
X59820D01*
X59978D02*
X60039D01*
X57756Y14085D02*
X57816D01*
X57950D02*
X58253D01*
X58618D02*
X59140D01*
X59516D02*
X59820D01*
X59978D02*
X60039D01*
X57756Y14073D02*
X57816D01*
X57950D02*
X58253D01*
X58618D02*
X59140D01*
X59516D02*
X59820D01*
X59978D02*
X60039D01*
X57756Y14061D02*
X57816D01*
X57950D02*
X58253D01*
X58618D02*
X59140D01*
X59516D02*
X59820D01*
X59978D02*
X60039D01*
X57756Y14048D02*
X57816D01*
X57950D02*
X58253D01*
X58618D02*
X59140D01*
X59516D02*
X59820D01*
X59978D02*
X60039D01*
X57756Y14036D02*
X57816D01*
X57950D02*
X58253D01*
X58618D02*
X59140D01*
X59529D02*
X59820D01*
X59978D02*
X60039D01*
X57756Y14024D02*
X57816D01*
X57950D02*
X58241D01*
X58618D02*
X59140D01*
X59529D02*
X59820D01*
X59978D02*
X60039D01*
X57756Y14012D02*
X57816D01*
X57950D02*
X58241D01*
X58618D02*
X59140D01*
X59529D02*
X59820D01*
X59978D02*
X60039D01*
X57756Y14000D02*
X57816D01*
X57950D02*
X58241D01*
X58618D02*
X59140D01*
X59529D02*
X59820D01*
X59978D02*
X60039D01*
X57756Y13988D02*
X57816D01*
X57950D02*
X58241D01*
X58618D02*
X59140D01*
X59529D02*
X59820D01*
X59978D02*
X60039D01*
X57756Y13976D02*
X57816D01*
X57950D02*
X58241D01*
X58618D02*
X59140D01*
X59529D02*
X59820D01*
X59978D02*
X60039D01*
X57756Y13963D02*
X57804D01*
X57950D02*
X58241D01*
X58618D02*
X59140D01*
X59529D02*
X59820D01*
X59978D02*
X60039D01*
X57756Y13951D02*
X57816D01*
X57950D02*
X58241D01*
X58618D02*
X59140D01*
X59529D02*
X59820D01*
X59978D02*
X60039D01*
X57756Y13939D02*
X57804D01*
X57950D02*
X58241D01*
X58618D02*
X59140D01*
X59529D02*
X59820D01*
X59978D02*
X60039D01*
X57756Y13927D02*
X57816D01*
X57950D02*
X58241D01*
X58618D02*
X59140D01*
X59529D02*
X59820D01*
X59978D02*
X60039D01*
X57756Y13915D02*
X57816D01*
X57950D02*
X58241D01*
X58618D02*
X59140D01*
X59529D02*
X59820D01*
X59978D02*
X60039D01*
X57756Y13903D02*
X57804D01*
X57950D02*
X58241D01*
X58618D02*
X59140D01*
X59529D02*
X59820D01*
X59978D02*
X60039D01*
X57950Y13891D02*
X58241D01*
X58618D02*
X59140D01*
X59529D02*
X59820D01*
X57950Y13878D02*
X58241D01*
X58618D02*
X59140D01*
X59529D02*
X59820D01*
X57950Y13866D02*
X58241D01*
X58618D02*
X59140D01*
X59529D02*
X59820D01*
X57950Y13854D02*
X58241D01*
X58618D02*
X59140D01*
X59529D02*
X59820D01*
X57950Y13842D02*
X58241D01*
X58618D02*
X59140D01*
X59529D02*
X59820D01*
X57950Y13830D02*
X58241D01*
X58618D02*
X59140D01*
X59529D02*
X59820D01*
X57950Y13818D02*
X58241D01*
X58618D02*
X59140D01*
X59529D02*
X59735D01*
X59747D02*
X59820D01*
X57950Y13806D02*
X58241D01*
X58618D02*
X59140D01*
X59529D02*
X59820D01*
X57950Y13793D02*
X58253D01*
X58618D02*
X59140D01*
X59529D02*
X59820D01*
X57950Y13781D02*
X58253D01*
X58618D02*
X59140D01*
X59516D02*
X59820D01*
X57950Y13769D02*
X58253D01*
X58618D02*
X59140D01*
X59516D02*
X59820D01*
X57950Y13757D02*
X58253D01*
X58630D02*
X59128D01*
X59516D02*
X59820D01*
X57950Y13745D02*
X58266D01*
X58654D02*
X59103D01*
X59516D02*
X59820D01*
X57950Y13733D02*
X58266D01*
X58666D02*
X59091D01*
X59504D02*
X59820D01*
X57950Y13721D02*
X58266D01*
X58691D02*
X59067D01*
X59504D02*
X59820D01*
X57950Y13708D02*
X58266D01*
X58715D02*
X59043D01*
X59504D02*
X59820D01*
X57950Y13696D02*
X58278D01*
X58727D02*
X59031D01*
X59492D02*
X59820D01*
X57950Y13684D02*
X58278D01*
X58751D02*
X59006D01*
X59492D02*
X59820D01*
X57950Y13672D02*
X58290D01*
X58763D02*
X58982D01*
X59480D02*
X59820D01*
X57950Y13660D02*
X58290D01*
X58788D02*
X58970D01*
X59480D02*
X59820D01*
X57950Y13648D02*
X58302D01*
X58800D02*
X58946D01*
X59480D02*
X59820D01*
X57950Y13636D02*
X58302D01*
X58824D02*
X58921D01*
X59468D02*
X59820D01*
X57950Y13623D02*
X58314D01*
X58848D02*
X58909D01*
X59456D02*
X59820D01*
X57950Y13611D02*
X58314D01*
X58861D02*
X58897D01*
X59456D02*
X59820D01*
X57950Y13599D02*
X58326D01*
X59444D02*
X59820D01*
X57950Y13587D02*
X58326D01*
X59444D02*
X59820D01*
X57950Y13575D02*
X58338D01*
X59431D02*
X59820D01*
X57950Y13563D02*
X58338D01*
X59431D02*
X59820D01*
X57950Y13551D02*
X58351D01*
X59419D02*
X59820D01*
X57950Y13538D02*
X58363D01*
X59407D02*
X59820D01*
X57950Y13526D02*
X58375D01*
X59395D02*
X59820D01*
X57950Y13514D02*
X58375D01*
X59395D02*
X59820D01*
X57950Y13502D02*
X58387D01*
X59383D02*
X59820D01*
X57950Y13490D02*
X58399D01*
X59371D02*
X59820D01*
X57950Y13478D02*
X58411D01*
X59359D02*
X59820D01*
X57950Y13466D02*
X58423D01*
X59346D02*
X59820D01*
X57950Y13453D02*
X58436D01*
X59334D02*
X59820D01*
X57950Y13441D02*
X58448D01*
X59322D02*
X59820D01*
X57950Y13429D02*
X58460D01*
X59310D02*
X59820D01*
X57950Y13417D02*
X58472D01*
X59298D02*
X59820D01*
X57950Y13405D02*
X58496D01*
X59273D02*
X59832D01*
X57938Y13393D02*
X58508D01*
X59261D02*
X59832D01*
X57950Y13381D02*
X58521D01*
X59249D02*
X59832D01*
X57950Y13368D02*
X58545D01*
X59225D02*
X59820D01*
X57974Y13356D02*
X58569D01*
X59201D02*
X59796D01*
X57998Y13344D02*
X58593D01*
X59176D02*
X59771D01*
X58011Y13332D02*
X58606D01*
X59164D02*
X59759D01*
X58047Y13320D02*
X58642D01*
X59128D02*
X59735D01*
X58059Y13308D02*
X58666D01*
X59103D02*
X59711D01*
X58083Y13296D02*
X58715D01*
X59067D02*
X59686D01*
X58108Y13283D02*
X58763D01*
X59018D02*
X59674D01*
X58132Y13271D02*
X58848D01*
X58909D02*
X59650D01*
X58144Y13259D02*
X59626D01*
X58168Y13247D02*
X59601D01*
X58193Y13235D02*
X59589D01*
X58205Y13223D02*
X59565D01*
X58229Y13210D02*
X59541D01*
X58253Y13198D02*
X59516D01*
X58278Y13186D02*
X59504D01*
X58290Y13174D02*
X59480D01*
X58314Y13162D02*
X59456D01*
X58338Y13150D02*
X59431D01*
X58351Y13138D02*
X59419D01*
X58375Y13125D02*
X59395D01*
X58399Y13113D02*
X59371D01*
X58423Y13101D02*
X59346D01*
X58436Y13089D02*
X59334D01*
X58460Y13077D02*
X59310D01*
X58484Y13065D02*
X59286D01*
X58508Y13053D02*
X59273D01*
X58521Y13040D02*
X59249D01*
X58545Y13028D02*
X59225D01*
X58241Y13016D02*
X58278D01*
X58569D02*
X59201D01*
X58229Y13004D02*
X58290D01*
X58593D02*
X59188D01*
X59504D02*
X59553D01*
X58229Y12992D02*
X58290D01*
X58606D02*
X59164D01*
X59492D02*
X59553D01*
X58229Y12980D02*
X58290D01*
X58630D02*
X59140D01*
X59492D02*
X59553D01*
X58229Y12968D02*
X58290D01*
X58654D02*
X59116D01*
X59492D02*
X59553D01*
X58229Y12955D02*
X58290D01*
X58678D02*
X59103D01*
X59492D02*
X59553D01*
X58229Y12943D02*
X58290D01*
X58691D02*
X59079D01*
X59492D02*
X59553D01*
X58229Y12931D02*
X58290D01*
X58715D02*
X59055D01*
X59492D02*
X59553D01*
X58229Y12919D02*
X58290D01*
X58739D02*
X59043D01*
X59492D02*
X59553D01*
X58229Y12907D02*
X58290D01*
X58763D02*
X59006D01*
X59492D02*
X59553D01*
X58229Y12895D02*
X58290D01*
X58448D02*
X58484D01*
X58776D02*
X58994D01*
X59492D02*
X59553D01*
X58229Y12883D02*
X58290D01*
X58448D02*
X58496D01*
X58800D02*
X58970D01*
X59286D02*
X59346D01*
X59492D02*
X59553D01*
X58229Y12870D02*
X58290D01*
X58436D02*
X58496D01*
X58824D02*
X58958D01*
X59286D02*
X59346D01*
X59492D02*
X59553D01*
X58229Y12858D02*
X58290D01*
X58423D02*
X58496D01*
X58836D02*
X58933D01*
X59286D02*
X59359D01*
X59492D02*
X59553D01*
X58229Y12846D02*
X58290D01*
X58411D02*
X58496D01*
X58861D02*
X58909D01*
X59286D02*
X59371D01*
X59492D02*
X59553D01*
X58229Y12834D02*
X58290D01*
X58411D02*
X58484D01*
X59286D02*
X59371D01*
X59492D02*
X59553D01*
X58229Y12822D02*
X58290D01*
X58399D02*
X58484D01*
X59298D02*
X59383D01*
X59492D02*
X59553D01*
X58229Y12810D02*
X58290D01*
X58387D02*
X58472D01*
X59310D02*
X59395D01*
X59492D02*
X59553D01*
X58229Y12798D02*
X58290D01*
X58375D02*
X58460D01*
X59322D02*
X59407D01*
X59492D02*
X59553D01*
X58229Y12785D02*
X58290D01*
X58375D02*
X58460D01*
X59322D02*
X59407D01*
X59492D02*
X59553D01*
X58229Y12773D02*
X58290D01*
X58363D02*
X58448D01*
X59334D02*
X59419D01*
X59492D02*
X59553D01*
X58229Y12761D02*
X58290D01*
X58351D02*
X58436D01*
X59346D02*
X59431D01*
X59492D02*
X59553D01*
X58229Y12749D02*
X58290D01*
X58338D02*
X58423D01*
X59359D02*
X59444D01*
X59492D02*
X59553D01*
X58229Y12737D02*
X58290D01*
X58338D02*
X58411D01*
X59359D02*
X59444D01*
X59492D02*
X59553D01*
X58229Y12725D02*
X58290D01*
X58326D02*
X58411D01*
X59371D02*
X59456D01*
X59492D02*
X59553D01*
X58229Y12713D02*
X58290D01*
X58314D02*
X58399D01*
X59383D02*
X59468D01*
X59492D02*
X59553D01*
X58229Y12700D02*
X58290D01*
X58302D02*
X58387D01*
X59395D02*
X59480D01*
X59492D02*
X59553D01*
X58229Y12688D02*
X58387D01*
X59407D02*
X59480D01*
X59492D02*
X59553D01*
X58229Y12676D02*
X58375D01*
X59407D02*
X59553D01*
X58229Y12664D02*
X58363D01*
X59419D02*
X59553D01*
X58229Y12652D02*
X58351D01*
X59431D02*
X59553D01*
X58229Y12640D02*
X58351D01*
X59431D02*
X59553D01*
X58229Y12628D02*
X58326D01*
X59444D02*
X59553D01*
X58229Y12615D02*
X58326D01*
X59456D02*
X59553D01*
X58229Y12603D02*
X58314D01*
X59468D02*
X59553D01*
X58229Y12591D02*
X58314D01*
X59468D02*
X59553D01*
X58229Y12579D02*
X58302D01*
X59480D02*
X59553D01*
X58229Y12567D02*
X58290D01*
X59492D02*
X59553D01*
X58253Y12555D02*
X58278D01*
X59504D02*
X59553D01*
X58144Y12300D02*
X58168D01*
X58290D02*
X58411D01*
X58484D02*
X58496D01*
X58581D02*
X58691D01*
X58739D02*
X58885D01*
X58921D02*
X58933D01*
X59043D02*
X59055D01*
X59128D02*
X59249D01*
X59286D02*
X59431D01*
X59468D02*
X59492D01*
X59638D02*
X59759D01*
X58132Y12288D02*
X58181D01*
X58278D02*
X58423D01*
X58472D02*
X58508D01*
X58569D02*
X58703D01*
X58739D02*
X58885D01*
X58909D02*
X58946D01*
X59031D02*
X59055D01*
X59116D02*
X59261D01*
X59286D02*
X59431D01*
X59468D02*
X59492D01*
X59638D02*
X59771D01*
X58132Y12275D02*
X58193D01*
X58278D02*
X58314D01*
X58387D02*
X58423D01*
X58472D02*
X58508D01*
X58569D02*
X58593D01*
X58678D02*
X58703D01*
X58788D02*
X58824D01*
X58909D02*
X58946D01*
X59031D02*
X59055D01*
X59128D02*
X59152D01*
X59237D02*
X59261D01*
X59346D02*
X59371D01*
X59407D02*
X59431D01*
X59468D02*
X59492D01*
X59638D02*
X59662D01*
X58120Y12263D02*
X58144D01*
X58168D02*
X58193D01*
X58278D02*
X58314D01*
X58399D02*
X58423D01*
X58472D02*
X58508D01*
X58569D02*
X58593D01*
X58691D02*
X58703D01*
X58800D02*
X58824D01*
X58909D02*
X58946D01*
X59031D02*
X59055D01*
X59128D02*
X59152D01*
X59237D02*
X59261D01*
X59346D02*
X59371D01*
X59468D02*
X59492D01*
X59638D02*
X59662D01*
X58120Y12251D02*
X58144D01*
X58168D02*
X58205D01*
X58278D02*
X58314D01*
X58399D02*
X58423D01*
X58472D02*
X58508D01*
X58569D02*
X58593D01*
X58800D02*
X58824D01*
X58921D02*
X58946D01*
X59031D02*
X59055D01*
X59128D02*
X59152D01*
X59237D02*
X59261D01*
X59346D02*
X59371D01*
X59468D02*
X59492D01*
X59638D02*
X59662D01*
X58108Y12239D02*
X58132D01*
X58181D02*
X58205D01*
X58278D02*
X58314D01*
X58326D02*
X58338D01*
X58387D02*
X58423D01*
X58472D02*
X58508D01*
X58569D02*
X58703D01*
X58800D02*
X58824D01*
X58909D02*
X58946D01*
X59031D02*
X59055D01*
X59128D02*
X59152D01*
X59225D02*
X59261D01*
X59346D02*
X59371D01*
X59468D02*
X59492D01*
X59638D02*
X59723D01*
X58108Y12227D02*
X58132D01*
X58181D02*
X58217D01*
X58290D02*
X58423D01*
X58472D02*
X58508D01*
X58581D02*
X58703D01*
X58800D02*
X58824D01*
X58921D02*
X58946D01*
X59031D02*
X59055D01*
X59128D02*
X59261D01*
X59346D02*
X59371D01*
X59468D02*
X59492D01*
X59638D02*
X59723D01*
X58096Y12215D02*
X58217D01*
X58290D02*
X58326D01*
X58338D02*
X58387D01*
X58472D02*
X58508D01*
X58678D02*
X58703D01*
X58800D02*
X58824D01*
X58921D02*
X58946D01*
X59031D02*
X59055D01*
X59128D02*
X59164D01*
X59176D02*
X59225D01*
X59346D02*
X59371D01*
X59468D02*
X59492D01*
X59638D02*
X59662D01*
X58096Y12203D02*
X58229D01*
X58278D02*
X58314D01*
X58363D02*
X58387D01*
X58472D02*
X58508D01*
X58569D02*
X58593D01*
X58678D02*
X58715D01*
X58800D02*
X58824D01*
X58909D02*
X58946D01*
X59031D02*
X59055D01*
X59128D02*
X59152D01*
X59201D02*
X59237D01*
X59346D02*
X59371D01*
X59468D02*
X59492D01*
X59626D02*
X59662D01*
X58083Y12190D02*
X58120D01*
X58205D02*
X58229D01*
X58278D02*
X58314D01*
X58375D02*
X58411D01*
X58472D02*
X58508D01*
X58557D02*
X58593D01*
X58678D02*
X58703D01*
X58800D02*
X58824D01*
X58921D02*
X58946D01*
X59031D02*
X59055D01*
X59128D02*
X59152D01*
X59213D02*
X59249D01*
X59346D02*
X59371D01*
X59468D02*
X59492D01*
X59638D02*
X59662D01*
X58083Y12178D02*
X58108D01*
X58205D02*
X58241D01*
X58278D02*
X58314D01*
X58387D02*
X58423D01*
X58472D02*
X58508D01*
X58569D02*
X58703D01*
X58800D02*
X58824D01*
X58921D02*
X59055D01*
X59116D02*
X59152D01*
X59225D02*
X59261D01*
X59346D02*
X59371D01*
X59468D02*
X59589D01*
X59626D02*
X59771D01*
X58083Y12166D02*
X58096D01*
X58217D02*
X58241D01*
X58290D02*
X58302D01*
X58399D02*
X58423D01*
X58484D02*
X58496D01*
X58581D02*
X58691D01*
X58800D02*
X58824D01*
X58933D02*
X59055D01*
X59128D02*
X59152D01*
X59237D02*
X59261D01*
X59359D02*
X59371D01*
X59468D02*
X59589D01*
X59638D02*
X59759D01*
D17*
X50559Y18273D02*
Y18343D01*
X50594D01*
X50605Y18331D01*
Y18308D01*
X50594Y18296D01*
X50559D01*
X50629Y18273D02*
X50652D01*
X50640D01*
Y18319D01*
X50629D01*
X50687Y18273D02*
Y18319D01*
X50722D01*
X50734Y18308D01*
Y18273D01*
X50769D02*
X50792D01*
X50804Y18284D01*
Y18308D01*
X50792Y18319D01*
X50769D01*
X50757Y18308D01*
Y18284D01*
X50769Y18273D01*
X50827Y18319D02*
Y18284D01*
X50839Y18273D01*
X50874D01*
Y18319D01*
X50909Y18331D02*
Y18319D01*
X50897D01*
X50920D01*
X50909D01*
Y18284D01*
X50920Y18273D01*
X25210Y8671D02*
Y8601D01*
X25175D01*
X25163Y8613D01*
Y8636D01*
X25175Y8648D01*
X25210D01*
X25186D02*
X25163Y8671D01*
X25140D02*
X25116D01*
X25128D01*
Y8601D01*
X25140Y8613D01*
X25081D02*
X25070Y8601D01*
X25046D01*
X25035Y8613D01*
Y8625D01*
X25046Y8636D01*
X25035Y8648D01*
Y8660D01*
X25046Y8671D01*
X25070D01*
X25081Y8660D01*
Y8648D01*
X25070Y8636D01*
X25081Y8625D01*
Y8613D01*
X25070Y8636D02*
X25046D01*
X41567Y13818D02*
X41497D01*
Y13853D01*
X41509Y13864D01*
X41532D01*
X41544Y13853D01*
Y13818D01*
Y13841D02*
X41567Y13864D01*
X41509Y13888D02*
X41497Y13899D01*
Y13923D01*
X41509Y13934D01*
X41521D01*
X41532Y13923D01*
X41544Y13934D01*
X41556D01*
X41567Y13923D01*
Y13899D01*
X41556Y13888D01*
X41544D01*
X41532Y13899D01*
X41521Y13888D01*
X41509D01*
X41532Y13899D02*
Y13923D01*
X41497Y14004D02*
X41509Y13981D01*
X41532Y13958D01*
X41556D01*
X41567Y13969D01*
Y13993D01*
X41556Y14004D01*
X41544D01*
X41532Y13993D01*
Y13958D01*
X42589Y13805D02*
X42519D01*
Y13840D01*
X42531Y13852D01*
X42554D01*
X42566Y13840D01*
Y13805D01*
Y13828D02*
X42589Y13852D01*
X42531Y13875D02*
X42519Y13887D01*
Y13910D01*
X42531Y13922D01*
X42543D01*
X42554Y13910D01*
X42566Y13922D01*
X42578D01*
X42589Y13910D01*
Y13887D01*
X42578Y13875D01*
X42566D01*
X42554Y13887D01*
X42543Y13875D01*
X42531D01*
X42554Y13887D02*
Y13910D01*
X42519Y13992D02*
Y13945D01*
X42554D01*
X42543Y13968D01*
Y13980D01*
X42554Y13992D01*
X42578D01*
X42589Y13980D01*
Y13957D01*
X42578Y13945D01*
X43567Y13805D02*
X43497D01*
Y13840D01*
X43509Y13852D01*
X43532D01*
X43544Y13840D01*
Y13805D01*
Y13828D02*
X43567Y13852D01*
X43509Y13875D02*
X43497Y13887D01*
Y13910D01*
X43509Y13922D01*
X43520D01*
X43532Y13910D01*
X43544Y13922D01*
X43555D01*
X43567Y13910D01*
Y13887D01*
X43555Y13875D01*
X43544D01*
X43532Y13887D01*
X43520Y13875D01*
X43509D01*
X43532Y13887D02*
Y13910D01*
X43567Y13980D02*
X43497D01*
X43532Y13945D01*
Y13992D01*
X42120Y15151D02*
X42050Y15104D01*
X42120D02*
X42050Y15151D01*
X42108Y15081D02*
X42120Y15069D01*
Y15046D01*
X42108Y15034D01*
X42096D01*
X42085Y15046D01*
Y15058D01*
Y15046D01*
X42073Y15034D01*
X42061D01*
X42050Y15046D01*
Y15069D01*
X42061Y15081D01*
X44329Y15734D02*
Y15757D01*
X44317Y15769D01*
X44271D01*
X44259Y15757D01*
Y15734D01*
X44271Y15722D01*
X44317D01*
X44329Y15734D01*
X44259Y15699D02*
Y15676D01*
Y15687D01*
X44329D01*
X44317Y15699D01*
X43352Y15726D02*
Y15749D01*
X43340Y15761D01*
X43293D01*
X43282Y15749D01*
Y15726D01*
X43293Y15714D01*
X43340D01*
X43352Y15726D01*
X43282Y15644D02*
Y15691D01*
X43328Y15644D01*
X43340D01*
X43352Y15656D01*
Y15679D01*
X43340Y15691D01*
X42336Y15738D02*
Y15762D01*
X42324Y15773D01*
X42277D01*
X42266Y15762D01*
Y15738D01*
X42277Y15727D01*
X42324D01*
X42336Y15738D01*
X42324Y15703D02*
X42336Y15692D01*
Y15668D01*
X42324Y15657D01*
X42312D01*
X42301Y15668D01*
Y15680D01*
Y15668D01*
X42289Y15657D01*
X42277D01*
X42266Y15668D01*
Y15692D01*
X42277Y15703D01*
X51390Y17374D02*
Y17444D01*
X51425D01*
X51437Y17432D01*
Y17409D01*
X51425Y17397D01*
X51390D01*
X51413D02*
X51437Y17374D01*
X51460Y17444D02*
X51507D01*
X51483D01*
Y17374D01*
X51530D02*
X51553D01*
X51542D01*
Y17444D01*
X51530Y17432D01*
X51854Y17069D02*
Y16999D01*
X51819D01*
X51807Y17010D01*
Y17034D01*
X51819Y17045D01*
X51854D01*
X51831D02*
X51807Y17069D01*
X51784D02*
X51761D01*
X51772D01*
Y16999D01*
X51784Y17010D01*
X51726D02*
X51714Y16999D01*
X51691D01*
X51679Y17010D01*
Y17057D01*
X51691Y17069D01*
X51714D01*
X51726Y17057D01*
Y17010D01*
X51656Y17069D02*
X51633D01*
X51644D01*
Y16999D01*
X51656Y17010D01*
X51223D02*
X51235Y16999D01*
X51258D01*
X51270Y17010D01*
Y17057D01*
X51258Y17069D01*
X51235D01*
X51223Y17057D01*
X51200D02*
X51188Y17069D01*
X51165D01*
X51153Y17057D01*
Y17010D01*
X51165Y16999D01*
X51188D01*
X51200Y17010D01*
Y17022D01*
X51188Y17034D01*
X51153D01*
X51083Y17069D02*
X51130D01*
X51083Y17022D01*
Y17010D01*
X51095Y16999D01*
X51118D01*
X51130Y17010D01*
X49606Y14529D02*
X49560D01*
X49536Y14552D01*
X49560Y14575D01*
X49606D01*
X49571D01*
Y14529D01*
X49606Y14634D02*
X49536D01*
X49571Y14599D01*
Y14645D01*
X49606Y14846D02*
X49560D01*
X49536Y14870D01*
X49560Y14893D01*
X49606D01*
X49571D01*
Y14846D01*
X49536Y14963D02*
Y14916D01*
X49571D01*
X49560Y14940D01*
Y14951D01*
X49571Y14963D01*
X49595D01*
X49606Y14951D01*
Y14928D01*
X49595Y14916D01*
X49606Y15151D02*
X49560D01*
X49536Y15174D01*
X49560Y15198D01*
X49606D01*
X49571D01*
Y15151D01*
X49536Y15268D02*
X49548Y15244D01*
X49571Y15221D01*
X49595D01*
X49606Y15233D01*
Y15256D01*
X49595Y15268D01*
X49583D01*
X49571Y15256D01*
Y15221D01*
X49606Y15456D02*
X49560D01*
X49536Y15479D01*
X49560Y15503D01*
X49606D01*
X49571D01*
Y15456D01*
X49536Y15526D02*
Y15573D01*
X49548D01*
X49595Y15526D01*
X49606D01*
Y15735D02*
X49560D01*
X49536Y15759D01*
X49560Y15782D01*
X49606D01*
X49571D01*
Y15735D01*
X49548Y15805D02*
X49536Y15817D01*
Y15840D01*
X49548Y15852D01*
X49560D01*
X49571Y15840D01*
X49583Y15852D01*
X49595D01*
X49606Y15840D01*
Y15817D01*
X49595Y15805D01*
X49583D01*
X49571Y15817D01*
X49560Y15805D01*
X49548D01*
X49571Y15817D02*
Y15840D01*
X49606Y16053D02*
X49560D01*
X49536Y16076D01*
X49560Y16099D01*
X49606D01*
X49571D01*
Y16053D01*
X49595Y16123D02*
X49606Y16134D01*
Y16158D01*
X49595Y16169D01*
X49548D01*
X49536Y16158D01*
Y16134D01*
X49548Y16123D01*
X49560D01*
X49571Y16134D01*
Y16169D01*
X49606Y16332D02*
X49560D01*
X49536Y16356D01*
X49560Y16379D01*
X49606D01*
X49571D01*
Y16332D01*
X49606Y16402D02*
Y16426D01*
Y16414D01*
X49536D01*
X49548Y16402D01*
Y16460D02*
X49536Y16472D01*
Y16495D01*
X49548Y16507D01*
X49595D01*
X49606Y16495D01*
Y16472D01*
X49595Y16460D01*
X49548D01*
X49606Y16650D02*
X49560D01*
X49536Y16673D01*
X49560Y16696D01*
X49606D01*
X49571D01*
Y16650D01*
X49606Y16720D02*
Y16743D01*
Y16731D01*
X49536D01*
X49548Y16720D01*
X49606Y16778D02*
Y16801D01*
Y16790D01*
X49536D01*
X49548Y16778D01*
X44126Y15138D02*
X44056Y15092D01*
X44126D02*
X44056Y15138D01*
Y15068D02*
Y15045D01*
Y15057D01*
X44126D01*
X44115Y15068D01*
X43502Y15222D02*
X43490Y15234D01*
X43467D01*
X43456Y15222D01*
Y15175D01*
X43467Y15164D01*
X43490D01*
X43502Y15175D01*
X43525D02*
X43537Y15164D01*
X43560D01*
X43572Y15175D01*
Y15222D01*
X43560Y15234D01*
X43537D01*
X43525Y15222D01*
Y15210D01*
X43537Y15199D01*
X43572D01*
X43595Y15222D02*
X43607Y15234D01*
X43630D01*
X43642Y15222D01*
Y15210D01*
X43630Y15199D01*
X43619D01*
X43630D01*
X43642Y15187D01*
Y15175D01*
X43630Y15164D01*
X43607D01*
X43595Y15175D01*
X43473Y14177D02*
X43404D01*
Y14212D01*
X43415Y14224D01*
X43439D01*
X43450Y14212D01*
Y14177D01*
Y14201D02*
X43473Y14224D01*
X43462Y14247D02*
X43473Y14259D01*
Y14282D01*
X43462Y14294D01*
X43415D01*
X43404Y14282D01*
Y14259D01*
X43415Y14247D01*
X43427D01*
X43439Y14259D01*
Y14294D01*
X43473Y14317D02*
Y14341D01*
Y14329D01*
X43404D01*
X43415Y14317D01*
X43485Y14580D02*
Y14650D01*
X43520D01*
X43531Y14638D01*
Y14615D01*
X43520Y14603D01*
X43485D01*
X43508D02*
X43531Y14580D01*
X43555Y14591D02*
X43566Y14580D01*
X43590D01*
X43601Y14591D01*
Y14638D01*
X43590Y14650D01*
X43566D01*
X43555Y14638D01*
Y14626D01*
X43566Y14615D01*
X43601D01*
X43625Y14638D02*
X43636Y14650D01*
X43660D01*
X43671Y14638D01*
Y14591D01*
X43660Y14580D01*
X43636D01*
X43625Y14591D01*
Y14638D01*
X43727Y15870D02*
X43715Y15881D01*
X43692D01*
X43680Y15870D01*
Y15823D01*
X43692Y15811D01*
X43715D01*
X43727Y15823D01*
X43750D02*
X43762Y15811D01*
X43785D01*
X43797Y15823D01*
Y15870D01*
X43785Y15881D01*
X43762D01*
X43750Y15870D01*
Y15858D01*
X43762Y15846D01*
X43797D01*
X43820Y15870D02*
X43832Y15881D01*
X43855D01*
X43867Y15870D01*
Y15823D01*
X43855Y15811D01*
X43832D01*
X43820Y15823D01*
Y15870D01*
X41485Y15964D02*
X41415D01*
Y15929D01*
X41426Y15917D01*
X41438D01*
X41450Y15929D01*
Y15964D01*
Y15929D01*
X41461Y15917D01*
X41473D01*
X41485Y15929D01*
Y15964D01*
X41461Y15894D02*
X41426D01*
X41415Y15882D01*
Y15847D01*
X41461D01*
X41415Y15812D02*
X41473D01*
X41450D01*
Y15824D01*
Y15801D01*
Y15812D01*
X41473D01*
X41485Y15801D01*
X41415Y15719D02*
Y15766D01*
X41461Y15719D01*
X41473D01*
X41485Y15731D01*
Y15754D01*
X41473Y15766D01*
X40361Y17251D02*
Y17181D01*
X40396D01*
X40407Y17192D01*
Y17204D01*
X40396Y17216D01*
X40361D01*
X40396D01*
X40407Y17227D01*
Y17239D01*
X40396Y17251D01*
X40361D01*
X40431Y17227D02*
Y17192D01*
X40442Y17181D01*
X40477D01*
Y17227D01*
X40512Y17181D02*
Y17239D01*
Y17216D01*
X40501D01*
X40524D01*
X40512D01*
Y17239D01*
X40524Y17251D01*
X41516Y15222D02*
X41505Y15234D01*
X41481D01*
X41470Y15222D01*
Y15175D01*
X41481Y15164D01*
X41505D01*
X41516Y15175D01*
X41540Y15164D02*
X41563D01*
X41551D01*
Y15234D01*
X41540Y15222D01*
X41598Y15175D02*
X41610Y15164D01*
X41633D01*
X41645Y15175D01*
Y15222D01*
X41633Y15234D01*
X41610D01*
X41598Y15222D01*
Y15210D01*
X41610Y15199D01*
X41645D01*
X42468Y15222D02*
X42456Y15234D01*
X42433D01*
X42421Y15222D01*
Y15175D01*
X42433Y15164D01*
X42456D01*
X42468Y15175D01*
X42538Y15164D02*
X42491D01*
X42538Y15210D01*
Y15222D01*
X42526Y15234D01*
X42503D01*
X42491Y15222D01*
X42561D02*
X42573Y15234D01*
X42596D01*
X42608Y15222D01*
Y15175D01*
X42596Y15164D01*
X42573D01*
X42561Y15175D01*
Y15222D01*
X42748Y15866D02*
X42736Y15877D01*
X42713D01*
X42702Y15866D01*
Y15819D01*
X42713Y15807D01*
X42736D01*
X42748Y15819D01*
X42818Y15807D02*
X42771D01*
X42818Y15854D01*
Y15866D01*
X42806Y15877D01*
X42783D01*
X42771Y15866D01*
X42888Y15807D02*
X42841D01*
X42888Y15854D01*
Y15866D01*
X42876Y15877D01*
X42853D01*
X42841Y15866D01*
X41656D02*
X41644Y15877D01*
X41621D01*
X41609Y15866D01*
Y15819D01*
X41621Y15807D01*
X41644D01*
X41656Y15819D01*
X41726Y15807D02*
X41679D01*
X41726Y15854D01*
Y15866D01*
X41714Y15877D01*
X41691D01*
X41679Y15866D01*
X41749D02*
X41761Y15877D01*
X41784D01*
X41796Y15866D01*
Y15854D01*
X41784Y15842D01*
X41772D01*
X41784D01*
X41796Y15831D01*
Y15819D01*
X41784Y15807D01*
X41761D01*
X41749Y15819D01*
X43705Y17060D02*
X43717Y17072D01*
Y17095D01*
X43705Y17107D01*
X43659D01*
X43647Y17095D01*
Y17072D01*
X43659Y17060D01*
X43647Y16990D02*
Y17037D01*
X43694Y16990D01*
X43705D01*
X43717Y17002D01*
Y17025D01*
X43705Y17037D01*
Y16967D02*
X43717Y16955D01*
Y16932D01*
X43705Y16920D01*
X43694D01*
X43682Y16932D01*
X43670Y16920D01*
X43659D01*
X43647Y16932D01*
Y16955D01*
X43659Y16967D01*
X43670D01*
X43682Y16955D01*
X43694Y16967D01*
X43705D01*
X43682Y16955D02*
Y16932D01*
X41474Y15502D02*
X41462Y15513D01*
X41439D01*
X41427Y15502D01*
Y15455D01*
X41439Y15443D01*
X41462D01*
X41474Y15455D01*
X41395Y16608D02*
X41442D01*
Y16573D01*
X41430Y16562D01*
X41395D01*
X41372Y16538D02*
X41442D01*
Y16503D01*
X41430Y16492D01*
X41407D01*
X41395Y16503D01*
Y16538D01*
Y16468D02*
X41442D01*
Y16433D01*
X41430Y16422D01*
X41395D01*
X40661Y15955D02*
X40731D01*
Y15921D01*
X40719Y15909D01*
X40696D01*
X40684Y15921D01*
Y15955D01*
Y15886D02*
X40731D01*
Y15851D01*
X40719Y15839D01*
X40684D01*
X40661Y15816D02*
X40731D01*
Y15781D01*
X40719Y15769D01*
X40696D01*
X40684Y15781D01*
Y15816D01*
X42507Y14580D02*
Y14650D01*
X42542D01*
X42554Y14638D01*
Y14615D01*
X42542Y14603D01*
X42507D01*
X42530D02*
X42554Y14580D01*
X42577Y14638D02*
X42589Y14650D01*
X42612D01*
X42624Y14638D01*
Y14626D01*
X42612Y14615D01*
X42600D01*
X42612D01*
X42624Y14603D01*
Y14591D01*
X42612Y14580D01*
X42589D01*
X42577Y14591D01*
X42647Y14638D02*
X42659Y14650D01*
X42682D01*
X42694Y14638D01*
Y14591D01*
X42682Y14580D01*
X42659D01*
X42647Y14591D01*
Y14638D01*
X42502Y14177D02*
X42432D01*
Y14212D01*
X42443Y14224D01*
X42467D01*
X42478Y14212D01*
Y14177D01*
Y14201D02*
X42502Y14224D01*
X42443Y14247D02*
X42432Y14259D01*
Y14282D01*
X42443Y14294D01*
X42455D01*
X42467Y14282D01*
Y14271D01*
Y14282D01*
X42478Y14294D01*
X42490D01*
X42502Y14282D01*
Y14259D01*
X42490Y14247D01*
X42502Y14317D02*
Y14341D01*
Y14329D01*
X42432D01*
X42443Y14317D01*
X41491Y14592D02*
Y14662D01*
X41526D01*
X41538Y14651D01*
Y14627D01*
X41526Y14616D01*
X41491D01*
X41514D02*
X41538Y14592D01*
X41561Y14651D02*
X41573Y14662D01*
X41596D01*
X41608Y14651D01*
Y14639D01*
X41596Y14627D01*
X41584D01*
X41596D01*
X41608Y14616D01*
Y14604D01*
X41596Y14592D01*
X41573D01*
X41561Y14604D01*
X41678Y14592D02*
X41631D01*
X41678Y14639D01*
Y14651D01*
X41666Y14662D01*
X41643D01*
X41631Y14651D01*
X41478Y14186D02*
X41408D01*
Y14221D01*
X41420Y14233D01*
X41443D01*
X41455Y14221D01*
Y14186D01*
Y14209D02*
X41478Y14233D01*
X41420Y14256D02*
X41408Y14268D01*
Y14291D01*
X41420Y14303D01*
X41432D01*
X41443Y14291D01*
Y14279D01*
Y14291D01*
X41455Y14303D01*
X41467D01*
X41478Y14291D01*
Y14268D01*
X41467Y14256D01*
X41420Y14326D02*
X41408Y14338D01*
Y14361D01*
X41420Y14373D01*
X41432D01*
X41443Y14361D01*
Y14349D01*
Y14361D01*
X41455Y14373D01*
X41467D01*
X41478Y14361D01*
Y14338D01*
X41467Y14326D01*
X40570Y16337D02*
Y16406D01*
X40605D01*
X40616Y16395D01*
Y16371D01*
X40605Y16360D01*
X40570D01*
X40593D02*
X40616Y16337D01*
X40640Y16395D02*
X40651Y16406D01*
X40675D01*
X40686Y16395D01*
Y16383D01*
X40675Y16371D01*
X40663D01*
X40675D01*
X40686Y16360D01*
Y16348D01*
X40675Y16337D01*
X40651D01*
X40640Y16348D01*
X40756Y16406D02*
X40710D01*
Y16371D01*
X40733Y16383D01*
X40745D01*
X40756Y16371D01*
Y16348D01*
X40745Y16337D01*
X40721D01*
X40710Y16348D01*
X39916Y16337D02*
Y16406D01*
X39951D01*
X39963Y16395D01*
Y16371D01*
X39951Y16360D01*
X39916D01*
X39939D02*
X39963Y16337D01*
X39986Y16395D02*
X39998Y16406D01*
X40021D01*
X40033Y16395D01*
Y16383D01*
X40021Y16371D01*
X40009D01*
X40021D01*
X40033Y16360D01*
Y16348D01*
X40021Y16337D01*
X39998D01*
X39986Y16348D01*
X40103Y16406D02*
X40079Y16395D01*
X40056Y16371D01*
Y16348D01*
X40068Y16337D01*
X40091D01*
X40103Y16348D01*
Y16360D01*
X40091Y16371D01*
X40056D01*
X40284Y16510D02*
Y16580D01*
X40319D01*
X40331Y16568D01*
Y16545D01*
X40319Y16533D01*
X40284D01*
X40308D02*
X40331Y16510D01*
X40354Y16568D02*
X40366Y16580D01*
X40389D01*
X40401Y16568D01*
Y16557D01*
X40389Y16545D01*
X40378D01*
X40389D01*
X40401Y16533D01*
Y16522D01*
X40389Y16510D01*
X40366D01*
X40354Y16522D01*
X40424Y16580D02*
X40471D01*
Y16568D01*
X40424Y16522D01*
Y16510D01*
X39891Y15634D02*
Y15704D01*
X39926D01*
X39937Y15692D01*
Y15669D01*
X39926Y15657D01*
X39891D01*
X39914D02*
X39937Y15634D01*
X39961Y15692D02*
X39972Y15704D01*
X39996D01*
X40007Y15692D01*
Y15680D01*
X39996Y15669D01*
X39984D01*
X39996D01*
X40007Y15657D01*
Y15645D01*
X39996Y15634D01*
X39972D01*
X39961Y15645D01*
X40031Y15692D02*
X40042Y15704D01*
X40066D01*
X40077Y15692D01*
Y15680D01*
X40066Y15669D01*
X40077Y15657D01*
Y15645D01*
X40066Y15634D01*
X40042D01*
X40031Y15645D01*
Y15657D01*
X40042Y15669D01*
X40031Y15680D01*
Y15692D01*
X40042Y15669D02*
X40066D01*
X40984Y17120D02*
Y17190D01*
X41019D01*
X41031Y17178D01*
Y17155D01*
X41019Y17143D01*
X40984D01*
X41007D02*
X41031Y17120D01*
X41054Y17178D02*
X41066Y17190D01*
X41089D01*
X41101Y17178D01*
Y17166D01*
X41089Y17155D01*
X41077D01*
X41089D01*
X41101Y17143D01*
Y17131D01*
X41089Y17120D01*
X41066D01*
X41054Y17131D01*
X41124D02*
X41136Y17120D01*
X41159D01*
X41171Y17131D01*
Y17178D01*
X41159Y17190D01*
X41136D01*
X41124Y17178D01*
Y17166D01*
X41136Y17155D01*
X41171D01*
X40996Y16840D02*
Y16910D01*
X41031D01*
X41042Y16899D01*
Y16875D01*
X41031Y16864D01*
X40996D01*
X41019D02*
X41042Y16840D01*
X41101D02*
Y16910D01*
X41066Y16875D01*
X41112D01*
X41136Y16840D02*
X41159D01*
X41147D01*
Y16910D01*
X41136Y16899D01*
X41669Y16370D02*
X41739D01*
Y16335D01*
X41727Y16324D01*
X41704D01*
X41692Y16335D01*
Y16370D01*
Y16347D02*
X41669Y16324D01*
Y16265D02*
X41739D01*
X41704Y16300D01*
Y16254D01*
X41669Y16184D02*
Y16230D01*
X41715Y16184D01*
X41727D01*
X41739Y16195D01*
Y16219D01*
X41727Y16230D01*
X42311Y17390D02*
Y17332D01*
X42323Y17320D01*
X42346D01*
X42358Y17332D01*
Y17390D01*
X42381Y17320D02*
X42405D01*
X42393D01*
Y17390D01*
X42381Y17379D01*
X43148Y15151D02*
X43078Y15104D01*
X43148D02*
X43078Y15151D01*
Y15034D02*
Y15081D01*
X43125Y15034D01*
X43137D01*
X43148Y15046D01*
Y15069D01*
X43137Y15081D01*
X52172Y11709D02*
Y11779D01*
X52207D01*
X52218Y11768D01*
Y11744D01*
X52207Y11733D01*
X52172D01*
X52242Y11756D02*
Y11709D01*
Y11733D01*
X52253Y11744D01*
X52265Y11756D01*
X52277D01*
X52323Y11709D02*
X52347D01*
X52358Y11721D01*
Y11744D01*
X52347Y11756D01*
X52323D01*
X52312Y11744D01*
Y11721D01*
X52323Y11709D01*
X52405Y11686D02*
X52417D01*
X52428Y11698D01*
Y11756D01*
X52393D01*
X52382Y11744D01*
Y11721D01*
X52393Y11709D01*
X52428D01*
X52452Y11756D02*
Y11709D01*
Y11733D01*
X52463Y11744D01*
X52475Y11756D01*
X52486D01*
X52533D02*
X52556D01*
X52568Y11744D01*
Y11709D01*
X52533D01*
X52521Y11721D01*
X52533Y11733D01*
X52568D01*
X52591Y11709D02*
Y11756D01*
X52603D01*
X52615Y11744D01*
Y11709D01*
Y11744D01*
X52626Y11756D01*
X52638Y11744D01*
Y11709D01*
X52661D02*
Y11756D01*
X52673D01*
X52685Y11744D01*
Y11709D01*
Y11744D01*
X52696Y11756D01*
X52708Y11744D01*
Y11709D01*
X52731D02*
X52755D01*
X52743D01*
Y11756D01*
X52731D01*
X52790Y11709D02*
Y11756D01*
X52825D01*
X52836Y11744D01*
Y11709D01*
X52883Y11686D02*
X52895D01*
X52906Y11698D01*
Y11756D01*
X52871D01*
X52860Y11744D01*
Y11721D01*
X52871Y11709D01*
X52906D01*
X38697Y14213D02*
Y14154D01*
X38709Y14143D01*
X38732D01*
X38744Y14154D01*
Y14213D01*
X38814Y14143D02*
X38767D01*
X38814Y14189D01*
Y14201D01*
X38802Y14213D01*
X38779D01*
X38767Y14201D01*
X65517Y9296D02*
Y9366D01*
X65552D01*
X65563Y9355D01*
Y9331D01*
X65552Y9320D01*
X65517D01*
X65540D02*
X65563Y9296D01*
X65622D02*
Y9366D01*
X65587Y9331D01*
X65633D01*
X65657Y9308D02*
X65668Y9296D01*
X65692D01*
X65703Y9308D01*
Y9355D01*
X65692Y9366D01*
X65668D01*
X65657Y9355D01*
Y9343D01*
X65668Y9331D01*
X65703D01*
X61526Y9322D02*
Y9392D01*
X61561D01*
X61573Y9380D01*
Y9357D01*
X61561Y9345D01*
X61526D01*
X61550D02*
X61573Y9322D01*
X61631D02*
Y9392D01*
X61596Y9357D01*
X61643D01*
X61666Y9380D02*
X61678Y9392D01*
X61701D01*
X61713Y9380D01*
Y9368D01*
X61701Y9357D01*
X61713Y9345D01*
Y9333D01*
X61701Y9322D01*
X61678D01*
X61666Y9333D01*
Y9345D01*
X61678Y9357D01*
X61666Y9368D01*
Y9380D01*
X61678Y9357D02*
X61701D01*
X57506Y9309D02*
Y9379D01*
X57541D01*
X57552Y9367D01*
Y9344D01*
X57541Y9332D01*
X57506D01*
X57529D02*
X57552Y9309D01*
X57611D02*
Y9379D01*
X57576Y9344D01*
X57622D01*
X57646Y9379D02*
X57692D01*
Y9367D01*
X57646Y9321D01*
Y9309D01*
X56223Y10104D02*
Y10174D01*
X56258D01*
X56270Y10162D01*
Y10139D01*
X56258Y10127D01*
X56223D01*
X56246D02*
X56270Y10104D01*
X56340D02*
X56293D01*
X56340Y10151D01*
Y10162D01*
X56328Y10174D01*
X56305D01*
X56293Y10162D01*
X56363Y10174D02*
X56410D01*
Y10162D01*
X56363Y10116D01*
Y10104D01*
X60325Y10376D02*
Y10446D01*
X60360D01*
X60372Y10434D01*
Y10411D01*
X60360Y10399D01*
X60325D01*
X60348D02*
X60372Y10376D01*
X60442D02*
X60395D01*
X60442Y10423D01*
Y10434D01*
X60430Y10446D01*
X60407D01*
X60395Y10434D01*
X60512Y10446D02*
X60488Y10434D01*
X60465Y10411D01*
Y10388D01*
X60477Y10376D01*
X60500D01*
X60512Y10388D01*
Y10399D01*
X60500Y10411D01*
X60465D01*
X64247Y10353D02*
Y10423D01*
X64282D01*
X64293Y10411D01*
Y10388D01*
X64282Y10376D01*
X64247D01*
X64270D02*
X64293Y10353D01*
X64363D02*
X64317D01*
X64363Y10400D01*
Y10411D01*
X64352Y10423D01*
X64328D01*
X64317Y10411D01*
X64433Y10423D02*
X64387D01*
Y10388D01*
X64410Y10400D01*
X64422D01*
X64433Y10388D01*
Y10365D01*
X64422Y10353D01*
X64398D01*
X64387Y10365D01*
X64668Y10353D02*
Y10423D01*
X64703D01*
X64715Y10411D01*
Y10388D01*
X64703Y10376D01*
X64668D01*
X64692D02*
X64715Y10353D01*
X64738D02*
X64762D01*
X64750D01*
Y10423D01*
X64738Y10411D01*
X64797D02*
X64808Y10423D01*
X64832D01*
X64843Y10411D01*
Y10365D01*
X64832Y10353D01*
X64808D01*
X64797Y10365D01*
Y10411D01*
X60744Y10376D02*
Y10446D01*
X60779D01*
X60791Y10434D01*
Y10411D01*
X60779Y10399D01*
X60744D01*
X60767D02*
X60791Y10376D01*
X60814Y10388D02*
X60826Y10376D01*
X60849D01*
X60861Y10388D01*
Y10434D01*
X60849Y10446D01*
X60826D01*
X60814Y10434D01*
Y10423D01*
X60826Y10411D01*
X60861D01*
X56663Y10105D02*
Y10175D01*
X56698D01*
X56710Y10163D01*
Y10140D01*
X56698Y10128D01*
X56663D01*
X56687D02*
X56710Y10105D01*
X56733Y10163D02*
X56745Y10175D01*
X56768D01*
X56780Y10163D01*
Y10152D01*
X56768Y10140D01*
X56780Y10128D01*
Y10117D01*
X56768Y10105D01*
X56745D01*
X56733Y10117D01*
Y10128D01*
X56745Y10140D01*
X56733Y10152D01*
Y10163D01*
X56745Y10140D02*
X56768D01*
X55861Y10162D02*
X55849Y10174D01*
X55826D01*
X55814Y10162D01*
Y10116D01*
X55826Y10104D01*
X55849D01*
X55861Y10116D01*
X55884Y10104D02*
X55907D01*
X55896D01*
Y10174D01*
X55884Y10162D01*
X55942Y10174D02*
X55989D01*
Y10162D01*
X55942Y10116D01*
Y10104D01*
X59978Y10434D02*
X59966Y10446D01*
X59943D01*
X59931Y10434D01*
Y10388D01*
X59943Y10376D01*
X59966D01*
X59978Y10388D01*
X60001Y10376D02*
X60025D01*
X60013D01*
Y10446D01*
X60001Y10434D01*
X60106Y10446D02*
X60083Y10434D01*
X60060Y10411D01*
Y10388D01*
X60071Y10376D01*
X60095D01*
X60106Y10388D01*
Y10399D01*
X60095Y10411D01*
X60060D01*
X63884Y10411D02*
X63873Y10423D01*
X63849D01*
X63838Y10411D01*
Y10365D01*
X63849Y10353D01*
X63873D01*
X63884Y10365D01*
X63908Y10353D02*
X63931D01*
X63919D01*
Y10423D01*
X63908Y10411D01*
X64013Y10423D02*
X63966D01*
Y10388D01*
X63989Y10400D01*
X64001D01*
X64013Y10388D01*
Y10365D01*
X64001Y10353D01*
X63978D01*
X63966Y10365D01*
X31710Y12504D02*
X31699Y12516D01*
X31675D01*
X31664Y12504D01*
Y12458D01*
X31675Y12446D01*
X31699D01*
X31710Y12458D01*
X31734Y12504D02*
X31745Y12516D01*
X31769D01*
X31780Y12504D01*
Y12493D01*
X31769Y12481D01*
X31757D01*
X31769D01*
X31780Y12469D01*
Y12458D01*
X31769Y12446D01*
X31745D01*
X31734Y12458D01*
X31804Y12504D02*
X31815Y12516D01*
X31839D01*
X31850Y12504D01*
Y12458D01*
X31839Y12446D01*
X31815D01*
X31804Y12458D01*
Y12504D01*
X30487Y12796D02*
X30475Y12808D01*
X30452D01*
X30440Y12796D01*
Y12750D01*
X30452Y12738D01*
X30475D01*
X30487Y12750D01*
X30510Y12796D02*
X30522Y12808D01*
X30545D01*
X30557Y12796D01*
Y12785D01*
X30545Y12773D01*
X30534D01*
X30545D01*
X30557Y12761D01*
Y12750D01*
X30545Y12738D01*
X30522D01*
X30510Y12750D01*
X30580Y12738D02*
X30604D01*
X30592D01*
Y12808D01*
X30580Y12796D01*
X33628Y12504D02*
X33616Y12516D01*
X33593D01*
X33581Y12504D01*
Y12458D01*
X33593Y12446D01*
X33616D01*
X33628Y12458D01*
X33651Y12504D02*
X33663Y12516D01*
X33686D01*
X33698Y12504D01*
Y12493D01*
X33686Y12481D01*
X33675D01*
X33686D01*
X33698Y12469D01*
Y12458D01*
X33686Y12446D01*
X33663D01*
X33651Y12458D01*
X33768Y12446D02*
X33721D01*
X33768Y12493D01*
Y12504D01*
X33756Y12516D01*
X33733D01*
X33721Y12504D01*
X35632Y12581D02*
X35620Y12592D01*
X35597D01*
X35585Y12581D01*
Y12534D01*
X35597Y12522D01*
X35620D01*
X35632Y12534D01*
X35655Y12581D02*
X35667Y12592D01*
X35690D01*
X35702Y12581D01*
Y12569D01*
X35690Y12557D01*
X35679D01*
X35690D01*
X35702Y12546D01*
Y12534D01*
X35690Y12522D01*
X35667D01*
X35655Y12534D01*
X35772Y12592D02*
X35725D01*
Y12557D01*
X35749Y12569D01*
X35760D01*
X35772Y12557D01*
Y12534D01*
X35760Y12522D01*
X35737D01*
X35725Y12534D01*
X34542Y12898D02*
X34531Y12910D01*
X34507D01*
X34496Y12898D01*
Y12851D01*
X34507Y12840D01*
X34531D01*
X34542Y12851D01*
X34566Y12898D02*
X34577Y12910D01*
X34601D01*
X34612Y12898D01*
Y12886D01*
X34601Y12875D01*
X34589D01*
X34601D01*
X34612Y12863D01*
Y12851D01*
X34601Y12840D01*
X34577D01*
X34566Y12851D01*
X34682Y12910D02*
X34659Y12898D01*
X34636Y12875D01*
Y12851D01*
X34647Y12840D01*
X34671D01*
X34682Y12851D01*
Y12863D01*
X34671Y12875D01*
X34636D01*
X31653Y12954D02*
Y13024D01*
X31688D01*
X31700Y13012D01*
Y12989D01*
X31688Y12977D01*
X31653D01*
X31677D02*
X31700Y12954D01*
X31723Y13024D02*
X31770D01*
Y13012D01*
X31723Y12966D01*
Y12954D01*
X31793Y13012D02*
X31805Y13024D01*
X31828D01*
X31840Y13012D01*
Y12966D01*
X31828Y12954D01*
X31805D01*
X31793Y12966D01*
Y13012D01*
X35585Y13030D02*
Y13100D01*
X35620D01*
X35632Y13089D01*
Y13065D01*
X35620Y13054D01*
X35585D01*
X35609D02*
X35632Y13030D01*
X35655Y13100D02*
X35702D01*
Y13089D01*
X35655Y13042D01*
Y13030D01*
X35725D02*
X35749D01*
X35737D01*
Y13100D01*
X35725Y13089D01*
X33566Y12967D02*
Y13037D01*
X33601D01*
X33613Y13025D01*
Y13002D01*
X33601Y12990D01*
X33566D01*
X33589D02*
X33613Y12967D01*
X33636Y13037D02*
X33683D01*
Y13025D01*
X33636Y12978D01*
Y12967D01*
X33753D02*
X33706D01*
X33753Y13013D01*
Y13025D01*
X33741Y13037D01*
X33718D01*
X33706Y13025D01*
X30023Y13024D02*
Y12954D01*
X30069D01*
X30139Y13024D02*
X30093D01*
Y12954D01*
X30139D01*
X30093Y12989D02*
X30116D01*
X30163Y13024D02*
Y12954D01*
X30198D01*
X30209Y12966D01*
Y13012D01*
X30198Y13024D01*
X30163D01*
X30233Y12954D02*
X30256D01*
X30244D01*
Y13024D01*
X30233Y13012D01*
X34087Y13113D02*
Y13043D01*
X34133D01*
X34203Y13113D02*
X34157D01*
Y13043D01*
X34203D01*
X34157Y13078D02*
X34180D01*
X34227Y13113D02*
Y13043D01*
X34262D01*
X34273Y13055D01*
Y13101D01*
X34262Y13113D01*
X34227D01*
X34297Y13101D02*
X34308Y13113D01*
X34332D01*
X34343Y13101D01*
Y13090D01*
X34332Y13078D01*
X34320D01*
X34332D01*
X34343Y13066D01*
Y13055D01*
X34332Y13043D01*
X34308D01*
X34297Y13055D01*
X32296Y13042D02*
Y12972D01*
X32343D01*
X32413Y13042D02*
X32366D01*
Y12972D01*
X32413D01*
X32366Y13007D02*
X32389D01*
X32436Y13042D02*
Y12972D01*
X32471D01*
X32483Y12984D01*
Y13030D01*
X32471Y13042D01*
X32436D01*
X32553Y12972D02*
X32506D01*
X32553Y13019D01*
Y13030D01*
X32541Y13042D01*
X32518D01*
X32506Y13030D01*
X34557Y11938D02*
X34627D01*
Y11973D01*
X34615Y11985D01*
X34568D01*
X34557Y11973D01*
Y11938D01*
X34568Y12055D02*
X34557Y12043D01*
Y12020D01*
X34568Y12008D01*
X34615D01*
X34627Y12020D01*
Y12043D01*
X34615Y12055D01*
X34627Y12078D02*
X34580Y12125D01*
X34557Y12148D02*
X34627D01*
Y12183D01*
X34615Y12195D01*
X34568D01*
X34557Y12183D01*
Y12148D01*
X34568Y12265D02*
X34557Y12253D01*
Y12230D01*
X34568Y12218D01*
X34615D01*
X34627Y12230D01*
Y12253D01*
X34615Y12265D01*
X34638Y12288D02*
Y12335D01*
X34568Y12358D02*
X34557Y12370D01*
Y12393D01*
X34568Y12405D01*
X34580D01*
X34592Y12393D01*
Y12381D01*
Y12393D01*
X34603Y12405D01*
X34615D01*
X34627Y12393D01*
Y12370D01*
X34615Y12358D01*
X25567Y8807D02*
X25578Y8795D01*
X25602D01*
X25613Y8807D01*
Y8853D01*
X25602Y8865D01*
X25578D01*
X25567Y8853D01*
X25543Y8807D02*
X25532Y8795D01*
X25508D01*
X25497Y8807D01*
Y8818D01*
X25508Y8830D01*
X25497Y8842D01*
Y8853D01*
X25508Y8865D01*
X25532D01*
X25543Y8853D01*
Y8842D01*
X25532Y8830D01*
X25543Y8818D01*
Y8807D01*
X25532Y8830D02*
X25508D01*
X38334Y13674D02*
X38322Y13662D01*
Y13639D01*
X38334Y13627D01*
X38380D01*
X38392Y13639D01*
Y13662D01*
X38380Y13674D01*
X38392Y13744D02*
Y13697D01*
X38345Y13744D01*
X38334D01*
X38322Y13732D01*
Y13709D01*
X38334Y13697D01*
X38380Y13767D02*
X38392Y13779D01*
Y13802D01*
X38380Y13814D01*
X38334D01*
X38322Y13802D01*
Y13779D01*
X38334Y13767D01*
X38345D01*
X38357Y13779D01*
Y13814D01*
X55119Y14858D02*
X55072D01*
Y14823D01*
X55096D01*
X55072D01*
Y14788D01*
X55142D02*
Y14835D01*
X55166Y14858D01*
X55189Y14835D01*
Y14788D01*
Y14823D01*
X55142D01*
X55212Y14788D02*
Y14858D01*
X55259Y14788D01*
Y14858D01*
X40946Y11878D02*
X40899D01*
Y11843D01*
X40922D01*
X40899D01*
Y11808D01*
X40969Y11855D02*
Y11820D01*
X40981Y11808D01*
X41016D01*
Y11855D01*
X41039Y11808D02*
X41074D01*
X41086Y11820D01*
X41074Y11832D01*
X41051D01*
X41039Y11843D01*
X41051Y11855D01*
X41086D01*
X41144Y11808D02*
X41121D01*
X41109Y11820D01*
Y11843D01*
X41121Y11855D01*
X41144D01*
X41156Y11843D01*
Y11832D01*
X41109D01*
X39604Y12878D02*
Y12948D01*
X39639D01*
X39650Y12936D01*
Y12913D01*
X39639Y12901D01*
X39604D01*
X39627D02*
X39650Y12878D01*
X39674D02*
X39697D01*
X39685D01*
Y12948D01*
X39674Y12936D01*
X39378Y12878D02*
Y12948D01*
X39413D01*
X39424Y12936D01*
Y12913D01*
X39413Y12901D01*
X39378D01*
X39401D02*
X39424Y12878D01*
X39494D02*
X39448D01*
X39494Y12924D01*
Y12936D01*
X39483Y12948D01*
X39459D01*
X39448Y12936D01*
X39180Y12878D02*
Y12948D01*
X39214D01*
X39226Y12936D01*
Y12913D01*
X39214Y12901D01*
X39180D01*
X39203D02*
X39226Y12878D01*
X39249Y12936D02*
X39261Y12948D01*
X39284D01*
X39296Y12936D01*
Y12924D01*
X39284Y12913D01*
X39273D01*
X39284D01*
X39296Y12901D01*
Y12889D01*
X39284Y12878D01*
X39261D01*
X39249Y12889D01*
X38938Y12878D02*
Y12948D01*
X38973D01*
X38985Y12936D01*
Y12913D01*
X38973Y12901D01*
X38938D01*
X38962D02*
X38985Y12878D01*
X39043D02*
Y12948D01*
X39008Y12913D01*
X39055D01*
X38710Y12878D02*
Y12948D01*
X38745D01*
X38756Y12936D01*
Y12913D01*
X38745Y12901D01*
X38710D01*
X38733D02*
X38756Y12878D01*
X38826Y12948D02*
X38780D01*
Y12913D01*
X38803Y12924D01*
X38815D01*
X38826Y12913D01*
Y12889D01*
X38815Y12878D01*
X38791D01*
X38780Y12889D01*
X25291Y9755D02*
Y9825D01*
X25326D01*
X25338Y9814D01*
Y9790D01*
X25326Y9779D01*
X25291D01*
X25315D02*
X25338Y9755D01*
X25361D02*
X25385D01*
X25373D01*
Y9825D01*
X25361Y9814D01*
X25420Y9825D02*
X25466D01*
Y9814D01*
X25420Y9767D01*
Y9755D01*
X29479Y9320D02*
Y9390D01*
X29514D01*
X29526Y9379D01*
Y9355D01*
X29514Y9344D01*
X29479D01*
X29503D02*
X29526Y9320D01*
X29549Y9379D02*
X29561Y9390D01*
X29584D01*
X29596Y9379D01*
Y9367D01*
X29584Y9355D01*
X29596Y9344D01*
Y9332D01*
X29584Y9320D01*
X29561D01*
X29549Y9332D01*
Y9344D01*
X29561Y9355D01*
X29549Y9367D01*
Y9379D01*
X29561Y9355D02*
X29584D01*
X29619Y9379D02*
X29631Y9390D01*
X29654D01*
X29666Y9379D01*
Y9332D01*
X29654Y9320D01*
X29631D01*
X29619Y9332D01*
Y9379D01*
X31184Y9319D02*
Y9389D01*
X31219D01*
X31230Y9378D01*
Y9354D01*
X31219Y9343D01*
X31184D01*
X31207D02*
X31230Y9319D01*
X31254Y9378D02*
X31265Y9389D01*
X31289D01*
X31300Y9378D01*
Y9366D01*
X31289Y9354D01*
X31300Y9343D01*
Y9331D01*
X31289Y9319D01*
X31265D01*
X31254Y9331D01*
Y9343D01*
X31265Y9354D01*
X31254Y9366D01*
Y9378D01*
X31265Y9354D02*
X31289D01*
X31324Y9319D02*
X31347D01*
X31335D01*
Y9389D01*
X31324Y9378D01*
X31184Y8799D02*
Y8869D01*
X31219D01*
X31230Y8858D01*
Y8834D01*
X31219Y8823D01*
X31184D01*
X31207D02*
X31230Y8799D01*
X31254Y8858D02*
X31265Y8869D01*
X31289D01*
X31300Y8858D01*
Y8846D01*
X31289Y8834D01*
X31300Y8823D01*
Y8811D01*
X31289Y8799D01*
X31265D01*
X31254Y8811D01*
Y8823D01*
X31265Y8834D01*
X31254Y8846D01*
Y8858D01*
X31265Y8834D02*
X31289D01*
X31370Y8799D02*
X31324D01*
X31370Y8846D01*
Y8858D01*
X31359Y8869D01*
X31335D01*
X31324Y8858D01*
X29479Y8799D02*
Y8869D01*
X29514D01*
X29526Y8858D01*
Y8834D01*
X29514Y8823D01*
X29479D01*
X29503D02*
X29526Y8799D01*
X29549Y8858D02*
X29561Y8869D01*
X29584D01*
X29596Y8858D01*
Y8846D01*
X29584Y8834D01*
X29596Y8823D01*
Y8811D01*
X29584Y8799D01*
X29561D01*
X29549Y8811D01*
Y8823D01*
X29561Y8834D01*
X29549Y8846D01*
Y8858D01*
X29561Y8834D02*
X29584D01*
X29619Y8858D02*
X29631Y8869D01*
X29654D01*
X29666Y8858D01*
Y8846D01*
X29654Y8834D01*
X29643D01*
X29654D01*
X29666Y8823D01*
Y8811D01*
X29654Y8799D01*
X29631D01*
X29619Y8811D01*
X30523Y11900D02*
X30593D01*
Y11935D01*
X30581Y11947D01*
X30534D01*
X30523Y11935D01*
Y11900D01*
X30534Y12017D02*
X30523Y12005D01*
Y11982D01*
X30534Y11970D01*
X30581D01*
X30593Y11982D01*
Y12005D01*
X30581Y12017D01*
X30593Y12040D02*
X30546Y12087D01*
X30523Y12110D02*
X30593D01*
Y12145D01*
X30581Y12156D01*
X30534D01*
X30523Y12145D01*
Y12110D01*
X30534Y12226D02*
X30523Y12215D01*
Y12191D01*
X30534Y12180D01*
X30581D01*
X30593Y12191D01*
Y12215D01*
X30581Y12226D01*
X30604Y12250D02*
Y12296D01*
X30593Y12320D02*
Y12343D01*
Y12331D01*
X30523D01*
X30534Y12320D01*
X43117Y16002D02*
Y16072D01*
X43151D01*
X43163Y16060D01*
Y16037D01*
X43151Y16025D01*
X43117D01*
X43140D02*
X43163Y16002D01*
X43186Y16014D02*
X43198Y16002D01*
X43221D01*
X43233Y16014D01*
Y16060D01*
X43221Y16072D01*
X43198D01*
X43186Y16060D01*
Y16049D01*
X43198Y16037D01*
X43233D01*
X43303Y16072D02*
X43256D01*
Y16037D01*
X43280Y16049D01*
X43291D01*
X43303Y16037D01*
Y16014D01*
X43291Y16002D01*
X43268D01*
X43256Y16014D01*
X42113Y16446D02*
Y16516D01*
X42148D01*
X42160Y16505D01*
Y16481D01*
X42148Y16470D01*
X42113D01*
X42137D02*
X42160Y16446D01*
X42183Y16458D02*
X42195Y16446D01*
X42218D01*
X42230Y16458D01*
Y16505D01*
X42218Y16516D01*
X42195D01*
X42183Y16505D01*
Y16493D01*
X42195Y16481D01*
X42230D01*
X42300Y16516D02*
X42276Y16505D01*
X42253Y16481D01*
Y16458D01*
X42265Y16446D01*
X42288D01*
X42300Y16458D01*
Y16470D01*
X42288Y16481D01*
X42253D01*
X43332Y16002D02*
Y16072D01*
X43367D01*
X43379Y16060D01*
Y16037D01*
X43367Y16025D01*
X43332D01*
X43356D02*
X43379Y16002D01*
X43402Y16014D02*
X43414Y16002D01*
X43437D01*
X43449Y16014D01*
Y16060D01*
X43437Y16072D01*
X43414D01*
X43402Y16060D01*
Y16049D01*
X43414Y16037D01*
X43449D01*
X43472Y16072D02*
X43519D01*
Y16060D01*
X43472Y16014D01*
Y16002D01*
X42355Y16446D02*
Y16516D01*
X42389D01*
X42401Y16505D01*
Y16481D01*
X42389Y16470D01*
X42355D01*
X42378D02*
X42401Y16446D01*
X42424Y16458D02*
X42436Y16446D01*
X42459D01*
X42471Y16458D01*
Y16505D01*
X42459Y16516D01*
X42436D01*
X42424Y16505D01*
Y16493D01*
X42436Y16481D01*
X42471D01*
X42494Y16505D02*
X42506Y16516D01*
X42529D01*
X42541Y16505D01*
Y16493D01*
X42529Y16481D01*
X42541Y16470D01*
Y16458D01*
X42529Y16446D01*
X42506D01*
X42494Y16458D01*
Y16470D01*
X42506Y16481D01*
X42494Y16493D01*
Y16505D01*
X42506Y16481D02*
X42529D01*
X49606Y16904D02*
X49560D01*
X49536Y16927D01*
X49560Y16950D01*
X49606D01*
X49571D01*
Y16904D01*
X49606Y16974D02*
Y16997D01*
Y16985D01*
X49536D01*
X49548Y16974D01*
X49606Y17079D02*
Y17032D01*
X49560Y17079D01*
X49548D01*
X49536Y17067D01*
Y17044D01*
X49548Y17032D01*
X49606Y17247D02*
X49560D01*
X49536Y17270D01*
X49560Y17293D01*
X49606D01*
X49571D01*
Y17247D01*
X49606Y17317D02*
Y17340D01*
Y17328D01*
X49536D01*
X49548Y17317D01*
Y17375D02*
X49536Y17387D01*
Y17410D01*
X49548Y17422D01*
X49560D01*
X49571Y17410D01*
Y17398D01*
Y17410D01*
X49583Y17422D01*
X49595D01*
X49606Y17410D01*
Y17387D01*
X49595Y17375D01*
X49606Y17590D02*
X49560D01*
X49536Y17613D01*
X49560Y17636D01*
X49606D01*
X49571D01*
Y17590D01*
X49606Y17659D02*
Y17683D01*
Y17671D01*
X49536D01*
X49548Y17659D01*
X49606Y17753D02*
X49536D01*
X49571Y17718D01*
Y17764D01*
X42621Y16002D02*
Y16072D01*
X42656D01*
X42668Y16060D01*
Y16037D01*
X42656Y16025D01*
X42621D01*
X42645D02*
X42668Y16002D01*
X42691Y16014D02*
X42703Y16002D01*
X42726D01*
X42738Y16014D01*
Y16060D01*
X42726Y16072D01*
X42703D01*
X42691Y16060D01*
Y16049D01*
X42703Y16037D01*
X42738D01*
X42761Y16014D02*
X42773Y16002D01*
X42796D01*
X42808Y16014D01*
Y16060D01*
X42796Y16072D01*
X42773D01*
X42761Y16060D01*
Y16049D01*
X42773Y16037D01*
X42808D01*
X42837Y16002D02*
Y16072D01*
X42872D01*
X42884Y16060D01*
Y16037D01*
X42872Y16025D01*
X42837D01*
X42860D02*
X42884Y16002D01*
X42907D02*
X42930D01*
X42919D01*
Y16072D01*
X42907Y16060D01*
X42965D02*
X42977Y16072D01*
X43000D01*
X43012Y16060D01*
Y16014D01*
X43000Y16002D01*
X42977D01*
X42965Y16014D01*
Y16060D01*
X43035D02*
X43047Y16072D01*
X43070D01*
X43082Y16060D01*
Y16014D01*
X43070Y16002D01*
X43047D01*
X43035Y16014D01*
Y16060D01*
X32620Y11836D02*
X32690D01*
Y11871D01*
X32678Y11883D01*
X32631D01*
X32620Y11871D01*
Y11836D01*
X32631Y11953D02*
X32620Y11941D01*
Y11918D01*
X32631Y11906D01*
X32678D01*
X32690Y11918D01*
Y11941D01*
X32678Y11953D01*
X32701Y11976D02*
Y12023D01*
X32620Y12046D02*
X32690D01*
Y12081D01*
X32678Y12093D01*
X32631D01*
X32620Y12081D01*
Y12046D01*
X32631Y12163D02*
X32620Y12151D01*
Y12128D01*
X32631Y12116D01*
X32678D01*
X32690Y12128D01*
Y12151D01*
X32678Y12163D01*
X32701Y12186D02*
Y12233D01*
X32690Y12303D02*
Y12256D01*
X32643Y12303D01*
X32631D01*
X32620Y12291D01*
Y12268D01*
X32631Y12256D01*
X29653Y12505D02*
X29641Y12517D01*
X29618D01*
X29606Y12505D01*
Y12459D01*
X29618Y12447D01*
X29641D01*
X29653Y12459D01*
X29723Y12517D02*
X29676D01*
Y12482D01*
X29700Y12494D01*
X29711D01*
X29723Y12482D01*
Y12459D01*
X29711Y12447D01*
X29688D01*
X29676Y12459D01*
X29746Y12447D02*
X29770D01*
X29758D01*
Y12517D01*
X29746Y12505D01*
X28462Y12822D02*
X28450Y12834D01*
X28427D01*
X28415Y12822D01*
Y12776D01*
X28427Y12764D01*
X28450D01*
X28462Y12776D01*
X28532Y12834D02*
X28485D01*
Y12799D01*
X28508Y12811D01*
X28520D01*
X28532Y12799D01*
Y12776D01*
X28520Y12764D01*
X28497D01*
X28485Y12776D01*
X28602Y12764D02*
X28555D01*
X28602Y12811D01*
Y12822D01*
X28590Y12834D01*
X28567D01*
X28555Y12822D01*
X28613Y13075D02*
Y13005D01*
X28648D01*
X28660Y13016D01*
Y13063D01*
X28648Y13075D01*
X28613D01*
X28730Y13063D02*
X28718Y13075D01*
X28695D01*
X28683Y13063D01*
Y13016D01*
X28695Y13005D01*
X28718D01*
X28730Y13016D01*
X28753Y13005D02*
X28800Y13051D01*
X28823Y13075D02*
Y13005D01*
X28858D01*
X28870Y13016D01*
Y13063D01*
X28858Y13075D01*
X28823D01*
X28940Y13063D02*
X28928Y13075D01*
X28905D01*
X28893Y13063D01*
Y13016D01*
X28905Y13005D01*
X28928D01*
X28940Y13016D01*
X28963Y12993D02*
X29010D01*
X29068Y13005D02*
Y13075D01*
X29033Y13040D01*
X29080D01*
X27981Y13070D02*
Y13000D01*
X28027D01*
X28097Y13070D02*
X28051D01*
Y13000D01*
X28097D01*
X28051Y13035D02*
X28074D01*
X28121Y13070D02*
Y13000D01*
X28156D01*
X28167Y13012D01*
Y13058D01*
X28156Y13070D01*
X28121D01*
X28226Y13000D02*
Y13070D01*
X28191Y13035D01*
X28237D01*
X29609Y12954D02*
Y13024D01*
X29644D01*
X29655Y13012D01*
Y12989D01*
X29644Y12977D01*
X29609D01*
X29632D02*
X29655Y12954D01*
X29679Y13024D02*
X29725D01*
Y13012D01*
X29679Y12966D01*
Y12954D01*
X29784D02*
Y13024D01*
X29749Y12989D01*
X29795D01*
M02*
