M48
;Layer_Color=9474304
;FILE_FORMAT=4:2
METRIC,LZ
;TYPE=PLATED
T5F00S00C0.70
T8F00S00C0.90
T10F00S00C1.00
%
G90
G05
T05
G00X032727Y01508
M15
G01Y01485
M16
G00X032727Y01596
M15
G01Y01573
M16
G00X034177Y01596
M15
G01Y01573
M16
G00X034177Y01508
M15
G01Y01485
M16
T08
G00X025892Y008649
M15
G01X026102
M16
G00X025892Y009169
M15
G01X026102
M16
G00X030572Y009169
M15
G01X030362
M16
G00X030572Y008649
M15
G01X030362
M16
T10
G00X056789Y008515
M15
G01X056669
M16
G00X056339Y008515
M15
G01X056219
M16
G00X056339Y009385
M15
G01X056219
M16
G00X056789Y008965
M15
G01X056669
M16
G00X06032Y00854
M15
G01X0602
M16
G00X06077Y00854
M15
G01X06065
M16
G00X06077Y00899
M15
G01X06065
M16
G00X06032Y00941
M15
G01X0602
M16
G00X064339Y009385
M15
G01X064219
M16
G00X064789Y008965
M15
G01X064669
M16
G00X064789Y008515
M15
G01X064669
M16
G00X064339Y008515
M15
G01X064219
M16
M30
