G04*
G04 #@! TF.GenerationSoftware,Altium Limited,Altium Designer,18.0.11 (651)*
G04*
G04 Layer_Physical_Order=2*
G04 Layer_Color=16711680*
%FSLAX42Y42*%
%MOMM*%
G71*
G01*
G75*
%ADD11C,0.60*%
%ADD14C,0.40*%
%ADD18R,1.50X1.30*%
%ADD19R,1.30X1.50*%
%ADD51C,0.50*%
%ADD52C,1.00*%
%ADD53C,2.70*%
%ADD54C,1.60*%
%ADD55C,4.50*%
%ADD56C,4.00*%
%ADD57C,2.00*%
%ADD58C,1.80*%
%ADD59C,5.00*%
%ADD60C,2.20*%
%ADD61R,1.30X1.30*%
%ADD62R,1.60X1.60*%
%ADD63C,7.00*%
%ADD64C,0.70*%
%ADD65C,1.00*%
%ADD66C,1.27*%
%ADD67C,1.50*%
%ADD68C,0.70*%
G36*
X67031Y10732D02*
X67031Y9462D01*
X64910Y7341D01*
X54267Y7341D01*
X52146Y9461D01*
X39027D01*
X36906Y7341D01*
X26117Y7373D01*
X24143Y9347D01*
X24143Y10706D01*
X32652Y19215D01*
X34645D01*
X34654Y19190D01*
X34647Y19184D01*
X31161Y15699D01*
X31149Y15683D01*
X31142Y15664D01*
X31139Y15645D01*
Y12724D01*
X31126Y12713D01*
X31105Y12687D01*
X31093Y12657D01*
X31089Y12624D01*
X31093Y12591D01*
X31105Y12561D01*
X31126Y12534D01*
X31152Y12514D01*
X31182Y12502D01*
X31215Y12497D01*
X31248Y12502D01*
X31278Y12514D01*
X31304Y12534D01*
X31325Y12561D01*
X31337Y12591D01*
X31341Y12624D01*
X31337Y12657D01*
X31325Y12687D01*
X31304Y12713D01*
X31291Y12724D01*
Y15613D01*
X34732Y19055D01*
X50280D01*
X50289Y19031D01*
X44680Y13421D01*
X40706D01*
X40702Y13426D01*
X40698Y13455D01*
X41243Y14000D01*
X44653D01*
X44666Y13983D01*
X44685Y13969D01*
X44706Y13960D01*
X44729Y13957D01*
X44753Y13960D01*
X44774Y13969D01*
X44793Y13983D01*
X44807Y14001D01*
X44816Y14023D01*
X44819Y14046D01*
X44816Y14069D01*
X44807Y14091D01*
X44793Y14110D01*
X44774Y14124D01*
X44753Y14133D01*
X44729Y14136D01*
X44706Y14133D01*
X44685Y14124D01*
X44666Y14110D01*
X44653Y14092D01*
X41224D01*
X41224Y14092D01*
X41206Y14089D01*
X41191Y14079D01*
X41191Y14079D01*
X40646Y13534D01*
X40552D01*
X40552Y13534D01*
X40543Y13559D01*
X41396Y14412D01*
X41419Y14408D01*
X41443Y14413D01*
X41451Y14418D01*
X42327D01*
X42335Y14413D01*
X42359Y14408D01*
X42382Y14413D01*
X42391Y14418D01*
X43233D01*
X43241Y14413D01*
X43265Y14408D01*
X43288Y14413D01*
X43308Y14426D01*
X43321Y14446D01*
X43326Y14470D01*
X43321Y14493D01*
X43308Y14513D01*
X43288Y14526D01*
X43265Y14531D01*
X43241Y14526D01*
X43233Y14521D01*
X42391D01*
X42382Y14526D01*
X42359Y14531D01*
X42335Y14526D01*
X42327Y14521D01*
X41451D01*
X41443Y14526D01*
X41419Y14531D01*
X41395Y14526D01*
X41387Y14521D01*
X41381D01*
X41361Y14517D01*
X41345Y14506D01*
X40479Y13640D01*
X39757D01*
X39749Y13646D01*
X39726Y13651D01*
X39702Y13646D01*
X39682Y13633D01*
X39669Y13613D01*
X39664Y13589D01*
X39669Y13565D01*
X39673Y13559D01*
X39659Y13534D01*
X39262D01*
X39107Y13689D01*
X39108Y13703D01*
X39105Y13727D01*
X39096Y13748D01*
X39082Y13767D01*
X39064Y13781D01*
X39042Y13790D01*
X39019Y13793D01*
X38995Y13790D01*
X38974Y13781D01*
X38955Y13767D01*
X38941Y13748D01*
X38932Y13727D01*
X38929Y13703D01*
X38932Y13680D01*
X38941Y13658D01*
X38955Y13640D01*
X38974Y13626D01*
X38995Y13617D01*
X39019Y13614D01*
X39042Y13617D01*
X39046Y13619D01*
X39210Y13455D01*
X39210Y13455D01*
X39207Y13426D01*
X39203Y13421D01*
X37857D01*
X37857Y13421D01*
X37839Y13418D01*
X37824Y13408D01*
X37824Y13408D01*
X35004Y10587D01*
X34404D01*
X34404Y10587D01*
X34387Y10584D01*
X34372Y10574D01*
X33874Y10076D01*
X33864Y10061D01*
X33860Y10043D01*
X33860Y10043D01*
Y10000D01*
X33816D01*
Y9800D01*
X33860D01*
Y9665D01*
X33806D01*
Y9500D01*
X33806Y9484D01*
X33806Y9458D01*
Y9294D01*
X33860D01*
Y9121D01*
X33860Y9121D01*
X33864Y9103D01*
X33874Y9088D01*
X34147Y8815D01*
X34145Y8808D01*
X34118Y8801D01*
X34094Y8821D01*
X34066Y8836D01*
X34036Y8845D01*
X34004Y8848D01*
X33973Y8845D01*
X33943Y8836D01*
X33929Y8828D01*
X33097Y9660D01*
Y12327D01*
X33273Y12504D01*
X33279Y12502D01*
X33312Y12497D01*
X33345Y12502D01*
X33375Y12514D01*
X33402Y12534D01*
X33422Y12561D01*
X33434Y12591D01*
X33439Y12624D01*
X33434Y12657D01*
X33422Y12687D01*
X33402Y12713D01*
X33375Y12733D01*
X33363Y12738D01*
Y15778D01*
X35022Y17437D01*
X43242D01*
Y17398D01*
X43423D01*
Y17403D01*
X43448Y17414D01*
X43467Y17395D01*
Y17186D01*
X43461Y17178D01*
X43457Y17155D01*
X43461Y17131D01*
X43475Y17111D01*
X43495Y17098D01*
X43518Y17093D01*
X43542Y17098D01*
X43550Y17103D01*
X43810D01*
X44108Y16804D01*
X44125Y16793D01*
X44145Y16789D01*
X44735D01*
Y16750D01*
X44936D01*
Y16789D01*
X46238D01*
Y16750D01*
X46438D01*
Y16789D01*
X47740D01*
Y16750D01*
X47941D01*
Y16915D01*
X47941Y16931D01*
X47941Y16957D01*
Y17121D01*
X47887D01*
Y17398D01*
X47931D01*
Y17578D01*
X47751D01*
Y17398D01*
X47795D01*
Y17121D01*
X47740D01*
Y16957D01*
X47740Y16940D01*
X47740Y16917D01*
X47734Y16892D01*
X46456D01*
X46438Y16910D01*
X46438Y16931D01*
X46438Y16957D01*
Y17121D01*
X46384D01*
Y17398D01*
X46428D01*
Y17578D01*
X46248D01*
Y17398D01*
X46292D01*
Y17121D01*
X46238D01*
Y16957D01*
X46238Y16940D01*
X46238Y16917D01*
X46231Y16892D01*
X44954D01*
X44936Y16910D01*
X44936Y16931D01*
X44936Y16957D01*
Y17121D01*
X44882D01*
Y17398D01*
X44926D01*
Y17578D01*
X44745D01*
Y17398D01*
X44789D01*
Y17121D01*
X44735D01*
Y16957D01*
X44735Y16940D01*
X44735Y16917D01*
X44729Y16892D01*
X44166D01*
X43867Y17191D01*
X43850Y17202D01*
X43831Y17206D01*
X43569D01*
Y17391D01*
X43570Y17392D01*
X43574Y17412D01*
X43570Y17431D01*
X43559Y17448D01*
X43483Y17524D01*
X43466Y17535D01*
X43447Y17539D01*
X43423D01*
Y17578D01*
X43242D01*
Y17539D01*
X35001D01*
X34982Y17535D01*
X34965Y17524D01*
X33276Y15835D01*
X33265Y15818D01*
X33261Y15799D01*
Y12738D01*
X33249Y12733D01*
X33223Y12713D01*
X33203Y12687D01*
X33190Y12657D01*
X33186Y12624D01*
X33190Y12591D01*
X33197Y12573D01*
X33009Y12385D01*
X32998Y12368D01*
X32994Y12349D01*
Y9639D01*
X32998Y9620D01*
X33009Y9603D01*
X33858Y8754D01*
X33855Y8748D01*
X33846Y8718D01*
X33843Y8687D01*
X33846Y8655D01*
X33855Y8625D01*
X33870Y8597D01*
X33890Y8573D01*
X33915Y8553D01*
X33943Y8538D01*
X33947Y8537D01*
Y8166D01*
X33950Y8146D01*
X33962Y8130D01*
X34019Y8072D01*
X34008Y8048D01*
X34004Y8048D01*
X33973Y8045D01*
X33943Y8036D01*
X33915Y8021D01*
X33890Y8001D01*
X33870Y7976D01*
X33855Y7948D01*
X33846Y7918D01*
X33843Y7887D01*
X33846Y7855D01*
X33855Y7825D01*
X33870Y7797D01*
X33890Y7773D01*
X33915Y7753D01*
X33943Y7738D01*
X33973Y7729D01*
X34004Y7726D01*
X34036Y7729D01*
X34066Y7738D01*
X34094Y7753D01*
X34118Y7773D01*
X34136Y7794D01*
X34147Y7793D01*
X34161Y7786D01*
Y7723D01*
X34165Y7703D01*
X34176Y7687D01*
X34257Y7606D01*
X34247Y7582D01*
X30743D01*
X28906Y9419D01*
X28906Y12285D01*
X29024Y12403D01*
X29048Y12392D01*
X29047Y12382D01*
X29172D01*
X29297D01*
X29294Y12403D01*
X29281Y12433D01*
X29261Y12459D01*
X29235Y12479D01*
X29226Y12483D01*
Y12511D01*
X29235Y12514D01*
X29261Y12534D01*
X29281Y12561D01*
X29294Y12591D01*
X29298Y12624D01*
X29294Y12657D01*
X29281Y12687D01*
X29261Y12713D01*
X29235Y12733D01*
X29205Y12746D01*
X29172Y12750D01*
X29139Y12746D01*
X29109Y12733D01*
X29082Y12713D01*
X29062Y12687D01*
X29050Y12657D01*
X29045Y12624D01*
X29050Y12591D01*
X29055Y12579D01*
X28818Y12343D01*
X28807Y12326D01*
X28803Y12306D01*
X28803Y9398D01*
X28807Y9378D01*
X28818Y9362D01*
X30685Y7495D01*
X30702Y7484D01*
X30721Y7480D01*
X36208D01*
X36227Y7484D01*
X36244Y7495D01*
X38439Y9690D01*
X44983D01*
X45003Y9693D01*
X45020Y9705D01*
X45121Y9806D01*
X45132Y9822D01*
X45136Y9842D01*
Y10233D01*
X45132Y10252D01*
X45121Y10269D01*
X44818Y10572D01*
X44819Y10579D01*
X44816Y10602D01*
X44807Y10624D01*
X44793Y10643D01*
X44775Y10656D01*
X44775Y10658D01*
X44785Y10681D01*
X44981D01*
X44989Y10666D01*
X44991Y10656D01*
X44981Y10643D01*
X44973Y10624D01*
X44971Y10604D01*
X44973Y10585D01*
X44981Y10566D01*
X44993Y10551D01*
X45009Y10539D01*
X45027Y10531D01*
X45047Y10528D01*
X45050Y10529D01*
X45976Y9603D01*
X45992Y9592D01*
X46012Y9588D01*
X52865D01*
X53137Y9316D01*
X53132Y9304D01*
X53128Y9271D01*
X53132Y9238D01*
X53145Y9208D01*
X53165Y9182D01*
X53191Y9161D01*
X53222Y9149D01*
X53254Y9145D01*
X53287Y9149D01*
X53318Y9161D01*
X53344Y9182D01*
X53364Y9208D01*
X53366Y9212D01*
X53393D01*
X53395Y9208D01*
X53415Y9182D01*
X53441Y9161D01*
X53472Y9149D01*
X53504Y9145D01*
X53537Y9149D01*
X53568Y9161D01*
X53594Y9182D01*
X53614Y9208D01*
X53616Y9212D01*
X53643D01*
X53645Y9208D01*
X53665Y9182D01*
X53691Y9161D01*
X53722Y9149D01*
X53754Y9145D01*
X53787Y9149D01*
X53818Y9161D01*
X53844Y9182D01*
X53864Y9208D01*
X53866Y9212D01*
X53893D01*
X53895Y9208D01*
X53915Y9182D01*
X53941Y9161D01*
X53972Y9149D01*
X54004Y9145D01*
X54011Y9145D01*
X54035Y9123D01*
X54036Y9112D01*
X54046Y9089D01*
X54061Y9069D01*
X54081Y9054D01*
X54104Y9044D01*
X54129Y9041D01*
X54154Y9044D01*
X54178Y9054D01*
X54197Y9069D01*
X54213Y9089D01*
X54222Y9112D01*
X54224Y9123D01*
X54248Y9145D01*
X54254Y9145D01*
X54287Y9149D01*
X54318Y9161D01*
X54344Y9182D01*
X54364Y9208D01*
X54366Y9212D01*
X54393D01*
X54395Y9208D01*
X54415Y9182D01*
X54441Y9161D01*
X54472Y9149D01*
X54504Y9145D01*
X54537Y9149D01*
X54568Y9161D01*
X54594Y9182D01*
X54614Y9208D01*
X54616Y9212D01*
X54643D01*
X54645Y9208D01*
X54665Y9182D01*
X54691Y9161D01*
X54722Y9149D01*
X54742Y9146D01*
Y9271D01*
Y9396D01*
X54722Y9393D01*
X54691Y9381D01*
X54665Y9360D01*
X54645Y9334D01*
X54643Y9330D01*
X54616D01*
X54614Y9334D01*
X54594Y9360D01*
X54568Y9381D01*
X54551Y9388D01*
Y9642D01*
X55634Y10725D01*
X55634Y10725D01*
X55644Y10740D01*
X55647Y10757D01*
X55647Y10757D01*
Y11963D01*
X55647Y15205D01*
X55647Y15205D01*
X55647Y15207D01*
Y15443D01*
X55647Y15443D01*
X55643Y15461D01*
X55633Y15476D01*
X54490Y16619D01*
X54475Y16629D01*
X54458Y16632D01*
X54458Y16632D01*
X54434D01*
X54421Y16658D01*
X54423Y16660D01*
X54433Y16686D01*
X54437Y16713D01*
X54433Y16741D01*
X54423Y16766D01*
X54406Y16788D01*
X54384Y16805D01*
X54358Y16816D01*
X54331Y16820D01*
X54303Y16816D01*
X54277Y16805D01*
X54255Y16788D01*
X54239Y16766D01*
X54228Y16741D01*
X54224Y16713D01*
X54228Y16686D01*
X54239Y16660D01*
X54240Y16658D01*
X54228Y16632D01*
X53969D01*
X52956Y17645D01*
X52964Y17673D01*
X52972Y17676D01*
X52987Y17688D01*
X52999Y17704D01*
X53007Y17722D01*
X53010Y17742D01*
X53007Y17762D01*
X52999Y17780D01*
X52987Y17796D01*
X52980Y17801D01*
Y17880D01*
X53005Y17893D01*
X53007Y17891D01*
X53033Y17881D01*
X53061Y17877D01*
X53088Y17881D01*
X53114Y17891D01*
X53136Y17908D01*
X53153Y17930D01*
X53163Y17956D01*
X53167Y17983D01*
X53163Y18011D01*
X53153Y18036D01*
X53136Y18058D01*
X53114Y18075D01*
X53088Y18086D01*
X53061Y18090D01*
X53033Y18086D01*
X53007Y18075D01*
X53005Y18074D01*
X52980Y18086D01*
Y18317D01*
X52987Y18323D01*
X52999Y18339D01*
X53007Y18357D01*
X53010Y18377D01*
X53007Y18397D01*
X52999Y18415D01*
X52987Y18431D01*
X52234Y19184D01*
X52227Y19190D01*
X52235Y19215D01*
X58547D01*
X67031Y10732D01*
D02*
G37*
G36*
X51490Y18641D02*
Y18078D01*
X51483Y18075D01*
X51461Y18058D01*
X51445Y18036D01*
X51434Y18011D01*
X51430Y17983D01*
X51434Y17956D01*
X51445Y17930D01*
X51461Y17908D01*
X51483Y17891D01*
X51509Y17881D01*
X51537Y17877D01*
X51564Y17881D01*
X51590Y17891D01*
X51612Y17908D01*
X51629Y17930D01*
X51639Y17956D01*
X51643Y17983D01*
X51639Y18011D01*
X51629Y18036D01*
X51612Y18058D01*
X51590Y18075D01*
X51583Y18078D01*
Y18607D01*
X51606Y18617D01*
X52116Y18108D01*
X52114Y18095D01*
X52111Y18091D01*
X52087Y18080D01*
X52072Y18086D01*
X52045Y18090D01*
X52017Y18086D01*
X51991Y18075D01*
X51969Y18058D01*
X51953Y18036D01*
X51942Y18011D01*
X51938Y17983D01*
X51942Y17956D01*
X51953Y17930D01*
X51969Y17908D01*
X51991Y17891D01*
X52017Y17881D01*
X52045Y17877D01*
X52072Y17881D01*
X52098Y17891D01*
X52102Y17894D01*
X52127Y17881D01*
Y17715D01*
X52127Y17715D01*
X52130Y17697D01*
X52140Y17682D01*
X53650Y16172D01*
X53650Y16172D01*
X53665Y16162D01*
X53683Y16159D01*
X53683Y16159D01*
X54236D01*
X54239Y16152D01*
X54255Y16130D01*
X54277Y16113D01*
X54303Y16103D01*
X54331Y16099D01*
X54358Y16103D01*
X54384Y16113D01*
X54406Y16130D01*
X54423Y16152D01*
X54433Y16178D01*
X54433Y16178D01*
X54460Y16187D01*
X55489Y15158D01*
Y10813D01*
X54222Y9545D01*
X54212Y9530D01*
X54208Y9512D01*
X54208Y9512D01*
Y9388D01*
X54191Y9381D01*
X54165Y9360D01*
X54145Y9334D01*
X54143Y9330D01*
X54116D01*
X54114Y9334D01*
X54094Y9360D01*
X54068Y9381D01*
X54037Y9393D01*
X54004Y9397D01*
X53972Y9393D01*
X53941Y9381D01*
X53915Y9360D01*
X53895Y9334D01*
X53893Y9330D01*
X53866D01*
X53864Y9334D01*
X53844Y9360D01*
X53818Y9381D01*
X53787Y9393D01*
X53754Y9397D01*
X53722Y9393D01*
X53691Y9381D01*
X53665Y9360D01*
X53645Y9334D01*
X53643Y9330D01*
X53616D01*
X53614Y9334D01*
X53594Y9360D01*
X53568Y9381D01*
X53537Y9393D01*
X53504Y9397D01*
X53472Y9393D01*
X53460Y9388D01*
X53084Y9765D01*
X53067Y9776D01*
X53047Y9780D01*
X46135D01*
X45757Y10158D01*
X45759Y10173D01*
X45756Y10196D01*
X45747Y10218D01*
X45733Y10236D01*
X45714Y10250D01*
X45692Y10259D01*
X45669Y10262D01*
X45646Y10259D01*
X45624Y10250D01*
X45606Y10236D01*
X45592Y10218D01*
X45583Y10196D01*
X45580Y10180D01*
X45563Y10171D01*
X45554Y10170D01*
X45123Y10602D01*
X45123Y10604D01*
X45120Y10624D01*
X45113Y10643D01*
X45103Y10656D01*
X45105Y10666D01*
X45113Y10681D01*
X52087D01*
X52094Y10656D01*
X52052Y10630D01*
X52007Y10591D01*
X51969Y10546D01*
X51938Y10496D01*
X51915Y10441D01*
X51901Y10384D01*
X51898Y10338D01*
X52649D01*
X52645Y10384D01*
X52631Y10441D01*
X52609Y10496D01*
X52578Y10546D01*
X52539Y10591D01*
X52495Y10630D01*
X52452Y10656D01*
X52459Y10681D01*
X52653D01*
X52676Y10686D01*
X52696Y10699D01*
X55276Y13279D01*
X55289Y13299D01*
X55294Y13322D01*
Y13940D01*
X55296Y13941D01*
X55322Y13961D01*
X55342Y13987D01*
X55354Y14017D01*
X55359Y14050D01*
X55358Y14057D01*
X55380Y14084D01*
X55382Y14085D01*
X55404Y14094D01*
X55424Y14109D01*
X55438Y14128D01*
X55448Y14151D01*
X55451Y14175D01*
X55448Y14199D01*
X55438Y14222D01*
X55424Y14241D01*
X55404Y14256D01*
X55382Y14266D01*
X55380Y14266D01*
X55358Y14293D01*
X55359Y14300D01*
X55354Y14333D01*
X55342Y14363D01*
X55322Y14390D01*
X55296Y14410D01*
X55291Y14411D01*
Y14439D01*
X55296Y14441D01*
X55322Y14461D01*
X55342Y14487D01*
X55354Y14517D01*
X55357Y14538D01*
X55232D01*
X55107D01*
X55110Y14517D01*
X55123Y14487D01*
X55143Y14461D01*
X55169Y14441D01*
X55173Y14439D01*
Y14411D01*
X55169Y14410D01*
X55143Y14390D01*
X55123Y14363D01*
X55116Y14346D01*
X54434D01*
X54421Y14372D01*
X54423Y14374D01*
X54433Y14400D01*
X54437Y14427D01*
X54433Y14455D01*
X54423Y14480D01*
X54406Y14502D01*
X54384Y14519D01*
X54358Y14530D01*
X54331Y14534D01*
X54303Y14530D01*
X54277Y14519D01*
X54255Y14502D01*
X54239Y14480D01*
X54228Y14455D01*
X54224Y14427D01*
X54228Y14400D01*
X54239Y14374D01*
X54240Y14372D01*
X54228Y14346D01*
X53654D01*
X53648Y14354D01*
X53632Y14366D01*
X53614Y14374D01*
X53594Y14376D01*
X53574Y14374D01*
X53556Y14366D01*
X53540Y14354D01*
X53528Y14338D01*
X53521Y14320D01*
X53518Y14300D01*
X53521Y14281D01*
X53528Y14262D01*
X53540Y14246D01*
X53556Y14234D01*
X53574Y14227D01*
X53594Y14224D01*
X53614Y14227D01*
X53632Y14234D01*
X53648Y14246D01*
X53654Y14254D01*
X54228D01*
X54240Y14229D01*
X54239Y14226D01*
X54228Y14201D01*
X54224Y14173D01*
X54228Y14146D01*
X54239Y14120D01*
X54239Y14119D01*
X54226Y14094D01*
X53561D01*
X53399Y14256D01*
Y16196D01*
X53406Y16202D01*
X53419Y16218D01*
X53426Y16236D01*
X53429Y16256D01*
X53426Y16276D01*
X53419Y16294D01*
X53406Y16310D01*
X53391Y16322D01*
X53372Y16329D01*
X53353Y16332D01*
X53333Y16329D01*
X53315Y16322D01*
X53299Y16310D01*
X53287Y16294D01*
X53279Y16276D01*
X53277Y16256D01*
X53279Y16236D01*
X53287Y16218D01*
X53299Y16202D01*
X53306Y16196D01*
Y14237D01*
X53306Y14237D01*
X53310Y14219D01*
X53320Y14204D01*
X53510Y14013D01*
X53510Y14013D01*
X53525Y14003D01*
X53543Y14000D01*
X53551Y14002D01*
X54229D01*
X54241Y13976D01*
X54239Y13972D01*
X54228Y13947D01*
X54224Y13919D01*
X54228Y13892D01*
X54239Y13866D01*
X54255Y13844D01*
X54277Y13827D01*
X54303Y13817D01*
X54331Y13813D01*
X54358Y13817D01*
X54360Y13817D01*
X54401Y13776D01*
X54385Y13757D01*
X54384Y13757D01*
X54358Y13768D01*
X54331Y13772D01*
X54303Y13768D01*
X54277Y13757D01*
X54255Y13740D01*
X54239Y13718D01*
X54228Y13693D01*
X54224Y13665D01*
X54228Y13638D01*
X54239Y13612D01*
X54255Y13590D01*
X54277Y13573D01*
X54279Y13572D01*
Y13242D01*
X53174Y12137D01*
X53155Y12153D01*
X53171Y12175D01*
X53185Y12207D01*
X53189Y12243D01*
X53185Y12278D01*
X53178Y12295D01*
X54113Y13230D01*
X54124Y13247D01*
X54128Y13267D01*
Y13572D01*
X54130Y13573D01*
X54152Y13590D01*
X54169Y13612D01*
X54179Y13638D01*
X54183Y13665D01*
X54179Y13693D01*
X54169Y13718D01*
X54152Y13740D01*
X54130Y13757D01*
X54104Y13768D01*
X54077Y13772D01*
X54049Y13768D01*
X54023Y13757D01*
X54001Y13740D01*
X53985Y13718D01*
X53974Y13693D01*
X53970Y13665D01*
X53974Y13638D01*
X53985Y13612D01*
X54001Y13590D01*
X54023Y13573D01*
X54025Y13572D01*
Y13288D01*
X53213Y12475D01*
X53188Y12487D01*
X53189Y12493D01*
X53185Y12528D01*
X53178Y12545D01*
X53859Y13226D01*
X53870Y13243D01*
X53874Y13263D01*
Y13572D01*
X53876Y13573D01*
X53898Y13590D01*
X53915Y13612D01*
X53925Y13638D01*
X53929Y13665D01*
X53925Y13693D01*
X53915Y13718D01*
X53898Y13740D01*
X53876Y13757D01*
X53850Y13768D01*
X53823Y13772D01*
X53795Y13768D01*
X53769Y13757D01*
X53747Y13740D01*
X53731Y13718D01*
X53720Y13693D01*
X53716Y13665D01*
X53720Y13638D01*
X53731Y13612D01*
X53747Y13590D01*
X53769Y13573D01*
X53771Y13572D01*
Y13284D01*
X53105Y12618D01*
X53088Y12625D01*
X53053Y12629D01*
X53017Y12625D01*
X52984Y12611D01*
X52956Y12589D01*
X52943Y12572D01*
X52942Y12572D01*
X52914D01*
X52912Y12572D01*
X52899Y12589D01*
X52871Y12611D01*
X52838Y12625D01*
X52815Y12628D01*
Y12493D01*
X52790D01*
Y12628D01*
X52767Y12625D01*
X52734Y12611D01*
X52706Y12589D01*
X52693Y12572D01*
X52692Y12572D01*
X52664D01*
X52662Y12572D01*
X52649Y12589D01*
X52621Y12611D01*
X52588Y12625D01*
X52553Y12629D01*
X52517Y12625D01*
X52484Y12611D01*
X52456Y12589D01*
X52443Y12572D01*
X52442Y12572D01*
X52414D01*
X52412Y12572D01*
X52399Y12589D01*
X52371Y12611D01*
X52338Y12625D01*
X52303Y12629D01*
X52267Y12625D01*
X52234Y12611D01*
X52206Y12589D01*
X52193Y12572D01*
X52192Y12572D01*
X52164D01*
X52162Y12572D01*
X52149Y12589D01*
X52121Y12611D01*
X52088Y12625D01*
X52057Y12629D01*
X52050Y12640D01*
X52046Y12654D01*
X52383Y12992D01*
X52616D01*
X52636Y12995D01*
X52652Y13007D01*
X52736Y13091D01*
X52740Y13096D01*
X52753Y13101D01*
X52775Y13118D01*
X52792Y13140D01*
X52803Y13166D01*
X52806Y13193D01*
X52803Y13221D01*
X52792Y13246D01*
X52775Y13268D01*
X52753Y13285D01*
X52728Y13296D01*
X52700Y13300D01*
X52673Y13296D01*
X52647Y13285D01*
X52625Y13268D01*
X52608Y13246D01*
X52597Y13221D01*
X52594Y13193D01*
X52597Y13166D01*
X52608Y13140D01*
X52622Y13122D01*
X52595Y13094D01*
X52486D01*
X52478Y13112D01*
X52477Y13120D01*
X52492Y13140D01*
X52503Y13166D01*
X52506Y13193D01*
X52503Y13221D01*
X52492Y13246D01*
X52475Y13268D01*
X52453Y13285D01*
X52428Y13296D01*
X52400Y13300D01*
X52373Y13296D01*
X52347Y13285D01*
X52325Y13268D01*
X52308Y13246D01*
X52297Y13221D01*
X52297Y13215D01*
X52118Y13037D01*
X52095Y13049D01*
X52096Y13056D01*
Y13572D01*
X52098Y13573D01*
X52120Y13590D01*
X52137Y13612D01*
X52147Y13638D01*
X52151Y13665D01*
X52147Y13693D01*
X52137Y13718D01*
X52120Y13740D01*
X52098Y13757D01*
X52072Y13768D01*
X52045Y13772D01*
X52017Y13768D01*
X51991Y13757D01*
X51969Y13740D01*
X51953Y13718D01*
X51942Y13693D01*
X51938Y13665D01*
X51942Y13638D01*
X51953Y13612D01*
X51969Y13590D01*
X51991Y13573D01*
X51993Y13572D01*
Y13077D01*
X50830Y11913D01*
X48152D01*
X47705D01*
X47696Y11939D01*
X47704Y11945D01*
X47724Y11969D01*
X47739Y11997D01*
X47742Y12007D01*
X50755D01*
X50775Y12011D01*
X50792Y12022D01*
X51827Y13057D01*
X51838Y13074D01*
X51842Y13094D01*
Y13572D01*
X51844Y13573D01*
X51866Y13590D01*
X51883Y13612D01*
X51893Y13638D01*
X51897Y13665D01*
X51893Y13693D01*
X51883Y13718D01*
X51866Y13740D01*
X51844Y13757D01*
X51818Y13768D01*
X51791Y13772D01*
X51763Y13768D01*
X51737Y13757D01*
X51715Y13740D01*
X51699Y13718D01*
X51688Y13693D01*
X51684Y13665D01*
X51688Y13638D01*
X51699Y13612D01*
X51715Y13590D01*
X51737Y13573D01*
X51739Y13572D01*
Y13115D01*
X51610Y12986D01*
X51587Y12998D01*
X51588Y13005D01*
Y13572D01*
X51590Y13573D01*
X51612Y13590D01*
X51629Y13612D01*
X51639Y13638D01*
X51643Y13665D01*
X51639Y13693D01*
X51629Y13718D01*
X51612Y13740D01*
X51590Y13757D01*
X51564Y13768D01*
X51537Y13772D01*
X51509Y13768D01*
X51483Y13757D01*
X51461Y13740D01*
X51445Y13718D01*
X51434Y13693D01*
X51430Y13665D01*
X51434Y13638D01*
X51445Y13612D01*
X51461Y13590D01*
X51483Y13573D01*
X51485Y13572D01*
Y13026D01*
X50969Y12510D01*
X47942D01*
X47939Y12520D01*
X47924Y12548D01*
X47904Y12573D01*
X47879Y12593D01*
X47851Y12608D01*
X47821Y12617D01*
X47790Y12620D01*
X47758Y12617D01*
X47728Y12608D01*
X47700Y12593D01*
X47676Y12573D01*
X47656Y12548D01*
X47641Y12520D01*
X47632Y12490D01*
X47628Y12459D01*
X47632Y12427D01*
X47641Y12397D01*
X47656Y12369D01*
X47676Y12345D01*
X47700Y12325D01*
X47728Y12310D01*
X47758Y12301D01*
X47790Y12297D01*
X47821Y12301D01*
X47851Y12310D01*
X47879Y12325D01*
X47904Y12345D01*
X47924Y12369D01*
X47939Y12397D01*
X47942Y12407D01*
X50990D01*
X50997Y12408D01*
X51009Y12385D01*
X50734Y12110D01*
X47742D01*
X47739Y12120D01*
X47724Y12148D01*
X47704Y12173D01*
X47679Y12193D01*
X47651Y12208D01*
X47621Y12217D01*
X47590Y12220D01*
X47558Y12217D01*
X47528Y12208D01*
X47500Y12193D01*
X47476Y12173D01*
X47456Y12148D01*
X47441Y12120D01*
X47432Y12090D01*
X47428Y12059D01*
X47432Y12027D01*
X47441Y11997D01*
X47456Y11969D01*
X47476Y11945D01*
X47483Y11939D01*
X47474Y11913D01*
X47305D01*
X47296Y11939D01*
X47304Y11945D01*
X47324Y11969D01*
X47339Y11997D01*
X47348Y12027D01*
X47351Y12059D01*
X47348Y12090D01*
X47339Y12120D01*
X47324Y12148D01*
X47304Y12173D01*
X47279Y12193D01*
X47251Y12208D01*
X47241Y12211D01*
Y12347D01*
X47266Y12356D01*
X47276Y12345D01*
X47300Y12325D01*
X47328Y12310D01*
X47358Y12301D01*
X47390Y12297D01*
X47421Y12301D01*
X47451Y12310D01*
X47479Y12325D01*
X47504Y12345D01*
X47524Y12369D01*
X47539Y12397D01*
X47548Y12427D01*
X47551Y12459D01*
X47548Y12490D01*
X47539Y12520D01*
X47529Y12538D01*
X48025Y13035D01*
X49428D01*
X49428Y13035D01*
X49446Y13038D01*
X49461Y13048D01*
X50740Y14327D01*
X50747Y14325D01*
X50775Y14321D01*
X50802Y14325D01*
X50828Y14335D01*
X50850Y14352D01*
X50867Y14374D01*
X50877Y14400D01*
X50881Y14427D01*
X50877Y14455D01*
X50867Y14480D01*
X50850Y14502D01*
X50828Y14519D01*
X50802Y14530D01*
X50775Y14534D01*
X50747Y14530D01*
X50721Y14519D01*
X50721Y14519D01*
X50704Y14538D01*
X50745Y14579D01*
X50747Y14579D01*
X50775Y14575D01*
X50802Y14579D01*
X50828Y14589D01*
X50850Y14606D01*
X50867Y14628D01*
X50877Y14654D01*
X50880Y14674D01*
X50880Y14674D01*
X50897Y14689D01*
X50905Y14693D01*
X50908Y14692D01*
X50908Y14692D01*
X51144D01*
Y14648D01*
X51345D01*
Y14692D01*
X51421D01*
Y14638D01*
X51585D01*
X51602Y14638D01*
X51624Y14638D01*
X51650Y14632D01*
Y14593D01*
X51654Y14573D01*
X51665Y14556D01*
X51766Y14455D01*
X51783Y14444D01*
X51803Y14440D01*
X52210D01*
X52230Y14444D01*
X52247Y14455D01*
X52360Y14569D01*
X52360Y14569D01*
X52718Y14926D01*
X52729Y14943D01*
X52733Y14962D01*
Y15989D01*
X52753Y16005D01*
X52769Y16026D01*
X52779Y16050D01*
X52782Y16077D01*
X52779Y16103D01*
X52769Y16127D01*
X52753Y16148D01*
X52732Y16164D01*
X52707Y16174D01*
X52681Y16178D01*
X52655Y16174D01*
X52631Y16164D01*
X52610Y16148D01*
X52594Y16128D01*
X52156D01*
X52119Y16165D01*
X52102Y16176D01*
X52083Y16180D01*
X51798D01*
Y16229D01*
X51798D01*
Y16232D01*
X51798D01*
Y16433D01*
X51798D01*
Y16435D01*
X51798D01*
Y16636D01*
X51634D01*
X51617Y16636D01*
X51592Y16636D01*
X51427D01*
Y16582D01*
X51105D01*
X51105Y16582D01*
X51087Y16578D01*
X51072Y16568D01*
X51072Y16568D01*
X50809Y16305D01*
X50802Y16308D01*
X50775Y16312D01*
X50747Y16308D01*
X50721Y16297D01*
X50699Y16280D01*
X50683Y16258D01*
X50680Y16251D01*
X50434D01*
X50434Y16251D01*
X50417Y16248D01*
X50402Y16238D01*
X50402Y16238D01*
X50380Y16216D01*
X50363Y16223D01*
X50330Y16228D01*
X50297Y16223D01*
X50267Y16211D01*
X50241Y16190D01*
X50221Y16164D01*
X50208Y16134D01*
X50204Y16101D01*
X50208Y16068D01*
X50215Y16051D01*
X50161Y15997D01*
X49941D01*
X49928Y16023D01*
X49940Y16038D01*
X49952Y16068D01*
X49955Y16088D01*
X49705D01*
X49708Y16068D01*
X49721Y16038D01*
X49732Y16023D01*
X49719Y15997D01*
X49352D01*
X49352Y15997D01*
X49334Y15994D01*
X49319Y15984D01*
X49319Y15984D01*
X45957Y12621D01*
X45947Y12606D01*
X45943Y12589D01*
X45943Y12589D01*
Y12564D01*
X45918Y12555D01*
X45904Y12573D01*
X45879Y12593D01*
X45854Y12606D01*
X45850Y12617D01*
X45848Y12635D01*
X49422Y16210D01*
X49727D01*
X49736Y16184D01*
X49721Y16164D01*
X49708Y16134D01*
X49705Y16114D01*
X49955D01*
X49952Y16134D01*
X49940Y16164D01*
X49924Y16184D01*
X49933Y16210D01*
X50182D01*
X50182Y16210D01*
X50200Y16213D01*
X50215Y16223D01*
X50280Y16289D01*
X50297Y16282D01*
X50330Y16278D01*
X50363Y16282D01*
X50393Y16295D01*
X50420Y16315D01*
X50440Y16341D01*
X50447Y16358D01*
X50567D01*
X50567Y16358D01*
X50585Y16361D01*
X50600Y16371D01*
X50641Y16413D01*
X50680D01*
X50683Y16406D01*
X50699Y16384D01*
X50721Y16367D01*
X50747Y16357D01*
X50775Y16353D01*
X50802Y16357D01*
X50828Y16367D01*
X50850Y16384D01*
X50867Y16406D01*
X50877Y16432D01*
X50881Y16459D01*
X50877Y16487D01*
X50867Y16512D01*
X50850Y16534D01*
X50828Y16551D01*
X50802Y16562D01*
X50775Y16566D01*
X50747Y16562D01*
X50721Y16551D01*
X50699Y16534D01*
X50683Y16512D01*
X50680Y16505D01*
X50622D01*
X50622Y16505D01*
X50604Y16502D01*
X50589Y16492D01*
X50589Y16492D01*
X50548Y16450D01*
X50447D01*
X50440Y16467D01*
X50420Y16494D01*
X50393Y16514D01*
X50363Y16526D01*
X50330Y16531D01*
X50297Y16526D01*
X50267Y16514D01*
X50241Y16494D01*
X50221Y16467D01*
X50208Y16437D01*
X50204Y16404D01*
X50208Y16371D01*
X50215Y16354D01*
X50163Y16302D01*
X49942D01*
X49929Y16328D01*
X49940Y16341D01*
X49952Y16371D01*
X49955Y16391D01*
X49705D01*
X49708Y16371D01*
X49721Y16341D01*
X49731Y16328D01*
X49718Y16302D01*
X49403D01*
X49403Y16302D01*
X49385Y16299D01*
X49370Y16289D01*
X45757Y12675D01*
X45747Y12660D01*
X45743Y12643D01*
X45743Y12643D01*
Y12612D01*
X45728Y12608D01*
X45700Y12593D01*
X45676Y12573D01*
X45661Y12555D01*
X45636Y12564D01*
Y12614D01*
X49536Y16515D01*
X49726D01*
X49733Y16505D01*
X49737Y16489D01*
X49721Y16467D01*
X49708Y16437D01*
X49705Y16417D01*
X49955D01*
X49952Y16437D01*
X49940Y16467D01*
X49923Y16489D01*
X49928Y16505D01*
X49934Y16515D01*
X50184D01*
X50184Y16515D01*
X50201Y16518D01*
X50216Y16528D01*
X50280Y16592D01*
X50297Y16585D01*
X50330Y16581D01*
X50363Y16585D01*
X50393Y16598D01*
X50420Y16618D01*
X50440Y16644D01*
X50447Y16661D01*
X50682D01*
X50683Y16660D01*
X50699Y16638D01*
X50721Y16621D01*
X50747Y16611D01*
X50775Y16607D01*
X50802Y16611D01*
X50828Y16621D01*
X50850Y16638D01*
X50867Y16660D01*
X50877Y16686D01*
X50881Y16713D01*
X50877Y16741D01*
X50867Y16766D01*
X50850Y16788D01*
X50828Y16805D01*
X50802Y16816D01*
X50775Y16820D01*
X50747Y16816D01*
X50721Y16805D01*
X50699Y16788D01*
X50683Y16766D01*
X50677Y16754D01*
X50447D01*
X50440Y16771D01*
X50420Y16797D01*
X50393Y16817D01*
X50363Y16829D01*
X50330Y16834D01*
X50297Y16829D01*
X50267Y16817D01*
X50241Y16797D01*
X50221Y16771D01*
X50208Y16740D01*
X50204Y16707D01*
X50208Y16675D01*
X50215Y16658D01*
X50164Y16607D01*
X49943D01*
X49931Y16632D01*
X49940Y16644D01*
X49952Y16675D01*
X49955Y16695D01*
X49705D01*
X49708Y16675D01*
X49721Y16644D01*
X49729Y16632D01*
X49717Y16607D01*
X49517D01*
X49517Y16607D01*
X49500Y16604D01*
X49485Y16594D01*
X49485Y16594D01*
X45557Y12666D01*
X45547Y12651D01*
X45543Y12633D01*
X45543Y12633D01*
Y12564D01*
X45518Y12555D01*
X45504Y12573D01*
X45479Y12593D01*
X45451Y12608D01*
X45436Y12612D01*
Y12668D01*
X49575Y16807D01*
X49716D01*
X49729Y16781D01*
X49721Y16771D01*
X49708Y16740D01*
X49705Y16720D01*
X49955D01*
X49952Y16740D01*
X49940Y16771D01*
X49931Y16781D01*
X49944Y16807D01*
X50173D01*
X50173Y16807D01*
X50190Y16810D01*
X50205Y16820D01*
X50280Y16895D01*
X50297Y16888D01*
X50330Y16884D01*
X50363Y16888D01*
X50393Y16901D01*
X50420Y16921D01*
X50440Y16947D01*
X50447Y16964D01*
X50471D01*
X50501Y16934D01*
X50501Y16934D01*
X50516Y16924D01*
X50533Y16921D01*
X50533Y16921D01*
X50680D01*
X50683Y16914D01*
X50699Y16892D01*
X50721Y16875D01*
X50747Y16865D01*
X50775Y16861D01*
X50802Y16865D01*
X50828Y16875D01*
X50850Y16892D01*
X50867Y16914D01*
X50877Y16940D01*
X50881Y16967D01*
X50877Y16995D01*
X50867Y17020D01*
X50850Y17042D01*
X50828Y17059D01*
X50802Y17070D01*
X50775Y17074D01*
X50747Y17070D01*
X50721Y17059D01*
X50699Y17042D01*
X50683Y17020D01*
X50680Y17013D01*
X50552D01*
X50523Y17043D01*
X50508Y17053D01*
X50490Y17057D01*
X50490Y17057D01*
X50447D01*
X50440Y17074D01*
X50420Y17100D01*
X50393Y17120D01*
X50363Y17133D01*
X50330Y17137D01*
X50297Y17133D01*
X50267Y17120D01*
X50241Y17100D01*
X50221Y17074D01*
X50208Y17043D01*
X50204Y17010D01*
X50208Y16978D01*
X50215Y16961D01*
X50153Y16899D01*
X49933D01*
X49926Y16911D01*
X49922Y16925D01*
X49940Y16947D01*
X49952Y16978D01*
X49955Y16998D01*
X49705D01*
X49708Y16978D01*
X49721Y16947D01*
X49738Y16925D01*
X49734Y16911D01*
X49727Y16899D01*
X49555D01*
X49538Y16896D01*
X49523Y16886D01*
X49523Y16886D01*
X45357Y12720D01*
X45347Y12705D01*
X45343Y12687D01*
X45343Y12687D01*
Y12612D01*
X45328Y12608D01*
X45300Y12593D01*
X45276Y12573D01*
X45256Y12548D01*
X45241Y12520D01*
X45232Y12490D01*
X45228Y12459D01*
X45232Y12427D01*
X45241Y12397D01*
X45256Y12369D01*
X45276Y12345D01*
X45300Y12325D01*
X45328Y12310D01*
X45358Y12301D01*
X45390Y12297D01*
X45421Y12301D01*
X45451Y12310D01*
X45479Y12325D01*
X45504Y12345D01*
X45518Y12362D01*
X45543Y12353D01*
Y12212D01*
X45528Y12208D01*
X45500Y12193D01*
X45476Y12173D01*
X45456Y12148D01*
X45441Y12120D01*
X45432Y12090D01*
X45428Y12059D01*
X45432Y12027D01*
X45441Y11997D01*
X45456Y11969D01*
X45476Y11945D01*
X45500Y11925D01*
X45528Y11910D01*
X45558Y11901D01*
X45590Y11897D01*
X45621Y11901D01*
X45651Y11910D01*
X45679Y11925D01*
X45704Y11945D01*
X45724Y11969D01*
X45739Y11997D01*
X45748Y12027D01*
X45751Y12059D01*
X45748Y12090D01*
X45739Y12120D01*
X45724Y12148D01*
X45704Y12173D01*
X45679Y12193D01*
X45651Y12208D01*
X45636Y12212D01*
Y12353D01*
X45661Y12362D01*
X45676Y12345D01*
X45700Y12325D01*
X45728Y12310D01*
X45758Y12301D01*
X45790Y12297D01*
X45821Y12301D01*
X45851Y12310D01*
X45879Y12325D01*
X45904Y12345D01*
X45918Y12362D01*
X45943Y12353D01*
Y12212D01*
X45928Y12208D01*
X45900Y12193D01*
X45876Y12173D01*
X45856Y12148D01*
X45841Y12120D01*
X45832Y12090D01*
X45828Y12059D01*
X45832Y12027D01*
X45841Y11997D01*
X45856Y11969D01*
X45876Y11945D01*
X45900Y11925D01*
X45928Y11910D01*
X45958Y11901D01*
X45990Y11897D01*
X46021Y11901D01*
X46051Y11910D01*
X46079Y11925D01*
X46104Y11945D01*
X46124Y11969D01*
X46139Y11997D01*
X46148Y12027D01*
X46151Y12059D01*
X46148Y12090D01*
X46139Y12120D01*
X46124Y12148D01*
X46104Y12173D01*
X46079Y12193D01*
X46051Y12208D01*
X46036Y12212D01*
Y12353D01*
X46061Y12362D01*
X46076Y12345D01*
X46100Y12325D01*
X46128Y12310D01*
X46158Y12301D01*
X46190Y12297D01*
X46221Y12301D01*
X46251Y12310D01*
X46279Y12325D01*
X46304Y12345D01*
X46318Y12362D01*
X46343Y12353D01*
Y12212D01*
X46328Y12208D01*
X46300Y12193D01*
X46276Y12173D01*
X46256Y12148D01*
X46241Y12120D01*
X46232Y12090D01*
X46228Y12059D01*
X46232Y12027D01*
X46241Y11997D01*
X46256Y11969D01*
X46276Y11945D01*
X46300Y11925D01*
X46328Y11910D01*
X46331Y11909D01*
X46338Y11880D01*
X46261Y11802D01*
X46251Y11808D01*
X46221Y11817D01*
X46190Y11820D01*
X46158Y11817D01*
X46128Y11808D01*
X46100Y11793D01*
X46076Y11773D01*
X46056Y11748D01*
X46041Y11720D01*
X46032Y11690D01*
X46028Y11659D01*
X46032Y11627D01*
X46041Y11597D01*
X46056Y11569D01*
X46076Y11545D01*
X46100Y11525D01*
X46128Y11510D01*
X46158Y11501D01*
X46190Y11497D01*
X46221Y11501D01*
X46251Y11510D01*
X46279Y11525D01*
X46304Y11545D01*
X46324Y11569D01*
X46339Y11597D01*
X46348Y11627D01*
X46351Y11659D01*
X46348Y11690D01*
X46339Y11720D01*
X46333Y11730D01*
X46414Y11810D01*
X46482D01*
X46491Y11785D01*
X46476Y11773D01*
X46456Y11748D01*
X46441Y11720D01*
X46432Y11690D01*
X46428Y11659D01*
X46432Y11627D01*
X46441Y11597D01*
X46456Y11569D01*
X46476Y11545D01*
X46500Y11525D01*
X46528Y11510D01*
X46558Y11501D01*
X46590Y11497D01*
X46621Y11501D01*
X46651Y11510D01*
X46661Y11515D01*
X46871Y11305D01*
X46887Y11294D01*
X46907Y11290D01*
X47871D01*
X47875Y11285D01*
X47882Y11264D01*
X47873Y11250D01*
X47868Y11227D01*
X47873Y11203D01*
X47884Y11187D01*
Y11025D01*
X47873Y11009D01*
X47868Y10986D01*
X47871Y10973D01*
X47854Y10948D01*
X45911D01*
X45384Y11475D01*
X45396Y11498D01*
X45421Y11501D01*
X45451Y11510D01*
X45479Y11525D01*
X45504Y11545D01*
X45524Y11569D01*
X45539Y11597D01*
X45548Y11627D01*
X45551Y11659D01*
X45548Y11690D01*
X45539Y11720D01*
X45524Y11748D01*
X45504Y11773D01*
X45479Y11793D01*
X45451Y11808D01*
X45421Y11817D01*
X45390Y11820D01*
X45358Y11817D01*
X45328Y11808D01*
X45300Y11793D01*
X45276Y11773D01*
X45256Y11748D01*
X45251Y11740D01*
X45225Y11744D01*
X45222Y11755D01*
X45211Y11772D01*
X45103Y11880D01*
X45086Y11891D01*
X45066Y11895D01*
X45025D01*
X44933Y11987D01*
X44939Y11997D01*
X44948Y12027D01*
X44951Y12059D01*
X44948Y12090D01*
X44939Y12120D01*
X44924Y12148D01*
X44904Y12173D01*
X44879Y12193D01*
X44851Y12208D01*
X44821Y12217D01*
X44790Y12220D01*
X44758Y12217D01*
X44728Y12208D01*
X44700Y12193D01*
X44676Y12173D01*
X44656Y12148D01*
X44641Y12120D01*
X44632Y12090D01*
X44628Y12059D01*
X44632Y12027D01*
X44641Y11997D01*
X44656Y11969D01*
X44676Y11945D01*
X44700Y11925D01*
X44728Y11910D01*
X44758Y11901D01*
X44790Y11897D01*
X44821Y11901D01*
X44851Y11910D01*
X44861Y11915D01*
X44938Y11837D01*
X44931Y11808D01*
X44928Y11808D01*
X44900Y11793D01*
X44876Y11773D01*
X44856Y11748D01*
X44841Y11720D01*
X44832Y11690D01*
X44828Y11659D01*
X44832Y11627D01*
X44841Y11597D01*
X44856Y11569D01*
X44876Y11545D01*
X44900Y11525D01*
X44928Y11510D01*
X44958Y11501D01*
X44990Y11497D01*
X45021Y11501D01*
X45051Y11510D01*
X45079Y11525D01*
X45104Y11545D01*
X45117Y11561D01*
X45120Y11563D01*
X45142Y11565D01*
X45150Y11564D01*
X45818Y10895D01*
X45809Y10872D01*
X44642D01*
X43931Y11583D01*
X43939Y11597D01*
X43948Y11627D01*
X43951Y11659D01*
X43948Y11690D01*
X43939Y11720D01*
X43924Y11748D01*
X43904Y11773D01*
X43879Y11793D01*
X43851Y11808D01*
X43821Y11817D01*
X43790Y11820D01*
X43758Y11817D01*
X43728Y11808D01*
X43700Y11793D01*
X43676Y11773D01*
X43656Y11748D01*
X43641Y11720D01*
X43632Y11690D01*
X43628Y11659D01*
X43632Y11627D01*
X43641Y11597D01*
X43656Y11569D01*
X43676Y11545D01*
X43700Y11525D01*
X43728Y11510D01*
X43758Y11501D01*
X43790Y11497D01*
X43821Y11501D01*
X43851Y11510D01*
X43865Y11517D01*
X44555Y10828D01*
X44545Y10804D01*
X41175D01*
X40511Y11468D01*
Y11579D01*
X40521Y11587D01*
X40537Y11608D01*
X40547Y11632D01*
X40551Y11659D01*
X40547Y11685D01*
X40537Y11709D01*
X40521Y11730D01*
X40500Y11746D01*
X40476Y11756D01*
X40449Y11760D01*
X40423Y11756D01*
X40399Y11746D01*
X40378Y11730D01*
X40362Y11709D01*
X40352Y11685D01*
X40348Y11659D01*
X40352Y11632D01*
X40362Y11608D01*
X40378Y11587D01*
X40388Y11579D01*
Y11443D01*
X40393Y11419D01*
X40406Y11399D01*
X41106Y10699D01*
X41126Y10686D01*
X41149Y10681D01*
X44673D01*
X44684Y10658D01*
X44683Y10656D01*
X44666Y10643D01*
X44652Y10624D01*
X44643Y10602D01*
X44640Y10579D01*
X44643Y10556D01*
X44652Y10534D01*
X44666Y10516D01*
X44685Y10501D01*
X44706Y10492D01*
X44729Y10489D01*
X44752Y10492D01*
X44949Y10295D01*
X44940Y10269D01*
X44926Y10263D01*
X44907Y10249D01*
X44893Y10230D01*
X44884Y10209D01*
X44881Y10185D01*
X44884Y10162D01*
X44893Y10141D01*
X44907Y10122D01*
X44919Y10113D01*
Y10067D01*
X44822Y9970D01*
X39316D01*
X39309Y9995D01*
X39350Y10020D01*
X39395Y10059D01*
X39433Y10104D01*
X39464Y10154D01*
X39487Y10209D01*
X39501Y10266D01*
X39504Y10312D01*
X38753D01*
X38757Y10266D01*
X38771Y10209D01*
X38793Y10154D01*
X38824Y10104D01*
X38862Y10059D01*
X38907Y10020D01*
X38948Y9995D01*
X38941Y9970D01*
X38367D01*
X38347Y9966D01*
X38330Y9955D01*
X36034Y7659D01*
X35967D01*
X35956Y7684D01*
X38764Y10492D01*
X38785Y10477D01*
X38771Y10441D01*
X38757Y10384D01*
X38753Y10338D01*
X39116D01*
Y10701D01*
X39070Y10697D01*
X39012Y10683D01*
X38976Y10668D01*
X38962Y10690D01*
X39481Y11209D01*
X39481Y11209D01*
X39492Y11224D01*
X39495Y11242D01*
Y12356D01*
X39506Y12372D01*
X39510Y12395D01*
X39506Y12419D01*
X39492Y12439D01*
X39472Y12452D01*
X39449Y12457D01*
X39425Y12452D01*
X39405Y12439D01*
X39392Y12419D01*
X39387Y12395D01*
X39392Y12372D01*
X39402Y12356D01*
Y11261D01*
X35884Y7742D01*
X35321D01*
X35312Y7768D01*
X35318Y7773D01*
X35338Y7797D01*
X35353Y7825D01*
X35358Y7840D01*
X35903D01*
X35903Y7840D01*
X35921Y7844D01*
X35936Y7854D01*
X39255Y11174D01*
X39255Y11174D01*
X39265Y11189D01*
X39269Y11206D01*
Y12356D01*
X39280Y12372D01*
X39284Y12395D01*
X39280Y12419D01*
X39266Y12439D01*
X39246Y12452D01*
X39223Y12457D01*
X39199Y12452D01*
X39179Y12439D01*
X39166Y12419D01*
X39161Y12395D01*
X39166Y12372D01*
X39176Y12356D01*
Y11226D01*
X35884Y7933D01*
X35358D01*
X35353Y7948D01*
X35338Y7976D01*
X35318Y8001D01*
X35294Y8021D01*
X35266Y8036D01*
X35236Y8045D01*
X35204Y8048D01*
X35173Y8045D01*
X35143Y8036D01*
X35115Y8021D01*
X35090Y8001D01*
X35070Y7976D01*
X35055Y7948D01*
X35046Y7918D01*
X35043Y7887D01*
X35046Y7855D01*
X35055Y7825D01*
X35070Y7797D01*
X35090Y7773D01*
X35096Y7768D01*
X35087Y7742D01*
X35008D01*
X34943Y7807D01*
X34953Y7825D01*
X34962Y7855D01*
X34965Y7887D01*
X34962Y7918D01*
X34953Y7948D01*
X34938Y7976D01*
X34918Y8001D01*
X34894Y8021D01*
X34866Y8036D01*
X34836Y8045D01*
X34804Y8048D01*
X34773Y8045D01*
X34743Y8036D01*
X34715Y8021D01*
X34690Y8001D01*
X34670Y7976D01*
X34655Y7948D01*
X34646Y7918D01*
X34643Y7887D01*
X34646Y7855D01*
X34655Y7825D01*
X34670Y7797D01*
X34690Y7773D01*
X34715Y7753D01*
X34743Y7738D01*
X34773Y7729D01*
X34804Y7726D01*
X34836Y7729D01*
X34866Y7738D01*
X34876Y7743D01*
X34935Y7684D01*
X34925Y7659D01*
X34349D01*
X34267Y7741D01*
X34269Y7760D01*
X34277Y7765D01*
X34293Y7770D01*
X34315Y7753D01*
X34343Y7738D01*
X34373Y7729D01*
X34404Y7726D01*
X34436Y7729D01*
X34466Y7738D01*
X34494Y7753D01*
X34518Y7773D01*
X34538Y7797D01*
X34553Y7825D01*
X34562Y7855D01*
X34565Y7887D01*
X34562Y7918D01*
X34553Y7948D01*
X34538Y7976D01*
X34518Y8001D01*
X34494Y8021D01*
X34466Y8036D01*
X34436Y8045D01*
X34404Y8048D01*
X34373Y8045D01*
X34343Y8036D01*
X34315Y8021D01*
X34290Y8001D01*
X34280Y7988D01*
X34250Y7987D01*
X34249Y7988D01*
X34111Y8126D01*
X34126Y8147D01*
X34143Y8138D01*
X34173Y8129D01*
X34204Y8126D01*
X34236Y8129D01*
X34266Y8138D01*
X34294Y8153D01*
X34318Y8173D01*
X34338Y8197D01*
X34353Y8225D01*
X34362Y8255D01*
X34365Y8287D01*
X34362Y8318D01*
X34353Y8348D01*
X34338Y8376D01*
X34318Y8401D01*
X34294Y8421D01*
X34266Y8436D01*
X34251Y8440D01*
Y8581D01*
X34276Y8590D01*
X34290Y8573D01*
X34315Y8553D01*
X34343Y8538D01*
X34373Y8529D01*
X34404Y8526D01*
X34436Y8529D01*
X34466Y8538D01*
X34494Y8553D01*
X34518Y8573D01*
X34533Y8590D01*
X34558Y8581D01*
Y8440D01*
X34543Y8436D01*
X34515Y8421D01*
X34490Y8401D01*
X34470Y8376D01*
X34455Y8348D01*
X34446Y8318D01*
X34443Y8287D01*
X34446Y8255D01*
X34455Y8225D01*
X34470Y8197D01*
X34490Y8173D01*
X34515Y8153D01*
X34543Y8138D01*
X34573Y8129D01*
X34604Y8126D01*
X34636Y8129D01*
X34666Y8138D01*
X34694Y8153D01*
X34718Y8173D01*
X34738Y8197D01*
X34753Y8225D01*
X34762Y8255D01*
X34765Y8287D01*
X34762Y8318D01*
X34753Y8348D01*
X34738Y8376D01*
X34718Y8401D01*
X34694Y8421D01*
X34666Y8436D01*
X34651Y8440D01*
Y8581D01*
X34676Y8590D01*
X34690Y8573D01*
X34715Y8553D01*
X34743Y8538D01*
X34773Y8529D01*
X34804Y8526D01*
X34836Y8529D01*
X34866Y8538D01*
X34894Y8553D01*
X34918Y8573D01*
X34938Y8597D01*
X34953Y8625D01*
X34962Y8655D01*
X34965Y8687D01*
X34962Y8718D01*
X34953Y8748D01*
X34946Y8763D01*
X35103Y8920D01*
X35242D01*
X35242Y8920D01*
X35260Y8923D01*
X35275Y8933D01*
X35383Y9042D01*
X35394Y9057D01*
X35397Y9074D01*
X35397Y9074D01*
Y9294D01*
X35451D01*
Y9458D01*
X35451Y9475D01*
X35451Y9520D01*
X35477Y9525D01*
X35491Y9510D01*
X35491Y9484D01*
X35491Y9458D01*
Y9294D01*
X35514D01*
X35526Y9268D01*
X35526Y9268D01*
X35518Y9250D01*
X35515Y9230D01*
X35518Y9210D01*
X35526Y9192D01*
X35538Y9176D01*
X35553Y9164D01*
X35572Y9156D01*
X35591Y9154D01*
X35611Y9156D01*
X35629Y9164D01*
X35645Y9176D01*
X35657Y9192D01*
X35665Y9210D01*
X35667Y9230D01*
X35665Y9250D01*
X35657Y9268D01*
X35657Y9268D01*
X35669Y9294D01*
X35692D01*
Y9458D01*
X35692Y9475D01*
X35692Y9500D01*
Y9665D01*
X35491D01*
Y9621D01*
X35451D01*
Y9665D01*
X35397D01*
Y9782D01*
X35415Y9800D01*
X35441Y9800D01*
X35467Y9800D01*
X35528D01*
Y9900D01*
Y10000D01*
X35467D01*
X35450Y10000D01*
X35425Y10000D01*
X35397D01*
Y10563D01*
X37967Y13133D01*
X44780D01*
X44780Y13133D01*
X44798Y13136D01*
X44813Y13146D01*
X50446Y18779D01*
X50946D01*
X50948Y18776D01*
X50957Y18754D01*
X50950Y18745D01*
X50942Y18727D01*
X50940Y18707D01*
X50942Y18687D01*
X50950Y18669D01*
X50959Y18657D01*
Y18063D01*
X50953Y18058D01*
X50937Y18036D01*
X50926Y18011D01*
X50922Y17983D01*
X50926Y17956D01*
X50937Y17930D01*
X50953Y17908D01*
X50975Y17891D01*
X51001Y17881D01*
X51029Y17877D01*
X51056Y17881D01*
X51082Y17891D01*
X51104Y17908D01*
X51121Y17930D01*
X51131Y17956D01*
X51135Y17983D01*
X51131Y18011D01*
X51121Y18036D01*
X51104Y18058D01*
X51082Y18075D01*
X51072Y18079D01*
Y18657D01*
X51082Y18669D01*
X51089Y18687D01*
X51092Y18707D01*
X51089Y18727D01*
X51082Y18745D01*
X51075Y18754D01*
X51084Y18776D01*
X51086Y18779D01*
X51149D01*
X51236Y18692D01*
Y18078D01*
X51229Y18075D01*
X51207Y18058D01*
X51191Y18036D01*
X51180Y18011D01*
X51176Y17983D01*
X51180Y17956D01*
X51191Y17930D01*
X51207Y17908D01*
X51229Y17891D01*
X51255Y17881D01*
X51283Y17877D01*
X51310Y17881D01*
X51336Y17891D01*
X51358Y17908D01*
X51375Y17930D01*
X51385Y17956D01*
X51389Y17983D01*
X51385Y18011D01*
X51375Y18036D01*
X51358Y18058D01*
X51336Y18075D01*
X51329Y18078D01*
Y18711D01*
X51329Y18711D01*
X51325Y18729D01*
X51315Y18744D01*
X51315Y18744D01*
X51232Y18828D01*
X51241Y18851D01*
X51280D01*
X51490Y18641D01*
D02*
G37*
G36*
X52245Y17891D02*
X52271Y17881D01*
X52299Y17877D01*
X52326Y17881D01*
X52333Y17883D01*
X53918Y16298D01*
X53933Y16288D01*
X53951Y16284D01*
X53951Y16284D01*
X54205D01*
X54219Y16259D01*
X54214Y16251D01*
X53702D01*
X52219Y17734D01*
Y17879D01*
X52245Y17892D01*
X52245Y17891D01*
D02*
G37*
G36*
X51427Y16435D02*
X51427D01*
Y16433D01*
X51427D01*
Y16378D01*
X51156D01*
X51138Y16375D01*
X51123Y16365D01*
X51123Y16365D01*
X50809Y16051D01*
X50802Y16054D01*
X50775Y16058D01*
X50747Y16054D01*
X50721Y16043D01*
X50699Y16026D01*
X50683Y16004D01*
X50680Y15997D01*
X50483D01*
X50483Y15997D01*
X50466Y15994D01*
X50451Y15984D01*
X50451Y15984D01*
X50380Y15913D01*
X50363Y15920D01*
X50330Y15924D01*
X50297Y15920D01*
X50267Y15907D01*
X50241Y15887D01*
X50221Y15861D01*
X50208Y15831D01*
X50204Y15798D01*
X50208Y15765D01*
X50215Y15748D01*
X50159Y15693D01*
X49939D01*
X49927Y15718D01*
X49940Y15735D01*
X49952Y15765D01*
X49955Y15785D01*
X49705D01*
X49708Y15765D01*
X49721Y15735D01*
X49733Y15718D01*
X49721Y15693D01*
X49212D01*
X49212Y15693D01*
X49195Y15689D01*
X49185Y15683D01*
X49169Y15702D01*
X49371Y15905D01*
X49724D01*
X49735Y15880D01*
X49721Y15861D01*
X49708Y15831D01*
X49705Y15811D01*
X49955D01*
X49952Y15831D01*
X49940Y15861D01*
X49926Y15880D01*
X49936Y15905D01*
X50180D01*
X50180Y15905D01*
X50198Y15908D01*
X50213Y15918D01*
X50280Y15986D01*
X50297Y15979D01*
X50330Y15975D01*
X50363Y15979D01*
X50393Y15992D01*
X50420Y16012D01*
X50440Y16038D01*
X50452Y16068D01*
X50457Y16101D01*
X50452Y16134D01*
X50452Y16134D01*
X50469Y16159D01*
X50680D01*
X50683Y16152D01*
X50699Y16130D01*
X50721Y16113D01*
X50747Y16103D01*
X50775Y16099D01*
X50802Y16103D01*
X50828Y16113D01*
X50850Y16130D01*
X50867Y16152D01*
X50877Y16178D01*
X50881Y16205D01*
X50877Y16233D01*
X50874Y16240D01*
X51124Y16489D01*
X51427D01*
Y16435D01*
D02*
G37*
G36*
X50683Y15898D02*
X50699Y15876D01*
X50721Y15859D01*
X50747Y15849D01*
X50775Y15845D01*
X50802Y15849D01*
X50808Y15851D01*
X50835Y15835D01*
X50837Y15825D01*
X50809Y15797D01*
X50802Y15800D01*
X50775Y15804D01*
X50747Y15800D01*
X50721Y15789D01*
X50699Y15772D01*
X50683Y15750D01*
X50680Y15743D01*
X50532D01*
X50532Y15743D01*
X50515Y15740D01*
X50500Y15730D01*
X50380Y15610D01*
X50363Y15617D01*
X50330Y15621D01*
X50297Y15617D01*
X50267Y15604D01*
X50241Y15584D01*
X50221Y15558D01*
X50208Y15528D01*
X50204Y15495D01*
X50208Y15462D01*
X50215Y15445D01*
X50158Y15388D01*
X49936D01*
X49926Y15413D01*
X49940Y15432D01*
X49952Y15462D01*
X49955Y15482D01*
X49830D01*
X49705D01*
X49708Y15462D01*
X49721Y15432D01*
X49735Y15413D01*
X49724Y15388D01*
X49212D01*
X49212Y15388D01*
X49195Y15384D01*
X49180Y15374D01*
X49180Y15374D01*
X46357Y12551D01*
X46353Y12546D01*
X46325Y12546D01*
X46324Y12548D01*
X46304Y12573D01*
X46279Y12593D01*
X46267Y12599D01*
X46262Y12630D01*
X49232Y15600D01*
X49721D01*
X49733Y15575D01*
X49721Y15558D01*
X49708Y15528D01*
X49705Y15508D01*
X49830D01*
X49955D01*
X49952Y15528D01*
X49940Y15558D01*
X49927Y15575D01*
X49939Y15600D01*
X50179D01*
X50179Y15600D01*
X50196Y15604D01*
X50211Y15614D01*
X50280Y15683D01*
X50297Y15676D01*
X50330Y15671D01*
X50363Y15676D01*
X50393Y15688D01*
X50420Y15709D01*
X50440Y15735D01*
X50452Y15765D01*
X50457Y15798D01*
X50452Y15831D01*
X50445Y15848D01*
X50503Y15905D01*
X50680D01*
X50683Y15898D01*
D02*
G37*
G36*
X51421Y15597D02*
X51586D01*
X51602Y15597D01*
X51628Y15597D01*
X51792D01*
Y15646D01*
X51922D01*
X52273Y15295D01*
Y14626D01*
X52189Y14543D01*
X51824D01*
X51754Y14613D01*
X51756Y14638D01*
X51792D01*
Y14687D01*
X51886D01*
X51906Y14691D01*
X51922Y14702D01*
X51979Y14759D01*
X51990Y14776D01*
X51994Y14796D01*
Y15176D01*
X51990Y15196D01*
X51979Y15213D01*
X51941Y15251D01*
X51925Y15262D01*
X51905Y15266D01*
X51792D01*
Y15305D01*
X51792D01*
Y15392D01*
X51702D01*
Y15405D01*
X51689D01*
Y15505D01*
X51628D01*
X51611Y15505D01*
X51586Y15505D01*
X51421D01*
Y15451D01*
X51345D01*
Y15495D01*
X51144D01*
Y15451D01*
X51079D01*
X51079Y15451D01*
X51073Y15450D01*
X51060Y15473D01*
X51061Y15474D01*
X51061Y15474D01*
X51071Y15489D01*
X51075Y15507D01*
X51075Y15507D01*
Y15615D01*
X51111Y15651D01*
X51157D01*
Y15607D01*
X51358D01*
Y15651D01*
X51421D01*
Y15597D01*
D02*
G37*
G36*
X50917Y15741D02*
Y15651D01*
X50809Y15543D01*
X50802Y15546D01*
X50775Y15550D01*
X50747Y15546D01*
X50721Y15535D01*
X50699Y15518D01*
X50683Y15496D01*
X50680Y15489D01*
X50582D01*
X50582Y15489D01*
X50564Y15486D01*
X50549Y15476D01*
X50549Y15476D01*
X50380Y15307D01*
X50363Y15314D01*
X50330Y15318D01*
X50297Y15314D01*
X50267Y15301D01*
X50241Y15281D01*
X50221Y15255D01*
X50208Y15224D01*
X50204Y15192D01*
X50208Y15159D01*
X50221Y15129D01*
X50236Y15108D01*
X50227Y15083D01*
X49933D01*
X49924Y15108D01*
X49940Y15129D01*
X49952Y15159D01*
X49955Y15179D01*
X49830D01*
X49705D01*
X49708Y15159D01*
X49721Y15129D01*
X49736Y15108D01*
X49727Y15083D01*
X49136D01*
X49136Y15083D01*
X49119Y15080D01*
X49104Y15070D01*
X49104Y15070D01*
X46644Y12610D01*
X46621Y12617D01*
X46592Y12620D01*
X46588Y12625D01*
X46581Y12644D01*
X49232Y15295D01*
X49719D01*
X49732Y15270D01*
X49721Y15255D01*
X49708Y15224D01*
X49705Y15204D01*
X49830D01*
X49955D01*
X49952Y15224D01*
X49940Y15255D01*
X49928Y15270D01*
X49941Y15295D01*
X50177D01*
X50177Y15295D01*
X50195Y15299D01*
X50210Y15309D01*
X50280Y15380D01*
X50297Y15373D01*
X50330Y15368D01*
X50363Y15373D01*
X50393Y15385D01*
X50420Y15405D01*
X50440Y15432D01*
X50452Y15462D01*
X50457Y15495D01*
X50452Y15528D01*
X50445Y15545D01*
X50552Y15651D01*
X50680D01*
X50683Y15644D01*
X50699Y15622D01*
X50721Y15605D01*
X50747Y15595D01*
X50775Y15591D01*
X50802Y15595D01*
X50828Y15605D01*
X50850Y15622D01*
X50867Y15644D01*
X50877Y15670D01*
X50881Y15697D01*
X50877Y15725D01*
X50874Y15732D01*
X50893Y15751D01*
X50917Y15741D01*
D02*
G37*
G36*
X51421Y15114D02*
X51585D01*
X51602Y15114D01*
X51627Y15114D01*
X51792D01*
Y15163D01*
X51884D01*
X51892Y15155D01*
Y14992D01*
X51866Y14979D01*
X51865Y14979D01*
X51854Y14982D01*
Y14923D01*
X51829D01*
Y14982D01*
X51818Y14979D01*
X51817Y14979D01*
X51792Y14993D01*
Y15023D01*
X51714D01*
Y14923D01*
X51689D01*
Y15023D01*
X51628D01*
X51611Y15023D01*
X51586Y15023D01*
X51421D01*
Y14975D01*
X51345D01*
Y15019D01*
X51144D01*
Y14981D01*
X50889D01*
X50883Y14991D01*
X50897Y15016D01*
X50914D01*
X50914Y15016D01*
X50932Y15019D01*
X50947Y15029D01*
X51086Y15168D01*
X51144D01*
Y15124D01*
X51345D01*
Y15168D01*
X51421D01*
Y15114D01*
D02*
G37*
G36*
X50231Y14965D02*
X50221Y14952D01*
X50208Y14921D01*
X50204Y14889D01*
X50208Y14856D01*
X50221Y14825D01*
X50229Y14815D01*
X50216Y14790D01*
X49944D01*
X49932Y14815D01*
X49940Y14825D01*
X49952Y14856D01*
X49955Y14876D01*
X49830D01*
X49705D01*
X49708Y14856D01*
X49721Y14825D01*
X49727Y14816D01*
X49715Y14791D01*
X49021D01*
X49003Y14787D01*
X48988Y14777D01*
X48988Y14777D01*
X46767Y12557D01*
X46738Y12562D01*
X46738Y12562D01*
X46735Y12570D01*
X49155Y14991D01*
X49718D01*
X49731Y14965D01*
X49721Y14952D01*
X49708Y14921D01*
X49705Y14901D01*
X49830D01*
X49955D01*
X49952Y14921D01*
X49940Y14952D01*
X49929Y14965D01*
X49942Y14991D01*
X50218D01*
X50231Y14965D01*
D02*
G37*
G36*
X51427Y16029D02*
X51592D01*
X51608Y16029D01*
X51634Y16029D01*
X51798D01*
Y16078D01*
X52061D01*
X52099Y16040D01*
X52115Y16029D01*
X52135Y16025D01*
X52594D01*
X52610Y16005D01*
X52630Y15989D01*
Y14983D01*
X52399Y14753D01*
X52375Y14762D01*
Y15316D01*
X52371Y15336D01*
X52360Y15353D01*
X51979Y15734D01*
X51963Y15745D01*
X51943Y15749D01*
X51792D01*
Y15787D01*
Y15875D01*
X51702D01*
Y15888D01*
X51689D01*
Y15988D01*
X51628D01*
X51611Y15988D01*
X51586Y15988D01*
X51421D01*
Y15933D01*
X51358D01*
Y15978D01*
X51157D01*
Y15933D01*
X51055D01*
X51045Y15957D01*
X51171Y16083D01*
X51427D01*
Y16029D01*
D02*
G37*
G36*
X49738Y14681D02*
X49739Y14673D01*
X49721Y14649D01*
X49708Y14618D01*
X49705Y14598D01*
X49830D01*
X49955D01*
X49952Y14618D01*
X49940Y14649D01*
X49922Y14672D01*
X49925Y14685D01*
X49933Y14697D01*
X50228D01*
X50235Y14685D01*
X50238Y14672D01*
X50221Y14649D01*
X50208Y14618D01*
X50204Y14586D01*
X50208Y14553D01*
X50221Y14522D01*
X50241Y14496D01*
X50267Y14476D01*
X50297Y14463D01*
X50310Y14462D01*
X50320Y14435D01*
X50244Y14359D01*
X48819D01*
X48801Y14356D01*
X48786Y14346D01*
X48786Y14346D01*
X47049Y12608D01*
X47021Y12617D01*
X46996Y12619D01*
X46988Y12636D01*
X46986Y12645D01*
X49040Y14698D01*
X49729D01*
X49738Y14681D01*
D02*
G37*
G36*
X54564Y13104D02*
Y12859D01*
X52576Y10872D01*
X48880D01*
X48868Y10897D01*
X48878Y10910D01*
X48892Y10943D01*
X48896Y10979D01*
X48892Y11014D01*
X48878Y11047D01*
X48856Y11075D01*
X48828Y11097D01*
X48795Y11111D01*
X48760Y11115D01*
X48724Y11111D01*
X48691Y11097D01*
X48663Y11075D01*
X48641Y11047D01*
X48628Y11014D01*
X48623Y10979D01*
X48628Y10943D01*
X48641Y10910D01*
X48652Y10897D01*
X48639Y10872D01*
X48265D01*
X48255Y10895D01*
X48523Y11163D01*
X51024D01*
X51044Y11167D01*
X51060Y11178D01*
X52000Y12118D01*
X52017Y12111D01*
X52053Y12106D01*
X52088Y12111D01*
X52121Y12125D01*
X52149Y12146D01*
X52162Y12163D01*
X52164Y12164D01*
X52192D01*
X52193Y12163D01*
X52206Y12146D01*
X52234Y12125D01*
X52267Y12111D01*
X52303Y12106D01*
X52337Y12111D01*
X52340Y12094D01*
X52349Y12072D01*
X52363Y12053D01*
X52382Y12039D01*
X52404Y12030D01*
X52428Y12027D01*
X52451Y12030D01*
X52473Y12039D01*
X52492Y12053D01*
X52507Y12072D01*
X52516Y12094D01*
X52518Y12111D01*
X52553Y12106D01*
X52588Y12111D01*
X52605Y12118D01*
X52796Y11927D01*
X52812Y11916D01*
X52832Y11912D01*
X53315D01*
X53334Y11916D01*
X53351Y11927D01*
X54538Y13114D01*
X54564Y13104D01*
D02*
G37*
G36*
X34342Y10380D02*
Y10000D01*
X34298D01*
Y9800D01*
X34342D01*
Y9665D01*
X34288D01*
Y9500D01*
X34288Y9484D01*
X34288Y9458D01*
Y9294D01*
X34342D01*
Y8835D01*
X34315Y8821D01*
X34290Y8801D01*
X34276Y8783D01*
X34251Y8792D01*
Y8823D01*
X34247Y8841D01*
X34237Y8856D01*
X34237Y8856D01*
X33953Y9140D01*
Y9294D01*
X34007D01*
Y9458D01*
X34007Y9475D01*
X34007Y9520D01*
X34032Y9525D01*
X34047Y9510D01*
X34047Y9484D01*
X34047Y9458D01*
Y9294D01*
X34069D01*
X34082Y9268D01*
X34081Y9268D01*
X34074Y9250D01*
X34071Y9230D01*
X34074Y9210D01*
X34081Y9192D01*
X34093Y9176D01*
X34109Y9164D01*
X34128Y9156D01*
X34147Y9154D01*
X34167Y9156D01*
X34185Y9164D01*
X34201Y9176D01*
X34213Y9192D01*
X34221Y9210D01*
X34223Y9230D01*
X34221Y9250D01*
X34213Y9268D01*
X34213Y9268D01*
X34225Y9294D01*
X34248D01*
Y9458D01*
X34248Y9475D01*
X34248Y9500D01*
Y9665D01*
X34047D01*
Y9621D01*
X34007D01*
Y9665D01*
X33953D01*
Y9782D01*
X33971Y9800D01*
X33997Y9800D01*
X34022Y9800D01*
X34084D01*
Y9900D01*
Y10000D01*
X34022D01*
X34006Y10000D01*
X33981Y10000D01*
X33957D01*
X33955Y10026D01*
X34153Y10225D01*
X34156Y10225D01*
X34179Y10215D01*
X34182Y10200D01*
X34196Y10180D01*
X34216Y10167D01*
X34227Y10164D01*
Y10224D01*
X34239D01*
Y10236D01*
X34298D01*
X34296Y10247D01*
X34283Y10267D01*
X34263Y10280D01*
X34248Y10283D01*
X34238Y10307D01*
X34238Y10309D01*
X34318Y10389D01*
X34342Y10380D01*
D02*
G37*
G36*
X35304Y10530D02*
Y10000D01*
X35260D01*
Y9800D01*
X35304D01*
Y9665D01*
X35250D01*
Y9500D01*
X35250Y9484D01*
X35250Y9458D01*
Y9294D01*
X35304D01*
Y9094D01*
X35223Y9012D01*
X35084D01*
X35084Y9012D01*
X35066Y9009D01*
X35051Y8999D01*
X35051Y8999D01*
X34880Y8828D01*
X34866Y8836D01*
X34836Y8845D01*
X34804Y8848D01*
X34773Y8845D01*
X34743Y8836D01*
X34715Y8821D01*
X34690Y8801D01*
X34676Y8783D01*
X34651Y8792D01*
Y8817D01*
X34902Y9068D01*
X34902Y9068D01*
X34912Y9083D01*
X34916Y9101D01*
X34916Y9101D01*
Y9294D01*
X34970D01*
Y9458D01*
X34970Y9475D01*
X34970Y9520D01*
X34995Y9525D01*
X35010Y9510D01*
X35010Y9484D01*
X35010Y9458D01*
Y9294D01*
X35032D01*
X35045Y9268D01*
X35044Y9268D01*
X35037Y9250D01*
X35034Y9230D01*
X35037Y9210D01*
X35044Y9192D01*
X35056Y9176D01*
X35072Y9164D01*
X35090Y9156D01*
X35110Y9154D01*
X35130Y9156D01*
X35148Y9164D01*
X35164Y9176D01*
X35176Y9192D01*
X35184Y9210D01*
X35186Y9230D01*
X35184Y9250D01*
X35176Y9268D01*
X35175Y9268D01*
X35188Y9294D01*
X35210D01*
Y9458D01*
X35210Y9475D01*
X35210Y9500D01*
Y9665D01*
X35010D01*
Y9621D01*
X34970D01*
Y9665D01*
X34916D01*
Y9782D01*
X34934Y9800D01*
X34960Y9800D01*
X34985Y9800D01*
X35047D01*
Y9900D01*
Y10000D01*
X34985D01*
X34969Y10000D01*
X34944Y10000D01*
X34916D01*
Y10174D01*
X35281Y10539D01*
X35304Y10530D01*
D02*
G37*
G36*
X35006Y10395D02*
X34837Y10226D01*
X34827Y10211D01*
X34823Y10193D01*
X34823Y10193D01*
Y10000D01*
X34779D01*
Y9800D01*
X34823D01*
Y9665D01*
X34769D01*
Y9500D01*
X34769Y9484D01*
X34769Y9458D01*
Y9294D01*
X34823D01*
Y9120D01*
X34572Y8869D01*
X34562Y8854D01*
X34558Y8836D01*
X34558Y8836D01*
Y8792D01*
X34533Y8783D01*
X34518Y8801D01*
X34494Y8821D01*
X34466Y8836D01*
X34436Y8845D01*
X34434Y8845D01*
Y9294D01*
X34488D01*
Y9458D01*
X34488Y9475D01*
X34488Y9520D01*
X34514Y9525D01*
X34528Y9510D01*
X34528Y9484D01*
X34528Y9458D01*
Y9294D01*
X34551D01*
X34563Y9268D01*
X34563Y9268D01*
X34555Y9250D01*
X34553Y9230D01*
X34555Y9210D01*
X34563Y9192D01*
X34575Y9176D01*
X34591Y9164D01*
X34609Y9156D01*
X34629Y9154D01*
X34648Y9156D01*
X34667Y9164D01*
X34682Y9176D01*
X34695Y9192D01*
X34702Y9210D01*
X34705Y9230D01*
X34702Y9250D01*
X34695Y9268D01*
X34694Y9268D01*
X34707Y9294D01*
X34729D01*
Y9458D01*
X34729Y9475D01*
X34729Y9500D01*
Y9665D01*
X34528D01*
Y9621D01*
X34488D01*
Y9665D01*
X34434D01*
Y9782D01*
X34452Y9800D01*
X34478Y9800D01*
X34504Y9800D01*
X34565D01*
Y9900D01*
Y10000D01*
X34504D01*
X34488Y10000D01*
X34462Y10000D01*
X34434D01*
Y10404D01*
X34449Y10419D01*
X34996D01*
X35006Y10395D01*
D02*
G37*
%LPC*%
G36*
X47941Y18600D02*
X47854D01*
Y18523D01*
X47941D01*
Y18600D01*
D02*
G37*
G36*
X47828D02*
X47740D01*
Y18523D01*
X47828D01*
Y18600D01*
D02*
G37*
G36*
X46438D02*
X46351D01*
Y18523D01*
X46438D01*
Y18600D01*
D02*
G37*
G36*
X46325D02*
X46238D01*
Y18523D01*
X46325D01*
Y18600D01*
D02*
G37*
G36*
X44936D02*
X44848D01*
Y18523D01*
X44936D01*
Y18600D01*
D02*
G37*
G36*
X44823D02*
X44735D01*
Y18523D01*
X44823D01*
Y18600D01*
D02*
G37*
G36*
X54331Y18090D02*
X54303Y18086D01*
X54277Y18075D01*
X54255Y18058D01*
X54239Y18036D01*
X54228Y18011D01*
X54224Y17983D01*
X54228Y17956D01*
X54239Y17930D01*
X54255Y17908D01*
X54277Y17891D01*
X54303Y17881D01*
X54331Y17877D01*
X54358Y17881D01*
X54384Y17891D01*
X54406Y17908D01*
X54423Y17930D01*
X54433Y17956D01*
X54437Y17983D01*
X54433Y18011D01*
X54423Y18036D01*
X54406Y18058D01*
X54384Y18075D01*
X54358Y18086D01*
X54331Y18090D01*
D02*
G37*
G36*
X54077D02*
X54049Y18086D01*
X54023Y18075D01*
X54001Y18058D01*
X53985Y18036D01*
X53974Y18011D01*
X53970Y17983D01*
X53974Y17956D01*
X53985Y17930D01*
X54001Y17908D01*
X54023Y17891D01*
X54049Y17881D01*
X54077Y17877D01*
X54104Y17881D01*
X54130Y17891D01*
X54152Y17908D01*
X54169Y17930D01*
X54179Y17956D01*
X54183Y17983D01*
X54179Y18011D01*
X54169Y18036D01*
X54152Y18058D01*
X54130Y18075D01*
X54104Y18086D01*
X54077Y18090D01*
D02*
G37*
G36*
X53823D02*
X53795Y18086D01*
X53769Y18075D01*
X53747Y18058D01*
X53731Y18036D01*
X53720Y18011D01*
X53716Y17983D01*
X53720Y17956D01*
X53731Y17930D01*
X53747Y17908D01*
X53769Y17891D01*
X53795Y17881D01*
X53823Y17877D01*
X53850Y17881D01*
X53876Y17891D01*
X53898Y17908D01*
X53915Y17930D01*
X53925Y17956D01*
X53929Y17983D01*
X53925Y18011D01*
X53915Y18036D01*
X53898Y18058D01*
X53876Y18075D01*
X53850Y18086D01*
X53823Y18090D01*
D02*
G37*
G36*
X53569D02*
X53541Y18086D01*
X53515Y18075D01*
X53493Y18058D01*
X53477Y18036D01*
X53466Y18011D01*
X53462Y17983D01*
X53466Y17956D01*
X53477Y17930D01*
X53493Y17908D01*
X53515Y17891D01*
X53541Y17881D01*
X53569Y17877D01*
X53596Y17881D01*
X53622Y17891D01*
X53644Y17908D01*
X53661Y17930D01*
X53671Y17956D01*
X53675Y17983D01*
X53671Y18011D01*
X53661Y18036D01*
X53644Y18058D01*
X53622Y18075D01*
X53596Y18086D01*
X53569Y18090D01*
D02*
G37*
G36*
X53315D02*
X53287Y18086D01*
X53261Y18075D01*
X53239Y18058D01*
X53223Y18036D01*
X53212Y18011D01*
X53208Y17983D01*
X53212Y17956D01*
X53223Y17930D01*
X53239Y17908D01*
X53261Y17891D01*
X53287Y17881D01*
X53315Y17877D01*
X53342Y17881D01*
X53368Y17891D01*
X53390Y17908D01*
X53407Y17930D01*
X53417Y17956D01*
X53421Y17983D01*
X53417Y18011D01*
X53407Y18036D01*
X53390Y18058D01*
X53368Y18075D01*
X53342Y18086D01*
X53315Y18090D01*
D02*
G37*
G36*
X47941Y18497D02*
X47740D01*
Y18436D01*
X47740Y18420D01*
X47740Y18394D01*
Y18230D01*
X47795D01*
Y17838D01*
X47751D01*
Y17657D01*
X47931D01*
Y17838D01*
X47887D01*
Y18230D01*
X47941D01*
Y18394D01*
X47941Y18410D01*
X47941Y18436D01*
Y18497D01*
D02*
G37*
G36*
X46438D02*
X46238D01*
Y18436D01*
X46238Y18420D01*
X46238Y18394D01*
Y18230D01*
X46292D01*
Y17838D01*
X46248D01*
Y17657D01*
X46428D01*
Y17838D01*
X46384D01*
Y18230D01*
X46438D01*
Y18394D01*
X46438Y18410D01*
X46438Y18436D01*
Y18497D01*
D02*
G37*
G36*
X44936D02*
X44735D01*
Y18436D01*
X44735Y18420D01*
X44735Y18394D01*
Y18230D01*
X44789D01*
Y17838D01*
X44745D01*
Y17657D01*
X44926D01*
Y17838D01*
X44882D01*
Y18230D01*
X44936D01*
Y18394D01*
X44936Y18410D01*
X44936Y18436D01*
Y18497D01*
D02*
G37*
G36*
X43423Y17838D02*
X43242D01*
Y17657D01*
X43423D01*
Y17838D01*
D02*
G37*
G36*
X57112Y18003D02*
Y17640D01*
X57475D01*
X57471Y17687D01*
X57457Y17744D01*
X57435Y17799D01*
X57404Y17849D01*
X57365Y17894D01*
X57321Y17932D01*
X57270Y17963D01*
X57216Y17986D01*
X57158Y18000D01*
X57112Y18003D01*
D02*
G37*
G36*
X57086D02*
X57040Y18000D01*
X56983Y17986D01*
X56928Y17963D01*
X56878Y17932D01*
X56833Y17894D01*
X56795Y17849D01*
X56764Y17799D01*
X56741Y17744D01*
X56727Y17687D01*
X56724Y17640D01*
X57086D01*
Y18003D01*
D02*
G37*
G36*
X34049D02*
Y17640D01*
X34412D01*
X34408Y17687D01*
X34394Y17744D01*
X34372Y17799D01*
X34341Y17849D01*
X34302Y17894D01*
X34257Y17932D01*
X34207Y17963D01*
X34152Y17986D01*
X34095Y18000D01*
X34049Y18003D01*
D02*
G37*
G36*
X34023D02*
X33977Y18000D01*
X33920Y17986D01*
X33865Y17963D01*
X33815Y17932D01*
X33770Y17894D01*
X33731Y17849D01*
X33700Y17799D01*
X33678Y17744D01*
X33664Y17687D01*
X33660Y17640D01*
X34023D01*
Y18003D01*
D02*
G37*
G36*
X54331Y17836D02*
X54303Y17832D01*
X54277Y17821D01*
X54255Y17804D01*
X54239Y17782D01*
X54228Y17757D01*
X54224Y17729D01*
X54228Y17702D01*
X54239Y17676D01*
X54255Y17654D01*
X54277Y17637D01*
X54303Y17627D01*
X54331Y17623D01*
X54358Y17627D01*
X54384Y17637D01*
X54406Y17654D01*
X54423Y17676D01*
X54433Y17702D01*
X54437Y17729D01*
X54433Y17757D01*
X54423Y17782D01*
X54406Y17804D01*
X54384Y17821D01*
X54358Y17832D01*
X54331Y17836D01*
D02*
G37*
G36*
Y17582D02*
X54303Y17578D01*
X54277Y17567D01*
X54255Y17550D01*
X54239Y17528D01*
X54228Y17503D01*
X54224Y17475D01*
X54228Y17448D01*
X54239Y17422D01*
X54255Y17400D01*
X54277Y17383D01*
X54303Y17373D01*
X54331Y17369D01*
X54358Y17373D01*
X54384Y17383D01*
X54406Y17400D01*
X54423Y17422D01*
X54433Y17448D01*
X54437Y17475D01*
X54433Y17503D01*
X54423Y17528D01*
X54406Y17550D01*
X54384Y17567D01*
X54358Y17578D01*
X54331Y17582D01*
D02*
G37*
G36*
X57475Y17615D02*
X57112D01*
Y17252D01*
X57158Y17256D01*
X57216Y17269D01*
X57270Y17292D01*
X57321Y17323D01*
X57365Y17361D01*
X57404Y17406D01*
X57435Y17457D01*
X57457Y17511D01*
X57471Y17569D01*
X57475Y17615D01*
D02*
G37*
G36*
X57086D02*
X56724D01*
X56727Y17569D01*
X56741Y17511D01*
X56764Y17457D01*
X56795Y17406D01*
X56833Y17361D01*
X56878Y17323D01*
X56928Y17292D01*
X56983Y17269D01*
X57040Y17256D01*
X57086Y17252D01*
Y17615D01*
D02*
G37*
G36*
X34412D02*
X34049D01*
Y17252D01*
X34095Y17256D01*
X34152Y17269D01*
X34207Y17292D01*
X34257Y17323D01*
X34302Y17361D01*
X34341Y17406D01*
X34372Y17457D01*
X34394Y17511D01*
X34408Y17569D01*
X34412Y17615D01*
D02*
G37*
G36*
X34023D02*
X33660D01*
X33664Y17569D01*
X33678Y17511D01*
X33700Y17457D01*
X33731Y17406D01*
X33770Y17361D01*
X33815Y17323D01*
X33865Y17292D01*
X33920Y17269D01*
X33977Y17256D01*
X34023Y17252D01*
Y17615D01*
D02*
G37*
G36*
X54331Y17328D02*
X54303Y17324D01*
X54277Y17313D01*
X54255Y17296D01*
X54239Y17274D01*
X54228Y17249D01*
X54224Y17221D01*
X54228Y17194D01*
X54239Y17168D01*
X54255Y17146D01*
X54277Y17129D01*
X54303Y17119D01*
X54331Y17115D01*
X54358Y17119D01*
X54384Y17129D01*
X54406Y17146D01*
X54423Y17168D01*
X54433Y17194D01*
X54437Y17221D01*
X54433Y17249D01*
X54423Y17274D01*
X54406Y17296D01*
X54384Y17313D01*
X54358Y17324D01*
X54331Y17328D01*
D02*
G37*
G36*
Y17074D02*
X54303Y17070D01*
X54277Y17059D01*
X54255Y17042D01*
X54239Y17020D01*
X54228Y16995D01*
X54224Y16967D01*
X54228Y16940D01*
X54239Y16914D01*
X54255Y16892D01*
X54277Y16875D01*
X54303Y16865D01*
X54331Y16861D01*
X54358Y16865D01*
X54384Y16875D01*
X54406Y16892D01*
X54423Y16914D01*
X54433Y16940D01*
X54437Y16967D01*
X54433Y16995D01*
X54423Y17020D01*
X54406Y17042D01*
X54384Y17059D01*
X54358Y17070D01*
X54331Y17074D01*
D02*
G37*
G36*
X40869Y16709D02*
Y16662D01*
X40915D01*
X40913Y16673D01*
X40899Y16693D01*
X40879Y16707D01*
X40869Y16709D01*
D02*
G37*
G36*
X40843D02*
X40832Y16707D01*
X40812Y16693D01*
X40799Y16673D01*
X40797Y16662D01*
X40843D01*
Y16709D01*
D02*
G37*
G36*
X40915Y16637D02*
X40869D01*
Y16591D01*
X40879Y16593D01*
X40899Y16606D01*
X40913Y16626D01*
X40915Y16637D01*
D02*
G37*
G36*
X40843D02*
X40797D01*
X40799Y16626D01*
X40812Y16606D01*
X40832Y16593D01*
X40843Y16591D01*
Y16637D01*
D02*
G37*
G36*
X40183Y16594D02*
Y16548D01*
X40229D01*
X40227Y16559D01*
X40214Y16579D01*
X40194Y16592D01*
X40183Y16594D01*
D02*
G37*
G36*
X40157D02*
X40147Y16592D01*
X40127Y16579D01*
X40113Y16559D01*
X40111Y16548D01*
X40157D01*
Y16594D01*
D02*
G37*
G36*
X40665Y16556D02*
Y16510D01*
X40711D01*
X40709Y16521D01*
X40696Y16541D01*
X40676Y16554D01*
X40665Y16556D01*
D02*
G37*
G36*
X40639D02*
X40628Y16554D01*
X40608Y16541D01*
X40595Y16521D01*
X40593Y16510D01*
X40639D01*
Y16556D01*
D02*
G37*
G36*
X40229Y16523D02*
X40183D01*
Y16476D01*
X40194Y16479D01*
X40214Y16492D01*
X40227Y16512D01*
X40229Y16523D01*
D02*
G37*
G36*
X40157D02*
X40111D01*
X40113Y16512D01*
X40127Y16492D01*
X40147Y16479D01*
X40157Y16476D01*
Y16523D01*
D02*
G37*
G36*
X40711Y16485D02*
X40665D01*
Y16438D01*
X40676Y16440D01*
X40696Y16454D01*
X40709Y16474D01*
X40711Y16485D01*
D02*
G37*
G36*
X40639D02*
X40593D01*
X40595Y16474D01*
X40608Y16454D01*
X40628Y16440D01*
X40639Y16438D01*
Y16485D01*
D02*
G37*
G36*
X40958Y16150D02*
Y16104D01*
X41004D01*
X41002Y16114D01*
X40988Y16134D01*
X40968Y16148D01*
X40958Y16150D01*
D02*
G37*
G36*
X40932D02*
X40921Y16148D01*
X40901Y16134D01*
X40888Y16114D01*
X40886Y16104D01*
X40932D01*
Y16150D01*
D02*
G37*
G36*
X43853Y16076D02*
X43830Y16072D01*
X43814Y16061D01*
X42445D01*
X42429Y16072D01*
X42405Y16076D01*
X42382Y16072D01*
X42362Y16058D01*
X42348Y16038D01*
X42344Y16015D01*
X42348Y15991D01*
X42362Y15971D01*
X42382Y15958D01*
X42405Y15953D01*
X42429Y15958D01*
X42445Y15968D01*
X42968D01*
X42982Y15943D01*
X42979Y15926D01*
X42983Y15902D01*
X42997Y15882D01*
X43017Y15869D01*
X43040Y15864D01*
X43064Y15869D01*
X43080Y15880D01*
X44499D01*
X44515Y15869D01*
X44539Y15864D01*
X44562Y15869D01*
X44582Y15882D01*
X44596Y15902D01*
X44600Y15926D01*
X44596Y15949D01*
X44582Y15969D01*
X44562Y15983D01*
X44539Y15987D01*
X44515Y15983D01*
X44499Y15972D01*
X43925D01*
X43911Y15997D01*
X43915Y16015D01*
X43910Y16038D01*
X43897Y16058D01*
X43877Y16072D01*
X43853Y16076D01*
D02*
G37*
G36*
X41745Y16192D02*
X41725Y16190D01*
X41707Y16182D01*
X41691Y16170D01*
X41679Y16154D01*
X41671Y16136D01*
X41669Y16116D01*
X41671Y16097D01*
X41679Y16078D01*
X41691Y16063D01*
X41707Y16050D01*
X41725Y16043D01*
X41745Y16040D01*
X41765Y16043D01*
X41783Y16050D01*
X41799Y16063D01*
X41811Y16078D01*
X41818Y16097D01*
X41821Y16116D01*
X41818Y16136D01*
X41811Y16154D01*
X41799Y16170D01*
X41783Y16182D01*
X41765Y16190D01*
X41745Y16192D01*
D02*
G37*
G36*
X41004Y16078D02*
X40958D01*
Y16032D01*
X40968Y16034D01*
X40988Y16047D01*
X41002Y16067D01*
X41004Y16078D01*
D02*
G37*
G36*
X40932D02*
X40886D01*
X40888Y16067D01*
X40901Y16047D01*
X40921Y16034D01*
X40932Y16032D01*
Y16078D01*
D02*
G37*
G36*
X43523Y15759D02*
X43499Y15754D01*
X43479Y15741D01*
X43466Y15721D01*
X43461Y15697D01*
X43466Y15674D01*
X43479Y15654D01*
X43499Y15640D01*
X43523Y15636D01*
X43546Y15640D01*
X43566Y15654D01*
X43580Y15674D01*
X43584Y15697D01*
X43580Y15721D01*
X43566Y15741D01*
X43546Y15754D01*
X43523Y15759D01*
D02*
G37*
G36*
X32700Y16117D02*
X32657Y16113D01*
X32615Y16103D01*
X32575Y16087D01*
X32538Y16064D01*
X32505Y16036D01*
X32477Y16003D01*
X32454Y15966D01*
X32438Y15926D01*
X32427Y15884D01*
X32424Y15841D01*
X32427Y15797D01*
X32438Y15755D01*
X32454Y15715D01*
X32477Y15678D01*
X32505Y15645D01*
X32538Y15617D01*
X32575Y15594D01*
X32615Y15578D01*
X32657Y15568D01*
X32700Y15564D01*
X32744Y15568D01*
X32786Y15578D01*
X32826Y15594D01*
X32863Y15617D01*
X32896Y15645D01*
X32924Y15678D01*
X32946Y15715D01*
X32963Y15755D01*
X32973Y15797D01*
X32977Y15841D01*
X32973Y15884D01*
X32963Y15926D01*
X32946Y15966D01*
X32924Y16003D01*
X32896Y16036D01*
X32863Y16064D01*
X32826Y16087D01*
X32786Y16103D01*
X32744Y16113D01*
X32700Y16117D01*
D02*
G37*
G36*
X42431Y15566D02*
Y15519D01*
X42477D01*
X42475Y15530D01*
X42462Y15550D01*
X42442Y15564D01*
X42431Y15566D01*
D02*
G37*
G36*
X42405D02*
X42394Y15564D01*
X42374Y15550D01*
X42361Y15530D01*
X42359Y15519D01*
X42405D01*
Y15566D01*
D02*
G37*
G36*
X42477Y15494D02*
X42431D01*
Y15448D01*
X42442Y15450D01*
X42462Y15463D01*
X42475Y15483D01*
X42477Y15494D01*
D02*
G37*
G36*
X42405D02*
X42359D01*
X42361Y15483D01*
X42374Y15463D01*
X42394Y15450D01*
X42405Y15448D01*
Y15494D01*
D02*
G37*
G36*
X41707Y15388D02*
Y15342D01*
X41753D01*
X41751Y15352D01*
X41738Y15372D01*
X41718Y15386D01*
X41707Y15388D01*
D02*
G37*
G36*
X41681D02*
X41671Y15386D01*
X41651Y15372D01*
X41637Y15352D01*
X41635Y15342D01*
X41681D01*
Y15388D01*
D02*
G37*
G36*
X41753Y15316D02*
X41635D01*
X41637Y15305D01*
X41640Y15301D01*
X41629Y15279D01*
X41604Y15275D01*
X41591Y15284D01*
X41567Y15289D01*
X41544Y15284D01*
X41524Y15271D01*
X41510Y15251D01*
X41506Y15227D01*
X41510Y15204D01*
X41524Y15184D01*
X41544Y15170D01*
X41567Y15166D01*
X41591Y15170D01*
X41607Y15181D01*
X42645D01*
X42661Y15170D01*
X42685Y15166D01*
X42708Y15170D01*
X42724Y15181D01*
X43033D01*
X43049Y15170D01*
X43072Y15166D01*
X43096Y15170D01*
X43112Y15181D01*
X43158D01*
X43173Y15156D01*
X43172Y15151D01*
X43290D01*
X43289Y15156D01*
X43303Y15181D01*
X44018D01*
X44034Y15170D01*
X44057Y15166D01*
X44081Y15170D01*
X44101Y15184D01*
X44114Y15204D01*
X44119Y15227D01*
X44114Y15251D01*
X44101Y15271D01*
X44081Y15284D01*
X44057Y15289D01*
X44034Y15284D01*
X44018Y15274D01*
X43112D01*
X43096Y15284D01*
X43072Y15289D01*
X43049Y15284D01*
X43033Y15274D01*
X42724D01*
X42708Y15284D01*
X42685Y15289D01*
X42661Y15284D01*
X42645Y15274D01*
X41760D01*
X41747Y15299D01*
X41751Y15305D01*
X41753Y15316D01*
D02*
G37*
G36*
X45796Y15274D02*
Y15227D01*
X45843D01*
X45840Y15238D01*
X45827Y15258D01*
X45807Y15271D01*
X45796Y15274D01*
D02*
G37*
G36*
X45771D02*
X45760Y15271D01*
X45740Y15258D01*
X45727Y15238D01*
X45724Y15227D01*
X45771D01*
Y15274D01*
D02*
G37*
G36*
X45843Y15202D02*
X45796D01*
Y15156D01*
X45807Y15158D01*
X45827Y15171D01*
X45840Y15191D01*
X45843Y15202D01*
D02*
G37*
G36*
X45771D02*
X45724D01*
X45727Y15191D01*
X45740Y15171D01*
X45760Y15158D01*
X45771Y15156D01*
Y15202D01*
D02*
G37*
G36*
X43290Y15126D02*
X43243D01*
Y15079D01*
X43254Y15082D01*
X43274Y15095D01*
X43288Y15115D01*
X43290Y15126D01*
D02*
G37*
G36*
X43218D02*
X43172D01*
X43174Y15115D01*
X43187Y15095D01*
X43207Y15082D01*
X43218Y15079D01*
Y15126D01*
D02*
G37*
G36*
X45796Y14943D02*
Y14897D01*
X45843D01*
X45840Y14908D01*
X45827Y14928D01*
X45807Y14941D01*
X45796Y14943D01*
D02*
G37*
G36*
X45771D02*
X45760Y14941D01*
X45740Y14928D01*
X45727Y14908D01*
X45724Y14897D01*
X45771D01*
Y14943D01*
D02*
G37*
G36*
X43243Y14997D02*
X43220Y14992D01*
X43200Y14979D01*
X43187Y14959D01*
X43182Y14935D01*
X43187Y14912D01*
X43200Y14892D01*
X43220Y14878D01*
X43243Y14874D01*
X43267Y14878D01*
X43287Y14892D01*
X43300Y14912D01*
X43305Y14935D01*
X43300Y14959D01*
X43287Y14979D01*
X43267Y14992D01*
X43243Y14997D01*
D02*
G37*
G36*
X45843Y14872D02*
X45796D01*
Y14825D01*
X45807Y14828D01*
X45827Y14841D01*
X45840Y14861D01*
X45843Y14872D01*
D02*
G37*
G36*
X45771D02*
X45724D01*
X45727Y14861D01*
X45740Y14841D01*
X45760Y14828D01*
X45771Y14825D01*
Y14872D01*
D02*
G37*
G36*
X32700Y15237D02*
X32657Y15233D01*
X32615Y15223D01*
X32575Y15207D01*
X32538Y15184D01*
X32505Y15156D01*
X32477Y15123D01*
X32454Y15086D01*
X32438Y15046D01*
X32427Y15004D01*
X32424Y14961D01*
X32427Y14917D01*
X32438Y14875D01*
X32454Y14835D01*
X32477Y14798D01*
X32505Y14765D01*
X32538Y14737D01*
X32575Y14714D01*
X32615Y14698D01*
X32657Y14688D01*
X32700Y14684D01*
X32744Y14688D01*
X32786Y14698D01*
X32826Y14714D01*
X32863Y14737D01*
X32896Y14765D01*
X32924Y14798D01*
X32946Y14835D01*
X32963Y14875D01*
X32973Y14917D01*
X32977Y14961D01*
X32973Y15004D01*
X32963Y15046D01*
X32946Y15086D01*
X32924Y15123D01*
X32896Y15156D01*
X32863Y15184D01*
X32826Y15207D01*
X32786Y15223D01*
X32744Y15233D01*
X32700Y15237D01*
D02*
G37*
G36*
X42240Y14728D02*
Y14681D01*
X42287D01*
X42284Y14692D01*
X42271Y14712D01*
X42251Y14725D01*
X42240Y14728D01*
D02*
G37*
G36*
X42215D02*
X42204Y14725D01*
X42184Y14712D01*
X42171Y14692D01*
X42168Y14681D01*
X42215D01*
Y14728D01*
D02*
G37*
G36*
X42287Y14656D02*
X42240D01*
Y14609D01*
X42251Y14612D01*
X42271Y14625D01*
X42284Y14645D01*
X42287Y14656D01*
D02*
G37*
G36*
X42215D02*
X42168D01*
X42171Y14645D01*
X42184Y14625D01*
X42204Y14612D01*
X42215Y14609D01*
Y14656D01*
D02*
G37*
G36*
X38392Y14334D02*
Y14288D01*
X38438D01*
X38436Y14298D01*
X38423Y14318D01*
X38403Y14332D01*
X38392Y14334D01*
D02*
G37*
G36*
X38367D02*
X38356Y14332D01*
X38336Y14318D01*
X38323Y14298D01*
X38320Y14288D01*
X38367D01*
Y14334D01*
D02*
G37*
G36*
X38438Y14262D02*
X38392D01*
Y14216D01*
X38403Y14218D01*
X38423Y14231D01*
X38436Y14251D01*
X38438Y14262D01*
D02*
G37*
G36*
X38367D02*
X38320D01*
X38323Y14251D01*
X38336Y14231D01*
X38356Y14218D01*
X38367Y14216D01*
Y14262D01*
D02*
G37*
G36*
X34150Y16117D02*
X34107Y16113D01*
X34065Y16103D01*
X34025Y16087D01*
X33988Y16064D01*
X33955Y16036D01*
X33927Y16003D01*
X33904Y15966D01*
X33888Y15926D01*
X33877Y15884D01*
X33874Y15841D01*
X33877Y15797D01*
X33888Y15755D01*
X33904Y15715D01*
X33927Y15678D01*
X33955Y15645D01*
X33988Y15617D01*
X34025Y15594D01*
X34065Y15578D01*
X34107Y15568D01*
X34150Y15564D01*
X34194Y15568D01*
X34236Y15578D01*
X34276Y15594D01*
X34313Y15617D01*
X34346Y15645D01*
X34374Y15678D01*
X34396Y15715D01*
X34413Y15755D01*
X34415Y15765D01*
X38255D01*
X40082Y13938D01*
X40069Y13915D01*
X40043Y13919D01*
X40026Y13916D01*
X38928Y15014D01*
X38913Y15026D01*
X38894Y15034D01*
X38875Y15037D01*
X34415D01*
X34413Y15046D01*
X34396Y15086D01*
X34374Y15123D01*
X34346Y15156D01*
X34313Y15184D01*
X34276Y15207D01*
X34236Y15223D01*
X34194Y15233D01*
X34150Y15237D01*
X34107Y15233D01*
X34065Y15223D01*
X34025Y15207D01*
X33988Y15184D01*
X33955Y15156D01*
X33927Y15123D01*
X33904Y15086D01*
X33888Y15046D01*
X33877Y15004D01*
X33874Y14961D01*
X33877Y14917D01*
X33888Y14875D01*
X33904Y14835D01*
X33927Y14798D01*
X33955Y14765D01*
X33988Y14737D01*
X34025Y14714D01*
X34065Y14698D01*
X34107Y14688D01*
X34150Y14684D01*
X34194Y14688D01*
X34236Y14698D01*
X34276Y14714D01*
X34313Y14737D01*
X34346Y14765D01*
X34374Y14798D01*
X34396Y14835D01*
X34413Y14875D01*
X34415Y14885D01*
X38843D01*
X39919Y13809D01*
X39917Y13792D01*
X39921Y13759D01*
X39934Y13729D01*
X39954Y13703D01*
X39980Y13683D01*
X40010Y13670D01*
X40043Y13666D01*
X40076Y13670D01*
X40106Y13683D01*
X40133Y13703D01*
X40153Y13729D01*
X40165Y13759D01*
X40170Y13792D01*
X40166Y13818D01*
X40189Y13831D01*
X40211Y13809D01*
X40209Y13792D01*
X40213Y13759D01*
X40226Y13729D01*
X40246Y13703D01*
X40272Y13683D01*
X40302Y13670D01*
X40335Y13666D01*
X40368Y13670D01*
X40398Y13683D01*
X40425Y13703D01*
X40445Y13729D01*
X40457Y13759D01*
X40462Y13792D01*
X40457Y13825D01*
X40445Y13855D01*
X40425Y13882D01*
X40398Y13902D01*
X40368Y13914D01*
X40335Y13919D01*
X40318Y13916D01*
X38341Y15894D01*
X38325Y15906D01*
X38306Y15914D01*
X38287Y15917D01*
X34415D01*
X34413Y15926D01*
X34396Y15966D01*
X34374Y16003D01*
X34346Y16036D01*
X34313Y16064D01*
X34276Y16087D01*
X34236Y16103D01*
X34194Y16113D01*
X34150Y16117D01*
D02*
G37*
G36*
X37338Y13788D02*
Y13741D01*
X37384D01*
X37382Y13752D01*
X37369Y13772D01*
X37349Y13786D01*
X37338Y13788D01*
D02*
G37*
G36*
X37313D02*
X37302Y13786D01*
X37282Y13772D01*
X37268Y13752D01*
X37266Y13741D01*
X37313D01*
Y13788D01*
D02*
G37*
G36*
X37384Y13716D02*
X37338D01*
Y13670D01*
X37349Y13672D01*
X37369Y13685D01*
X37382Y13705D01*
X37384Y13716D01*
D02*
G37*
G36*
X37313D02*
X37266D01*
X37268Y13705D01*
X37282Y13685D01*
X37302Y13672D01*
X37313Y13670D01*
Y13716D01*
D02*
G37*
G36*
X30404Y13534D02*
Y13487D01*
X30450D01*
X30448Y13498D01*
X30435Y13518D01*
X30415Y13532D01*
X30404Y13534D01*
D02*
G37*
G36*
X30378D02*
X30368Y13532D01*
X30348Y13518D01*
X30334Y13498D01*
X30332Y13487D01*
X30378D01*
Y13534D01*
D02*
G37*
G36*
X30450Y13462D02*
X30404D01*
Y13416D01*
X30415Y13418D01*
X30435Y13431D01*
X30448Y13451D01*
X30450Y13462D01*
D02*
G37*
G36*
X30378D02*
X30332D01*
X30334Y13451D01*
X30348Y13431D01*
X30368Y13418D01*
X30378Y13416D01*
Y13462D01*
D02*
G37*
G36*
X35338Y12806D02*
X35310Y12803D01*
X35285Y12792D01*
X35263Y12775D01*
X35246Y12753D01*
X35235Y12728D01*
X35231Y12700D01*
X35235Y12672D01*
X35246Y12647D01*
X35263Y12625D01*
X35285Y12608D01*
X35310Y12597D01*
X35338Y12594D01*
X35365Y12597D01*
X35391Y12608D01*
X35413Y12625D01*
X35430Y12647D01*
X35440Y12672D01*
X35444Y12700D01*
X35440Y12728D01*
X35430Y12753D01*
X35413Y12775D01*
X35391Y12792D01*
X35365Y12803D01*
X35338Y12806D01*
D02*
G37*
G36*
X35443Y12297D02*
X35232D01*
Y12087D01*
X35443D01*
Y12297D01*
D02*
G37*
G36*
X33312Y12242D02*
X33279Y12238D01*
X33249Y12225D01*
X33223Y12205D01*
X33203Y12179D01*
X33190Y12149D01*
X33186Y12116D01*
X33190Y12083D01*
X33203Y12053D01*
X33223Y12026D01*
X33249Y12006D01*
X33279Y11994D01*
X33312Y11989D01*
X33345Y11994D01*
X33375Y12006D01*
X33402Y12026D01*
X33422Y12053D01*
X33434Y12083D01*
X33439Y12116D01*
X33434Y12149D01*
X33422Y12179D01*
X33402Y12205D01*
X33375Y12225D01*
X33345Y12238D01*
X33312Y12242D01*
D02*
G37*
G36*
X29297Y12357D02*
X29172D01*
X29047D01*
X29050Y12337D01*
X29062Y12307D01*
X29082Y12280D01*
X29109Y12260D01*
X29118Y12257D01*
Y12229D01*
X29109Y12225D01*
X29082Y12205D01*
X29062Y12179D01*
X29050Y12149D01*
X29045Y12116D01*
X29050Y12083D01*
X29062Y12053D01*
X29082Y12026D01*
X29109Y12006D01*
X29139Y11994D01*
X29172Y11989D01*
X29205Y11994D01*
X29235Y12006D01*
X29261Y12026D01*
X29272Y12040D01*
X31115D01*
X31126Y12026D01*
X31152Y12006D01*
X31182Y11994D01*
X31215Y11989D01*
X31248Y11994D01*
X31278Y12006D01*
X31304Y12026D01*
X31325Y12053D01*
X31337Y12083D01*
X31341Y12116D01*
X31337Y12149D01*
X31325Y12179D01*
X31304Y12205D01*
X31278Y12225D01*
X31248Y12238D01*
X31215Y12242D01*
X31182Y12238D01*
X31152Y12225D01*
X31126Y12205D01*
X31115Y12192D01*
X29272D01*
X29261Y12205D01*
X29235Y12225D01*
X29226Y12229D01*
Y12257D01*
X29235Y12260D01*
X29261Y12280D01*
X29281Y12307D01*
X29294Y12337D01*
X29297Y12357D01*
D02*
G37*
G36*
X55893Y11718D02*
Y11671D01*
X55939D01*
X55937Y11682D01*
X55924Y11702D01*
X55904Y11715D01*
X55893Y11718D01*
D02*
G37*
G36*
X55867D02*
X55856Y11715D01*
X55836Y11702D01*
X55823Y11682D01*
X55821Y11671D01*
X55867D01*
Y11718D01*
D02*
G37*
G36*
X55939Y11646D02*
X55893D01*
Y11600D01*
X55904Y11602D01*
X55924Y11615D01*
X55937Y11635D01*
X55939Y11646D01*
D02*
G37*
G36*
X55867D02*
X55821D01*
X55823Y11635D01*
X55836Y11615D01*
X55856Y11602D01*
X55867Y11600D01*
Y11646D01*
D02*
G37*
G36*
X65392Y10917D02*
Y10554D01*
X65755D01*
X65752Y10600D01*
X65738Y10657D01*
X65715Y10712D01*
X65684Y10762D01*
X65646Y10807D01*
X65601Y10846D01*
X65551Y10877D01*
X65496Y10899D01*
X65439Y10913D01*
X65392Y10917D01*
D02*
G37*
G36*
X65367D02*
X65321Y10913D01*
X65263Y10899D01*
X65209Y10877D01*
X65158Y10846D01*
X65113Y10807D01*
X65075Y10762D01*
X65044Y10712D01*
X65021Y10657D01*
X65008Y10600D01*
X65004Y10554D01*
X65367D01*
Y10917D01*
D02*
G37*
G36*
X27343D02*
Y10554D01*
X27706D01*
X27702Y10600D01*
X27689Y10657D01*
X27666Y10712D01*
X27635Y10762D01*
X27597Y10807D01*
X27552Y10846D01*
X27501Y10877D01*
X27447Y10899D01*
X27389Y10913D01*
X27343Y10917D01*
D02*
G37*
G36*
X27318D02*
X27271Y10913D01*
X27214Y10899D01*
X27159Y10877D01*
X27109Y10846D01*
X27064Y10807D01*
X27026Y10762D01*
X26995Y10712D01*
X26972Y10657D01*
X26958Y10600D01*
X26955Y10554D01*
X27318D01*
Y10917D01*
D02*
G37*
G36*
X65755Y10528D02*
X65392D01*
Y10165D01*
X65439Y10169D01*
X65496Y10183D01*
X65551Y10205D01*
X65601Y10236D01*
X65646Y10275D01*
X65684Y10320D01*
X65715Y10370D01*
X65738Y10425D01*
X65752Y10482D01*
X65755Y10528D01*
D02*
G37*
G36*
X65367D02*
X65004D01*
X65008Y10482D01*
X65021Y10425D01*
X65044Y10370D01*
X65075Y10320D01*
X65113Y10275D01*
X65158Y10236D01*
X65209Y10205D01*
X65263Y10183D01*
X65321Y10169D01*
X65367Y10165D01*
Y10528D01*
D02*
G37*
G36*
X27706D02*
X27343D01*
Y10165D01*
X27389Y10169D01*
X27447Y10183D01*
X27501Y10205D01*
X27552Y10236D01*
X27597Y10275D01*
X27635Y10320D01*
X27666Y10370D01*
X27689Y10425D01*
X27702Y10482D01*
X27706Y10528D01*
D02*
G37*
G36*
X27318D02*
X26955D01*
X26958Y10482D01*
X26972Y10425D01*
X26995Y10370D01*
X27026Y10320D01*
X27064Y10275D01*
X27109Y10236D01*
X27159Y10205D01*
X27214Y10183D01*
X27271Y10169D01*
X27318Y10165D01*
Y10528D01*
D02*
G37*
G36*
X63843Y9902D02*
Y9855D01*
X63889D01*
X63887Y9866D01*
X63874Y9886D01*
X63854Y9899D01*
X63843Y9902D01*
D02*
G37*
G36*
X63817D02*
X63807Y9899D01*
X63787Y9886D01*
X63773Y9866D01*
X63771Y9855D01*
X63817D01*
Y9902D01*
D02*
G37*
G36*
X59677Y9851D02*
Y9804D01*
X59724D01*
X59721Y9815D01*
X59708Y9835D01*
X59688Y9849D01*
X59677Y9851D01*
D02*
G37*
G36*
X59652D02*
X59641Y9849D01*
X59621Y9835D01*
X59608Y9815D01*
X59606Y9804D01*
X59652D01*
Y9851D01*
D02*
G37*
G36*
X63889Y9830D02*
X63843D01*
Y9783D01*
X63854Y9786D01*
X63874Y9799D01*
X63887Y9819D01*
X63889Y9830D01*
D02*
G37*
G36*
X63817D02*
X63771D01*
X63773Y9819D01*
X63787Y9799D01*
X63807Y9786D01*
X63817Y9783D01*
Y9830D01*
D02*
G37*
G36*
X59724Y9779D02*
X59677D01*
Y9733D01*
X59688Y9735D01*
X59708Y9748D01*
X59721Y9768D01*
X59724Y9779D01*
D02*
G37*
G36*
X59652D02*
X59606D01*
X59608Y9768D01*
X59621Y9748D01*
X59641Y9735D01*
X59652Y9733D01*
Y9779D01*
D02*
G37*
G36*
X54992Y9396D02*
X54972Y9393D01*
X54941Y9381D01*
X54915Y9360D01*
X54895Y9334D01*
X54893Y9330D01*
X54866D01*
X54864Y9334D01*
X54844Y9360D01*
X54818Y9381D01*
X54787Y9393D01*
X54767Y9396D01*
Y9271D01*
Y9146D01*
X54787Y9149D01*
X54818Y9161D01*
X54844Y9182D01*
X54864Y9208D01*
X54866Y9212D01*
X54893D01*
X54895Y9208D01*
X54915Y9182D01*
X54941Y9161D01*
X54972Y9149D01*
X54992Y9146D01*
Y9271D01*
Y9396D01*
D02*
G37*
G36*
X55017D02*
Y9284D01*
X55129D01*
X55127Y9304D01*
X55114Y9334D01*
X55094Y9360D01*
X55068Y9381D01*
X55037Y9393D01*
X55017Y9396D01*
D02*
G37*
G36*
X60261Y9644D02*
X60217Y9639D01*
X60175Y9626D01*
X60136Y9605D01*
X60101Y9577D01*
X60073Y9543D01*
X60052Y9504D01*
X60039Y9461D01*
X60035Y9417D01*
X60039Y9373D01*
X60052Y9330D01*
X60073Y9291D01*
X60101Y9257D01*
X60136Y9229D01*
X60175Y9208D01*
X60217Y9195D01*
X60261Y9191D01*
X60306Y9195D01*
X60348Y9208D01*
X60387Y9229D01*
X60422Y9257D01*
X60450Y9291D01*
X60471Y9330D01*
X60484Y9373D01*
X60488Y9417D01*
X60484Y9461D01*
X60471Y9504D01*
X60450Y9543D01*
X60422Y9577D01*
X60387Y9605D01*
X60348Y9626D01*
X60306Y9639D01*
X60261Y9644D01*
D02*
G37*
G36*
X64282Y9618D02*
X64238Y9614D01*
X64195Y9601D01*
X64156Y9580D01*
X64122Y9552D01*
X64094Y9518D01*
X64073Y9478D01*
X64060Y9436D01*
X64055Y9392D01*
X64060Y9348D01*
X64073Y9305D01*
X64094Y9266D01*
X64122Y9232D01*
X64156Y9203D01*
X64195Y9182D01*
X64238Y9170D01*
X64282Y9165D01*
X64326Y9170D01*
X64369Y9182D01*
X64408Y9203D01*
X64442Y9232D01*
X64470Y9266D01*
X64491Y9305D01*
X64504Y9348D01*
X64508Y9392D01*
X64504Y9436D01*
X64491Y9478D01*
X64470Y9518D01*
X64442Y9552D01*
X64408Y9580D01*
X64369Y9601D01*
X64326Y9614D01*
X64282Y9618D01*
D02*
G37*
G36*
X56281Y9613D02*
X56237Y9608D01*
X56194Y9595D01*
X56155Y9575D01*
X56121Y9546D01*
X56093Y9512D01*
X56072Y9473D01*
X56059Y9430D01*
X56054Y9386D01*
X56059Y9342D01*
X56072Y9300D01*
X56093Y9260D01*
X56121Y9226D01*
X56155Y9198D01*
X56194Y9177D01*
X56237Y9164D01*
X56281Y9160D01*
X56325Y9164D01*
X56368Y9177D01*
X56407Y9198D01*
X56441Y9226D01*
X56469Y9260D01*
X56490Y9300D01*
X56503Y9342D01*
X56507Y9386D01*
X56503Y9430D01*
X56490Y9473D01*
X56469Y9512D01*
X56441Y9546D01*
X56407Y9575D01*
X56368Y9595D01*
X56325Y9608D01*
X56281Y9613D01*
D02*
G37*
G36*
X55129Y9258D02*
X55017D01*
Y9146D01*
X55037Y9149D01*
X55068Y9161D01*
X55094Y9182D01*
X55114Y9208D01*
X55127Y9238D01*
X55129Y9258D01*
D02*
G37*
G36*
X25997Y9421D02*
X25948Y9416D01*
X25901Y9402D01*
X25857Y9379D01*
X25819Y9347D01*
X25788Y9309D01*
X25764Y9266D01*
X25750Y9218D01*
X25745Y9169D01*
X25750Y9120D01*
X25764Y9073D01*
X25788Y9030D01*
X25819Y8991D01*
X25857Y8960D01*
X25901Y8937D01*
X25948Y8923D01*
X25952Y8922D01*
Y8897D01*
X25948Y8896D01*
X25901Y8882D01*
X25857Y8859D01*
X25819Y8827D01*
X25788Y8789D01*
X25764Y8746D01*
X25750Y8698D01*
X25747Y8662D01*
X25997D01*
X26247D01*
X26244Y8698D01*
X26229Y8746D01*
X26206Y8789D01*
X26175Y8827D01*
X26137Y8859D01*
X26093Y8882D01*
X26046Y8896D01*
X26041Y8897D01*
Y8922D01*
X26046Y8923D01*
X26093Y8937D01*
X26137Y8960D01*
X26175Y8991D01*
X26206Y9030D01*
X26229Y9073D01*
X26244Y9120D01*
X26249Y9169D01*
X26244Y9218D01*
X26229Y9266D01*
X26206Y9309D01*
X26175Y9347D01*
X26137Y9379D01*
X26093Y9402D01*
X26046Y9416D01*
X25997Y9421D01*
D02*
G37*
G36*
X60711Y9224D02*
X60667Y9219D01*
X60625Y9206D01*
X60586Y9185D01*
X60551Y9157D01*
X60523Y9123D01*
X60502Y9084D01*
X60489Y9041D01*
X60485Y8997D01*
X60489Y8953D01*
X60502Y8910D01*
X60523Y8871D01*
X60551Y8837D01*
X60586Y8809D01*
X60625Y8788D01*
X60633Y8785D01*
Y8759D01*
X60625Y8756D01*
X60586Y8735D01*
X60551Y8707D01*
X60523Y8673D01*
X60502Y8634D01*
X60500Y8626D01*
X60473D01*
X60471Y8634D01*
X60450Y8673D01*
X60422Y8707D01*
X60387Y8735D01*
X60348Y8756D01*
X60306Y8769D01*
X60261Y8774D01*
X60217Y8769D01*
X60175Y8756D01*
X60136Y8735D01*
X60101Y8707D01*
X60073Y8673D01*
X60052Y8634D01*
X60039Y8591D01*
X60035Y8547D01*
X60039Y8503D01*
X60052Y8460D01*
X60073Y8421D01*
X60101Y8387D01*
X60136Y8359D01*
X60175Y8338D01*
X60217Y8325D01*
X60261Y8321D01*
X60306Y8325D01*
X60348Y8338D01*
X60387Y8359D01*
X60422Y8387D01*
X60450Y8421D01*
X60471Y8460D01*
X60473Y8469D01*
X60500D01*
X60502Y8460D01*
X60523Y8421D01*
X60551Y8387D01*
X60586Y8359D01*
X60625Y8338D01*
X60667Y8325D01*
X60699Y8322D01*
Y8547D01*
X60711D01*
Y8560D01*
X60937D01*
X60934Y8591D01*
X60921Y8634D01*
X60900Y8673D01*
X60872Y8707D01*
X60837Y8735D01*
X60798Y8756D01*
X60790Y8759D01*
Y8785D01*
X60798Y8788D01*
X60837Y8809D01*
X60872Y8837D01*
X60900Y8871D01*
X60921Y8910D01*
X60934Y8953D01*
X60938Y8997D01*
X60934Y9041D01*
X60921Y9084D01*
X60900Y9123D01*
X60872Y9157D01*
X60837Y9185D01*
X60798Y9206D01*
X60756Y9219D01*
X60711Y9224D01*
D02*
G37*
G36*
X64732Y9198D02*
X64688Y9194D01*
X64645Y9181D01*
X64606Y9160D01*
X64572Y9132D01*
X64544Y9098D01*
X64523Y9058D01*
X64510Y9016D01*
X64505Y8972D01*
X64510Y8928D01*
X64523Y8885D01*
X64544Y8846D01*
X64572Y8812D01*
X64606Y8783D01*
X64645Y8762D01*
X64653Y8760D01*
Y8733D01*
X64645Y8731D01*
X64606Y8710D01*
X64572Y8682D01*
X64544Y8648D01*
X64523Y8608D01*
X64520Y8600D01*
X64494D01*
X64491Y8608D01*
X64470Y8648D01*
X64442Y8682D01*
X64408Y8710D01*
X64369Y8731D01*
X64326Y8744D01*
X64282Y8748D01*
X64238Y8744D01*
X64195Y8731D01*
X64156Y8710D01*
X64122Y8682D01*
X64094Y8648D01*
X64073Y8608D01*
X64060Y8566D01*
X64055Y8522D01*
X64060Y8478D01*
X64073Y8435D01*
X64094Y8396D01*
X64122Y8362D01*
X64156Y8333D01*
X64195Y8312D01*
X64238Y8300D01*
X64282Y8295D01*
X64326Y8300D01*
X64369Y8312D01*
X64408Y8333D01*
X64442Y8362D01*
X64470Y8396D01*
X64491Y8435D01*
X64494Y8443D01*
X64520D01*
X64523Y8435D01*
X64544Y8396D01*
X64572Y8362D01*
X64606Y8333D01*
X64645Y8312D01*
X64688Y8300D01*
X64719Y8296D01*
Y8522D01*
X64732D01*
Y8534D01*
X64957D01*
X64954Y8566D01*
X64941Y8608D01*
X64920Y8648D01*
X64892Y8682D01*
X64858Y8710D01*
X64819Y8731D01*
X64810Y8733D01*
Y8760D01*
X64819Y8762D01*
X64858Y8783D01*
X64892Y8812D01*
X64920Y8846D01*
X64941Y8885D01*
X64954Y8928D01*
X64958Y8972D01*
X64954Y9016D01*
X64941Y9058D01*
X64920Y9098D01*
X64892Y9132D01*
X64858Y9160D01*
X64819Y9181D01*
X64776Y9194D01*
X64732Y9198D01*
D02*
G37*
G36*
X56731Y9193D02*
X56687Y9188D01*
X56644Y9175D01*
X56605Y9155D01*
X56571Y9126D01*
X56543Y9092D01*
X56522Y9053D01*
X56509Y9010D01*
X56504Y8966D01*
X56509Y8922D01*
X56522Y8880D01*
X56543Y8840D01*
X56571Y8806D01*
X56605Y8778D01*
X56644Y8757D01*
X56652Y8754D01*
Y8728D01*
X56644Y8725D01*
X56605Y8705D01*
X56571Y8676D01*
X56543Y8642D01*
X56522Y8603D01*
X56519Y8595D01*
X56493D01*
X56490Y8603D01*
X56469Y8642D01*
X56441Y8676D01*
X56407Y8705D01*
X56368Y8725D01*
X56325Y8738D01*
X56281Y8743D01*
X56237Y8738D01*
X56194Y8725D01*
X56155Y8705D01*
X56121Y8676D01*
X56093Y8642D01*
X56072Y8603D01*
X56059Y8560D01*
X56054Y8516D01*
X56059Y8472D01*
X56072Y8430D01*
X56093Y8390D01*
X56121Y8356D01*
X56155Y8328D01*
X56194Y8307D01*
X56237Y8294D01*
X56281Y8290D01*
X56325Y8294D01*
X56368Y8307D01*
X56407Y8328D01*
X56441Y8356D01*
X56469Y8390D01*
X56490Y8430D01*
X56493Y8438D01*
X56519D01*
X56522Y8430D01*
X56543Y8390D01*
X56571Y8356D01*
X56605Y8328D01*
X56644Y8307D01*
X56687Y8294D01*
X56718Y8291D01*
Y8516D01*
X56731D01*
Y8529D01*
X56956D01*
X56953Y8560D01*
X56940Y8603D01*
X56919Y8642D01*
X56891Y8676D01*
X56857Y8705D01*
X56818Y8725D01*
X56809Y8728D01*
Y8754D01*
X56818Y8757D01*
X56857Y8778D01*
X56891Y8806D01*
X56919Y8840D01*
X56940Y8880D01*
X56953Y8922D01*
X56957Y8966D01*
X56953Y9010D01*
X56940Y9053D01*
X56919Y9092D01*
X56891Y9126D01*
X56857Y9155D01*
X56818Y9175D01*
X56775Y9188D01*
X56731Y9193D01*
D02*
G37*
G36*
X33033Y9316D02*
X33013Y9313D01*
X32995Y9305D01*
X32979Y9293D01*
X32967Y9278D01*
X32959Y9259D01*
X32957Y9240D01*
X32959Y9220D01*
X32967Y9202D01*
X32979Y9186D01*
X32995Y9174D01*
X33013Y9166D01*
X33033Y9163D01*
X33041Y9165D01*
X33456Y8750D01*
X33455Y8748D01*
X33446Y8718D01*
X33443Y8687D01*
X33446Y8655D01*
X33455Y8625D01*
X33470Y8597D01*
X33490Y8573D01*
X33515Y8553D01*
X33543Y8538D01*
X33573Y8529D01*
X33604Y8526D01*
X33636Y8529D01*
X33666Y8538D01*
X33694Y8553D01*
X33718Y8573D01*
X33738Y8597D01*
X33753Y8625D01*
X33762Y8655D01*
X33765Y8687D01*
X33762Y8718D01*
X33753Y8748D01*
X33738Y8776D01*
X33718Y8801D01*
X33694Y8821D01*
X33666Y8836D01*
X33636Y8845D01*
X33604Y8848D01*
X33573Y8845D01*
X33543Y8836D01*
X33525Y8826D01*
X33108Y9243D01*
X33106Y9259D01*
X33099Y9278D01*
X33086Y9293D01*
X33071Y9305D01*
X33052Y9313D01*
X33033Y9316D01*
D02*
G37*
G36*
X26247Y8637D02*
X26010D01*
Y8399D01*
X26046Y8403D01*
X26093Y8417D01*
X26137Y8440D01*
X26175Y8471D01*
X26206Y8510D01*
X26229Y8553D01*
X26244Y8600D01*
X26247Y8637D01*
D02*
G37*
G36*
X25984D02*
X25747D01*
X25750Y8600D01*
X25764Y8553D01*
X25788Y8510D01*
X25819Y8471D01*
X25857Y8440D01*
X25901Y8417D01*
X25948Y8403D01*
X25984Y8399D01*
Y8637D01*
D02*
G37*
G36*
X30467Y9421D02*
X30418Y9416D01*
X30371Y9402D01*
X30328Y9379D01*
X30289Y9347D01*
X30258Y9309D01*
X30235Y9266D01*
X30221Y9218D01*
X30216Y9169D01*
X30221Y9120D01*
X30235Y9073D01*
X30258Y9030D01*
X30289Y8991D01*
X30328Y8960D01*
X30371Y8937D01*
X30418Y8923D01*
X30423Y8922D01*
Y8897D01*
X30418Y8896D01*
X30371Y8882D01*
X30328Y8859D01*
X30289Y8827D01*
X30258Y8789D01*
X30235Y8746D01*
X30221Y8698D01*
X30216Y8649D01*
X30221Y8600D01*
X30235Y8553D01*
X30258Y8510D01*
X30289Y8471D01*
X30328Y8440D01*
X30371Y8417D01*
X30418Y8403D01*
X30467Y8398D01*
X30516Y8403D01*
X30564Y8417D01*
X30607Y8440D01*
X30645Y8471D01*
X30677Y8510D01*
X30700Y8553D01*
X30714Y8600D01*
X30719Y8649D01*
X30714Y8698D01*
X30700Y8746D01*
X30677Y8789D01*
X30645Y8827D01*
X30607Y8859D01*
X30564Y8882D01*
X30516Y8896D01*
X30512Y8897D01*
Y8922D01*
X30516Y8923D01*
X30564Y8937D01*
X30607Y8960D01*
X30645Y8991D01*
X30677Y9030D01*
X30700Y9073D01*
X30714Y9120D01*
X30719Y9169D01*
X30714Y9218D01*
X30700Y9266D01*
X30677Y9309D01*
X30645Y9347D01*
X30607Y9379D01*
X30564Y9402D01*
X30516Y9416D01*
X30467Y9421D01*
D02*
G37*
G36*
X60937Y8534D02*
X60724D01*
Y8322D01*
X60756Y8325D01*
X60798Y8338D01*
X60837Y8359D01*
X60872Y8387D01*
X60900Y8421D01*
X60921Y8460D01*
X60934Y8503D01*
X60937Y8534D01*
D02*
G37*
G36*
X64957Y8509D02*
X64745D01*
Y8296D01*
X64776Y8300D01*
X64819Y8312D01*
X64858Y8333D01*
X64892Y8362D01*
X64920Y8396D01*
X64941Y8435D01*
X64954Y8478D01*
X64957Y8509D01*
D02*
G37*
G36*
X56956Y8504D02*
X56744D01*
Y8291D01*
X56775Y8294D01*
X56818Y8307D01*
X56857Y8328D01*
X56891Y8356D01*
X56919Y8390D01*
X56940Y8430D01*
X56953Y8472D01*
X56956Y8504D01*
D02*
G37*
G36*
X31788Y8136D02*
Y8090D01*
X31834D01*
X31832Y8101D01*
X31819Y8121D01*
X31799Y8134D01*
X31788Y8136D01*
D02*
G37*
G36*
X31763D02*
X31752Y8134D01*
X31732Y8121D01*
X31719Y8101D01*
X31716Y8090D01*
X31763D01*
Y8136D01*
D02*
G37*
G36*
X32954Y8405D02*
X32921Y8402D01*
X32890Y8393D01*
X32861Y8377D01*
X32835Y8356D01*
X32814Y8330D01*
X32798Y8301D01*
X32789Y8270D01*
X32786Y8237D01*
X32789Y8204D01*
X32798Y8172D01*
X32814Y8143D01*
X32835Y8117D01*
X32861Y8096D01*
X32890Y8081D01*
X32921Y8071D01*
X32954Y8068D01*
X32987Y8071D01*
X33019Y8081D01*
X33048Y8096D01*
X33074Y8117D01*
X33095Y8143D01*
X33110Y8172D01*
X33120Y8204D01*
X33123Y8237D01*
X33120Y8270D01*
X33110Y8301D01*
X33095Y8330D01*
X33074Y8356D01*
X33048Y8377D01*
X33019Y8393D01*
X32987Y8402D01*
X32954Y8405D01*
D02*
G37*
G36*
X31834Y8064D02*
X31788D01*
Y8018D01*
X31799Y8020D01*
X31819Y8034D01*
X31832Y8054D01*
X31834Y8064D01*
D02*
G37*
G36*
X31763D02*
X31716D01*
X31719Y8054D01*
X31732Y8034D01*
X31752Y8020D01*
X31763Y8018D01*
Y8064D01*
D02*
G37*
G36*
X29945Y7934D02*
X29914Y7930D01*
X29886Y7918D01*
X29862Y7900D01*
X29844Y7876D01*
X29832Y7848D01*
X29807D01*
X29795Y7876D01*
X29777Y7900D01*
X29753Y7918D01*
X29725Y7930D01*
X29695Y7934D01*
X29664Y7930D01*
X29636Y7918D01*
X29612Y7900D01*
X29594Y7876D01*
X29582Y7848D01*
X29578Y7818D01*
X29582Y7787D01*
X29594Y7759D01*
X29612Y7735D01*
X29636Y7717D01*
X29664Y7705D01*
X29695Y7701D01*
X29705Y7703D01*
X29728Y7684D01*
X29729Y7682D01*
X29732Y7660D01*
X29741Y7638D01*
X29755Y7619D01*
X29774Y7605D01*
X29796Y7595D01*
X29820Y7592D01*
X29843Y7595D01*
X29865Y7605D01*
X29884Y7619D01*
X29899Y7638D01*
X29908Y7660D01*
X29911Y7682D01*
X29911Y7684D01*
X29934Y7703D01*
X29945Y7701D01*
X29975Y7705D01*
X30003Y7717D01*
X30027Y7735D01*
X30045Y7759D01*
X30057Y7787D01*
X30061Y7818D01*
X30057Y7848D01*
X30045Y7876D01*
X30027Y7900D01*
X30003Y7918D01*
X29975Y7930D01*
X29945Y7934D01*
D02*
G37*
G36*
X33604Y8048D02*
X33573Y8045D01*
X33543Y8036D01*
X33515Y8021D01*
X33490Y8001D01*
X33470Y7976D01*
X33455Y7948D01*
X33446Y7918D01*
X33443Y7887D01*
X33446Y7855D01*
X33455Y7825D01*
X33470Y7797D01*
X33490Y7773D01*
X33515Y7753D01*
X33543Y7738D01*
X33573Y7729D01*
X33604Y7726D01*
X33636Y7729D01*
X33666Y7738D01*
X33694Y7753D01*
X33718Y7773D01*
X33738Y7797D01*
X33753Y7825D01*
X33762Y7855D01*
X33765Y7887D01*
X33762Y7918D01*
X33753Y7948D01*
X33738Y7976D01*
X33718Y8001D01*
X33694Y8021D01*
X33666Y8036D01*
X33636Y8045D01*
X33604Y8048D01*
D02*
G37*
G36*
X51791Y18090D02*
X51763Y18086D01*
X51737Y18075D01*
X51715Y18058D01*
X51699Y18036D01*
X51688Y18011D01*
X51684Y17983D01*
X51688Y17956D01*
X51699Y17930D01*
X51715Y17908D01*
X51737Y17891D01*
X51763Y17881D01*
X51791Y17877D01*
X51818Y17881D01*
X51844Y17891D01*
X51866Y17908D01*
X51883Y17930D01*
X51893Y17956D01*
X51897Y17983D01*
X51893Y18011D01*
X51883Y18036D01*
X51866Y18058D01*
X51844Y18075D01*
X51818Y18086D01*
X51791Y18090D01*
D02*
G37*
G36*
X50775D02*
X50747Y18086D01*
X50721Y18075D01*
X50699Y18058D01*
X50683Y18036D01*
X50672Y18011D01*
X50668Y17983D01*
X50672Y17956D01*
X50683Y17930D01*
X50699Y17908D01*
X50721Y17891D01*
X50747Y17881D01*
X50775Y17877D01*
X50802Y17881D01*
X50828Y17891D01*
X50850Y17908D01*
X50867Y17930D01*
X50877Y17956D01*
X50881Y17983D01*
X50877Y18011D01*
X50867Y18036D01*
X50850Y18058D01*
X50828Y18075D01*
X50802Y18086D01*
X50775Y18090D01*
D02*
G37*
G36*
X49843Y17741D02*
Y17629D01*
X49955D01*
X49952Y17649D01*
X49940Y17680D01*
X49920Y17706D01*
X49893Y17726D01*
X49863Y17739D01*
X49843Y17741D01*
D02*
G37*
G36*
X49817D02*
X49797Y17739D01*
X49767Y17726D01*
X49741Y17706D01*
X49721Y17680D01*
X49708Y17649D01*
X49705Y17629D01*
X49817D01*
Y17741D01*
D02*
G37*
G36*
X50775Y17836D02*
X50747Y17832D01*
X50721Y17821D01*
X50699Y17804D01*
X50683Y17782D01*
X50672Y17757D01*
X50668Y17729D01*
X50672Y17702D01*
X50683Y17676D01*
X50699Y17654D01*
X50721Y17637D01*
X50747Y17627D01*
X50775Y17623D01*
X50802Y17627D01*
X50828Y17637D01*
X50850Y17654D01*
X50867Y17676D01*
X50877Y17702D01*
X50881Y17729D01*
X50877Y17757D01*
X50867Y17782D01*
X50850Y17804D01*
X50828Y17821D01*
X50802Y17832D01*
X50775Y17836D01*
D02*
G37*
G36*
X50330Y17743D02*
X50297Y17739D01*
X50267Y17726D01*
X50241Y17706D01*
X50221Y17680D01*
X50208Y17649D01*
X50204Y17617D01*
X50208Y17584D01*
X50215Y17567D01*
X50157Y17509D01*
X49935D01*
X49925Y17534D01*
X49940Y17553D01*
X49952Y17584D01*
X49955Y17604D01*
X49705D01*
X49708Y17584D01*
X49721Y17553D01*
X49735Y17534D01*
X49726Y17509D01*
X49644D01*
X49644Y17509D01*
X49627Y17505D01*
X49612Y17495D01*
X49612Y17495D01*
X44957Y12841D01*
X44947Y12826D01*
X44943Y12808D01*
X44943Y12808D01*
Y12612D01*
X44928Y12608D01*
X44900Y12593D01*
X44876Y12573D01*
X44856Y12548D01*
X44841Y12520D01*
X44832Y12490D01*
X44828Y12459D01*
X44832Y12427D01*
X44841Y12397D01*
X44856Y12369D01*
X44876Y12345D01*
X44900Y12325D01*
X44928Y12310D01*
X44958Y12301D01*
X44990Y12297D01*
X45021Y12301D01*
X45051Y12310D01*
X45079Y12325D01*
X45104Y12345D01*
X45124Y12369D01*
X45139Y12397D01*
X45148Y12427D01*
X45151Y12459D01*
X45148Y12490D01*
X45139Y12520D01*
X45124Y12548D01*
X45104Y12573D01*
X45079Y12593D01*
X45051Y12608D01*
X45036Y12612D01*
Y12789D01*
X49663Y17416D01*
X49719D01*
X49731Y17391D01*
X49721Y17377D01*
X49708Y17346D01*
X49705Y17326D01*
X49955D01*
X49952Y17346D01*
X49940Y17377D01*
X49929Y17391D01*
X49941Y17416D01*
X50176D01*
X50176Y17416D01*
X50194Y17420D01*
X50209Y17430D01*
X50280Y17501D01*
X50297Y17494D01*
X50330Y17490D01*
X50363Y17494D01*
X50380Y17501D01*
X50439Y17442D01*
X50454Y17432D01*
X50471Y17429D01*
X50471Y17429D01*
X50680D01*
X50683Y17422D01*
X50699Y17400D01*
X50721Y17383D01*
X50747Y17373D01*
X50775Y17369D01*
X50802Y17373D01*
X50828Y17383D01*
X50850Y17400D01*
X50867Y17422D01*
X50877Y17448D01*
X50881Y17475D01*
X50877Y17503D01*
X50867Y17528D01*
X50850Y17550D01*
X50828Y17567D01*
X50802Y17578D01*
X50775Y17582D01*
X50747Y17578D01*
X50721Y17567D01*
X50699Y17550D01*
X50683Y17528D01*
X50680Y17521D01*
X50491D01*
X50445Y17567D01*
X50452Y17584D01*
X50457Y17617D01*
X50452Y17649D01*
X50440Y17680D01*
X50420Y17706D01*
X50393Y17726D01*
X50363Y17739D01*
X50330Y17743D01*
D02*
G37*
G36*
X49955Y17301D02*
X49843D01*
Y17189D01*
X49863Y17191D01*
X49893Y17204D01*
X49920Y17224D01*
X49940Y17250D01*
X49952Y17281D01*
X49955Y17301D01*
D02*
G37*
G36*
X49817D02*
X49705D01*
X49708Y17281D01*
X49721Y17250D01*
X49741Y17224D01*
X49767Y17204D01*
X49797Y17191D01*
X49817Y17189D01*
Y17301D01*
D02*
G37*
G36*
X50330Y17440D02*
X50297Y17436D01*
X50267Y17423D01*
X50241Y17403D01*
X50221Y17377D01*
X50208Y17346D01*
X50204Y17313D01*
X50208Y17281D01*
X50221Y17250D01*
X50241Y17224D01*
X50267Y17204D01*
X50297Y17191D01*
X50330Y17187D01*
X50363Y17191D01*
X50380Y17198D01*
X50390Y17188D01*
X50390Y17188D01*
X50405Y17178D01*
X50422Y17175D01*
X50422Y17175D01*
X50680D01*
X50683Y17168D01*
X50699Y17146D01*
X50721Y17129D01*
X50747Y17119D01*
X50775Y17115D01*
X50802Y17119D01*
X50828Y17129D01*
X50850Y17146D01*
X50867Y17168D01*
X50877Y17194D01*
X50881Y17221D01*
X50877Y17249D01*
X50867Y17274D01*
X50850Y17296D01*
X50828Y17313D01*
X50802Y17324D01*
X50775Y17328D01*
X50747Y17324D01*
X50721Y17313D01*
X50699Y17296D01*
X50683Y17274D01*
X50680Y17267D01*
X50472D01*
X50454Y17293D01*
X50457Y17313D01*
X50452Y17346D01*
X50440Y17377D01*
X50420Y17403D01*
X50393Y17423D01*
X50363Y17436D01*
X50330Y17440D01*
D02*
G37*
G36*
X49843Y17135D02*
Y17023D01*
X49955D01*
X49952Y17043D01*
X49940Y17074D01*
X49920Y17100D01*
X49893Y17120D01*
X49863Y17133D01*
X49843Y17135D01*
D02*
G37*
G36*
X49817D02*
X49797Y17133D01*
X49767Y17120D01*
X49741Y17100D01*
X49721Y17074D01*
X49708Y17043D01*
X49705Y17023D01*
X49817D01*
Y17135D01*
D02*
G37*
G36*
X54331Y16058D02*
X54303Y16054D01*
X54277Y16043D01*
X54255Y16026D01*
X54239Y16004D01*
X54228Y15979D01*
X54224Y15951D01*
X54228Y15924D01*
X54239Y15898D01*
X54255Y15876D01*
X54277Y15859D01*
X54303Y15849D01*
X54331Y15845D01*
X54358Y15849D01*
X54384Y15859D01*
X54406Y15876D01*
X54423Y15898D01*
X54433Y15924D01*
X54437Y15951D01*
X54433Y15979D01*
X54423Y16004D01*
X54406Y16026D01*
X54384Y16043D01*
X54358Y16054D01*
X54331Y16058D01*
D02*
G37*
G36*
Y15804D02*
X54303Y15800D01*
X54277Y15789D01*
X54255Y15772D01*
X54239Y15750D01*
X54228Y15725D01*
X54224Y15697D01*
X54228Y15670D01*
X54239Y15644D01*
X54255Y15622D01*
X54277Y15605D01*
X54303Y15595D01*
X54331Y15591D01*
X54358Y15595D01*
X54384Y15605D01*
X54406Y15622D01*
X54423Y15644D01*
X54433Y15670D01*
X54437Y15697D01*
X54433Y15725D01*
X54423Y15750D01*
X54406Y15772D01*
X54384Y15789D01*
X54358Y15800D01*
X54331Y15804D01*
D02*
G37*
G36*
Y15550D02*
X54303Y15546D01*
X54277Y15535D01*
X54255Y15518D01*
X54239Y15496D01*
X54228Y15471D01*
X54224Y15443D01*
X54228Y15416D01*
X54239Y15390D01*
X54255Y15368D01*
X54277Y15351D01*
X54303Y15341D01*
X54331Y15337D01*
X54358Y15341D01*
X54384Y15351D01*
X54406Y15368D01*
X54423Y15390D01*
X54433Y15416D01*
X54437Y15443D01*
X54433Y15471D01*
X54423Y15496D01*
X54406Y15518D01*
X54384Y15535D01*
X54358Y15546D01*
X54331Y15550D01*
D02*
G37*
G36*
X53010Y15248D02*
Y15202D01*
X53056D01*
X53054Y15213D01*
X53041Y15233D01*
X53021Y15246D01*
X53010Y15248D01*
D02*
G37*
G36*
X52984D02*
X52974Y15246D01*
X52954Y15233D01*
X52940Y15213D01*
X52938Y15202D01*
X52984D01*
Y15248D01*
D02*
G37*
G36*
X53056Y15176D02*
X53010D01*
Y15130D01*
X53021Y15132D01*
X53041Y15146D01*
X53054Y15166D01*
X53056Y15176D01*
D02*
G37*
G36*
X52984D02*
X52938D01*
X52940Y15166D01*
X52954Y15146D01*
X52974Y15132D01*
X52984Y15130D01*
Y15176D01*
D02*
G37*
G36*
X54331Y15296D02*
X54303Y15292D01*
X54277Y15281D01*
X54255Y15264D01*
X54239Y15242D01*
X54228Y15217D01*
X54224Y15189D01*
X54228Y15162D01*
X54239Y15136D01*
X54255Y15114D01*
X54277Y15097D01*
X54303Y15087D01*
X54331Y15083D01*
X54358Y15087D01*
X54384Y15097D01*
X54406Y15114D01*
X54423Y15136D01*
X54433Y15162D01*
X54437Y15189D01*
X54433Y15217D01*
X54423Y15242D01*
X54406Y15264D01*
X54384Y15281D01*
X54358Y15292D01*
X54331Y15296D01*
D02*
G37*
G36*
X53010Y14982D02*
Y14935D01*
X53056D01*
X53054Y14946D01*
X53041Y14966D01*
X53021Y14979D01*
X53010Y14982D01*
D02*
G37*
G36*
X52984D02*
X52974Y14979D01*
X52954Y14966D01*
X52940Y14946D01*
X52938Y14935D01*
X52984D01*
Y14982D01*
D02*
G37*
G36*
X53056Y14910D02*
X53010D01*
Y14863D01*
X53021Y14866D01*
X53041Y14879D01*
X53054Y14899D01*
X53056Y14910D01*
D02*
G37*
G36*
X52984D02*
X52938D01*
X52940Y14899D01*
X52954Y14879D01*
X52974Y14866D01*
X52984Y14863D01*
Y14910D01*
D02*
G37*
G36*
X54331Y15042D02*
X54303Y15038D01*
X54277Y15027D01*
X54255Y15010D01*
X54239Y14988D01*
X54228Y14963D01*
X54224Y14935D01*
X54228Y14908D01*
X54239Y14882D01*
X54255Y14860D01*
X54277Y14843D01*
X54303Y14833D01*
X54331Y14829D01*
X54358Y14833D01*
X54384Y14843D01*
X54406Y14860D01*
X54423Y14882D01*
X54433Y14908D01*
X54437Y14935D01*
X54433Y14963D01*
X54423Y14988D01*
X54406Y15010D01*
X54384Y15027D01*
X54358Y15038D01*
X54331Y15042D01*
D02*
G37*
G36*
Y14788D02*
X54303Y14784D01*
X54277Y14773D01*
X54255Y14756D01*
X54239Y14734D01*
X54228Y14709D01*
X54224Y14681D01*
X54228Y14654D01*
X54239Y14628D01*
X54255Y14606D01*
X54277Y14589D01*
X54303Y14579D01*
X54331Y14575D01*
X54358Y14579D01*
X54384Y14589D01*
X54406Y14606D01*
X54423Y14628D01*
X54433Y14654D01*
X54437Y14681D01*
X54433Y14709D01*
X54423Y14734D01*
X54406Y14756D01*
X54384Y14773D01*
X54358Y14784D01*
X54331Y14788D01*
D02*
G37*
G36*
X55245Y14675D02*
Y14563D01*
X55357D01*
X55354Y14583D01*
X55342Y14613D01*
X55322Y14640D01*
X55296Y14660D01*
X55265Y14672D01*
X55245Y14675D01*
D02*
G37*
G36*
X55220D02*
X55200Y14672D01*
X55169Y14660D01*
X55143Y14640D01*
X55123Y14613D01*
X55110Y14583D01*
X55107Y14563D01*
X55220D01*
Y14675D01*
D02*
G37*
G36*
X53162Y14376D02*
X53143Y14374D01*
X53124Y14366D01*
X53108Y14354D01*
X53103Y14346D01*
X52934D01*
X52934Y14346D01*
X52916Y14343D01*
X52901Y14333D01*
X52901Y14333D01*
X52333Y13765D01*
X52326Y13768D01*
X52299Y13772D01*
X52271Y13768D01*
X52245Y13757D01*
X52223Y13740D01*
X52207Y13718D01*
X52196Y13693D01*
X52192Y13665D01*
X52196Y13638D01*
X52207Y13612D01*
X52223Y13590D01*
X52245Y13573D01*
X52271Y13563D01*
X52299Y13559D01*
X52326Y13563D01*
X52352Y13573D01*
X52374Y13590D01*
X52391Y13612D01*
X52401Y13638D01*
X52405Y13665D01*
X52401Y13693D01*
X52398Y13700D01*
X52953Y14254D01*
X53103D01*
X53108Y14246D01*
X53124Y14234D01*
X53143Y14227D01*
X53162Y14224D01*
X53182Y14227D01*
X53200Y14234D01*
X53216Y14246D01*
X53228Y14262D01*
X53236Y14281D01*
X53238Y14300D01*
X53236Y14320D01*
X53228Y14338D01*
X53216Y14354D01*
X53200Y14366D01*
X53182Y14374D01*
X53162Y14376D01*
D02*
G37*
G36*
X50775Y14280D02*
X50747Y14276D01*
X50721Y14265D01*
X50699Y14248D01*
X50683Y14226D01*
X50672Y14201D01*
X50668Y14173D01*
X50672Y14146D01*
X50683Y14120D01*
X50699Y14098D01*
X50721Y14081D01*
X50747Y14071D01*
X50775Y14067D01*
X50802Y14071D01*
X50828Y14081D01*
X50850Y14098D01*
X50867Y14120D01*
X50877Y14146D01*
X50881Y14173D01*
X50877Y14201D01*
X50867Y14226D01*
X50850Y14248D01*
X50828Y14265D01*
X50802Y14276D01*
X50775Y14280D01*
D02*
G37*
G36*
Y14026D02*
X50747Y14022D01*
X50721Y14011D01*
X50699Y13994D01*
X50683Y13972D01*
X50672Y13947D01*
X50668Y13919D01*
X50672Y13892D01*
X50683Y13866D01*
X50699Y13844D01*
X50721Y13827D01*
X50747Y13817D01*
X50775Y13813D01*
X50802Y13817D01*
X50828Y13827D01*
X50850Y13844D01*
X50867Y13866D01*
X50877Y13892D01*
X50881Y13919D01*
X50877Y13947D01*
X50867Y13972D01*
X50850Y13994D01*
X50828Y14011D01*
X50802Y14022D01*
X50775Y14026D01*
D02*
G37*
G36*
X52565Y13770D02*
Y13678D01*
X52657D01*
X52655Y13693D01*
X52645Y13718D01*
X52628Y13740D01*
X52606Y13757D01*
X52580Y13768D01*
X52565Y13770D01*
D02*
G37*
G36*
X50787D02*
Y13678D01*
X50879D01*
X50877Y13693D01*
X50867Y13718D01*
X50850Y13740D01*
X50828Y13757D01*
X50802Y13768D01*
X50787Y13770D01*
D02*
G37*
G36*
X52540D02*
X52525Y13768D01*
X52499Y13757D01*
X52477Y13740D01*
X52461Y13718D01*
X52450Y13693D01*
X52448Y13678D01*
X52540D01*
Y13770D01*
D02*
G37*
G36*
X50762D02*
X50747Y13768D01*
X50721Y13757D01*
X50699Y13740D01*
X50683Y13718D01*
X50672Y13693D01*
X50670Y13678D01*
X50762D01*
Y13770D01*
D02*
G37*
G36*
X52657Y13652D02*
X52565D01*
Y13561D01*
X52580Y13563D01*
X52606Y13573D01*
X52628Y13590D01*
X52645Y13612D01*
X52655Y13638D01*
X52657Y13652D01*
D02*
G37*
G36*
X50879D02*
X50787D01*
Y13561D01*
X50802Y13563D01*
X50828Y13573D01*
X50850Y13590D01*
X50867Y13612D01*
X50877Y13638D01*
X50879Y13652D01*
D02*
G37*
G36*
X52540D02*
X52448D01*
X52450Y13638D01*
X52461Y13612D01*
X52477Y13590D01*
X52499Y13573D01*
X52525Y13563D01*
X52540Y13561D01*
Y13652D01*
D02*
G37*
G36*
X50762D02*
X50670D01*
X50672Y13638D01*
X50683Y13612D01*
X50699Y13590D01*
X50721Y13573D01*
X50747Y13563D01*
X50762Y13561D01*
Y13652D01*
D02*
G37*
G36*
X53569Y13772D02*
X53541Y13768D01*
X53515Y13757D01*
X53493Y13740D01*
X53477Y13718D01*
X53466Y13693D01*
X53462Y13665D01*
X53466Y13638D01*
X53477Y13612D01*
X53493Y13590D01*
X53515Y13573D01*
X53541Y13563D01*
X53569Y13559D01*
X53596Y13563D01*
X53622Y13573D01*
X53644Y13590D01*
X53661Y13612D01*
X53671Y13638D01*
X53675Y13665D01*
X53671Y13693D01*
X53661Y13718D01*
X53644Y13740D01*
X53622Y13757D01*
X53596Y13768D01*
X53569Y13772D01*
D02*
G37*
G36*
X53315D02*
X53287Y13768D01*
X53261Y13757D01*
X53239Y13740D01*
X53223Y13718D01*
X53212Y13693D01*
X53208Y13665D01*
X53212Y13638D01*
X53223Y13612D01*
X53239Y13590D01*
X53261Y13573D01*
X53287Y13563D01*
X53315Y13559D01*
X53342Y13563D01*
X53368Y13573D01*
X53390Y13590D01*
X53407Y13612D01*
X53417Y13638D01*
X53421Y13665D01*
X53417Y13693D01*
X53407Y13718D01*
X53390Y13740D01*
X53368Y13757D01*
X53342Y13768D01*
X53315Y13772D01*
D02*
G37*
G36*
X53061D02*
X53033Y13768D01*
X53007Y13757D01*
X52985Y13740D01*
X52969Y13718D01*
X52958Y13693D01*
X52954Y13665D01*
X52958Y13638D01*
X52969Y13612D01*
X52985Y13590D01*
X53007Y13573D01*
X53033Y13563D01*
X53061Y13559D01*
X53088Y13563D01*
X53114Y13573D01*
X53136Y13590D01*
X53153Y13612D01*
X53163Y13638D01*
X53167Y13665D01*
X53163Y13693D01*
X53153Y13718D01*
X53136Y13740D01*
X53114Y13757D01*
X53088Y13768D01*
X53061Y13772D01*
D02*
G37*
G36*
X52807D02*
X52779Y13768D01*
X52753Y13757D01*
X52731Y13740D01*
X52715Y13718D01*
X52704Y13693D01*
X52700Y13665D01*
X52704Y13638D01*
X52715Y13612D01*
X52731Y13590D01*
X52753Y13573D01*
X52779Y13563D01*
X52807Y13559D01*
X52834Y13563D01*
X52860Y13573D01*
X52882Y13590D01*
X52899Y13612D01*
X52909Y13638D01*
X52913Y13665D01*
X52909Y13693D01*
X52899Y13718D01*
X52882Y13740D01*
X52860Y13757D01*
X52834Y13768D01*
X52807Y13772D01*
D02*
G37*
G36*
X51283D02*
X51255Y13768D01*
X51229Y13757D01*
X51207Y13740D01*
X51191Y13718D01*
X51180Y13693D01*
X51176Y13665D01*
X51180Y13638D01*
X51191Y13612D01*
X51207Y13590D01*
X51229Y13573D01*
X51255Y13563D01*
X51283Y13559D01*
X51310Y13563D01*
X51336Y13573D01*
X51358Y13590D01*
X51375Y13612D01*
X51385Y13638D01*
X51389Y13665D01*
X51385Y13693D01*
X51375Y13718D01*
X51358Y13740D01*
X51336Y13757D01*
X51310Y13768D01*
X51283Y13772D01*
D02*
G37*
G36*
X51029D02*
X51001Y13768D01*
X50975Y13757D01*
X50953Y13740D01*
X50937Y13718D01*
X50926Y13693D01*
X50922Y13665D01*
X50926Y13638D01*
X50937Y13612D01*
X50953Y13590D01*
X50975Y13573D01*
X51001Y13563D01*
X51029Y13559D01*
X51056Y13563D01*
X51082Y13573D01*
X51104Y13590D01*
X51121Y13612D01*
X51131Y13638D01*
X51135Y13665D01*
X51131Y13693D01*
X51121Y13718D01*
X51104Y13740D01*
X51082Y13757D01*
X51056Y13768D01*
X51029Y13772D01*
D02*
G37*
G36*
X48914Y12918D02*
X48879Y12914D01*
X48846Y12900D01*
X48818Y12878D01*
X48796Y12850D01*
X48782Y12817D01*
X48778Y12782D01*
X48782Y12746D01*
X48796Y12713D01*
X48818Y12685D01*
X48846Y12663D01*
X48879Y12650D01*
X48914Y12645D01*
X48950Y12650D01*
X48983Y12663D01*
X49011Y12685D01*
X49033Y12713D01*
X49046Y12746D01*
X49051Y12782D01*
X49046Y12817D01*
X49033Y12850D01*
X49011Y12878D01*
X48983Y12900D01*
X48950Y12914D01*
X48914Y12918D01*
D02*
G37*
G36*
X42279Y12911D02*
X42244Y12907D01*
X42211Y12893D01*
X42183Y12871D01*
X42161Y12843D01*
X42147Y12810D01*
X42143Y12775D01*
X42147Y12739D01*
X42161Y12707D01*
X42183Y12678D01*
X42211Y12657D01*
X42244Y12643D01*
X42279Y12638D01*
X42315Y12643D01*
X42347Y12657D01*
X42376Y12678D01*
X42397Y12707D01*
X42411Y12739D01*
X42416Y12775D01*
X42411Y12810D01*
X42397Y12843D01*
X42376Y12871D01*
X42347Y12893D01*
X42315Y12907D01*
X42279Y12911D01*
D02*
G37*
G36*
X44590Y12620D02*
X44558Y12617D01*
X44528Y12608D01*
X44500Y12593D01*
X44476Y12573D01*
X44456Y12548D01*
X44441Y12520D01*
X44432Y12490D01*
X44428Y12459D01*
X44432Y12427D01*
X44441Y12397D01*
X44456Y12369D01*
X44476Y12345D01*
X44500Y12325D01*
X44528Y12310D01*
X44558Y12301D01*
X44590Y12297D01*
X44621Y12301D01*
X44651Y12310D01*
X44679Y12325D01*
X44704Y12345D01*
X44724Y12369D01*
X44739Y12397D01*
X44748Y12427D01*
X44751Y12459D01*
X44748Y12490D01*
X44739Y12520D01*
X44724Y12548D01*
X44704Y12573D01*
X44679Y12593D01*
X44651Y12608D01*
X44621Y12617D01*
X44590Y12620D01*
D02*
G37*
G36*
X44190D02*
X44158Y12617D01*
X44128Y12608D01*
X44100Y12593D01*
X44076Y12573D01*
X44056Y12548D01*
X44041Y12520D01*
X44032Y12490D01*
X44028Y12459D01*
X44032Y12427D01*
X44041Y12397D01*
X44056Y12369D01*
X44076Y12345D01*
X44100Y12325D01*
X44128Y12310D01*
X44158Y12301D01*
X44190Y12297D01*
X44221Y12301D01*
X44251Y12310D01*
X44279Y12325D01*
X44304Y12345D01*
X44324Y12369D01*
X44339Y12397D01*
X44348Y12427D01*
X44351Y12459D01*
X44348Y12490D01*
X44339Y12520D01*
X44324Y12548D01*
X44304Y12573D01*
X44279Y12593D01*
X44251Y12608D01*
X44221Y12617D01*
X44190Y12620D01*
D02*
G37*
G36*
X43790D02*
X43758Y12617D01*
X43728Y12608D01*
X43700Y12593D01*
X43676Y12573D01*
X43656Y12548D01*
X43641Y12520D01*
X43632Y12490D01*
X43628Y12459D01*
X43632Y12427D01*
X43641Y12397D01*
X43656Y12369D01*
X43676Y12345D01*
X43700Y12325D01*
X43728Y12310D01*
X43758Y12301D01*
X43790Y12297D01*
X43821Y12301D01*
X43851Y12310D01*
X43879Y12325D01*
X43904Y12345D01*
X43924Y12369D01*
X43939Y12397D01*
X43948Y12427D01*
X43951Y12459D01*
X43948Y12490D01*
X43939Y12520D01*
X43924Y12548D01*
X43904Y12573D01*
X43879Y12593D01*
X43851Y12608D01*
X43821Y12617D01*
X43790Y12620D01*
D02*
G37*
G36*
X43390D02*
X43358Y12617D01*
X43328Y12608D01*
X43300Y12593D01*
X43276Y12573D01*
X43256Y12548D01*
X43241Y12520D01*
X43232Y12490D01*
X43228Y12459D01*
X43232Y12427D01*
X43241Y12397D01*
X43256Y12369D01*
X43276Y12345D01*
X43300Y12325D01*
X43328Y12310D01*
X43358Y12301D01*
X43390Y12297D01*
X43421Y12301D01*
X43451Y12310D01*
X43479Y12325D01*
X43504Y12345D01*
X43524Y12369D01*
X43539Y12397D01*
X43548Y12427D01*
X43551Y12459D01*
X43548Y12490D01*
X43539Y12520D01*
X43524Y12548D01*
X43504Y12573D01*
X43479Y12593D01*
X43451Y12608D01*
X43421Y12617D01*
X43390Y12620D01*
D02*
G37*
G36*
X45190Y12220D02*
X45158Y12217D01*
X45128Y12208D01*
X45100Y12193D01*
X45076Y12173D01*
X45056Y12148D01*
X45041Y12120D01*
X45032Y12090D01*
X45028Y12059D01*
X45032Y12027D01*
X45041Y11997D01*
X45056Y11969D01*
X45076Y11945D01*
X45100Y11925D01*
X45128Y11910D01*
X45158Y11901D01*
X45190Y11897D01*
X45221Y11901D01*
X45251Y11910D01*
X45279Y11925D01*
X45304Y11945D01*
X45324Y11969D01*
X45339Y11997D01*
X45348Y12027D01*
X45351Y12059D01*
X45348Y12090D01*
X45339Y12120D01*
X45324Y12148D01*
X45304Y12173D01*
X45279Y12193D01*
X45251Y12208D01*
X45221Y12217D01*
X45190Y12220D01*
D02*
G37*
G36*
X44390D02*
X44358Y12217D01*
X44328Y12208D01*
X44300Y12193D01*
X44276Y12173D01*
X44256Y12148D01*
X44241Y12120D01*
X44232Y12090D01*
X44228Y12059D01*
X44232Y12027D01*
X44241Y11997D01*
X44256Y11969D01*
X44276Y11945D01*
X44300Y11925D01*
X44328Y11910D01*
X44358Y11901D01*
X44390Y11897D01*
X44421Y11901D01*
X44451Y11910D01*
X44479Y11925D01*
X44504Y11945D01*
X44524Y11969D01*
X44539Y11997D01*
X44548Y12027D01*
X44551Y12059D01*
X44548Y12090D01*
X44539Y12120D01*
X44524Y12148D01*
X44504Y12173D01*
X44479Y12193D01*
X44451Y12208D01*
X44421Y12217D01*
X44390Y12220D01*
D02*
G37*
G36*
X43590D02*
X43558Y12217D01*
X43528Y12208D01*
X43500Y12193D01*
X43476Y12173D01*
X43456Y12148D01*
X43441Y12120D01*
X43432Y12090D01*
X43428Y12059D01*
X43432Y12027D01*
X43441Y11997D01*
X43456Y11969D01*
X43476Y11945D01*
X43500Y11925D01*
X43528Y11910D01*
X43558Y11901D01*
X43590Y11897D01*
X43621Y11901D01*
X43651Y11910D01*
X43679Y11925D01*
X43704Y11945D01*
X43724Y11969D01*
X43739Y11997D01*
X43748Y12027D01*
X43751Y12059D01*
X43748Y12090D01*
X43739Y12120D01*
X43724Y12148D01*
X43704Y12173D01*
X43679Y12193D01*
X43651Y12208D01*
X43621Y12217D01*
X43590Y12220D01*
D02*
G37*
G36*
X38997Y12457D02*
X38973Y12452D01*
X38953Y12439D01*
X38940Y12419D01*
X38935Y12395D01*
X38940Y12372D01*
X38950Y12356D01*
Y11685D01*
X38841Y11577D01*
X38838Y11577D01*
X38817Y11588D01*
Y12356D01*
X38827Y12372D01*
X38832Y12395D01*
X38827Y12419D01*
X38814Y12439D01*
X38794Y12452D01*
X38771Y12457D01*
X38747Y12452D01*
X38727Y12439D01*
X38714Y12419D01*
X38709Y12395D01*
X38714Y12372D01*
X38724Y12356D01*
Y11599D01*
X35858Y8733D01*
X35358D01*
X35353Y8748D01*
X35338Y8776D01*
X35318Y8801D01*
X35294Y8821D01*
X35266Y8836D01*
X35236Y8845D01*
X35204Y8848D01*
X35173Y8845D01*
X35143Y8836D01*
X35115Y8821D01*
X35090Y8801D01*
X35070Y8776D01*
X35055Y8748D01*
X35046Y8718D01*
X35043Y8687D01*
X35046Y8655D01*
X35055Y8625D01*
X35070Y8597D01*
X35090Y8573D01*
X35115Y8553D01*
X35143Y8538D01*
X35173Y8529D01*
X35204Y8526D01*
X35236Y8529D01*
X35266Y8538D01*
X35294Y8553D01*
X35318Y8573D01*
X35338Y8597D01*
X35353Y8625D01*
X35358Y8640D01*
X35869D01*
X35880Y8620D01*
X35881Y8616D01*
X35598Y8333D01*
X35158D01*
X35153Y8348D01*
X35138Y8376D01*
X35118Y8401D01*
X35094Y8421D01*
X35066Y8436D01*
X35036Y8445D01*
X35004Y8448D01*
X34973Y8445D01*
X34943Y8436D01*
X34915Y8421D01*
X34890Y8401D01*
X34870Y8376D01*
X34855Y8348D01*
X34846Y8318D01*
X34843Y8287D01*
X34846Y8255D01*
X34855Y8225D01*
X34870Y8197D01*
X34890Y8173D01*
X34915Y8153D01*
X34943Y8138D01*
X34973Y8129D01*
X35004Y8126D01*
X35036Y8129D01*
X35066Y8138D01*
X35094Y8153D01*
X35118Y8173D01*
X35138Y8197D01*
X35153Y8225D01*
X35158Y8240D01*
X35617D01*
X35617Y8240D01*
X35635Y8244D01*
X35650Y8254D01*
X35663Y8267D01*
X35687Y8256D01*
X35686Y8237D01*
X35689Y8204D01*
X35698Y8172D01*
X35714Y8143D01*
X35735Y8117D01*
X35761Y8096D01*
X35790Y8081D01*
X35821Y8071D01*
X35854Y8068D01*
X35887Y8071D01*
X35919Y8081D01*
X35948Y8096D01*
X35974Y8117D01*
X35995Y8143D01*
X36010Y8172D01*
X36020Y8204D01*
X36023Y8237D01*
X36020Y8270D01*
X36010Y8301D01*
X35995Y8330D01*
X35974Y8356D01*
X35948Y8377D01*
X35919Y8393D01*
X35887Y8402D01*
X35854Y8405D01*
X35835Y8404D01*
X35824Y8428D01*
X39029Y11633D01*
X39039Y11649D01*
X39043Y11666D01*
X39043Y11666D01*
Y12356D01*
X39054Y12372D01*
X39058Y12395D01*
X39054Y12419D01*
X39040Y12439D01*
X39020Y12452D01*
X38997Y12457D01*
D02*
G37*
G36*
X45790Y11820D02*
X45758Y11817D01*
X45728Y11808D01*
X45700Y11793D01*
X45676Y11773D01*
X45656Y11748D01*
X45641Y11720D01*
X45632Y11690D01*
X45628Y11659D01*
X45632Y11627D01*
X45641Y11597D01*
X45656Y11569D01*
X45676Y11545D01*
X45700Y11525D01*
X45728Y11510D01*
X45758Y11501D01*
X45790Y11497D01*
X45821Y11501D01*
X45851Y11510D01*
X45879Y11525D01*
X45904Y11545D01*
X45924Y11569D01*
X45939Y11597D01*
X45948Y11627D01*
X45951Y11659D01*
X45948Y11690D01*
X45939Y11720D01*
X45924Y11748D01*
X45904Y11773D01*
X45879Y11793D01*
X45851Y11808D01*
X45821Y11817D01*
X45790Y11820D01*
D02*
G37*
G36*
X44590D02*
X44558Y11817D01*
X44528Y11808D01*
X44500Y11793D01*
X44476Y11773D01*
X44456Y11748D01*
X44441Y11720D01*
X44432Y11690D01*
X44428Y11659D01*
X44432Y11627D01*
X44441Y11597D01*
X44456Y11569D01*
X44476Y11545D01*
X44500Y11525D01*
X44528Y11510D01*
X44558Y11501D01*
X44590Y11497D01*
X44621Y11501D01*
X44651Y11510D01*
X44679Y11525D01*
X44704Y11545D01*
X44724Y11569D01*
X44739Y11597D01*
X44748Y11627D01*
X44751Y11659D01*
X44748Y11690D01*
X44739Y11720D01*
X44724Y11748D01*
X44704Y11773D01*
X44679Y11793D01*
X44651Y11808D01*
X44621Y11817D01*
X44590Y11820D01*
D02*
G37*
G36*
X44190D02*
X44158Y11817D01*
X44128Y11808D01*
X44100Y11793D01*
X44076Y11773D01*
X44056Y11748D01*
X44041Y11720D01*
X44032Y11690D01*
X44028Y11659D01*
X44032Y11627D01*
X44041Y11597D01*
X44056Y11569D01*
X44076Y11545D01*
X44100Y11525D01*
X44128Y11510D01*
X44158Y11501D01*
X44190Y11497D01*
X44221Y11501D01*
X44251Y11510D01*
X44279Y11525D01*
X44304Y11545D01*
X44324Y11569D01*
X44339Y11597D01*
X44348Y11627D01*
X44351Y11659D01*
X44348Y11690D01*
X44339Y11720D01*
X44324Y11748D01*
X44304Y11773D01*
X44279Y11793D01*
X44251Y11808D01*
X44221Y11817D01*
X44190Y11820D01*
D02*
G37*
G36*
X43390D02*
X43358Y11817D01*
X43328Y11808D01*
X43300Y11793D01*
X43276Y11773D01*
X43256Y11748D01*
X43241Y11720D01*
X43232Y11690D01*
X43228Y11659D01*
X43232Y11627D01*
X43241Y11597D01*
X43256Y11569D01*
X43276Y11545D01*
X43300Y11525D01*
X43328Y11510D01*
X43358Y11501D01*
X43390Y11497D01*
X43421Y11501D01*
X43451Y11510D01*
X43479Y11525D01*
X43504Y11545D01*
X43524Y11569D01*
X43539Y11597D01*
X43548Y11627D01*
X43551Y11659D01*
X43548Y11690D01*
X43539Y11720D01*
X43524Y11748D01*
X43504Y11773D01*
X43479Y11793D01*
X43451Y11808D01*
X43421Y11817D01*
X43390Y11820D01*
D02*
G37*
G36*
X42424Y11108D02*
X42389Y11104D01*
X42356Y11090D01*
X42328Y11068D01*
X42306Y11040D01*
X42292Y11007D01*
X42288Y10972D01*
X42292Y10936D01*
X42306Y10903D01*
X42328Y10875D01*
X42356Y10853D01*
X42389Y10840D01*
X42424Y10835D01*
X42460Y10840D01*
X42493Y10853D01*
X42521Y10875D01*
X42543Y10903D01*
X42556Y10936D01*
X42561Y10972D01*
X42556Y11007D01*
X42543Y11040D01*
X42521Y11068D01*
X42493Y11090D01*
X42460Y11104D01*
X42424Y11108D01*
D02*
G37*
G36*
X39141Y10701D02*
Y10338D01*
X39504D01*
X39501Y10384D01*
X39487Y10441D01*
X39464Y10496D01*
X39433Y10546D01*
X39395Y10591D01*
X39350Y10630D01*
X39300Y10661D01*
X39245Y10683D01*
X39188Y10697D01*
X39141Y10701D01*
D02*
G37*
G36*
X38595Y12177D02*
X38572Y12173D01*
X38552Y12159D01*
X38538Y12139D01*
X38534Y12116D01*
X38538Y12092D01*
X38549Y12076D01*
Y11614D01*
X37041Y10106D01*
X37022Y10103D01*
X37002Y10089D01*
X36989Y10069D01*
X36984Y10046D01*
X36989Y10022D01*
X37002Y10002D01*
X37022Y9989D01*
X37046Y9984D01*
X37069Y9989D01*
X37089Y10002D01*
X37103Y10022D01*
X37107Y10041D01*
X38628Y11562D01*
X38628Y11562D01*
X38638Y11577D01*
X38642Y11595D01*
X38642Y11595D01*
Y12076D01*
X38652Y12092D01*
X38657Y12116D01*
X38652Y12139D01*
X38639Y12159D01*
X38619Y12173D01*
X38595Y12177D01*
D02*
G37*
G36*
X52649Y10312D02*
X52286D01*
Y9950D01*
X52332Y9953D01*
X52390Y9967D01*
X52444Y9990D01*
X52495Y10020D01*
X52539Y10059D01*
X52578Y10104D01*
X52609Y10154D01*
X52631Y10209D01*
X52645Y10266D01*
X52649Y10312D01*
D02*
G37*
G36*
X52260D02*
X51898D01*
X51901Y10266D01*
X51915Y10209D01*
X51938Y10154D01*
X51969Y10104D01*
X52007Y10059D01*
X52052Y10020D01*
X52102Y9990D01*
X52157Y9967D01*
X52214Y9953D01*
X52260Y9950D01*
Y10312D01*
D02*
G37*
G36*
X35553Y10000D02*
Y9913D01*
X35631D01*
Y10000D01*
X35553D01*
D02*
G37*
G36*
X35631Y9887D02*
X35553D01*
Y9800D01*
X35631D01*
Y9887D01*
D02*
G37*
G36*
X53162Y16988D02*
Y16942D01*
X53209D01*
X53206Y16953D01*
X53193Y16973D01*
X53173Y16986D01*
X53162Y16988D01*
D02*
G37*
G36*
X53137D02*
X53126Y16986D01*
X53106Y16973D01*
X53093Y16953D01*
X53090Y16942D01*
X53137D01*
Y16988D01*
D02*
G37*
G36*
X53209Y16916D02*
X53162D01*
Y16870D01*
X53173Y16872D01*
X53193Y16886D01*
X53206Y16906D01*
X53209Y16916D01*
D02*
G37*
G36*
X53137D02*
X53090D01*
X53093Y16906D01*
X53106Y16886D01*
X53126Y16872D01*
X53137Y16870D01*
Y16916D01*
D02*
G37*
G36*
X51943Y15477D02*
Y15430D01*
X51989D01*
X51987Y15441D01*
X51974Y15461D01*
X51954Y15475D01*
X51943Y15477D01*
D02*
G37*
G36*
X51918D02*
X51907Y15475D01*
X51887Y15461D01*
X51873Y15441D01*
X51871Y15430D01*
X51918D01*
Y15477D01*
D02*
G37*
G36*
X51714Y15505D02*
Y15418D01*
X51792D01*
Y15505D01*
X51714D01*
D02*
G37*
G36*
X51989Y15405D02*
X51943D01*
Y15359D01*
X51954Y15361D01*
X51974Y15374D01*
X51987Y15394D01*
X51989Y15405D01*
D02*
G37*
G36*
X51918D02*
X51871D01*
X51873Y15394D01*
X51887Y15374D01*
X51907Y15361D01*
X51918Y15359D01*
Y15405D01*
D02*
G37*
G36*
X51714Y15988D02*
Y15900D01*
X51792D01*
Y15988D01*
X51714D01*
D02*
G37*
G36*
X51956Y15947D02*
Y15900D01*
X52002D01*
X52000Y15911D01*
X51987Y15931D01*
X51967Y15945D01*
X51956Y15947D01*
D02*
G37*
G36*
X51930D02*
X51919Y15945D01*
X51899Y15931D01*
X51886Y15911D01*
X51884Y15900D01*
X51930D01*
Y15947D01*
D02*
G37*
G36*
X52002Y15875D02*
X51956D01*
Y15829D01*
X51967Y15831D01*
X51987Y15844D01*
X52000Y15864D01*
X52002Y15875D01*
D02*
G37*
G36*
X51930D02*
X51884D01*
X51886Y15864D01*
X51899Y15844D01*
X51919Y15831D01*
X51930Y15829D01*
Y15875D01*
D02*
G37*
G36*
X49955Y14573D02*
X49843D01*
Y14461D01*
X49863Y14463D01*
X49893Y14476D01*
X49920Y14496D01*
X49940Y14522D01*
X49952Y14553D01*
X49955Y14573D01*
D02*
G37*
G36*
X49817D02*
X49705D01*
X49708Y14553D01*
X49721Y14522D01*
X49741Y14496D01*
X49767Y14476D01*
X49797Y14463D01*
X49817Y14461D01*
Y14573D01*
D02*
G37*
G36*
X51854Y11527D02*
Y11481D01*
X51900D01*
X51898Y11492D01*
X51885Y11512D01*
X51865Y11525D01*
X51854Y11527D01*
D02*
G37*
G36*
X51829D02*
X51818Y11525D01*
X51798Y11512D01*
X51785Y11492D01*
X51782Y11481D01*
X51829D01*
Y11527D01*
D02*
G37*
G36*
X51900Y11455D02*
X51854D01*
Y11409D01*
X51865Y11411D01*
X51885Y11425D01*
X51898Y11445D01*
X51900Y11455D01*
D02*
G37*
G36*
X51829D02*
X51782D01*
X51785Y11445D01*
X51798Y11425D01*
X51818Y11411D01*
X51829Y11409D01*
Y11455D01*
D02*
G37*
G36*
X34298Y10211D02*
X34252D01*
Y10164D01*
X34263Y10167D01*
X34283Y10180D01*
X34296Y10200D01*
X34298Y10211D01*
D02*
G37*
G36*
X34109Y10000D02*
Y9913D01*
X34187D01*
Y10000D01*
X34109D01*
D02*
G37*
G36*
X34187Y9887D02*
X34109D01*
Y9800D01*
X34187D01*
Y9887D01*
D02*
G37*
G36*
X35217Y10283D02*
Y10236D01*
X35263D01*
X35261Y10247D01*
X35248Y10267D01*
X35228Y10280D01*
X35217Y10283D01*
D02*
G37*
G36*
X35192D02*
X35181Y10280D01*
X35161Y10267D01*
X35148Y10247D01*
X35145Y10236D01*
X35192D01*
Y10283D01*
D02*
G37*
G36*
X35263Y10211D02*
X35217D01*
Y10164D01*
X35228Y10167D01*
X35248Y10180D01*
X35261Y10200D01*
X35263Y10211D01*
D02*
G37*
G36*
X35192D02*
X35145D01*
X35148Y10200D01*
X35161Y10180D01*
X35181Y10167D01*
X35192Y10164D01*
Y10211D01*
D02*
G37*
G36*
X35072Y10000D02*
Y9913D01*
X35150D01*
Y10000D01*
X35072D01*
D02*
G37*
G36*
X35150Y9887D02*
X35072D01*
Y9800D01*
X35150D01*
Y9887D01*
D02*
G37*
G36*
X34747Y10283D02*
Y10236D01*
X34794D01*
X34791Y10247D01*
X34778Y10267D01*
X34758Y10280D01*
X34747Y10283D01*
D02*
G37*
G36*
X34722D02*
X34711Y10280D01*
X34691Y10267D01*
X34678Y10247D01*
X34675Y10236D01*
X34722D01*
Y10283D01*
D02*
G37*
G36*
X34794Y10211D02*
X34747D01*
Y10164D01*
X34758Y10167D01*
X34778Y10180D01*
X34791Y10200D01*
X34794Y10211D01*
D02*
G37*
G36*
X34722D02*
X34675D01*
X34678Y10200D01*
X34691Y10180D01*
X34711Y10167D01*
X34722Y10164D01*
Y10211D01*
D02*
G37*
G36*
X34591Y10000D02*
Y9913D01*
X34668D01*
Y10000D01*
X34591D01*
D02*
G37*
G36*
X34668Y9887D02*
X34591D01*
Y9800D01*
X34668D01*
Y9887D01*
D02*
G37*
%LPD*%
D11*
X51016Y17996D02*
Y18707D01*
D14*
X52934Y17742D02*
Y18377D01*
X53683Y16205D02*
X54331D01*
X52173Y17715D02*
X53683Y16205D01*
X52173Y17715D02*
Y18116D01*
X51319Y18970D02*
X52173Y18116D01*
X52553Y17983D02*
X53950Y16586D01*
X52553Y18237D02*
X52807Y17983D01*
X53950Y16586D02*
X54458D01*
X52144Y18237D02*
X52553D01*
X51537Y17983D02*
Y18660D01*
X51299Y18898D02*
X51537Y18660D01*
X51283Y17992D02*
Y18711D01*
Y17983D02*
Y17992D01*
X51168Y18826D02*
X51283Y18711D01*
X48826Y10825D02*
X52596D01*
X48824Y10823D02*
X48826Y10825D01*
X48695Y10823D02*
X48824D01*
X48693Y10825D02*
X48695Y10823D01*
X44623Y10825D02*
X48693D01*
X52596D02*
X54610Y12840D01*
X43790Y11659D02*
X44623Y10825D01*
X54610Y12840D02*
Y13893D01*
X54456Y14048D02*
X54610Y13893D01*
X53353Y14237D02*
Y16256D01*
Y14237D02*
X53543Y14046D01*
X52934Y14300D02*
X53162D01*
X53594D02*
X55232D01*
X53545Y14048D02*
X54456D01*
X53543Y14046D02*
X53545Y14048D01*
X52299Y13665D02*
X52934Y14300D01*
X51708Y16129D02*
Y16332D01*
Y16535D01*
X51105D02*
X51518D01*
X50775Y16205D02*
X51105Y16535D01*
X51152Y16129D02*
X51518D01*
X50898Y15875D02*
X51152Y16129D01*
X50898Y15820D02*
Y15875D01*
X50775Y15697D02*
X50898Y15820D01*
X50963Y15848D02*
X51003Y15887D01*
X50963Y15632D02*
Y15848D01*
X50775Y15443D02*
X50963Y15632D01*
X51156Y16332D02*
X51518D01*
X50775Y15951D02*
X51156Y16332D01*
X50422Y17221D02*
X50775D01*
X46958Y12490D02*
X46996D01*
X50723Y14807D02*
X50840D01*
X50649Y14733D02*
X50723Y14807D01*
X50649Y14699D02*
Y14733D01*
X50840Y14807D02*
X50908Y14739D01*
X50680Y14935D02*
X50775D01*
X50330Y14586D02*
X50680Y14935D01*
X50908Y14739D02*
X51245D01*
X51238Y14935D02*
X51245Y14929D01*
X50775Y14935D02*
X51238D01*
X51067Y15215D02*
X51245D01*
X50914Y15062D02*
X51067Y15215D01*
X50711Y15062D02*
X50914D01*
X51079Y15405D02*
X51245D01*
X50864Y15189D02*
X51079Y15405D01*
X50775Y15189D02*
X50864D01*
X51092Y15697D02*
X51257D01*
X51029Y15634D02*
X51092Y15697D01*
X51029Y15507D02*
Y15634D01*
X50838Y15316D02*
X51029Y15507D01*
X50698Y15316D02*
X50838D01*
X51003Y15887D02*
X51257D01*
X51245Y15215D02*
X51511D01*
X51511Y15405D02*
X51511Y15405D01*
X51245Y15405D02*
X51511D01*
X51245Y14739D02*
X51511D01*
X51506Y14929D02*
X51512Y14923D01*
X51245Y14929D02*
X51506D01*
X51257Y15697D02*
X51512D01*
X51511Y15887D02*
X51512Y15888D01*
X51257Y15887D02*
X51511D01*
X50263Y14313D02*
X50649Y14699D01*
X48819Y14313D02*
X50263D01*
X46996Y12490D02*
X48819Y14313D01*
X50664Y15189D02*
X50775D01*
X50446Y14971D02*
X50664Y15189D01*
X50413Y14971D02*
X50446D01*
X50330Y14889D02*
X50413Y14971D01*
X50330Y14586D02*
X50349D01*
X46774Y12040D02*
X46799Y12065D01*
X50392Y14743D02*
X50711Y15062D01*
X49770Y14743D02*
X50392D01*
X50582Y15443D02*
X50775D01*
X50330Y15192D02*
X50582Y15443D01*
X46574Y12474D02*
X49136Y15037D01*
X50419D02*
X50698Y15316D01*
X35591Y9230D02*
Y9384D01*
X35110Y9230D02*
Y9384D01*
X34629Y9230D02*
Y9384D01*
X34147Y9230D02*
Y9384D01*
X34388Y9900D02*
Y10423D01*
X34869Y9900D02*
Y10193D01*
X35351Y10582D02*
X37947Y13179D01*
X35351Y9900D02*
Y10582D01*
X35351Y9574D02*
Y9900D01*
X34869Y9574D02*
Y9900D01*
X34388D02*
X34388Y9900D01*
Y9574D02*
Y9900D01*
X33907Y9574D02*
X33907Y9574D01*
X33907Y9574D02*
Y9900D01*
X35351Y9074D02*
Y9384D01*
X34869Y9101D02*
Y9384D01*
X34388Y8703D02*
Y9384D01*
X33907Y9121D02*
Y9384D01*
X33907Y9900D02*
Y10043D01*
X35242Y8966D02*
X35351Y9074D01*
X35084Y8966D02*
X35242D01*
X34804Y8687D02*
X35084Y8966D01*
X34604Y8836D02*
X34869Y9101D01*
X34604Y8287D02*
Y8836D01*
X34388Y8703D02*
X34404Y8687D01*
X34204Y8287D02*
Y8823D01*
X33907Y9121D02*
X34204Y8823D01*
X35591Y9574D02*
X35591Y9574D01*
X35351Y9574D02*
X35591D01*
X35110D02*
X35110Y9574D01*
X34869Y9574D02*
X35110D01*
X34629D02*
X34629Y9574D01*
X34388Y9574D02*
X34629D01*
X34147D02*
X34147Y9574D01*
X33907Y9574D02*
X34147D01*
X50427Y18826D02*
X51168D01*
X44780Y13179D02*
X50427Y18826D01*
X37947Y13179D02*
X44780D01*
X44753Y13244D02*
X50406Y18898D01*
X37920Y13244D02*
X44753D01*
X34869Y10193D02*
X37920Y13244D01*
X37857Y13375D02*
X44699D01*
X35023Y10541D02*
X37857Y13375D01*
X34404Y10541D02*
X35023D01*
X37884Y13310D02*
X44726D01*
X35039Y10465D02*
X37884Y13310D01*
X34430Y10465D02*
X35039D01*
X50406Y18898D02*
X51299D01*
X51346Y19035D02*
X52144Y18237D01*
X44699Y13375D02*
X50359Y19035D01*
X44726Y13310D02*
X50386Y18970D01*
X51319D01*
X50359Y19035D02*
X51346D01*
X41567Y15227D02*
X42685D01*
X43072D02*
X44057D01*
X42685D02*
X43066D01*
X45590Y12075D02*
X45606Y12059D01*
X47387Y12462D02*
X48006Y13081D01*
X51016Y17996D02*
X51029Y17983D01*
X50471Y17475D02*
X50775D01*
X51274Y18000D02*
X51283Y17992D01*
X50622Y16459D02*
X50775D01*
X50434Y16205D02*
X50775D01*
X50483Y15951D02*
X50775D01*
X50533Y16967D02*
X50775D01*
X50532Y15697D02*
X50775D01*
X49428Y13081D02*
X50775Y14427D01*
X51274Y17992D02*
X51283Y17983D01*
X50330Y16707D02*
X50769D01*
X34798Y7887D02*
X34988Y7696D01*
X44835Y17031D02*
Y17488D01*
Y17748D02*
Y18320D01*
X46338Y17748D02*
Y18320D01*
Y17031D02*
Y17488D01*
X47841Y17031D02*
Y17488D01*
Y17748D02*
Y18320D01*
X38997Y11666D02*
Y12395D01*
X35617Y8287D02*
X38997Y11666D01*
X39223Y11206D02*
Y12395D01*
X35903Y7887D02*
X39223Y11206D01*
X35877Y8687D02*
X38771Y11580D01*
Y12395D01*
X34988Y7696D02*
X35903D01*
X39449Y11242D02*
Y12395D01*
X38595Y11595D02*
Y12116D01*
X37046Y10046D02*
Y10058D01*
Y10046D02*
X38595Y11595D01*
X48006Y13081D02*
X49428D01*
X45790Y12643D02*
X49403Y16256D01*
X35351Y9900D02*
X35351Y9900D01*
X50182Y16256D02*
X50330Y16404D01*
X49403Y16256D02*
X50182D01*
X34388Y10423D02*
X34430Y10465D01*
X33907Y10043D02*
X34404Y10541D01*
X50330Y15495D02*
X50532Y15697D01*
X50330Y15798D02*
X50483Y15951D01*
X50330Y16101D02*
X50434Y16205D01*
X50330Y16404D02*
X50567D01*
X50622Y16459D01*
X50769Y16707D02*
X50775Y16713D01*
X50330Y17010D02*
X50490D01*
X50533Y16967D01*
X50330Y17313D02*
X50422Y17221D01*
X50330Y17617D02*
X50471Y17475D01*
X42405Y16015D02*
X43853D01*
X43040Y15926D02*
X44539D01*
X49768Y14745D02*
X49770Y14743D01*
X50177Y15342D02*
X50330Y15495D01*
X50179Y15646D02*
X50330Y15798D01*
X49352Y15951D02*
X50180D01*
X50330Y16101D01*
X49517Y16561D02*
X50184D01*
X50330Y16707D01*
X50173Y16853D02*
X50330Y17010D01*
X50176Y17462D02*
X50330Y17617D01*
X46190Y12624D02*
X49212Y15646D01*
X50179D01*
X49212Y15342D02*
X50177D01*
X46190Y12459D02*
Y12624D01*
X45990Y12589D02*
X49352Y15951D01*
X49021Y14745D02*
X49768D01*
X46790Y12514D02*
X49021Y14745D01*
X46790Y12059D02*
Y12514D01*
X49136Y15037D02*
X50419D01*
X46390Y12519D02*
X49212Y15342D01*
X46390Y12059D02*
Y12519D01*
X45990Y12059D02*
Y12589D01*
X45790Y12459D02*
Y12643D01*
X45590Y12633D02*
X49517Y16561D01*
X45580Y12084D02*
X45590Y12075D01*
Y12059D02*
Y12075D01*
Y12633D01*
X45390Y12687D02*
X49555Y16853D01*
X50173D01*
X45390Y12459D02*
Y12687D01*
X44990Y12808D02*
X49644Y17462D01*
X50176D01*
X44990Y12459D02*
Y12808D01*
X47930Y10986D02*
Y11227D01*
X53951Y16331D02*
X54383D01*
X55536Y10793D02*
Y15178D01*
X54383Y16331D02*
X55536Y15178D01*
X55601Y11963D02*
X55601Y15205D01*
X55601Y15205D02*
X55601Y15205D01*
X55601Y15205D02*
Y15443D01*
X54458Y16586D02*
X55601Y15443D01*
X52299Y17983D02*
X53951Y16331D01*
X54254Y9512D02*
X55536Y10793D01*
X55601Y10757D02*
Y11963D01*
X54504Y9661D02*
X55601Y10757D01*
X54504Y9271D02*
Y9661D01*
X54254Y9271D02*
Y9512D01*
X35903Y7696D02*
X39449Y11242D01*
X40665Y13487D02*
X41224Y14046D01*
X39243Y13487D02*
X40665D01*
X39027Y13703D02*
X39243Y13487D01*
X41224Y14046D02*
X41224Y14046D01*
X44729D01*
X35198Y8687D02*
X35204D01*
X35877D01*
X34998Y8287D02*
X35004D01*
X35617D01*
X35198Y7887D02*
X35204D01*
X35903D01*
D18*
X51245Y15405D02*
D03*
Y15215D02*
D03*
X51257Y15887D02*
D03*
Y15697D02*
D03*
X51245Y14929D02*
D03*
Y14739D02*
D03*
X35110Y9384D02*
D03*
Y9574D02*
D03*
X34869Y9384D02*
D03*
Y9574D02*
D03*
X47841Y17031D02*
D03*
Y16841D02*
D03*
X44835Y17031D02*
D03*
Y16841D02*
D03*
X46338Y17031D02*
D03*
Y16841D02*
D03*
X47841Y18510D02*
D03*
Y18320D02*
D03*
X44835Y18510D02*
D03*
Y18320D02*
D03*
X46338Y18510D02*
D03*
Y18320D02*
D03*
X34147Y9574D02*
D03*
Y9384D02*
D03*
X34629Y9574D02*
D03*
Y9384D02*
D03*
X35591Y9574D02*
D03*
Y9384D02*
D03*
X35351Y9574D02*
D03*
Y9384D02*
D03*
X34388Y9574D02*
D03*
Y9384D02*
D03*
X33907Y9574D02*
D03*
Y9384D02*
D03*
D19*
X51708Y16535D02*
D03*
X51518D02*
D03*
X51708Y16332D02*
D03*
X51518D02*
D03*
X51708Y16129D02*
D03*
X51518D02*
D03*
X51511Y15215D02*
D03*
X51701D02*
D03*
X51702Y15405D02*
D03*
X51512D02*
D03*
Y15697D02*
D03*
X51702D02*
D03*
Y15888D02*
D03*
X51512D02*
D03*
X51702Y14923D02*
D03*
X51512D02*
D03*
X51511Y14739D02*
D03*
X51701D02*
D03*
X34869Y9900D02*
D03*
X35059D02*
D03*
X35541D02*
D03*
X35351D02*
D03*
X34578D02*
D03*
X34388D02*
D03*
X34097D02*
D03*
X33907D02*
D03*
D51*
X33020Y9258D02*
X33604Y8674D01*
X51024Y11214D02*
X52053Y12243D01*
X48501Y11214D02*
X51024D01*
X48184Y10897D02*
X48501Y11214D01*
X45889Y10897D02*
X48184D01*
X45175Y11611D02*
X45889Y10897D01*
X45175Y11611D02*
Y11735D01*
X45066Y11844D02*
X45175Y11735D01*
X45004Y11844D02*
X45066D01*
X44790Y12059D02*
X45004Y11844D01*
X45047Y10604D02*
X46012Y9639D01*
X44971Y10046D02*
Y10185D01*
X44844Y9919D02*
X44971Y10046D01*
X38367Y9919D02*
X44844D01*
X33998Y8166D02*
Y8687D01*
X44983Y9741D02*
X45085Y9842D01*
X44738Y10579D02*
X45085Y10233D01*
Y9842D02*
Y10233D01*
X44729Y10579D02*
X44738D01*
X51708Y16129D02*
X52083D01*
X52135Y16077D01*
X52681D01*
X47190Y12059D02*
Y12584D01*
X47801Y13195D01*
X49289D01*
X50775Y14681D01*
X52324Y14605D02*
Y15316D01*
X51943Y15697D02*
X52324Y15316D01*
X51702Y15697D02*
X51943D01*
X51701Y15215D02*
X51905D01*
X51943Y15176D01*
Y14796D02*
Y15176D01*
X51886Y14739D02*
X51943Y14796D01*
X51701Y14739D02*
X51886D01*
X51701Y14593D02*
Y14739D01*
Y14593D02*
X51803Y14491D01*
X52210D02*
X52324Y14605D01*
X51803Y14491D02*
X52210D01*
X33045Y12349D02*
X33312Y12615D01*
Y12624D01*
X38417Y9741D02*
X44983D01*
X36208Y7531D02*
X38417Y9741D01*
X52681Y14962D02*
Y16077D01*
X52324Y14605D02*
X52681Y14962D01*
X52347Y13193D02*
X52400D01*
X52700Y13127D02*
Y13193D01*
X54331Y13221D02*
Y13665D01*
X52045Y13056D02*
Y13665D01*
X54077Y13267D02*
Y13665D01*
X51791Y13094D02*
Y13665D01*
X53823Y13263D02*
Y13665D01*
X51537Y13005D02*
Y13665D01*
X53053Y12493D02*
X53823Y13263D01*
X53053Y12243D02*
X54077Y13267D01*
X54331Y13919D02*
X54521Y13729D01*
Y13170D02*
Y13729D01*
X52616Y13043D02*
X52700Y13127D01*
X42359Y14470D02*
X43265D01*
X33045Y9639D02*
X33998Y8687D01*
X43332Y17488D02*
X43447D01*
X43523Y17412D01*
X43518Y17407D02*
X43523Y17412D01*
X43518Y17155D02*
Y17407D01*
X50755Y12059D02*
X51791Y13094D01*
X43518Y17155D02*
X43831D01*
X44145Y16841D01*
X44835D01*
X46338D01*
X47841D01*
X46907Y11341D02*
X50660Y11341D01*
X52362Y13043D01*
X52616D01*
X47231Y11417D02*
X50571Y11417D01*
X52347Y13193D01*
X50990Y12459D02*
X51537Y13005D01*
X48152Y11862D02*
X50851D01*
X52045Y13056D01*
X52553Y12243D02*
X52832Y11963D01*
X53315D01*
X54521Y13170D01*
X52803Y12243D02*
X52993Y12052D01*
X53162D01*
X54331Y13221D01*
X35001Y17488D02*
X43332D01*
X46590Y11659D02*
X46907Y11341D01*
X46990Y11659D02*
X47231Y11417D01*
X46190Y11659D02*
X46393Y11862D01*
X48152Y11862D01*
X47590Y12059D02*
X50755D01*
X47790Y12459D02*
X50990D01*
X41419Y14470D02*
X42359D01*
X41381D02*
X41419D01*
X33045Y9639D02*
Y12349D01*
X46012Y9639D02*
X52886D01*
X53254Y9271D01*
X45669Y10173D02*
X46114Y9728D01*
X53047D01*
X53504Y9271D01*
X33998Y8166D02*
X34212Y7951D01*
Y7723D02*
Y7951D01*
X33312Y15799D02*
X35001Y17488D01*
X33312Y12624D02*
Y15799D01*
X40500Y13589D02*
X41381Y14470D01*
X39726Y13589D02*
X40500D01*
X28854Y12306D02*
X28854Y9398D01*
X28854Y12306D02*
X29172Y12624D01*
X34212Y7723D02*
X34328Y7607D01*
X36055D01*
X38367Y9919D01*
X28854Y9398D02*
X30721Y7531D01*
X36208D01*
D52*
X52180Y19131D02*
X52934Y18377D01*
X34701Y19131D02*
X52180D01*
X31215Y15645D02*
X34701Y19131D01*
X31215Y12624D02*
Y15645D01*
X34150Y15841D02*
X38287D01*
X34150Y14961D02*
X38875D01*
X40043Y13792D01*
X38287Y15841D02*
X40335Y13792D01*
X29172Y12116D02*
X31215D01*
D53*
X43590Y12059D02*
D03*
X43390Y11659D02*
D03*
Y12459D02*
D03*
X43790D02*
D03*
X44190D02*
D03*
X44590D02*
D03*
X44990D02*
D03*
X45390D02*
D03*
X45790D02*
D03*
X46190D02*
D03*
X46590D02*
D03*
X46990D02*
D03*
X47390D02*
D03*
X47790D02*
D03*
Y11659D02*
D03*
X47390D02*
D03*
X46990D02*
D03*
X46590D02*
D03*
X46190D02*
D03*
X45790D02*
D03*
X45390D02*
D03*
X44990D02*
D03*
X44590D02*
D03*
X44190D02*
D03*
X43790D02*
D03*
X44390Y12059D02*
D03*
X44790D02*
D03*
X45190D02*
D03*
X45590D02*
D03*
X45990D02*
D03*
X46390D02*
D03*
X46790D02*
D03*
X47190D02*
D03*
X47590D02*
D03*
X43990D02*
D03*
X34404Y8687D02*
D03*
X34804D02*
D03*
X35204D02*
D03*
X35004Y8287D02*
D03*
X34604D02*
D03*
X34204D02*
D03*
X33804D02*
D03*
X33604Y8687D02*
D03*
X34004D02*
D03*
X33604Y7887D02*
D03*
X35204D02*
D03*
X34804D02*
D03*
X34404D02*
D03*
X34004D02*
D03*
D54*
X51029Y13665D02*
D03*
X51283D02*
D03*
X51537D02*
D03*
X51791D02*
D03*
X52045D02*
D03*
X52299D02*
D03*
X52553D02*
D03*
X52807D02*
D03*
X53061D02*
D03*
X53315D02*
D03*
X53569D02*
D03*
X53823D02*
D03*
X54077D02*
D03*
X54331D02*
D03*
Y13919D02*
D03*
Y14173D02*
D03*
Y14427D02*
D03*
Y14681D02*
D03*
Y14935D02*
D03*
Y15189D02*
D03*
Y15443D02*
D03*
Y15697D02*
D03*
Y15951D02*
D03*
Y16205D02*
D03*
Y16459D02*
D03*
Y16713D02*
D03*
Y16967D02*
D03*
Y17221D02*
D03*
Y17475D02*
D03*
Y17729D02*
D03*
Y17983D02*
D03*
X54077D02*
D03*
X53823D02*
D03*
X53569D02*
D03*
X53315D02*
D03*
X53061D02*
D03*
X52807D02*
D03*
X52553D02*
D03*
X52299D02*
D03*
X52045D02*
D03*
X51791D02*
D03*
X51537D02*
D03*
X51283D02*
D03*
X51029D02*
D03*
X50775D02*
D03*
Y17729D02*
D03*
Y17475D02*
D03*
Y17221D02*
D03*
Y16967D02*
D03*
Y16713D02*
D03*
Y16459D02*
D03*
Y16205D02*
D03*
Y15951D02*
D03*
Y15697D02*
D03*
Y15443D02*
D03*
Y15189D02*
D03*
Y14935D02*
D03*
Y14681D02*
D03*
Y14427D02*
D03*
Y14173D02*
D03*
Y13919D02*
D03*
Y13665D02*
D03*
X52700Y13193D02*
D03*
X52400D02*
D03*
X35338Y12700D02*
D03*
Y12446D02*
D03*
D55*
X30467Y8649D02*
D03*
Y9169D02*
D03*
X25997Y8649D02*
D03*
Y9169D02*
D03*
D56*
X64282Y9392D02*
D03*
X64732Y8972D02*
D03*
Y8522D02*
D03*
X64282D02*
D03*
X60261Y9417D02*
D03*
X60711Y8997D02*
D03*
Y8547D02*
D03*
X60261D02*
D03*
X56281Y9386D02*
D03*
X56731Y8966D02*
D03*
Y8516D02*
D03*
X56281D02*
D03*
D57*
X49830Y14586D02*
D03*
X50330D02*
D03*
X49830Y14889D02*
D03*
X50330D02*
D03*
X49830Y15192D02*
D03*
X50330D02*
D03*
X49830Y15495D02*
D03*
X50330D02*
D03*
Y15798D02*
D03*
X49830D02*
D03*
X50330Y16101D02*
D03*
X49830D02*
D03*
X50330Y16404D02*
D03*
X49830D02*
D03*
X50330Y16707D02*
D03*
X49830D02*
D03*
Y17010D02*
D03*
X50330D02*
D03*
X49830Y17313D02*
D03*
X50330D02*
D03*
X49830Y17617D02*
D03*
X50330D02*
D03*
X33312Y12116D02*
D03*
Y12370D02*
D03*
Y12624D02*
D03*
X55232Y14050D02*
D03*
Y14300D02*
D03*
Y14550D02*
D03*
X31215Y12116D02*
D03*
Y12370D02*
D03*
Y12624D02*
D03*
X29172D02*
D03*
Y12370D02*
D03*
Y12116D02*
D03*
X53254Y9271D02*
D03*
X53504D02*
D03*
X53754D02*
D03*
X54004D02*
D03*
X54254D02*
D03*
X54504D02*
D03*
X54754D02*
D03*
X55004D02*
D03*
X40335Y13792D02*
D03*
X40043D02*
D03*
D58*
X29695Y7818D02*
D03*
X29945D02*
D03*
D59*
X32700Y14961D02*
D03*
X34150D02*
D03*
X32700Y15841D02*
D03*
X34150D02*
D03*
D60*
X53053Y12493D02*
D03*
X52803D02*
D03*
X52553D02*
D03*
X52303D02*
D03*
X52053D02*
D03*
Y12243D02*
D03*
X52303D02*
D03*
X52553D02*
D03*
X52803D02*
D03*
X53053D02*
D03*
D61*
X44835Y17748D02*
D03*
Y17488D02*
D03*
X47841Y17748D02*
D03*
Y17488D02*
D03*
X43332Y17748D02*
D03*
Y17488D02*
D03*
X46338Y17748D02*
D03*
Y17488D02*
D03*
D62*
X35338Y12192D02*
D03*
D63*
X27330Y10541D02*
D03*
X34036Y17628D02*
D03*
X57099D02*
D03*
X65380Y10541D02*
D03*
X39129Y10325D02*
D03*
X52273D02*
D03*
D64*
X53149Y16929D02*
D03*
X51841Y11468D02*
D03*
X51943Y15888D02*
D03*
X51930Y15418D02*
D03*
X51841Y14923D02*
D03*
X52997D02*
D03*
Y15189D02*
D03*
X45783Y15215D02*
D03*
X30391Y13475D02*
D03*
X31775Y8077D02*
D03*
X45783Y14884D02*
D03*
X41694Y15329D02*
D03*
X63830Y9843D02*
D03*
X59665Y9792D02*
D03*
X55880Y11659D02*
D03*
X43243Y14935D02*
D03*
X43523Y15697D02*
D03*
X41567Y15227D02*
D03*
X43072D02*
D03*
X42685D02*
D03*
X44057D02*
D03*
X38771Y12395D02*
D03*
X38997D02*
D03*
X39223D02*
D03*
X39449D02*
D03*
X42359Y14470D02*
D03*
X43265D02*
D03*
X38595Y12116D02*
D03*
X43518Y17155D02*
D03*
X37325Y13729D02*
D03*
X42418Y15507D02*
D03*
X40945Y16091D02*
D03*
X40856Y16650D02*
D03*
X40170Y16535D02*
D03*
X42227Y14668D02*
D03*
X43231Y15138D02*
D03*
X40652Y16497D02*
D03*
X37046Y10046D02*
D03*
X41419Y14470D02*
D03*
X43853Y16015D02*
D03*
X42405D02*
D03*
X43040Y15926D02*
D03*
X44539D02*
D03*
X47930Y11227D02*
D03*
Y10986D02*
D03*
X39726Y13589D02*
D03*
X38379Y14275D02*
D03*
X34239Y10224D02*
D03*
X34735D02*
D03*
X35204D02*
D03*
D65*
X52934Y17742D02*
D03*
X53162Y14300D02*
D03*
X53594D02*
D03*
X53353Y16256D02*
D03*
X45047Y10604D02*
D03*
X33033Y9240D02*
D03*
X35591Y9230D02*
D03*
X34629D02*
D03*
X35110D02*
D03*
X34147D02*
D03*
X41745Y16116D02*
D03*
X51016Y18707D02*
D03*
D66*
X44971Y10185D02*
D03*
X45669Y10173D02*
D03*
X44729Y10579D02*
D03*
X39019Y13703D02*
D03*
X44729Y14046D02*
D03*
D67*
X52681Y16077D02*
D03*
X40449Y11659D02*
D03*
D68*
X41149Y10743D02*
X52653D01*
X40449Y11443D02*
X41149Y10743D01*
X52653D02*
X55232Y13322D01*
X40449Y11443D02*
Y11659D01*
X55232Y13322D02*
Y14050D01*
M02*
