G04*
G04 #@! TF.GenerationSoftware,Altium Limited,Altium Designer,18.0.11 (651)*
G04*
G04 Layer_Color=8421504*
%FSLAX42Y42*%
%MOMM*%
G71*
G01*
G75*
%ADD18R,1.50X1.30*%
%ADD19R,1.30X1.50*%
%ADD20R,0.60X1.45*%
%ADD21R,2.60X1.50*%
%ADD22R,0.90X1.00*%
%ADD23O,0.60X1.45*%
%ADD24R,4.30X1.95*%
%ADD25R,1.45X0.60*%
%ADD26R,0.90X0.80*%
D18*
X25133Y8789D02*
D03*
Y8979D02*
D03*
X29680Y12814D02*
D03*
Y12624D02*
D03*
X28486D02*
D03*
Y12434D02*
D03*
X29677Y12116D02*
D03*
Y12306D02*
D03*
X42913Y16351D02*
D03*
Y16161D02*
D03*
X42723D02*
D03*
Y16351D02*
D03*
X42407Y16148D02*
D03*
Y16338D02*
D03*
X43383Y16351D02*
D03*
Y16161D02*
D03*
X42202Y16338D02*
D03*
Y16148D02*
D03*
X43167Y16351D02*
D03*
Y16161D02*
D03*
X25362Y9614D02*
D03*
Y9424D02*
D03*
X38771Y12776D02*
D03*
Y12586D02*
D03*
X38997Y12776D02*
D03*
Y12586D02*
D03*
X39223Y12776D02*
D03*
Y12586D02*
D03*
X39449D02*
D03*
Y12776D02*
D03*
X39675Y12586D02*
D03*
Y12776D02*
D03*
X38529Y13798D02*
D03*
Y13608D02*
D03*
X33652Y12624D02*
D03*
Y12814D02*
D03*
X35655Y12890D02*
D03*
Y12700D02*
D03*
X31723Y12814D02*
D03*
Y12624D02*
D03*
X34566Y12700D02*
D03*
Y12510D02*
D03*
X35655Y12192D02*
D03*
Y12382D02*
D03*
X33652Y12116D02*
D03*
Y12306D02*
D03*
X30523Y12624D02*
D03*
Y12434D02*
D03*
X31733Y12116D02*
D03*
Y12306D02*
D03*
X57576Y9167D02*
D03*
Y8977D02*
D03*
X61597Y9180D02*
D03*
Y8990D02*
D03*
X65587Y9155D02*
D03*
Y8965D02*
D03*
X41560Y16302D02*
D03*
Y16112D02*
D03*
X40367Y16216D02*
D03*
Y16406D02*
D03*
X43518Y16787D02*
D03*
Y16977D02*
D03*
X41694Y15503D02*
D03*
Y15693D02*
D03*
X42788Y15503D02*
D03*
Y15693D02*
D03*
X42507Y14870D02*
D03*
Y15060D02*
D03*
X41567D02*
D03*
Y14870D02*
D03*
X43772Y15697D02*
D03*
Y15507D02*
D03*
X43548Y15060D02*
D03*
Y14870D02*
D03*
X51171Y17221D02*
D03*
Y17411D02*
D03*
X51765D02*
D03*
Y17221D02*
D03*
D19*
X41859Y13907D02*
D03*
X41669D02*
D03*
X42883D02*
D03*
X42693D02*
D03*
X43867D02*
D03*
X43677D02*
D03*
X29540Y8649D02*
D03*
X29730D02*
D03*
X31433D02*
D03*
X31242D02*
D03*
X31433Y9169D02*
D03*
X31242D02*
D03*
X29540D02*
D03*
X29730D02*
D03*
X41148Y11659D02*
D03*
X40958D02*
D03*
X25552Y8979D02*
D03*
X25362D02*
D03*
X64087Y10203D02*
D03*
X63897D02*
D03*
X60107Y10238D02*
D03*
X59917D02*
D03*
X56063Y9954D02*
D03*
X55873D02*
D03*
X56906D02*
D03*
X56716D02*
D03*
X60900Y10238D02*
D03*
X60710D02*
D03*
X64919Y10203D02*
D03*
X64729D02*
D03*
X64497D02*
D03*
X64307D02*
D03*
X60507Y10238D02*
D03*
X60317D02*
D03*
X56473Y9954D02*
D03*
X56283D02*
D03*
X41065Y16743D02*
D03*
X41255D02*
D03*
X41065Y17018D02*
D03*
X41255D02*
D03*
X39954Y15512D02*
D03*
X40144D02*
D03*
X39978Y16216D02*
D03*
X40168D02*
D03*
X40557D02*
D03*
X40747D02*
D03*
X41770Y14266D02*
D03*
X41580D02*
D03*
X41770Y14470D02*
D03*
X41580D02*
D03*
X42788Y14266D02*
D03*
X42597D02*
D03*
X42788Y14470D02*
D03*
X42597D02*
D03*
X43582D02*
D03*
X43772D02*
D03*
X43582Y14266D02*
D03*
X43772D02*
D03*
D20*
Y15060D02*
D03*
X43962D02*
D03*
Y14790D02*
D03*
X43867D02*
D03*
X43772D02*
D03*
X42788D02*
D03*
X42883D02*
D03*
X42977D02*
D03*
Y15060D02*
D03*
X42788D02*
D03*
X41764Y14790D02*
D03*
X41859D02*
D03*
X41954D02*
D03*
Y15060D02*
D03*
X41764D02*
D03*
X43962Y15423D02*
D03*
X44057D02*
D03*
X44152D02*
D03*
Y15693D02*
D03*
X43962D02*
D03*
X42977D02*
D03*
X43167D02*
D03*
Y15423D02*
D03*
X43072D02*
D03*
X42977D02*
D03*
X41955Y15693D02*
D03*
X42145D02*
D03*
Y15423D02*
D03*
X42050D02*
D03*
X41955D02*
D03*
X40462Y16748D02*
D03*
X40557D02*
D03*
X40652D02*
D03*
Y17018D02*
D03*
X40462D02*
D03*
D21*
X30201Y12497D02*
D03*
Y12790D02*
D03*
X32436Y12521D02*
D03*
Y12814D02*
D03*
X34214Y12597D02*
D03*
Y12890D02*
D03*
X28169Y12521D02*
D03*
Y12814D02*
D03*
D22*
X41161Y16307D02*
D03*
X41066Y16507D02*
D03*
X41256D02*
D03*
X40462Y15940D02*
D03*
X40557Y15740D02*
D03*
X40367D02*
D03*
D23*
X43296Y17155D02*
D03*
X43168D02*
D03*
X43042D02*
D03*
X42915D02*
D03*
X42788D02*
D03*
X42661D02*
D03*
X42534D02*
D03*
X42407D02*
D03*
X43296Y16610D02*
D03*
X43168D02*
D03*
X43042D02*
D03*
X42915D02*
D03*
X42788D02*
D03*
X42661D02*
D03*
X42534D02*
D03*
X42407D02*
D03*
X38765Y13431D02*
D03*
X38892D02*
D03*
X39019D02*
D03*
X39146D02*
D03*
X39273D02*
D03*
X39400D02*
D03*
X39527D02*
D03*
X39654D02*
D03*
X38765Y13976D02*
D03*
X38892D02*
D03*
X39019D02*
D03*
X39146D02*
D03*
X39273D02*
D03*
X39400D02*
D03*
X39527D02*
D03*
X39654D02*
D03*
D24*
X41217Y15105D02*
D03*
X40557D02*
D03*
D25*
X41296Y15936D02*
D03*
Y15746D02*
D03*
X41026D02*
D03*
Y15841D02*
D03*
Y15936D02*
D03*
D26*
X51448Y17081D02*
D03*
Y17221D02*
D03*
M02*
